#N canvas 216 596 1402 677 12;
#X obj 45 22 inlet;
#X obj 92 539 outlet;
#X obj 125 23 inlet;
#X obj 125 47 u_dispatch \$0 reset;
#X obj 401 72 vsl 25 100 0 100 0 0 empty empty empty 0 -9 0 10 -262144
-1 -1 9900 1;
#X obj 256 447 i;
#X obj 256 471 s \$0-seq;
#X obj 426 72 vsl 25 100 0 100 0 0 empty empty empty 0 -9 0 10 -262144
-1 -1 3000 1;
#X obj 358 452 i;
#X obj 358 476 s \$0-seq;
#X obj 451 72 vsl 25 100 0 100 0 0 empty empty empty 0 -9 0 10 -262144
-1 -1 4200 1;
#X obj 360 541 i;
#X obj 360 565 s \$0-seq;
#X obj 476 72 vsl 25 100 0 100 0 0 empty empty empty 0 -9 0 10 -262144
-1 -1 6000 1;
#X obj 462 546 i;
#X obj 462 570 s \$0-seq;
#X obj 501 72 vsl 25 100 0 100 0 0 empty empty empty 0 -9 0 10 -262144
-1 -1 2900 1;
#X obj 455 439 i;
#X obj 455 463 s \$0-seq;
#X obj 526 72 vsl 25 100 0 100 0 0 empty empty empty 0 -9 0 10 -262144
-1 -1 3800 1;
#X obj 557 444 i;
#X obj 557 468 s \$0-seq;
#X obj 551 72 vsl 25 100 0 100 0 0 empty empty empty 0 -9 0 10 -262144
-1 -1 6200 1;
#X obj 559 533 i;
#X obj 559 557 s \$0-seq;
#X obj 576 72 vsl 25 100 0 100 0 0 empty empty empty 0 -9 0 10 -262144
-1 -1 2100 1;
#X obj 661 538 i;
#X obj 661 562 s \$0-seq;
#X obj 77 111 i;
#X obj 58 55 t b;
#X obj 109 111 + 1;
#X obj 94 263 r \$0-seq;
#X obj 387 347 r \$0-triggers;
#X obj 75 200 s \$0-triggers;
#X msg 149 112 0;
#X msg 47 167 \$1 bang;
#X obj 116 152 sel 8;
#X obj 155 85 r \$0-reset;
#X obj 94 290 t b f;
#X obj 60 348 random 99;
#X obj 108 392 <;
#X floatatom 45 397 5 0 0 0 - - -;
#X floatatom 143 329 5 0 0 0 - - -;
#X obj 108 416 sel 1;
#X obj 401 176 hradio 25 1 0 16 empty \$0-stage-count empty 0 -8 0
10 -262144 -1 -1 1;
#X obj 21 226 s \$0-stage-count;
#X floatatom 401 51 5 1 16 0 - - -;
#X obj 444 54 bng 15 250 50 0 empty \$0-output-bang empty 17 7 0 10
-262144 -1 -1;
#X obj 114 450 t b b;
#X obj 116 506 s \$0-output-bang;
#X obj 601 72 vsl 25 100 0 100 0 0 empty empty empty 0 -9 0 10 -262144
-1 -1 2500 1;
#X obj 668 436 i;
#X obj 668 460 s \$0-seq;
#X obj 626 72 vsl 25 100 0 100 0 0 empty empty empty 0 -9 0 10 -262144
-1 -1 9900 1;
#X obj 770 441 i;
#X obj 770 465 s \$0-seq;
#X obj 651 72 vsl 25 100 0 100 0 0 empty empty empty 0 -9 0 10 -262144
-1 -1 3500 1;
#X obj 772 530 i;
#X obj 772 554 s \$0-seq;
#X obj 676 72 vsl 25 100 0 100 0 0 empty empty empty 0 -9 0 10 -262144
-1 -1 2900 1;
#X obj 874 535 i;
#X obj 874 559 s \$0-seq;
#X obj 701 72 vsl 25 100 0 100 0 0 empty empty empty 0 -9 0 10 -262144
-1 -1 5700 1;
#X obj 867 428 i;
#X obj 867 452 s \$0-seq;
#X obj 726 72 vsl 25 100 0 100 0 0 empty empty empty 0 -9 0 10 -262144
-1 -1 1900 1;
#X obj 969 433 i;
#X obj 969 457 s \$0-seq;
#X obj 751 72 vsl 25 100 0 100 0 0 empty empty empty 0 -9 0 10 -262144
-1 -1 3500 1;
#X obj 971 522 i;
#X obj 971 546 s \$0-seq;
#X obj 776 72 vsl 25 100 0 100 0 0 empty empty empty 0 -9 0 10 -262144
-1 -1 4900 1;
#X obj 1073 527 i;
#X obj 1073 551 s \$0-seq;
#X obj 387 375 route 0 1 2 3 4 5 6 7 8 9 10 11 12 13 14 15;
#X obj 417 269 pack f f f f f f f f f f f f f f f f f;
#X obj 397 237 i;
#X obj 476 14 unpack f f f f f f f f f f f f f f f f f;
#X obj 833 10 r \$0-loadstate;
#X obj 450 301 savestate;
#X obj 515 331 s \$0-loadstate;
#X floatatom 197 221 5 0 0 0 - - -;
#X connect 0 0 29 0;
#X connect 2 0 3 0;
#X connect 4 0 5 1;
#X connect 4 0 75 1;
#X connect 5 0 6 0;
#X connect 7 0 8 1;
#X connect 7 0 75 2;
#X connect 8 0 9 0;
#X connect 10 0 11 1;
#X connect 10 0 75 3;
#X connect 11 0 12 0;
#X connect 13 0 14 1;
#X connect 13 0 75 4;
#X connect 14 0 15 0;
#X connect 16 0 17 1;
#X connect 16 0 75 5;
#X connect 17 0 18 0;
#X connect 19 0 20 1;
#X connect 19 0 75 6;
#X connect 20 0 21 0;
#X connect 22 0 23 1;
#X connect 22 0 75 7;
#X connect 23 0 24 0;
#X connect 25 0 26 1;
#X connect 25 0 75 8;
#X connect 26 0 27 0;
#X connect 28 0 30 0;
#X connect 28 0 35 0;
#X connect 28 0 45 0;
#X connect 28 0 81 0;
#X connect 29 0 28 0;
#X connect 30 0 28 1;
#X connect 30 0 36 0;
#X connect 31 0 38 0;
#X connect 32 0 74 0;
#X connect 34 0 28 1;
#X connect 35 0 33 0;
#X connect 36 0 34 0;
#X connect 37 0 34 0;
#X connect 38 0 39 0;
#X connect 38 1 40 1;
#X connect 38 1 42 0;
#X connect 39 0 40 0;
#X connect 39 0 41 0;
#X connect 40 0 43 0;
#X connect 43 0 48 0;
#X connect 46 0 36 1;
#X connect 46 0 76 1;
#X connect 48 0 1 0;
#X connect 48 1 49 0;
#X connect 50 0 51 1;
#X connect 50 0 75 9;
#X connect 51 0 52 0;
#X connect 53 0 54 1;
#X connect 53 0 75 10;
#X connect 54 0 55 0;
#X connect 56 0 57 1;
#X connect 56 0 75 11;
#X connect 57 0 58 0;
#X connect 59 0 60 1;
#X connect 59 0 75 12;
#X connect 60 0 61 0;
#X connect 62 0 63 1;
#X connect 62 0 75 13;
#X connect 63 0 64 0;
#X connect 65 0 66 1;
#X connect 65 0 75 14;
#X connect 66 0 67 0;
#X connect 68 0 69 1;
#X connect 68 0 75 15;
#X connect 69 0 70 0;
#X connect 71 0 72 1;
#X connect 71 0 75 16;
#X connect 72 0 73 0;
#X connect 74 0 5 0;
#X connect 74 1 8 0;
#X connect 74 2 11 0;
#X connect 74 3 14 0;
#X connect 74 4 17 0;
#X connect 74 5 20 0;
#X connect 74 6 23 0;
#X connect 74 7 26 0;
#X connect 74 8 51 0;
#X connect 74 9 54 0;
#X connect 74 10 57 0;
#X connect 74 11 60 0;
#X connect 74 12 63 0;
#X connect 74 13 66 0;
#X connect 74 14 69 0;
#X connect 74 15 72 0;
#X connect 75 0 79 0;
#X connect 76 0 75 0;
#X connect 77 0 46 0;
#X connect 77 1 4 0;
#X connect 77 2 7 0;
#X connect 77 3 10 0;
#X connect 77 4 13 0;
#X connect 77 5 16 0;
#X connect 77 6 19 0;
#X connect 77 7 22 0;
#X connect 77 8 25 0;
#X connect 77 9 50 0;
#X connect 77 10 53 0;
#X connect 77 11 56 0;
#X connect 77 12 59 0;
#X connect 77 13 62 0;
#X connect 77 14 65 0;
#X connect 77 15 68 0;
#X connect 77 16 71 0;
#X connect 78 0 77 0;
#X connect 79 0 80 0;
#X connect 79 1 76 0;
#X coords 0 -1 1 1 402 152 2 400 50;
