#N canvas 989 255 552 337 12;
#X obj 222 63 clip~ -1 1;
#X obj 222 87 snapshot~;
#X obj 178 63 bang~;
#X obj 222 111 + 1;
#X obj 63 174 >> 0;
#X obj 113 174 >> 1;
#X obj 162 174 >> 2;
#X obj 212 174 >> 3;
#X obj 262 174 >> 4;
#X obj 312 174 >> 5;
#X obj 362 174 >> 6;
#X obj 412 174 >> 7;
#X obj 63 198 & 1;
#X obj 113 198 & 1;
#X obj 162 198 & 1;
#X obj 212 198 & 1;
#X obj 262 198 & 1;
#X obj 312 198 & 1;
#X obj 362 198 & 1;
#X obj 412 198 & 1;
#X obj 63 222 outlet;
#X obj 113 222 outlet;
#X obj 162 222 outlet;
#X obj 212 222 outlet;
#X obj 262 222 outlet;
#X obj 312 222 outlet;
#X obj 362 222 outlet;
#X obj 412 222 outlet;
#X obj 222 39 inlet~;
#X obj 222 135 * 127.5;
#X connect 0 0 1 0;
#X connect 1 0 3 0;
#X connect 2 0 1 0;
#X connect 3 0 29 0;
#X connect 4 0 12 0;
#X connect 5 0 13 0;
#X connect 6 0 14 0;
#X connect 7 0 15 0;
#X connect 8 0 16 0;
#X connect 9 0 17 0;
#X connect 10 0 18 0;
#X connect 11 0 19 0;
#X connect 12 0 20 0;
#X connect 13 0 21 0;
#X connect 14 0 22 0;
#X connect 15 0 23 0;
#X connect 16 0 24 0;
#X connect 17 0 25 0;
#X connect 18 0 26 0;
#X connect 19 0 27 0;
#X connect 28 0 0 0;
#X connect 29 0 4 0;
#X connect 29 0 5 0;
#X connect 29 0 6 0;
#X connect 29 0 7 0;
#X connect 29 0 8 0;
#X connect 29 0 9 0;
#X connect 29 0 10 0;
#X connect 29 0 11 0;
