#N canvas 659 234 1088 783 12;
#X obj 787 529 spigot;
#X obj 711 370 tgl 15 0 empty empty empty 17 7 0 10 -262144 -1 -1 1
1;
#X obj 711 352 bng 15 250 50 0 empty empty empty 17 7 0 10 -262144
-1 -1;
#X obj 152 352 env_sec2;
#X obj 298 140 t b b b b b b b b;
#X msg 207 321 save;
#X obj 291 606 list;
#X obj 200 187 list split 4;
#X obj 168 262 list prepend load;
#X obj 222 352 env_sec2;
#X msg 277 321 save;
#X obj 345 569 list;
#X obj 259 221 list split 4;
#X obj 254 295 list prepend load;
#X obj 292 352 env_sec2;
#X msg 347 321 save;
#X obj 431 606 list;
#X obj 340 187 list split 4;
#X obj 308 262 list prepend load;
#X obj 362 352 env_sec2;
#X msg 417 321 save;
#X obj 485 569 list;
#X obj 399 221 list split 4;
#X obj 394 295 list prepend load;
#X obj 432 352 env_sec2;
#X msg 487 321 save;
#X obj 571 606 list;
#X obj 480 187 list split 4;
#X obj 448 262 list prepend load;
#X obj 502 352 env_sec2;
#X msg 557 321 save;
#X obj 625 569 list;
#X obj 539 221 list split 4;
#X obj 534 295 list prepend load;
#X obj 572 352 env_sec2;
#X msg 627 321 save;
#X obj 711 606 list;
#X obj 620 187 list split 4;
#X obj 588 262 list prepend load;
#X obj 642 352 env_sec2;
#X msg 697 321 save;
#X obj 679 221 list split 4;
#X obj 674 295 list prepend load;
#X obj 257 60 savestate;
#X obj 293 645 s \$0-allstate;
#X obj 299 23 r \$0-allstate;
#X obj 175 608 vline~;
#X obj 170 697 outlet~;
#X obj 718 556 list;
#X obj 801 266 list split 1;
#X obj 711 496 bng 15 250 50 0 empty empty empty 17 7 0 10 -262144
-1 -1;
#X obj 780 655 outlet~;
#X obj 59 173 t b;
#X obj 780 582 ping;
#X obj 70 82 inlet;
#X obj 69 117 route bang run;
#X obj 113 148 sel 1 0;
#X obj 113 192 t b;
#X msg 123 265 stop;
#X connect 0 0 2 0;
#X connect 1 0 0 1;
#X connect 1 0 48 1;
#X connect 2 0 3 0;
#X connect 3 0 46 0;
#X connect 3 1 6 0;
#X connect 3 2 9 0;
#X connect 4 0 5 0;
#X connect 4 1 10 0;
#X connect 4 2 15 0;
#X connect 4 3 20 0;
#X connect 4 4 25 0;
#X connect 4 5 30 0;
#X connect 4 6 35 0;
#X connect 4 7 40 0;
#X connect 5 0 3 1;
#X connect 6 0 44 0;
#X connect 7 0 8 0;
#X connect 7 1 12 0;
#X connect 8 0 3 1;
#X connect 9 0 46 0;
#X connect 9 1 11 0;
#X connect 9 2 14 0;
#X connect 10 0 9 1;
#X connect 11 0 6 1;
#X connect 12 0 13 0;
#X connect 12 1 17 0;
#X connect 13 0 9 1;
#X connect 14 0 46 0;
#X connect 14 1 16 0;
#X connect 14 2 19 0;
#X connect 15 0 14 1;
#X connect 16 0 11 1;
#X connect 17 0 18 0;
#X connect 17 1 22 0;
#X connect 18 0 14 1;
#X connect 19 0 46 0;
#X connect 19 1 21 0;
#X connect 19 2 24 0;
#X connect 20 0 19 1;
#X connect 21 0 16 1;
#X connect 22 0 23 0;
#X connect 22 1 27 0;
#X connect 23 0 19 1;
#X connect 24 0 46 0;
#X connect 24 1 26 0;
#X connect 24 2 29 0;
#X connect 25 0 24 1;
#X connect 26 0 21 1;
#X connect 27 0 28 0;
#X connect 27 1 32 0;
#X connect 28 0 24 1;
#X connect 29 0 46 0;
#X connect 29 1 31 0;
#X connect 29 2 34 0;
#X connect 30 0 29 1;
#X connect 31 0 26 1;
#X connect 32 0 33 0;
#X connect 32 1 37 0;
#X connect 33 0 29 1;
#X connect 34 0 46 0;
#X connect 34 1 36 0;
#X connect 34 2 39 0;
#X connect 35 0 34 1;
#X connect 36 0 31 1;
#X connect 37 0 38 0;
#X connect 37 1 41 0;
#X connect 38 0 34 1;
#X connect 39 0 46 0;
#X connect 39 1 48 0;
#X connect 39 2 0 0;
#X connect 39 2 50 0;
#X connect 39 2 53 0;
#X connect 40 0 39 1;
#X connect 41 0 42 0;
#X connect 41 1 49 0;
#X connect 42 0 39 1;
#X connect 43 0 7 0;
#X connect 43 1 4 0;
#X connect 45 0 43 0;
#X connect 46 0 47 0;
#X connect 48 0 36 1;
#X connect 49 0 1 0;
#X connect 52 0 3 0;
#X connect 53 0 51 0;
#X connect 54 0 55 0;
#X connect 55 0 52 0;
#X connect 55 1 56 0;
#X connect 56 0 52 0;
#X connect 56 1 57 0;
#X connect 57 0 58 0;
#X connect 58 0 46 0;
#X connect 58 0 3 1;
#X connect 58 0 9 1;
#X connect 58 0 14 1;
#X connect 58 0 19 1;
#X connect 58 0 24 1;
#X connect 58 0 29 1;
#X connect 58 0 34 1;
#X connect 58 0 39 1;
#X coords 0 -1 1 1 578 163 2 150 350;
