#N canvas 637 550 1032 868 12;
#X obj 34 16 inlet;
#X obj 109 482 outlet;
#X obj 736 47 inlet;
#X obj 736 71 u_dispatch \$0 reset;
#X obj 401 272 vsl 25 100 0 100 0 0 empty empty empty 0 -9 0 10 -262144
-1 -1 0 1;
#X obj 269 528 i;
#X obj 269 552 s \$0-seq;
#X obj 426 272 vsl 25 100 0 100 0 0 empty empty empty 0 -9 0 10 -262144
-1 -1 0 1;
#X obj 371 533 i;
#X obj 371 557 s \$0-seq;
#X obj 451 272 vsl 25 100 0 100 0 0 empty empty empty 0 -9 0 10 -262144
-1 -1 0 1;
#X obj 373 622 i;
#X obj 373 646 s \$0-seq;
#X obj 476 272 vsl 25 100 0 100 0 0 empty empty empty 0 -9 0 10 -262144
-1 -1 0 1;
#X obj 475 627 i;
#X obj 475 651 s \$0-seq;
#X obj 501 272 vsl 25 100 0 100 0 0 empty empty empty 0 -9 0 10 -262144
-1 -1 0 1;
#X obj 468 520 i;
#X obj 468 544 s \$0-seq;
#X obj 526 272 vsl 25 100 0 100 0 0 empty empty empty 0 -9 0 10 -262144
-1 -1 0 1;
#X obj 570 525 i;
#X obj 570 549 s \$0-seq;
#X obj 551 272 vsl 25 100 0 100 0 0 empty empty empty 0 -9 0 10 -262144
-1 -1 0 1;
#X obj 572 614 i;
#X obj 572 638 s \$0-seq;
#X obj 576 272 vsl 25 100 0 100 0 0 empty empty empty 0 -9 0 10 -262144
-1 -1 0 1;
#X obj 674 619 i;
#X obj 674 643 s \$0-seq;
#X obj 66 105 i;
#X obj 47 49 t b;
#X obj 98 105 + 1;
#X obj 83 257 r \$0-seq;
#X obj 285 467 route 0 1 2 3 4 5 6 7;
#X obj 271 425 r \$0-triggers;
#X obj 64 194 s \$0-triggers;
#X msg 138 106 0;
#X msg 36 161 \$1 bang;
#X floatatom 312 389 5 0 0 0 - - -;
#X obj 105 146 sel 8;
#X obj 144 79 r \$0-reset;
#X obj 83 284 t b f;
#X obj 49 342 random 99;
#X obj 97 386 <;
#X obj 105 53 bng 15 250 50 0 empty empty empty 17 7 0 10 -262144 -1
-1;
#X floatatom 34 391 5 0 0 0 - - -;
#X floatatom 132 323 5 0 0 0 - - -;
#X obj 97 410 sel 1;
#X obj 401 376 hradio 25 1 0 8 empty \$0-stage-count empty 0 -8 0 10
-262144 -1 -1 0;
#X obj 10 220 s \$0-stage-count;
#X floatatom 401 251 5 1 8 0 - - -;
#X obj 403 404 bng 15 250 50 0 empty \$0-output-bang empty 17 7 0 10
-262144 -1 -1;
#X obj 103 444 t b b;
#X obj 156 440 s \$0-output-bang;
#X obj 496 456 pack f f f f f f f f f;
#X obj 449 438 i;
#X obj 447 165 unpack f f f f f f f f f;
#X obj 705 401 savestate;
#X connect 0 0 29 0;
#X connect 2 0 3 0;
#X connect 4 0 5 1;
#X connect 4 0 53 1;
#X connect 5 0 6 0;
#X connect 7 0 8 1;
#X connect 7 0 53 2;
#X connect 8 0 9 0;
#X connect 10 0 11 1;
#X connect 10 0 53 3;
#X connect 11 0 12 0;
#X connect 13 0 14 1;
#X connect 13 0 53 4;
#X connect 14 0 15 0;
#X connect 16 0 17 1;
#X connect 16 0 53 5;
#X connect 17 0 18 0;
#X connect 19 0 20 1;
#X connect 19 0 53 6;
#X connect 20 0 21 0;
#X connect 22 0 23 1;
#X connect 22 0 53 7;
#X connect 23 0 24 0;
#X connect 25 0 26 1;
#X connect 25 0 53 8;
#X connect 26 0 27 0;
#X connect 28 0 30 0;
#X connect 28 0 36 0;
#X connect 28 0 48 0;
#X connect 29 0 28 0;
#X connect 30 0 28 1;
#X connect 30 0 38 0;
#X connect 31 0 40 0;
#X connect 32 0 5 0;
#X connect 32 1 8 0;
#X connect 32 2 11 0;
#X connect 32 3 14 0;
#X connect 32 4 17 0;
#X connect 32 5 20 0;
#X connect 32 6 23 0;
#X connect 32 7 26 0;
#X connect 33 0 32 0;
#X connect 35 0 28 1;
#X connect 36 0 34 0;
#X connect 38 0 35 0;
#X connect 39 0 35 0;
#X connect 40 0 41 0;
#X connect 40 1 42 1;
#X connect 40 1 45 0;
#X connect 41 0 42 0;
#X connect 41 0 44 0;
#X connect 42 0 46 0;
#X connect 43 0 29 0;
#X connect 46 0 51 0;
#X connect 49 0 38 1;
#X connect 49 0 54 1;
#X connect 51 0 1 0;
#X connect 51 1 52 0;
#X connect 53 0 56 0;
#X connect 54 0 53 0;
#X connect 55 0 49 0;
#X connect 55 1 4 0;
#X connect 55 2 7 0;
#X connect 55 3 10 0;
#X connect 55 4 13 0;
#X connect 55 5 16 0;
#X connect 55 6 19 0;
#X connect 55 7 22 0;
#X connect 55 8 25 0;
#X connect 56 0 55 0;
#X connect 56 1 54 0;
#X coords 0 -1 1 1 202 172 2 400 250;
