#N canvas 929 282 715 675 12;
#X obj 115 522 vline~;
#X obj 115 333 float;
#X obj 236 333 float;
#X obj 115 546 outlet~;
#X obj 115 95 inlet;
#X obj 152 423 +;
#X obj 115 375 t f f, f 6;
#X obj 115 474 pack f f f, f 11;
#X obj 189 422 +;
#X msg 115 498 1 \$1 \, 0 \$2 \$3;
#X obj 498 103 inlet;
#X obj 498 127 dispatch \$0 attack \$1;
#X obj 498 151 dispatch \$0 decay \$2;
#X obj 498 175 dispatch \$0 time \$3;
#X obj 219 143 r \$0-time;
#X obj 115 119 route float;
#X obj 189 143 t b;
#X obj 115 285 t b b f, f 35;
#X obj 189 167 f 1;
#X obj 147 309 r \$0-attack;
#X obj 268 309 r \$0-decay;
#X connect 0 0 3 0;
#X connect 1 0 6 0;
#X connect 2 0 5 1;
#X connect 4 0 15 0;
#X connect 5 0 7 1;
#X connect 6 0 7 0;
#X connect 6 1 5 0;
#X connect 6 1 8 0;
#X connect 7 0 9 0;
#X connect 8 0 7 2;
#X connect 9 0 0 0;
#X connect 10 0 11 0;
#X connect 11 0 12 0;
#X connect 12 0 13 0;
#X connect 14 0 18 1;
#X connect 15 0 17 0;
#X connect 15 1 16 0;
#X connect 16 0 18 0;
#X connect 17 0 1 0;
#X connect 17 1 2 0;
#X connect 17 2 8 1;
#X connect 18 0 17 0;
#X connect 19 0 1 1;
#X connect 20 0 2 1;
