#N canvas 1270 284 934 677 12;
#X obj 125 541 vline~;
#X obj 155 355 float;
#X obj 230 351 float;
#X obj 189 320 + 10;
#X obj 340 303 + 10;
#X obj 118 587 outlet~;
#X obj 229 67 inlet;
#X obj 364 87 inlet;
#X obj 73 60 inlet;
#X obj 197 411 +;
#X obj 153 382 t f f;
#X obj 313 361 float \$1;
#X obj 138 441 pack f f f;
#X obj 152 261 t b b b;
#X obj 247 413 +;
#X msg 123 502 1 \$1 \, 0 \$2 \$3;
#X obj 467 117 inlet;
#X connect 0 0 5 0;
#X connect 1 0 10 0;
#X connect 2 0 9 1;
#X connect 3 0 1 1;
#X connect 4 0 2 1;
#X connect 6 0 3 0;
#X connect 7 0 4 0;
#X connect 8 0 13 0;
#X connect 9 0 12 1;
#X connect 10 0 12 0;
#X connect 10 1 9 0;
#X connect 10 1 14 0;
#X connect 11 0 14 1;
#X connect 12 0 15 0;
#X connect 13 0 1 0;
#X connect 13 1 2 0;
#X connect 13 2 11 0;
#X connect 14 0 12 2;
#X connect 15 0 0 0;
#X connect 16 0 11 1;
