#N canvas 1242 452 802 567 12;
#X obj 115 38 inlet;
#X obj 458 71 inlet;
#X obj 458 95 dispatch \$0 attack;
#X obj 458 119 dispatch \$0 decay;
#X obj 458 143 dispatch \$0 release;
#X obj 115 309 vline~;
#X msg 161 206 1 \$1 \, \$3 \$2 \$1;
#X obj 161 158 f;
#X obj 179 134 r \$0-attack;
#X obj 161 182 pack f f f, f 14;
#X obj 208 158 r \$0-decay;
#X obj 115 62 max 0;
#X obj 115 86 route 0;
#X obj 161 110 t b f;
#X obj 115 261 f;
#X obj 133 237 r \$0-release;
#X msg 115 285 0 \$1;
#X obj 115 333 outlet~;
#X connect 0 0 11 0;
#X connect 1 0 2 0;
#X connect 2 0 3 0;
#X connect 3 0 4 0;
#X connect 5 0 17 0;
#X connect 6 0 5 0;
#X connect 7 0 9 0;
#X connect 8 0 7 1;
#X connect 9 0 6 0;
#X connect 10 0 9 1;
#X connect 11 0 12 0;
#X connect 12 0 14 0;
#X connect 12 1 13 0;
#X connect 13 0 7 0;
#X connect 13 1 9 2;
#X connect 14 0 16 0;
#X connect 15 0 14 1;
#X connect 16 0 5 0;
