#N canvas 1236 563 857 391 12;
#X obj 106 54 hsl 200 25 1.27 5000 1 0 \$0-attack-s \$0-attack-r attack
10 12 0 10 -262144 -1 -1 0 1;
#X obj 106 82 hsl 200 25 1.27 5000 1 0 \$0-decay-s \$0-decay-r decay
10 12 0 10 -262144 -1 -1 0 1;
#X obj 106 110 hsl 200 25 1.27 5000 1 0 \$0-release-s \$0-release-r
release 10 12 0 10 -262144 -1 -1 0 1;
#X obj 578 102 f;
#X obj 596 78 r \$0-attack-s;
#X obj 615 102 r \$0-decay-s;
#X obj 578 150 pack f f f, f 11;
#X obj 652 126 r \$0-release-s;
#X obj 578 174 savestate;
#X obj 578 198 unpack f f f;
#X obj 659 222 s \$0-release-r;
#X obj 618 246 s \$0-decay-r;
#X obj 578 270 s \$0-attack-r;
#X obj 120 289 adr-env;
#X obj 457 79 r \$0-attack-s;
#X msg 457 103 attack \$1;
#X obj 457 127 s \$0-controls;
#X obj 451 224 s \$0-controls;
#X obj 451 176 r \$0-decay-s;
#X msg 451 200 decay \$1;
#X obj 383 311 s \$0-controls;
#X obj 383 263 r \$0-release-s;
#X msg 383 287 release \$1;
#X obj 166 265 r \$0-controls;
#X obj 120 265 inlet;
#X obj 120 313 outlet~;
#X connect 3 0 6 0;
#X connect 4 0 3 1;
#X connect 5 0 6 1;
#X connect 6 0 8 0;
#X connect 7 0 6 2;
#X connect 8 0 9 0;
#X connect 8 1 3 0;
#X connect 9 0 12 0;
#X connect 9 1 11 0;
#X connect 9 2 10 0;
#X connect 13 0 25 0;
#X connect 14 0 15 0;
#X connect 15 0 16 0;
#X connect 18 0 19 0;
#X connect 19 0 17 0;
#X connect 21 0 22 0;
#X connect 22 0 20 0;
#X connect 23 0 13 1;
#X connect 24 0 13 0;
#X coords 0 -1 1 1 211 89 2 100 50;
