#N canvas 1218 489 867 687 12;
#X obj 337 340 list length;
#X obj 371 537 list store;
#X obj 321 210 trigger bang list;
#X obj 192 368 int;
#X obj 157 321 bng 15 250 50 0 empty empty empty 17 7 0 10 -262144
-1 -1;
#X msg 208 311 0;
#X obj 229 368 + 1;
#X obj 183 258 inlet;
#X obj 277 597 outlet;
#X obj 325 109 inlet;
#X obj 261 303 sel 1;
#X obj 278 368 >=;
#X msg 295 495 get \$1 1;
#X connect 0 0 11 1;
#X connect 1 0 8 0;
#X connect 2 0 5 0;
#X connect 2 1 0 0;
#X connect 2 1 1 1;
#X connect 3 0 6 0;
#X connect 3 0 12 0;
#X connect 4 0 3 0;
#X connect 5 0 3 1;
#X connect 6 0 3 1;
#X connect 6 0 11 0;
#X connect 7 0 4 0;
#X connect 9 0 2 0;
#X connect 10 0 5 0;
#X connect 11 0 10 0;
#X connect 12 0 1 0;
