#N canvas 955 127 1297 1098 12;
#X obj 657 345 array define -yrange -4 4 \$0-lookup 4096;
#X obj 821 497 until;
#X obj 821 545 t f f;
#X obj 821 617 atan;
#X obj 795 425 bng 15 250 50 0 empty empty empty 17 7 0 10 -262144
-1 -1;
#X obj 821 641 tabwrite \$0-lookup;
#X obj 821 521 counter, f 14;
#X obj 873 545 / 2;
#X obj 821 473 t f f b;
#X obj 873 569 / 2;
#X obj 821 569 -;
#X obj 821 593 /;
#X obj 821 425 loadbang;
#X obj 821 449 i 4096;
#X obj 268 281 inlet~;
#X obj 268 329 +~ 2048;
#X obj 268 377 tabread~ \$0-lookup;
#X obj 268 401 outlet~;
#X obj 268 305 *~ 1024;
#X obj 268 353 clip~ -2048 2048;
#X connect 1 0 6 0;
#X connect 2 0 10 0;
#X connect 2 1 5 1;
#X connect 3 0 5 0;
#X connect 4 0 13 0;
#X connect 6 0 2 0;
#X connect 7 0 9 0;
#X connect 7 0 10 1;
#X connect 8 0 1 0;
#X connect 8 1 6 1;
#X connect 8 1 7 0;
#X connect 8 2 6 2;
#X connect 9 0 11 1;
#X connect 10 0 11 0;
#X connect 11 0 3 0;
#X connect 12 0 13 0;
#X connect 13 0 8 0;
#X connect 14 0 18 0;
#X connect 15 0 19 0;
#X connect 16 0 17 0;
#X connect 18 0 15 0;
#X connect 19 0 16 0;
