#N canvas 747 412 596 446 12;
#X obj 275 53 bng 15 250 50 0 \$0-in-s \$0-in-r empty 17 7 0 10 -262144
-1 -1;
#X obj 169 176 >;
#X obj 245 197 sel 1 0;
#X obj 91 29 inlet;
#X obj 91 273 outlet;
#X obj 215 277 outlet;
#X obj 252 98 bng 10 250 50 0 empty empty empty 17 7 0 10 -262144 -1
-1;
#X obj 297 98 bng 10 250 50 0 empty empty empty 17 7 0 10 -262144 -1
-1;
#X obj 396 39 inlet;
#X obj 255 71 hsl 50 24 0 1000 0 0 \$0-chance-s \$0-chance-r empty
-2 -8 0 10 -262144 -1 -1 0 1;
#X obj 396 63 * 1000;
#X obj 169 128 random 999;
#X obj 91 53 t a b;
#X obj 130 225 == 1;
#X obj 91 249 spigot;
#X obj 215 253 spigot;
#X obj 254 229 == 0;
#X obj 401 269 f;
#X obj 401 293 savestate;
#X obj 401 317 s \$0-chance-r;
#X obj 396 87 s \$0-chance-r;
#X obj 187 152 r \$0-chance-s;
#X obj 144 77 s \$0-in-r;
#X obj 419 245 r \$0-chance-s;
#X connect 1 0 2 0;
#X connect 1 0 13 0;
#X connect 1 0 16 0;
#X connect 2 0 6 0;
#X connect 2 1 7 0;
#X connect 3 0 12 0;
#X connect 8 0 10 0;
#X connect 10 0 20 0;
#X connect 11 0 1 0;
#X connect 12 0 14 0;
#X connect 12 0 15 0;
#X connect 12 1 11 0;
#X connect 12 1 22 0;
#X connect 13 0 14 1;
#X connect 14 0 4 0;
#X connect 15 0 5 0;
#X connect 16 0 15 1;
#X connect 17 0 18 0;
#X connect 18 0 19 0;
#X connect 18 1 17 0;
#X connect 21 0 1 1;
#X connect 23 0 17 1;
#X coords 0 -1 1 1 60 60 2 250 50;
