#N canvas 1097 335 596 446 12;
#X obj 275 53 bng 15 250 50 0 empty empty empty 17 7 0 10 -262144 -1
-1;
#X obj 110 198 >;
#X obj 110 224 sel 1 0;
#X obj 91 29 inlet;
#X obj 82 279 outlet;
#X obj 148 279 outlet;
#X obj 252 98 bng 10 250 50 0 empty empty empty 17 7 0 10 -262144 -1
-1;
#X obj 297 98 bng 10 250 50 0 empty empty empty 17 7 0 10 -262144 -1
-1;
#X obj 361 15 inlet;
#X obj 255 71 hsl 50 24 0 1000 0 0 empty empty empty -2 -8 0 10 -262144
-1 -1 0 1;
#X floatatom 52 220 5 0 0 0 - - -;
#X floatatom 209 204 5 0 0 0 - - -;
#X obj 276 25 * 1000;
#X obj 61 125 random 999;
#X connect 0 0 13 0;
#X connect 1 0 2 0;
#X connect 2 0 4 0;
#X connect 2 0 6 0;
#X connect 2 1 5 0;
#X connect 2 1 7 0;
#X connect 3 0 0 0;
#X connect 8 0 12 0;
#X connect 9 0 1 1;
#X connect 9 0 11 0;
#X connect 12 0 9 0;
#X connect 13 0 10 0;
#X connect 13 0 1 0;
#X coords 0 -1 1 1 60 60 2 250 50;
