#N canvas 912 567 731 485 12;
#X obj 160 26 inlet;
#X obj 160 340 outlet;
#X obj 84 340 outlet;
#X obj 217 220 inlet;
#X obj 160 50 t a b;
#X obj 160 316 spigot;
#X obj 84 316 spigot;
#X obj 192 172 random 1000;
#X obj 192 196 / 1000;
#X obj 217 244 clip 0 1;
#X obj 192 268 > \$1;
#X obj 123 292 == 1;
#X obj 192 292 == 0;
#X connect 0 0 4 0;
#X connect 3 0 9 0;
#X connect 4 0 5 0;
#X connect 4 0 6 0;
#X connect 4 1 7 0;
#X connect 5 0 1 0;
#X connect 6 0 2 0;
#X connect 7 0 8 0;
#X connect 8 0 10 0;
#X connect 9 0 10 1;
#X connect 10 0 11 0;
#X connect 10 0 12 0;
#X connect 11 0 6 1;
#X connect 12 0 5 1;
