#N canvas 814 374 991 933 12;
#X obj 30 65 inlet;
#X obj 302 402 bng 15 250 50 0 \$0-bit-bang-s \$0-bit-bang-r empty
17 7 0 10 -262144 -1 -1;
#X obj 203 411 outlet;
#X obj 322 402 tgl 15 0 \$0-bit-display-s \$0-bit-display-r empty 17
7 0 10 -262144 -1 -1 0 1;
#X obj 360 79 inlet;
#X obj 360 103 route 0;
#X msg 360 127 0;
#X msg 406 127 1;
#X obj 144 373 outlet;
#X obj 70 341 outlet;
#X obj 166 227 t f f;
#X obj 59 138 t b b;
#X obj 165 189 i;
#X obj 198 319 sel 1;
#X obj 649 47 inlet;
#X obj 649 71 dispatch \$0 randomise;
#X obj 455 63 r \$0-randomise;
#X obj 455 87 t b;
#X obj 455 111 random 100;
#X obj 455 135 > 50;
#X obj 418 188 s \$0-bit-display-r;
#X obj 180 156 r \$0-bit-display-s;
#X obj 208 354 s \$0-bit-bang-r;
#X connect 0 0 11 0;
#X connect 4 0 5 0;
#X connect 5 0 6 0;
#X connect 5 1 7 0;
#X connect 6 0 20 0;
#X connect 7 0 20 0;
#X connect 10 0 8 0;
#X connect 10 1 13 0;
#X connect 11 0 12 0;
#X connect 11 1 9 0;
#X connect 12 0 10 0;
#X connect 13 0 2 0;
#X connect 13 0 22 0;
#X connect 14 0 15 0;
#X connect 16 0 17 0;
#X connect 17 0 18 0;
#X connect 18 0 19 0;
#X connect 19 0 20 0;
#X connect 21 0 12 1;
#X coords 0 -1 1 1 39 19 2 300 400;
