#N canvas 0 23 1440 855 12;
#X obj 701 251 inlet;
#X obj 701 275 dispatch \$0 loop 0;
#X obj 701 323 dispatch-bang \$0 reset;
#X msg 663 202 init;
#X obj 811 179 tgl 15 0 empty empty empty 17 7 0 10 -262144 -1 -1 0
1;
#X msg 811 199 loop \$1;
#X floatatom 562 207 5 0 0 0 - - -;
#X msg 588 251 length \$1;
#X obj 520 28 array define \$0-samples 32;
#X obj 104 619 array set \$0-samples;
#X obj 29 25 inlet;
#X obj 29 49 t b;
#X obj 104 595 / 10000;
#X obj 104 571 random 10000;
#X obj 701 299 dispatch \$0 length 8;
#X obj 81 523 counter;
#X obj 70 691 r \$0-sample-index;
#X obj 70 739 outlet;
#X obj 907 398 r \$0-loop;
#X obj 887 617 s \$0-loop-enable;
#X obj 47 73 r \$0-loop-enable;
#X obj 29 97 i;
#X obj 29 121 s \$0-trig;
#X obj 81 224 r \$0-trig;
#X obj 81 248 sel 0;
#X obj 510 466 counter;
#X obj 510 610 s \$0-sample-index;
#X obj 510 370 r \$0-trig;
#X obj 510 394 sel 1;
#X obj 1144 67 sel 1;
#X obj 1162 91 r \$0-sample-index;
#X obj 1144 115 i;
#X obj 1152 187 t b f;
#X obj 1144 211 -;
#X obj 1144 259 +;
#X obj 520 55 loadbang;
#X obj 520 79 array size \$0-samples;
#X obj 520 103 s \$0-array-size;
#X obj 104 499 r \$0-array-size;
#X obj 1170 235 r \$0-array-size;
#X obj 1144 283 %;
#X obj 1144 307 s \$0-loop-start-point;
#X obj 510 538 +;
#X obj 528 514 r \$0-loop-start-point;
#X obj 510 586 %;
#X obj 528 562 r \$0-array-size;
#X text 88 194 not looping;
#X text 509 333 looping;
#X obj 81 547 t f b f;
#X obj 81 643 s \$0-sample-index;
#X obj 70 715 array get \$0-samples 0 1;
#X floatatom 457 527 5 0 0 0 - - -;
#X floatatom 15 554 5 0 0 0 - - -;
#X floatatom 437 629 5 0 0 0 - - -;
#X floatatom 1065 330 5 0 0 0 - - -;
#X obj 127 320 sel 0;
#X obj 127 440 i;
#X floatatom 169 476 5 0 0 0 - - -;
#X floatatom 170 446 5 0 0 0 - - -;
#X obj 556 490 s \$0-loop-reset;
#X obj 127 296 r \$0-loop-enable;
#X floatatom 1064 204 5 0 0 0 - - -;
#X floatatom 1056 255 5 0 0 0 - - -;
#X floatatom 1049 290 5 0 0 0 - - -;
#X obj 1152 163 - 1;
#X obj 385 298 r \$0-loop-enable;
#X obj 385 322 sel 1;
#X obj 907 422 route 1 0;
#X msg 777 507 1;
#X obj 1144 43 r \$0-loop;
#X obj 1152 139 r \$0-length;
#X obj 533 418 r \$0-length;
#X msg 982 478 1;
#X obj 946 511 spigot;
#X obj 947 454 r \$0-loop-reset;
#X obj 946 535 t b b;
#X msg 1019 479 0;
#X msg 946 559 0;
#X obj 334 127 r \$0-loop-enable;
#X obj 334 159 tgl 15 0 empty empty empty 17 7 0 10 -262144 -1 -1 0
1;
#X obj 556 442 r \$0-reset;
#X msg 385 346 0;
#X obj 777 531 t b f;
#X obj 795 555 r \$0-sample-index;
#X obj 777 579 i;
#X obj 777 603 s \$0-loop-end;
#X obj 145 344 r \$0-loop-end;
#X floatatom 748 655 5 0 0 0 - - -;
#X obj 145 368 + 1;
#X obj 145 416 %;
#X obj 163 392 r \$0-array-size;
#X connect 0 0 1 0;
#X connect 1 0 14 0;
#X connect 3 0 1 0;
#X connect 4 0 5 0;
#X connect 5 0 1 0;
#X connect 6 0 7 0;
#X connect 7 0 1 0;
#X connect 10 0 11 0;
#X connect 11 0 21 0;
#X connect 12 0 9 0;
#X connect 13 0 12 0;
#X connect 14 0 2 0;
#X connect 15 0 48 0;
#X connect 15 0 52 0;
#X connect 16 0 50 0;
#X connect 18 0 67 0;
#X connect 20 0 21 1;
#X connect 21 0 22 0;
#X connect 23 0 24 0;
#X connect 24 0 15 0;
#X connect 25 0 42 0;
#X connect 25 0 51 0;
#X connect 25 1 59 0;
#X connect 27 0 28 0;
#X connect 28 0 25 0;
#X connect 29 0 31 0;
#X connect 30 0 31 1;
#X connect 31 0 33 0;
#X connect 31 0 61 0;
#X connect 32 0 33 0;
#X connect 32 1 33 1;
#X connect 33 0 34 0;
#X connect 33 0 62 0;
#X connect 34 0 40 0;
#X connect 34 0 63 0;
#X connect 35 0 36 0;
#X connect 36 0 37 0;
#X connect 38 0 15 1;
#X connect 39 0 34 1;
#X connect 39 0 40 1;
#X connect 40 0 41 0;
#X connect 40 0 54 0;
#X connect 42 0 44 0;
#X connect 43 0 42 1;
#X connect 44 0 26 0;
#X connect 44 0 53 0;
#X connect 45 0 44 1;
#X connect 48 0 49 0;
#X connect 48 1 13 0;
#X connect 48 2 9 1;
#X connect 50 0 17 0;
#X connect 55 0 56 0;
#X connect 56 0 57 0;
#X connect 56 0 15 2;
#X connect 60 0 55 0;
#X connect 64 0 32 0;
#X connect 65 0 66 0;
#X connect 66 0 81 0;
#X connect 67 0 68 0;
#X connect 67 1 72 0;
#X connect 68 0 82 0;
#X connect 69 0 29 0;
#X connect 70 0 64 0;
#X connect 71 0 25 1;
#X connect 72 0 73 1;
#X connect 73 0 75 0;
#X connect 74 0 73 0;
#X connect 75 0 77 0;
#X connect 75 1 76 0;
#X connect 76 0 73 1;
#X connect 77 0 19 0;
#X connect 78 0 79 0;
#X connect 80 0 25 2;
#X connect 81 0 25 2;
#X connect 82 0 84 0;
#X connect 82 1 19 0;
#X connect 83 0 84 1;
#X connect 84 0 85 0;
#X connect 84 0 87 0;
#X connect 86 0 88 0;
#X connect 88 0 89 0;
#X connect 89 0 56 1;
#X connect 89 0 58 0;
#X connect 90 0 89 1;
