#N canvas 735 361 1152 658 12;
#X obj 231 304 metro 1 120 permin, f 19;
#X obj 301 119 tgl 20 0 empty empty empty 17 7 0 10 -262144 -1 -1 0
1;
#X obj 408 109 bng 25 250 50 0 empty empty empty 17 7 0 10 -262144
-1 -1;
#X obj 361 270 /;
#X msg 361 245 1 \$1;
#X text 392 271 beat length;
#X msg 231 254 tempo \$1 permin;
#X floatatom 323 122 5 0 0 0 - - -;
#X floatatom 362 122 5 0 0 0 - - -;
#X text 359 99 beats;
#X text 321 99 bpm;
#X obj 158 44 inlet;
#X obj 320 28 inlet;
#X obj 391 26 inlet;
#X obj 225 358 outlet;
#X obj 666 237 select 0 1;
#X msg 666 271 252;
#X msg 703 271 250;
#X msg 775 264 248;
#X obj 775 234 metro 20.8333;
#X floatatom 822 208 5 0 0 0 - - -;
#X obj 748 150 expr (60000/$f1/24);
#X obj 538 270 savestate;
#X obj 433 207 pack f f;
#X obj 409 179 f;
#X obj 243 28 loadbang;
#X msg 248 63 0;
#X obj 537 323 s \$0-load-state;
#X obj 474 25 r \$0-load-state;
#X obj 464 62 unpack f f;
#X obj 775 334 outlet;
#X obj 116 227 outlet;
#X connect 0 0 2 0;
#X connect 0 0 14 0;
#X connect 1 0 0 0;
#X connect 1 0 15 0;
#X connect 1 0 19 0;
#X connect 1 0 31 0;
#X connect 3 0 0 1;
#X connect 4 0 3 0;
#X connect 6 0 0 0;
#X connect 7 0 6 0;
#X connect 7 0 24 1;
#X connect 7 0 21 0;
#X connect 8 0 4 0;
#X connect 8 0 23 1;
#X connect 11 0 1 0;
#X connect 12 0 7 0;
#X connect 13 0 8 0;
#X connect 15 0 16 0;
#X connect 15 1 17 0;
#X connect 16 0 30 0;
#X connect 17 0 30 0;
#X connect 18 0 30 0;
#X connect 19 0 18 0;
#X connect 20 0 19 1;
#X connect 21 0 20 0;
#X connect 22 0 27 0;
#X connect 22 1 24 0;
#X connect 23 0 22 0;
#X connect 24 0 23 0;
#X connect 25 0 26 0;
#X connect 26 0 1 0;
#X connect 28 0 29 0;
#X connect 29 0 7 0;
#X connect 29 1 8 0;
#X coords 0 -1 1 1 140 40 2 300 100;
