#N canvas 858 180 1702 1150 12;
#X obj 446 394 metro 1 120 permin, f 19;
#X msg 454 370 tempo \$1 permin;
#X obj 446 562 outlet;
#X obj 111 175 outlet;
#X msg 52 115 run \$1;
#X msg 165 139 bpm \$1;
#X obj 111 115 sel 0;
#X msg 111 139 reset;
#X obj 304 215 tgl 20 0 \$0-run-s \$0-run-r run 0 -7 0 10 -4034 -1
-1 0 1;
#X floatatom 329 217 5 0 0 2 bpm #0-bpm-r #0-bpm-s;
#X obj 413 215 bng 20 250 50 0 \$0-beat-indicator-s \$0-beat-indicator-r
empty 17 7 0 10 -262144 -1 -1;
#X obj 870 44 inlet;
#X obj 870 92 dispatch \$0 run;
#X obj 870 164 r \$0-bpm;
#X obj 870 188 s \$0-bpm-r;
#X obj 870 212 r \$0-run;
#X obj 454 346 r \$0-bpm-s;
#X obj 490 418 s \$0-beat-indicator-r;
#X obj 446 322 r \$0-run-s;
#X obj 165 115 r \$0-bpm-s;
#X obj 111 43 r \$0-run-s;
#X obj 587 90 f;
#X obj 605 66 r \$0-bpm-s;
#X obj 587 162 savestate;
#X obj 587 258 s \$0-bpm-r;
#X floatatom 371 217 5 0 0 2 mult #0-mult-r #0-mult-s;
#X obj 620 90 r \$0-mult-s;
#X obj 627 234 s \$0-mult-r;
#X obj 870 260 r \$0-mult;
#X obj 870 284 s \$0-mult-r;
#X obj 576 322 r \$0-mult-s;
#X msg 576 346 1 \$1;
#X obj 576 370 /;
#X obj 870 236 s \$0-run-r;
#X obj 111 67 t f b;
#X obj 143 91 s \$0-bpm-r;
#X floatatom 438 217 5 0.01 1 2 width #0-width-r #0-width-s;
#X obj 587 138 pack f f f;
#X obj 587 186 unpack f f f;
#X obj 654 114 r \$0-width-s;
#X obj 668 210 s \$0-width-r;
#X obj 870 308 r \$0-width;
#X obj 870 332 s \$0-width-r;
#X obj 446 514 delay 1 120 permin;
#X obj 446 418 t b b;
#X msg 478 490 1;
#X msg 446 538 0;
#X obj 569 442 r \$0-width-s;
#X obj 569 490 *;
#X obj 569 466 t b f;
#X obj 395 514 outlet;
#X obj 870 68 dispatch \$0 bpm 120;
#X obj 870 116 dispatch \$0 mult 1;
#X obj 870 140 dispatch \$0 width 0.5;
#X connect 0 0 44 0;
#X connect 0 0 17 0;
#X connect 0 0 50 0;
#X connect 1 0 0 0;
#X connect 1 0 43 0;
#X connect 4 0 3 0;
#X connect 5 0 3 0;
#X connect 6 0 7 0;
#X connect 7 0 3 0;
#X connect 11 0 51 0;
#X connect 12 0 52 0;
#X connect 13 0 14 0;
#X connect 15 0 33 0;
#X connect 16 0 1 0;
#X connect 18 0 0 0;
#X connect 19 0 5 0;
#X connect 20 0 34 0;
#X connect 21 0 37 0;
#X connect 22 0 21 1;
#X connect 23 0 38 0;
#X connect 23 1 21 0;
#X connect 26 0 37 1;
#X connect 28 0 29 0;
#X connect 30 0 31 0;
#X connect 31 0 32 0;
#X connect 32 0 0 1;
#X connect 32 0 48 0;
#X connect 34 0 6 0;
#X connect 34 0 4 0;
#X connect 34 1 35 0;
#X connect 37 0 23 0;
#X connect 38 0 24 0;
#X connect 38 1 27 0;
#X connect 38 2 40 0;
#X connect 39 0 37 2;
#X connect 41 0 42 0;
#X connect 43 0 46 0;
#X connect 44 0 43 0;
#X connect 44 1 45 0;
#X connect 45 0 2 0;
#X connect 46 0 2 0;
#X connect 47 0 49 0;
#X connect 48 0 43 1;
#X connect 49 0 48 0;
#X connect 49 1 48 1;
#X connect 51 0 12 0;
#X connect 52 0 53 0;
#X coords 0 -1 1 1 180 39 2 300 200;
