#N canvas 211 268 1702 1150 12;
#X obj 299 379 metro 1 120 permin, f 19;
#X msg 307 355 tempo \$1 permin;
#X obj 299 427 outlet;
#X obj 111 175 outlet;
#X msg 52 115 run \$1;
#X msg 165 139 bpm \$1;
#X obj 111 115 sel 0;
#X msg 111 139 reset;
#X obj 302 215 tgl 20 0 \$0-run-s \$0-run-r run 0 -7 0 10 -4034 -1
-1 1 1;
#X floatatom 327 217 5 0 0 2 bpm #0-bpm-r #0-bpm-s;
#X obj 411 215 bng 20 250 50 0 \$0-beat-indicator-s \$0-beat-indicator-r
empty 17 7 0 10 -262144 -1 -1;
#X obj 697 49 inlet;
#X obj 697 73 dispatch \$0 bpm;
#X obj 697 97 dispatch \$0 run;
#X obj 697 149 r \$0-bpm;
#X obj 697 173 s \$0-bpm-r;
#X obj 697 197 r \$0-run;
#X obj 307 331 r \$0-bpm-s;
#X obj 307 403 s \$0-beat-indicator-r;
#X obj 299 307 r \$0-run-s;
#X obj 165 115 r \$0-bpm-s;
#X obj 111 43 r \$0-run-s;
#X obj 500 85 f;
#X obj 500 109 pack f f;
#X obj 518 61 r \$0-bpm-s;
#X obj 500 133 savestate;
#X obj 500 157 unpack f f;
#X obj 500 205 s \$0-bpm-r;
#X floatatom 369 217 5 0 0 2 mult #0-mult-r #0-mult-s;
#X obj 553 85 r \$0-mult-s;
#X obj 567 181 s \$0-mult-r;
#X obj 697 121 dispatch \$0 mult;
#X obj 697 245 r \$0-mult;
#X obj 697 269 s \$0-mult-r;
#X obj 429 307 r \$0-mult-s;
#X msg 429 331 1 \$1;
#X obj 429 355 /;
#X obj 697 221 s \$0-run-r;
#X obj 111 67 t f b;
#X obj 143 91 s \$0-bpm-r;
#X connect 0 0 2 0;
#X connect 0 0 18 0;
#X connect 1 0 0 0;
#X connect 4 0 3 0;
#X connect 5 0 3 0;
#X connect 6 0 7 0;
#X connect 7 0 3 0;
#X connect 11 0 12 0;
#X connect 12 0 13 0;
#X connect 13 0 31 0;
#X connect 14 0 15 0;
#X connect 16 0 37 0;
#X connect 17 0 1 0;
#X connect 19 0 0 0;
#X connect 20 0 5 0;
#X connect 21 0 38 0;
#X connect 22 0 23 0;
#X connect 23 0 25 0;
#X connect 24 0 22 1;
#X connect 25 0 26 0;
#X connect 25 1 22 0;
#X connect 26 0 27 0;
#X connect 26 1 30 0;
#X connect 29 0 23 1;
#X connect 32 0 33 0;
#X connect 34 0 35 0;
#X connect 35 0 36 0;
#X connect 36 0 0 1;
#X connect 38 0 6 0;
#X connect 38 0 4 0;
#X connect 38 1 39 0;
#X coords 0 -1 1 1 133 39 2 300 200;
