#N canvas 735 361 1152 658 12;
#X obj 232 402 metro 1 120 permin, f 19;
#X obj 302 217 tgl 20 0 empty empty empty 17 7 0 10 -262144 -1 -1 0
1;
#X obj 409 207 bng 25 250 50 0 empty empty empty 17 7 0 10 -262144
-1 -1;
#X obj 362 368 /;
#X msg 362 343 1 \$1;
#X text 393 369 beat length;
#X msg 232 352 tempo \$1 permin;
#X floatatom 324 220 5 0 0 0 - - -;
#X floatatom 363 220 5 0 0 0 - - -;
#X text 360 197 beats;
#X text 322 197 bpm;
#X obj 129 76 inlet;
#X obj 226 456 outlet;
#X obj 539 368 savestate;
#X obj 434 305 pack f f;
#X obj 410 277 f;
#X obj 538 421 s \$0-load-state;
#X obj 475 123 r \$0-load-state;
#X obj 465 160 unpack f f;
#X obj 90 436 outlet;
#X obj 128 109 route run bpm beats;
#X msg 87 376 run \$1 run;
#X connect 0 0 2 0;
#X connect 0 0 12 0;
#X connect 1 0 0 0;
#X connect 1 0 21 0;
#X connect 3 0 0 1;
#X connect 4 0 3 0;
#X connect 6 0 0 0;
#X connect 7 0 6 0;
#X connect 7 0 15 1;
#X connect 8 0 4 0;
#X connect 8 0 14 1;
#X connect 11 0 20 0;
#X connect 13 0 16 0;
#X connect 13 1 15 0;
#X connect 14 0 13 0;
#X connect 15 0 14 0;
#X connect 17 0 18 0;
#X connect 18 0 7 0;
#X connect 18 1 8 0;
#X connect 20 0 1 0;
#X connect 20 1 7 0;
#X connect 20 2 8 0;
#X connect 21 0 19 0;
#X coords 0 -1 1 1 140 40 2 300 200;
