#N canvas 988 388 450 300 12;
#X obj 103 100 i;
#X obj 137 100 + 1;
#X obj 68 44 inlet;
#X obj 103 148 sel 0;
#X obj 103 172 t b b;
#X msg 176 100 0;
#X obj 128 40 max 1;
#X obj 103 196 outlet;
#X obj 308 36 inlet;
#X obj 103 124 % \$1;
#X obj 308 60 dispatch \$0 reset;
#X obj 308 84 dispatch \$0 divisor;
#X obj 128 16 r \$0-divisor;
#X obj 181 42 r \$0-reset;
#X obj 181 66 t b;
#X connect 0 0 1 0;
#X connect 0 0 9 0;
#X connect 1 0 0 1;
#X connect 2 0 0 0;
#X connect 3 0 4 0;
#X connect 4 0 7 0;
#X connect 4 1 5 0;
#X connect 5 0 0 1;
#X connect 6 0 9 1;
#X connect 8 0 10 0;
#X connect 9 0 3 0;
#X connect 10 0 11 0;
#X connect 12 0 6 0;
#X connect 13 0 14 0;
#X connect 14 0 5 0;
