#N canvas 945 463 1059 625 12;
#X obj 240 119 inlet;
#X obj 333 208 i 0;
#X obj 366 208 + 1;
#X obj 307 323 outlet;
#X obj 384 76 loadbang;
#X obj 384 124 t f f;
#X obj 384 172 spigot;
#X obj 416 148 != 0;
#X obj 772 89 inlet;
#X msg 519 358 0;
#X obj 384 100 i \$2;
#X obj 531 90 inlet;
#X obj 545 238 loadbang;
#X obj 537 262 i \$1;
#X floatatom 374 269 5 0 0 0 - - -;
#X floatatom 454 332 5 0 0 0 - - -;
#X floatatom 423 215 5 0 0 0 - - -;
#X obj 519 286 >=;
#X obj 519 334 spigot;
#X obj 558 286 != 0;
#X obj 519 310 sel 1;
#X obj 519 406 outlet;
#X obj 772 113 route bang float;
#X obj 858 185 sel 0;
#X obj 858 209 s \$0-reset;
#X obj 519 382 t b f;
#X obj 629 244 r \$0-reset;
#X obj 629 268 t b;
#X msg 772 137 0;
#X obj 826 161 t f f;
#X obj 826 233 s \$0-set-next;
#X obj 351 42 r \$0-set-next;
#X connect 0 0 1 0;
#X connect 1 0 2 0;
#X connect 1 0 3 0;
#X connect 2 0 1 1;
#X connect 2 0 14 0;
#X connect 2 0 17 0;
#X connect 4 0 10 0;
#X connect 5 0 6 0;
#X connect 5 1 7 0;
#X connect 6 0 2 1;
#X connect 6 0 16 0;
#X connect 7 0 6 1;
#X connect 8 0 22 0;
#X connect 9 0 25 0;
#X connect 10 0 5 0;
#X connect 11 0 13 0;
#X connect 12 0 13 0;
#X connect 13 0 19 0;
#X connect 13 0 17 1;
#X connect 17 0 15 0;
#X connect 17 0 20 0;
#X connect 18 0 9 0;
#X connect 19 0 18 1;
#X connect 20 0 18 0;
#X connect 22 0 28 0;
#X connect 22 1 29 0;
#X connect 23 0 24 0;
#X connect 25 0 21 0;
#X connect 25 1 1 1;
#X connect 26 0 27 0;
#X connect 27 0 9 0;
#X connect 28 0 29 0;
#X connect 29 0 30 0;
#X connect 29 1 23 0;
#X connect 31 0 1 1;
