#N canvas 1490 506 729 433 12;
#X obj 101 101 inlet;
#X obj 141 171 i 0;
#X obj 174 171 + 1;
#X obj 115 286 outlet;
#X obj 192 39 loadbang;
#X obj 192 87 t f f;
#X obj 192 135 spigot;
#X obj 224 111 != 0;
#X obj 395 54 inlet;
#X msg 327 332 0;
#X obj 192 63 i \$2;
#X obj 395 78 t b;
#X obj 293 61 inlet;
#X obj 373 122 loadbang;
#X obj 321 372 bng 15 250 50 0 empty empty empty 17 7 0 10 -262144
-1 -1;
#X obj 352 147 i \$1;
#X floatatom 166 225 5 0 0 0 - - -;
#X floatatom 262 295 5 0 0 0 - - -;
#X floatatom 231 178 5 0 0 0 - - -;
#X obj 327 249 >=;
#X obj 323 302 spigot;
#X obj 376 215 != 0;
#X obj 327 273 sel 1;
#X connect 0 0 1 0;
#X connect 1 0 2 0;
#X connect 1 0 3 0;
#X connect 2 0 1 1;
#X connect 2 0 16 0;
#X connect 2 0 19 0;
#X connect 4 0 10 0;
#X connect 5 0 6 0;
#X connect 5 1 7 0;
#X connect 6 0 2 1;
#X connect 6 0 18 0;
#X connect 7 0 6 1;
#X connect 8 0 11 0;
#X connect 9 0 1 1;
#X connect 9 0 14 0;
#X connect 10 0 5 0;
#X connect 11 0 9 0;
#X connect 12 0 15 0;
#X connect 13 0 15 0;
#X connect 15 0 21 0;
#X connect 15 0 19 1;
#X connect 19 0 17 0;
#X connect 19 0 22 0;
#X connect 20 0 9 0;
#X connect 21 0 20 1;
#X connect 22 0 20 0;
