#N canvas 1090 465 1026 663 12;
#X obj 263 44 inlet~;
#X obj 675 112 inlet;
#N canvas 565 196 273 141 delay-writer 0;
#X obj 45 49 delwrite~ \$0-del-line 10;
#X obj 45 25 inlet~;
#X connect 1 0 0 0;
#X restore 253 146 pd delay-writer;
#N canvas 1379 539 239 128 delay-reader 0;
#X obj 33 22 inlet~;
#X obj 33 46 delread4~ \$0-del-line;
#X obj 33 70 outlet~;
#X connect 0 0 1 0;
#X connect 1 0 2 0;
#X restore 313 286 pd delay-reader;
#X obj 675 160 dispatch \$0 coefficient 0.5;
#X obj 424 65 r \$0-coefficient;
#X msg 424 89 \$1 10;
#X obj 424 113 line;
#X obj 310 389 outlet~;
#X obj 485 98 r \$0-delay;
#X obj 485 122 / 44.1;
#X msg 485 146 \$1 10;
#X obj 485 170 line~;
#X obj 161 224 *~ 0.5;
#X obj 250 86 +~;
#X obj 465 251 *~ -0.5;
#X obj 478 219 * -1;
#X obj 314 347 +~;
#X obj 675 136 dispatch \$0 delay \$1;
#X connect 0 0 14 1;
#X connect 1 0 18 0;
#X connect 3 0 13 0;
#X connect 3 0 17 0;
#X connect 5 0 6 0;
#X connect 6 0 7 0;
#X connect 7 0 13 1;
#X connect 7 0 16 0;
#X connect 9 0 10 0;
#X connect 10 0 11 0;
#X connect 11 0 12 0;
#X connect 12 0 3 0;
#X connect 13 0 14 0;
#X connect 14 0 15 0;
#X connect 14 0 2 0;
#X connect 15 0 17 1;
#X connect 16 0 15 1;
#X connect 17 0 8 0;
#X connect 18 0 4 0;
