#N canvas 785 390 776 697 12;
#X obj 49 48 inlet;
#X obj 155 497 *~;
#X msg 46 298 1 \$1 \, 0 \$1 \$1;
#X obj 46 274 f 10;
#X obj 220 296 f 100;
#X obj 46 322 vline~;
#X obj 196 228 r \$2-position;
#X obj 155 521 throw~ \$2-output;
#X obj 220 368 delread4~ \$1;
#X obj 220 344 +~;
#X obj 325 271 line~;
#X obj 348 236 pack f f;
#X obj 49 72 t b b b b, f 38;
#X msg 307 200 0;
#X obj 220 320 sig~;
#X obj 348 212 t f f;
#X obj 184 154 snapshot~;
#X obj 183 125 r~ \$2-grain-size;
#X connect 0 0 12 0;
#X connect 1 0 7 0;
#X connect 2 0 5 0;
#X connect 3 0 2 0;
#X connect 4 0 14 0;
#X connect 5 0 1 0;
#X connect 6 0 4 1;
#X connect 8 0 1 1;
#X connect 9 0 8 0;
#X connect 10 0 9 1;
#X connect 11 0 10 0;
#X connect 12 0 3 0;
#X connect 12 1 4 0;
#X connect 12 2 16 0;
#X connect 12 3 13 0;
#X connect 13 0 10 0;
#X connect 14 0 9 0;
#X connect 15 0 11 0;
#X connect 15 1 11 1;
#X connect 16 0 15 0;
#X connect 16 0 3 1;
#X connect 17 0 16 0;
