#N canvas 1246 181 450 300 12;
#X obj 166 73 inlet;
#X obj 219 145 outlet;
#X obj 166 121 route \$2;
#X obj 166 169 s \$1-\$2;
#X obj 166 97 list trim;
#X obj 166 145 t b;
#X connect 0 0 4 0;
#X connect 2 0 5 0;
#X connect 2 1 1 0;
#X connect 4 0 2 0;
#X connect 5 0 3 0;
