#N canvas 649 314 777 487 12;
#X obj 260 101 inlet;
#X obj 348 197 outlet;
#X obj 260 197 s \$1-\$2;
#X obj 260 125 list trim;
#N canvas 1266 234 749 471 check-arg 0;
#X obj 179 184 makefilename $%d-EMPTY;
#X msg 69 156 bang;
#X obj 52 217 select DUMMY;
#X obj 52 39 loadbang;
#X obj 52 62 t b b;
#X obj 52 294 outlet;
#X text 182 85 Using an idiom by IOhannes;
#X msg 133 250 1;
#X msg 52 246 0;
#X obj 52 185 symbol \$3-EMPTY;
#X obj 179 157 3;
#X text 182 247 Output 0 if no \$3 argument present \, and 1 if \$3
is present even if it's 0!;
#X connect 0 0 2 1;
#X connect 1 0 9 0;
#X connect 2 0 8 0;
#X connect 2 1 7 0;
#X connect 3 0 4 0;
#X connect 4 0 9 0;
#X connect 4 1 10 0;
#X connect 7 0 5 0;
#X connect 8 0 5 0;
#X connect 9 0 2 0;
#X connect 10 0 0 0;
#X restore 167 101 pd check-arg;
#X obj 181 182 \$3;
#X obj 167 125 sel 1;
#X obj 304 173 t b;
#X msg 364 171 init;
#X obj 260 149 route \$2 init;
#X connect 0 0 3 0;
#X connect 3 0 9 0;
#X connect 4 0 6 0;
#X connect 5 0 2 0;
#X connect 6 0 5 0;
#X connect 7 0 5 0;
#X connect 7 0 8 0;
#X connect 8 0 1 0;
#X connect 9 0 2 0;
#X connect 9 1 7 0;
#X connect 9 2 1 0;
