#N canvas 1217 210 748 486 12;
#X obj 203 382 osc~;
#X obj 382 136 inlet~;
#X obj 258 229 osc~;
#X obj 203 340 +~;
#X obj 262 274 *~;
#X obj 203 426 outlet~;
#X obj 272 77 inlet~;
#X obj 203 147 inlet~;
#X obj 254 194 *~;
#X obj 299 134 sig~ 1;
#X obj 232 304 *~;
#X connect 0 0 5 0;
#X connect 1 0 4 1;
#X connect 2 0 4 0;
#X connect 3 0 0 0;
#X connect 4 0 10 1;
#X connect 6 0 8 1;
#X connect 7 0 3 0;
#X connect 7 0 8 0;
#X connect 7 0 10 0;
#X connect 8 0 2 0;
#X connect 9 0 8 1;
#X connect 10 0 3 1;
