#N canvas 1075 385 1033 547 12;
#X obj 259 406 metro 1 120 permin, f 19;
#X obj 202 212 tgl 20 0 empty empty empty 17 7 0 10 -262144 -1 -1 1
1;
#X obj 263 207 bng 25 250 50 0 empty empty empty 17 7 0 10 -262144
-1 -1;
#X msg 285 371 tempo \$1 permin;
#X floatatom 224 214 5 0 0 2 bpm - -;
#X obj 90 54 inlet;
#X obj 314 467 outlet;
#X obj 467 324 select 0 1;
#X msg 467 358 252;
#X msg 504 358 250;
#X msg 644 332 248;
#X obj 644 302 metro 20.8333;
#X floatatom 691 276 5 0 0 0 - - -;
#X obj 617 218 expr (60000/$f1/24);
#X obj 377 172 savestate;
#X obj 377 107 f;
#X obj 582 472 outlet;
#X obj 102 400 outlet;
#X msg 34 323 run \$1;
#X msg 180 363 bpm \$1;
#X obj 122 322 sel 0;
#X msg 122 348 reset;
#X obj 126 270 t f b;
#X obj 90 85 route run bpm;
#X obj 209 82 inlet;
#X obj 292 212 tgl 20 0 empty empty midi_clock 0 -6 0 10 -262144 -1
-1 0 1;
#X obj 575 417 spigot;
#X obj 270 166 unpack f f;
#X obj 377 147 pack f f;
#X connect 0 0 6 0;
#X connect 0 0 2 0;
#X connect 1 0 7 0;
#X connect 1 0 0 0;
#X connect 1 0 22 0;
#X connect 3 0 0 0;
#X connect 4 0 15 1;
#X connect 4 0 13 0;
#X connect 4 0 3 0;
#X connect 4 0 19 0;
#X connect 5 0 23 0;
#X connect 7 0 8 0;
#X connect 7 1 9 0;
#X connect 8 0 26 0;
#X connect 9 0 26 0;
#X connect 10 0 26 0;
#X connect 11 0 10 0;
#X connect 12 0 11 1;
#X connect 13 0 12 0;
#X connect 14 0 27 0;
#X connect 14 1 15 0;
#X connect 15 0 28 0;
#X connect 18 0 17 0;
#X connect 19 0 17 0;
#X connect 20 0 21 0;
#X connect 21 0 17 0;
#X connect 22 0 20 0;
#X connect 22 0 18 0;
#X connect 22 1 4 0;
#X connect 23 0 1 0;
#X connect 23 1 4 0;
#X connect 24 0 4 0;
#X connect 25 0 26 1;
#X connect 25 0 11 0;
#X connect 25 0 28 1;
#X connect 26 0 16 0;
#X connect 27 0 4 0;
#X connect 27 1 25 0;
#X connect 28 0 14 0;
#X coords 0 -1 1 1 153 34 2 200 200;
