#N canvas 718 346 1033 547 12;
#X obj 188 291 metro 1 120 permin, f 19;
#X obj 202 112 tgl 20 0 empty empty empty 17 7 0 10 -262144 -1 -1 0
1;
#X obj 263 107 bng 25 250 50 0 empty empty empty 17 7 0 10 -262144
-1 -1;
#X msg 214 256 tempo \$1 permin;
#X floatatom 224 114 5 0 0 2 bpm - -;
#X obj 126 61 inlet;
#X obj 204 44 inlet;
#X obj 243 352 outlet;
#X obj 513 245 select 0 1;
#X msg 513 279 252;
#X msg 550 279 250;
#X msg 622 272 248;
#X obj 622 242 metro 20.8333;
#X floatatom 669 216 5 0 0 0 - - -;
#X obj 595 158 expr (60000/$f1/24);
#X obj 364 251 savestate;
#X obj 365 219 f;
#X obj 622 342 outlet;
#X obj 30 233 outlet;
#X obj 270 66 unpack f;
#X obj 108 241 outlet;
#X connect 0 0 7 0;
#X connect 0 0 2 0;
#X connect 1 0 8 0;
#X connect 1 0 12 0;
#X connect 1 0 18 0;
#X connect 1 0 0 0;
#X connect 3 0 0 0;
#X connect 4 0 16 1;
#X connect 4 0 14 0;
#X connect 4 0 3 0;
#X connect 4 0 20 0;
#X connect 5 0 1 0;
#X connect 6 0 4 0;
#X connect 8 0 9 0;
#X connect 8 1 10 0;
#X connect 9 0 17 0;
#X connect 10 0 17 0;
#X connect 11 0 17 0;
#X connect 12 0 11 0;
#X connect 13 0 12 1;
#X connect 14 0 13 0;
#X connect 15 0 19 0;
#X connect 15 1 16 0;
#X connect 16 0 15 0;
#X connect 19 0 4 0;
#X coords 0 -1 1 1 90 34 2 200 100;
