#N canvas 199 524 1033 547 12;
#X obj 335 401 metro 1 120 permin, f 19;
#X msg 343 377 tempo \$1 permin;
#X obj 335 449 outlet;
#X obj 561 333 select 0 1;
#X msg 561 357 252;
#X msg 594 357 250;
#X msg 651 379 248;
#X obj 651 349 metro 20.8333;
#X obj 739 325 expr (60000/$f1/24);
#X obj 605 454 outlet;
#X obj 120 437 outlet;
#X msg 61 377 run \$1;
#X msg 174 401 bpm \$1;
#X obj 120 377 sel 0;
#X msg 120 401 reset;
#X obj 605 430 spigot;
#X obj 202 215 tgl 20 0 \$0-run-s \$0-run-r run 0 -7 0 10 -4034 -1
-1 1 1;
#X floatatom 227 217 5 0 0 2 bpm #0-bpm-r #0-bpm-s;
#X obj 269 215 bng 20 250 50 0 \$0-beat-indicator-s \$0-beat-indicator-r
empty 17 7 0 10 -262144 -1 -1;
#X obj 294 215 tgl 20 0 \$0-midi-enable-s \$0-midi-enable-r midi 0
-7 0 10 -262144 -1 -1 0 1;
#X obj 825 64 inlet;
#X obj 739 301 r \$0-bpm-s;
#X obj 651 277 r \$0-midi-enable-s;
#X obj 561 309 r \$0-run-s;
#X obj 825 88 dispatch \$0 bpm;
#X obj 825 112 dispatch \$0 run;
#X obj 825 144 r \$0-bpm;
#X obj 825 168 s \$0-bpm-r;
#X obj 825 192 r \$0-run;
#X obj 825 216 s \$0-bpm-r;
#X obj 343 353 r \$0-bpm-s;
#X obj 343 425 s \$0-beat-indicator-r;
#X obj 335 329 r \$0-run-s;
#X obj 174 377 r \$0-bpm-s;
#X obj 120 305 r \$0-run-s;
#X obj 487 88 f;
#X obj 487 112 pack f f;
#X obj 505 64 r \$0-bpm-s;
#X obj 540 88 r \$0-midi-enable-s;
#X obj 487 136 savestate;
#X obj 487 160 unpack f f;
#X obj 487 208 s \$0-bpm-r;
#X obj 554 184 s \$0-midi-enable-r;
#X obj 120 329 t f b;
#X obj 152 353 s \$0-bpm-r;
#X connect 0 0 2 0;
#X connect 0 0 31 0;
#X connect 1 0 0 0;
#X connect 3 0 4 0;
#X connect 3 1 5 0;
#X connect 4 0 15 0;
#X connect 5 0 15 0;
#X connect 6 0 15 0;
#X connect 7 0 6 0;
#X connect 8 0 7 1;
#X connect 11 0 10 0;
#X connect 12 0 10 0;
#X connect 13 0 14 0;
#X connect 14 0 10 0;
#X connect 15 0 9 0;
#X connect 20 0 24 0;
#X connect 21 0 8 0;
#X connect 22 0 7 0;
#X connect 23 0 3 0;
#X connect 24 0 25 0;
#X connect 26 0 27 0;
#X connect 28 0 29 0;
#X connect 30 0 1 0;
#X connect 32 0 0 0;
#X connect 33 0 12 0;
#X connect 34 0 43 0;
#X connect 35 0 36 0;
#X connect 36 0 39 0;
#X connect 37 0 35 1;
#X connect 38 0 36 1;
#X connect 39 0 40 0;
#X connect 39 1 35 0;
#X connect 40 0 41 0;
#X connect 40 1 42 0;
#X connect 43 0 13 0;
#X connect 43 0 11 0;
#X connect 43 1 44 0;
#X coords 0 -1 1 1 119 39 2 200 200;
