#N canvas 243 213 1449 989 12;
#X obj 197 307 inlet~;
#X obj 223 339 delwrite~ \$0-delay 4000;
#X obj 231 537 outlet~;
#X obj 158 102 hsl 128 25 10 3000 1 0 \$0-position-s \$0-position-r
position -55 12 0 10 -262144 -1 -1 0 1;
#X obj 158 132 hsl 128 25 0.1 10 0 0 \$0-speed-s \$0-speed-r speed
-45 12 0 10 -262144 -1 -1 6200 1;
#X obj 441 48 r \$0-position-s;
#X obj 441 82 s \$0-position;
#X obj 158 162 hsl 128 25 0 1 0 0 \$0-wetdry-s \$0-wetdry-r wet/dry
-55 12 0 10 -262144 -1 -1 10500 1;
#X obj 226 460 c_cpfade;
#X obj 311 419 r \$0-wetdry-s;
#X obj 748 102 i;
#X obj 778 102 + 1;
#X obj 244 383 catch~ \$0-output;
#X obj 748 68 inlet;
#X obj 1144 134 r \$0-position-s;
#X obj 1126 158 f;
#X obj 1149 182 r \$0-speed-s;
#X obj 1173 206 r \$0-wetdry-s;
#X obj 1126 302 savestate;
#X obj 1153 422 s \$0-speed-r;
#X obj 1180 398 s \$0-wetdry-r;
#X obj 1126 446 s \$0-position-s;
#X obj 158 192 hsl 128 25 1 1000 0 0 \$0-size-s \$0-size-r size -55
12 0 10 -262144 -1 -1 9500 1;
#X obj 1126 278 pack f f f f f;
#X obj 1126 326 unpack f f f f f;
#X obj 1235 350 s \$0-size-r;
#X obj 1221 254 r \$0-size-s;
#X obj 812 58 bng 15 250 50 0 empty empty empty 17 7 0 10 -262144 -1
-1;
#X obj 748 207 sel 0 1 2 3 4 5 6 7;
#X obj 748 399 delay-grain \$0-delay \$0;
#X obj 861 231 delay-grain \$0-delay \$0;
#X obj 845 255 delay-grain \$0-delay \$0;
#X obj 829 279 delay-grain \$0-delay \$0;
#X obj 813 303 delay-grain \$0-delay \$0;
#X obj 796 327 delay-grain \$0-delay \$0;
#X obj 780 351 delay-grain \$0-delay \$0;
#X obj 764 375 delay-grain \$0-delay \$0;
#X obj 480 269 r \$0-size-s;
#X obj 480 293 sig~;
#X obj 581 271 r \$0-speed;
#X obj 581 295 sig~;
#X obj 480 342 /~;
#X obj 480 379 s~ \$0-grain-size;
#X obj 748 174 % 8;
#X obj 158 222 hsl 128 25 0 1 0 0 \$0-feedback-s \$0-feedback-r feedback
-55 12 0 10 -262144 -1 -1 3700 1;
#X obj 1197 230 r \$0-feedback-s;
#X obj 1207 374 s \$0-feedback-r;
#X obj 74 487 *~;
#X obj 60 438 r \$0-feedback-s;
#X connect 0 0 1 0;
#X connect 0 0 8 0;
#X connect 5 0 6 0;
#X connect 8 0 2 0;
#X connect 8 0 47 1;
#X connect 9 0 8 2;
#X connect 10 0 11 0;
#X connect 10 0 43 0;
#X connect 11 0 10 1;
#X connect 12 0 8 1;
#X connect 13 0 10 0;
#X connect 14 0 15 1;
#X connect 15 0 23 0;
#X connect 16 0 23 1;
#X connect 17 0 23 2;
#X connect 18 0 24 0;
#X connect 18 1 15 0;
#X connect 23 0 18 0;
#X connect 24 0 21 0;
#X connect 24 1 19 0;
#X connect 24 2 20 0;
#X connect 24 3 46 0;
#X connect 24 4 25 0;
#X connect 26 0 23 4;
#X connect 27 0 10 0;
#X connect 28 0 29 0;
#X connect 28 1 36 0;
#X connect 28 2 35 0;
#X connect 28 3 34 0;
#X connect 28 4 33 0;
#X connect 28 5 32 0;
#X connect 28 6 31 0;
#X connect 28 7 30 0;
#X connect 37 0 38 0;
#X connect 38 0 41 0;
#X connect 39 0 40 0;
#X connect 40 0 41 1;
#X connect 41 0 42 0;
#X connect 43 0 28 0;
#X connect 45 0 23 3;
#X connect 47 0 1 0;
#X connect 48 0 47 0;
#X coords 0 -1 1 1 192 150 2 100 100;
