#N canvas 335 295 1288 1010 12;
#N canvas 474 261 450 300 harmonic 0;
#X obj 45 56 osc~;
#X obj 45 152 *~;
#X obj 63 104 pack 0 10;
#X obj 63 128 line~;
#X obj 45 32 inlet~;
#X obj 63 80 inlet;
#X obj 45 176 outlet~;
#X connect 0 0 1 0;
#X connect 1 0 6 0;
#X connect 2 0 3 0;
#X connect 3 0 1 1;
#X connect 4 0 0 0;
#X connect 5 0 2 0;
#X restore 84 467 pd harmonic;
#X obj 84 442 *~ 1;
#X obj 84 491 throw~ \$0-output;
#X obj 84 418 r~ \$0-freq;
#X obj 86 350 s~ \$0-freq;
#X obj 853 847 outlet~;
#N canvas 474 261 450 300 harmonic 0;
#X obj 45 56 osc~;
#X obj 45 152 *~;
#X obj 63 104 pack 0 10;
#X obj 63 128 line~;
#X obj 45 32 inlet~;
#X obj 63 80 inlet;
#X obj 45 176 outlet~;
#X connect 0 0 1 0;
#X connect 1 0 6 0;
#X connect 2 0 3 0;
#X connect 3 0 1 1;
#X connect 4 0 0 0;
#X connect 5 0 2 0;
#X restore 293 468 pd harmonic;
#X obj 293 492 throw~ \$0-output;
#X obj 293 419 r~ \$0-freq;
#X obj 86 326 inlet~;
#N canvas 474 261 450 300 harmonic 0;
#X obj 45 56 osc~;
#X obj 45 152 *~;
#X obj 63 104 pack 0 10;
#X obj 63 128 line~;
#X obj 45 32 inlet~;
#X obj 63 80 inlet;
#X obj 45 176 outlet~;
#X connect 0 0 1 0;
#X connect 1 0 6 0;
#X connect 2 0 3 0;
#X connect 3 0 1 1;
#X connect 4 0 0 0;
#X connect 5 0 2 0;
#X restore 84 564 pd harmonic;
#X obj 84 588 throw~ \$0-output;
#X obj 84 515 r~ \$0-freq;
#N canvas 474 261 450 300 harmonic 0;
#X obj 45 56 osc~;
#X obj 45 152 *~;
#X obj 63 104 pack 0 10;
#X obj 63 128 line~;
#X obj 45 32 inlet~;
#X obj 63 80 inlet;
#X obj 45 176 outlet~;
#X connect 0 0 1 0;
#X connect 1 0 6 0;
#X connect 2 0 3 0;
#X connect 3 0 1 1;
#X connect 4 0 0 0;
#X connect 5 0 2 0;
#X restore 293 565 pd harmonic;
#X obj 293 589 throw~ \$0-output;
#X obj 293 516 r~ \$0-freq;
#N canvas 474 261 450 300 harmonic 0;
#X obj 45 56 osc~;
#X obj 45 152 *~;
#X obj 63 104 pack 0 10;
#X obj 63 128 line~;
#X obj 45 32 inlet~;
#X obj 63 80 inlet;
#X obj 45 176 outlet~;
#X connect 0 0 1 0;
#X connect 1 0 6 0;
#X connect 2 0 3 0;
#X connect 3 0 1 1;
#X connect 4 0 0 0;
#X connect 5 0 2 0;
#X restore 84 661 pd harmonic;
#X obj 84 685 throw~ \$0-output;
#X obj 84 612 r~ \$0-freq;
#N canvas 474 261 450 300 harmonic 0;
#X obj 45 56 osc~;
#X obj 45 152 *~;
#X obj 63 104 pack 0 10;
#X obj 63 128 line~;
#X obj 45 32 inlet~;
#X obj 63 80 inlet;
#X obj 45 176 outlet~;
#X connect 0 0 1 0;
#X connect 1 0 6 0;
#X connect 2 0 3 0;
#X connect 3 0 1 1;
#X connect 4 0 0 0;
#X connect 5 0 2 0;
#X restore 293 662 pd harmonic;
#X obj 293 686 throw~ \$0-output;
#X obj 293 613 r~ \$0-freq;
#N canvas 474 261 450 300 harmonic 0;
#X obj 45 56 osc~;
#X obj 45 152 *~;
#X obj 63 104 pack 0 10;
#X obj 63 128 line~;
#X obj 45 32 inlet~;
#X obj 63 80 inlet;
#X obj 45 176 outlet~;
#X connect 0 0 1 0;
#X connect 1 0 6 0;
#X connect 2 0 3 0;
#X connect 3 0 1 1;
#X connect 4 0 0 0;
#X connect 5 0 2 0;
#X restore 84 758 pd harmonic;
#X obj 84 782 throw~ \$0-output;
#X obj 84 709 r~ \$0-freq;
#N canvas 474 261 450 300 harmonic 0;
#X obj 45 56 osc~;
#X obj 45 152 *~;
#X obj 63 104 pack 0 10;
#X obj 63 128 line~;
#X obj 45 32 inlet~;
#X obj 63 80 inlet;
#X obj 45 176 outlet~;
#X connect 0 0 1 0;
#X connect 1 0 6 0;
#X connect 2 0 3 0;
#X connect 3 0 1 1;
#X connect 4 0 0 0;
#X connect 5 0 2 0;
#X restore 293 759 pd harmonic;
#X obj 293 783 throw~ \$0-output;
#X obj 293 710 r~ \$0-freq;
#X obj 293 443 *~ 2;
#X obj 84 539 *~ 3;
#X obj 293 540 *~ 4;
#X obj 84 636 *~ 5;
#X obj 293 637 *~ 6;
#X obj 84 733 *~ 7;
#X obj 293 734 *~ 8;
#X obj 104 117 vsl 20 100 0.01 1 1 0 \$0-harm1-level-s \$0-harm1-level-r
1 7 -9 0 10 -262144 -1 -1 9900 1;
#X obj 869 332 r \$0-harm1-level-s;
#X obj 127 117 vsl 20 100 0.01 1 1 0 \$0-harm2-level-s \$0-harm2-level-r
2 7 -9 0 10 -262144 -1 -1 6400 1;
#X obj 150 117 vsl 20 100 0.01 1 1 0 \$0-harm3-level-s \$0-harm3-level-r
3 7 -9 0 10 -262144 -1 -1 6400 1;
#X obj 173 117 vsl 20 100 0.01 1 1 0 \$0-harm4-level-s \$0-harm4-level-r
4 7 -9 0 10 -262144 -1 -1 3400 1;
#X obj 196 117 vsl 20 100 0.01 1 1 0 \$0-harm5-level-s \$0-harm5-level-r
5 7 -9 0 10 -262144 -1 -1 5200 1;
#X obj 219 117 vsl 20 100 0.01 1 1 0 \$0-harm6-level-s \$0-harm6-level-r
6 7 -9 0 10 -262144 -1 -1 2000 1;
#X obj 242 117 vsl 20 100 0.01 1 1 0 \$0-harm7-level-s \$0-harm7-level-r
7 7 -9 0 10 -262144 -1 -1 3400 1;
#X obj 265 117 vsl 20 100 0.01 1 1 0 \$0-harm8-level-s \$0-harm8-level-r
8 7 -9 0 10 -262144 -1 -1 7800 1;
#X obj 851 356 f;
#X obj 851 524 pack f f f f f f f f, f 32;
#X obj 1072 500 r \$0-harm8-level-s;
#X obj 1040 476 r \$0-harm7-level-s;
#X obj 1008 452 r \$0-harm6-level-s;
#X obj 977 428 r \$0-harm5-level-s;
#X obj 945 404 r \$0-harm4-level-s;
#X obj 914 380 r \$0-harm3-level-s;
#X obj 882 356 r \$0-harm2-level-s;
#X obj 851 548 savestate;
#X obj 851 572 unpack f f f f f f f f, f 32;
#X obj 1072 596 s \$0-harm8-level-r;
#X obj 1040 620 s \$0-harm7-level-r;
#X obj 1008 644 s \$0-harm6-level-r;
#X obj 977 668 s \$0-harm5-level-r;
#X obj 945 692 s \$0-harm4-level-r;
#X obj 914 716 s \$0-harm3-level-r;
#X obj 882 740 s \$0-harm2-level-r;
#X obj 851 764 s \$0-harm1-level-r;
#X obj 367 444 r \$0-harm2-level-s;
#X obj 158 443 r \$0-harm1-level-s;
#X obj 158 540 r \$0-harm3-level-s;
#X obj 158 637 r \$0-harm5-level-s;
#X obj 158 734 r \$0-harm7-level-s;
#X obj 367 541 r \$0-harm4-level-s;
#X obj 367 638 r \$0-harm6-level-s;
#X obj 367 735 r \$0-harm8-level-s;
#X obj 853 823 catch~ \$0-output;
#X connect 0 0 2 0;
#X connect 1 0 0 0;
#X connect 3 0 1 0;
#X connect 6 0 7 0;
#X connect 8 0 28 0;
#X connect 9 0 4 0;
#X connect 10 0 11 0;
#X connect 12 0 29 0;
#X connect 13 0 14 0;
#X connect 15 0 30 0;
#X connect 16 0 17 0;
#X connect 18 0 31 0;
#X connect 19 0 20 0;
#X connect 21 0 32 0;
#X connect 22 0 23 0;
#X connect 24 0 33 0;
#X connect 25 0 26 0;
#X connect 27 0 34 0;
#X connect 28 0 6 0;
#X connect 29 0 10 0;
#X connect 30 0 13 0;
#X connect 31 0 16 0;
#X connect 32 0 19 0;
#X connect 33 0 22 0;
#X connect 34 0 25 0;
#X connect 36 0 44 1;
#X connect 44 0 45 0;
#X connect 45 0 53 0;
#X connect 46 0 45 7;
#X connect 47 0 45 6;
#X connect 48 0 45 5;
#X connect 49 0 45 4;
#X connect 50 0 45 3;
#X connect 51 0 45 2;
#X connect 52 0 45 1;
#X connect 53 0 54 0;
#X connect 53 1 44 0;
#X connect 54 0 62 0;
#X connect 54 1 61 0;
#X connect 54 2 60 0;
#X connect 54 3 59 0;
#X connect 54 4 58 0;
#X connect 54 5 57 0;
#X connect 54 6 56 0;
#X connect 54 7 55 0;
#X connect 63 0 6 1;
#X connect 64 0 0 1;
#X connect 65 0 10 1;
#X connect 66 0 16 1;
#X connect 67 0 22 1;
#X connect 68 0 13 1;
#X connect 69 0 19 1;
#X connect 70 0 25 1;
#X connect 71 0 5 0;
#X coords 0 -1 1 1 189 123 2 100 100;
