#N canvas 1193 395 1035 809 12;
#X obj 106 102 hsl 150 20 0 1 0 0 \$0-ks-resonance-s \$0-ks-resonance-r
resonance -65 10 0 10 -262144 -1 -1 8300 1;
#X obj 106 125 hsl 150 20 7000 200 0 0 \$0-ks-damping-s \$0-ks-damping-r
damping -54 10 0 10 -262144 -1 -1 700 1;
#X obj 106 148 hsl 150 20 200 5000 1 0 \$0-ks-colour-s \$0-ks-colour-r
colour -46 10 0 10 -262144 -1 -1 5600 1;
#X obj 106 171 hsl 150 20 10 500 1 0 \$0-ks-contour-s \$0-ks-contour-r
contour -50 10 0 10 -262144 -1 -1 4000 1;
#X obj 103 193 hradio 26 1 0 4 \$0-ks-voices-s \$0-ks-voices-r voices
-43 10 0 10 -262144 -1 -1 3;
#X obj 132 343 i;
#X obj 162 343 + 1;
#X obj 132 415 % 4;
#X obj 100 439 list prepend;
#X obj 100 319 t f b;
#X obj 162 391 + 1;
#X obj 100 463 route 0 1 2 3;
#X obj 100 295 inlet;
#X obj 100 559 s \$0-ks-voice1;
#X obj 166 487 s \$0-ks-voice4;
#X obj 122 535 s \$0-ks-voice2;
#X obj 320 462 ks-resonator 1 1000 1000 10;
#X obj 506 438 r \$0-ks-contour-s;
#X obj 366 366 r \$0-ks-resonance-s;
#X obj 413 390 r \$0-ks-damping-s;
#X obj 459 414 r \$0-ks-colour-s;
#X obj 320 342 r \$0-ks-voice1;
#X obj 162 367 r \$0-ks-voices-s;
#X obj 320 626 ks-resonator 1 1000 1000 10;
#X obj 506 602 r \$0-ks-contour-s;
#X obj 366 530 r \$0-ks-resonance-s;
#X obj 413 554 r \$0-ks-damping-s;
#X obj 459 578 r \$0-ks-colour-s;
#X obj 320 506 r \$0-ks-voice2;
#X obj 320 134 ks-resonator 1 1000 1000 10;
#X obj 506 110 r \$0-ks-contour-s;
#X obj 366 38 r \$0-ks-resonance-s;
#X obj 413 62 r \$0-ks-damping-s;
#X obj 459 86 r \$0-ks-colour-s;
#X obj 320 298 ks-resonator 1 1000 1000 10;
#X obj 506 274 r \$0-ks-contour-s;
#X obj 366 202 r \$0-ks-resonance-s;
#X obj 413 226 r \$0-ks-damping-s;
#X obj 459 250 r \$0-ks-colour-s;
#X obj 320 14 r \$0-ks-voice3;
#X obj 320 178 r \$0-ks-voice4;
#X obj 833 168 r \$0-ks-contour-s;
#X obj 767 96 r \$0-ks-resonance-s;
#X obj 789 120 r \$0-ks-damping-s;
#X obj 811 144 r \$0-ks-colour-s;
#X obj 746 71 f;
#X obj 746 240 savestate;
#X obj 764 47 r \$0-ks-voices-s;
#X obj 844 312 s \$0-ks-contour-r;
#X obj 819 336 s \$0-ks-colour-r;
#X obj 795 360 s \$0-ks-damping-r;
#X obj 770 384 s \$0-ks-resonance-r;
#X obj 746 408 s \$0-ks-voices-r;
#X obj 232 193 bng 12 250 50 0 empty empty empty 17 7 0 10 -262144
-1 -1;
#X obj 144 511 s \$0-ks-voice1;
#X obj 106 79 hsl 150 20 0 1 0 0 \$0-ks-volume-s \$0-ks-volume-r volume
-45 10 0 10 -262144 -1 -1 2200 1;
#X obj 246 193 bng 12 250 50 0 empty empty empty 17 7 0 10 -262144
-1 -1;
#X obj 232 207 bng 12 250 50 0 empty empty empty 17 7 0 10 -262144
-1 -1;
#X obj 246 207 bng 12 250 50 0 empty empty empty 17 7 0 10 -262144
-1 -1;
#X obj 322 728 line~;
#X obj 322 680 r \$0-ks-volume-s;
#X msg 322 704 \$1 15;
#X obj 304 752 *~;
#X obj 304 776 outlet~;
#X obj 746 216 pack f f f f f f;
#X obj 746 264 unpack f f f f f f;
#X obj 855 192 r \$0-ks-volume-s;
#X obj 869 288 s \$0-ks-volume-r;
#X connect 5 0 7 0;
#X connect 5 0 6 0;
#X connect 6 0 5 1;
#X connect 7 0 8 1;
#X connect 8 0 11 0;
#X connect 9 0 8 0;
#X connect 9 1 5 0;
#X connect 10 0 7 1;
#X connect 11 0 13 0;
#X connect 11 0 53 0;
#X connect 11 1 15 0;
#X connect 11 1 56 0;
#X connect 11 2 54 0;
#X connect 11 2 57 0;
#X connect 11 3 14 0;
#X connect 11 3 58 0;
#X connect 12 0 9 0;
#X connect 16 0 62 0;
#X connect 17 0 16 4;
#X connect 18 0 16 1;
#X connect 19 0 16 2;
#X connect 20 0 16 3;
#X connect 21 0 16 0;
#X connect 22 0 10 0;
#X connect 23 0 62 0;
#X connect 24 0 23 4;
#X connect 25 0 23 1;
#X connect 26 0 23 2;
#X connect 27 0 23 3;
#X connect 28 0 23 0;
#X connect 29 0 62 0;
#X connect 30 0 29 4;
#X connect 31 0 29 1;
#X connect 32 0 29 2;
#X connect 33 0 29 3;
#X connect 34 0 62 0;
#X connect 35 0 34 4;
#X connect 36 0 34 1;
#X connect 37 0 34 2;
#X connect 38 0 34 3;
#X connect 39 0 29 0;
#X connect 40 0 34 0;
#X connect 41 0 64 4;
#X connect 42 0 64 1;
#X connect 43 0 64 2;
#X connect 44 0 64 3;
#X connect 45 0 64 0;
#X connect 46 0 65 0;
#X connect 46 1 45 0;
#X connect 47 0 45 1;
#X connect 59 0 62 1;
#X connect 60 0 61 0;
#X connect 61 0 59 0;
#X connect 62 0 63 0;
#X connect 64 0 46 0;
#X connect 65 0 52 0;
#X connect 65 1 51 0;
#X connect 65 2 50 0;
#X connect 65 3 49 0;
#X connect 65 4 48 0;
#X connect 65 5 67 0;
#X connect 66 0 64 5;
#X coords 0 -1 1 1 220 144 2 40 77;
