#N canvas 459 152 1713 963 12;
#X obj 106 102 hsl 150 20 0 1 0 0 \$0-ks-resonance-s \$0-ks-resonance-r
resonance -65 10 0 10 -262144 -1 -1 12400 1;
#X obj 106 125 hsl 150 20 7000 200 0 0 \$0-ks-damping-s \$0-ks-damping-r
damping -54 10 0 10 -262144 -1 -1 2300 1;
#X obj 106 148 hsl 150 20 200 5000 1 0 \$0-ks-colour-s \$0-ks-colour-r
colour -46 10 0 10 -262144 -1 -1 7200 1;
#X obj 106 171 hsl 150 20 10 500 1 0 \$0-ks-contour-s \$0-ks-contour-r
contour -50 10 0 10 -262144 -1 -1 1900 1;
#X obj 132 391 i;
#X obj 162 391 + 1;
#X obj 132 415 % 4;
#X obj 100 439 list prepend;
#X obj 100 367 t f b;
#X obj 100 463 route 0 1 2 3;
#X obj 100 343 inlet;
#X obj 100 559 s \$0-ks-voice1;
#X obj 166 487 s \$0-ks-voice4;
#X obj 122 535 s \$0-ks-voice2;
#X obj 334 286 ks-resonator 1 1000 1000 10;
#X obj 232 193 bng 12 250 50 0 empty empty empty 17 7 0 10 -262144
-1 -1;
#X obj 106 79 hsl 150 20 0 1 0 0 \$0-ks-volume-s \$0-ks-volume-r volume
-45 10 0 10 -262144 -1 -1 13500 1;
#X obj 246 193 bng 12 250 50 0 empty empty empty 17 7 0 10 -262144
-1 -1;
#X obj 232 207 bng 12 250 50 0 empty empty empty 17 7 0 10 -262144
-1 -1;
#X obj 246 207 bng 12 250 50 0 empty empty empty 17 7 0 10 -262144
-1 -1;
#X obj 116 690 line~;
#X obj 116 642 r \$0-ks-volume-s;
#X msg 116 666 \$1 15;
#X obj 98 714 *~;
#X obj 98 738 outlet~;
#X obj 1248 245 r \$0-ks-contour-s;
#X obj 1195 149 r \$0-ks-resonance-s;
#X obj 1200 197 r \$0-ks-damping-s;
#X obj 1224 221 r \$0-ks-colour-s;
#X obj 1177 173 f;
#X obj 1177 317 savestate;
#X obj 1258 389 s \$0-ks-contour-r;
#X obj 1231 413 s \$0-ks-colour-r;
#X obj 1204 437 s \$0-ks-damping-r;
#X obj 1177 461 s \$0-ks-resonance-r;
#X obj 1177 489 r \$0-ks-resonance-s;
#X msg 1177 513 resonance \$1;
#X obj 1177 537 s \$0-controls;
#X obj 1177 561 r \$0-ks-damping-s;
#X msg 1177 585 damping \$1;
#X obj 1177 609 s \$0-controls;
#X obj 1177 633 r \$0-ks-colour-s;
#X msg 1177 657 colour \$1;
#X obj 1177 681 s \$0-controls;
#X obj 1177 705 r \$0-ks-contour-s;
#X msg 1177 729 contour \$1;
#X obj 1177 753 s \$0-controls;
#X obj 1411 98 inlet;
#X obj 1411 122 dispatch \$0 resonance;
#X obj 1411 146 dispatch \$0 damping;
#X obj 1411 170 dispatch \$0 colour;
#X obj 1411 194 dispatch \$0 contour;
#X obj 1339 489 r \$0-resonance;
#X obj 1339 513 s \$0-ks-resonance-s;
#X obj 1339 537 r \$0-damping;
#X obj 1339 561 s \$0-ks-resonance-s;
#X obj 1339 585 r \$0-colour;
#X obj 1339 609 s \$0-ks-colour-s;
#X obj 1339 633 r \$0-contour;
#X obj 1339 657 s \$0-ks-contour-s;
#X obj 334 310 throw~ \$0-output;
#X obj 334 142 r \$0-ks-voice1;
#X obj 144 511 s \$0-ks-voice3;
#X obj 98 618 catch~ \$0-output;
#X obj 520 262 r \$0-controls;
#X obj 1177 293 pack f f f f f;
#X obj 1177 341 unpack f f f f f;
#X obj 1272 269 r \$0-ks-volume-s;
#X obj 1411 218 dispatch \$0 volume;
#X obj 1339 681 r \$0-volume;
#X obj 1339 705 s \$0-ks-volume-s;
#X obj 1286 365 s \$0-ks-volume-r;
#X obj 336 49 inlet~ resonance;
#X obj 336 73 s~ \$0-resonance;
#X obj 457 49 inlet~ damping;
#X obj 564 49 inlet~ colour;
#X obj 564 73 s~ \$0-colour;
#X obj 457 73 s~ \$0-damping;
#X obj 664 49 inlet~ contour;
#X obj 664 73 s~ \$0-contour;
#X obj 482 238 r~ \$0-contour;
#X obj 445 214 r~ \$0-colour;
#X obj 408 190 r~ \$0-damping;
#X obj 371 166 r~ \$0-resonance;
#X obj 334 478 ks-resonator 1 1000 1000 10;
#X obj 334 502 throw~ \$0-output;
#X obj 520 454 r \$0-controls;
#X obj 482 430 r~ \$0-contour;
#X obj 445 406 r~ \$0-colour;
#X obj 408 382 r~ \$0-damping;
#X obj 371 358 r~ \$0-resonance;
#X obj 633 286 ks-resonator 1 1000 1000 10;
#X obj 633 310 throw~ \$0-output;
#X obj 819 262 r \$0-controls;
#X obj 781 238 r~ \$0-contour;
#X obj 744 214 r~ \$0-colour;
#X obj 707 190 r~ \$0-damping;
#X obj 670 166 r~ \$0-resonance;
#X obj 633 478 ks-resonator 1 1000 1000 10;
#X obj 633 502 throw~ \$0-output;
#X obj 819 454 r \$0-controls;
#X obj 781 430 r~ \$0-contour;
#X obj 744 406 r~ \$0-colour;
#X obj 707 382 r~ \$0-damping;
#X obj 670 358 r~ \$0-resonance;
#X obj 633 142 r \$0-ks-voice2;
#X obj 334 334 r \$0-ks-voice3;
#X obj 633 334 r \$0-ks-voice4;
#X connect 4 0 6 0;
#X connect 4 0 5 0;
#X connect 5 0 4 1;
#X connect 6 0 7 1;
#X connect 7 0 9 0;
#X connect 8 0 7 0;
#X connect 8 1 4 0;
#X connect 9 0 11 0;
#X connect 9 0 15 0;
#X connect 9 1 13 0;
#X connect 9 1 17 0;
#X connect 9 2 18 0;
#X connect 9 2 62 0;
#X connect 9 3 12 0;
#X connect 9 3 19 0;
#X connect 10 0 8 0;
#X connect 14 0 60 0;
#X connect 20 0 23 1;
#X connect 21 0 22 0;
#X connect 22 0 20 0;
#X connect 23 0 24 0;
#X connect 25 0 65 3;
#X connect 26 0 29 1;
#X connect 27 0 65 1;
#X connect 28 0 65 2;
#X connect 29 0 65 0;
#X connect 30 0 66 0;
#X connect 30 1 29 0;
#X connect 35 0 36 0;
#X connect 36 0 37 0;
#X connect 38 0 39 0;
#X connect 39 0 40 0;
#X connect 41 0 42 0;
#X connect 42 0 43 0;
#X connect 44 0 45 0;
#X connect 45 0 46 0;
#X connect 47 0 48 0;
#X connect 48 0 49 0;
#X connect 49 0 50 0;
#X connect 50 0 51 0;
#X connect 51 0 68 0;
#X connect 52 0 53 0;
#X connect 54 0 55 0;
#X connect 56 0 57 0;
#X connect 58 0 59 0;
#X connect 61 0 14 0;
#X connect 63 0 23 0;
#X connect 64 0 14 5;
#X connect 65 0 30 0;
#X connect 66 0 34 0;
#X connect 66 1 33 0;
#X connect 66 2 32 0;
#X connect 66 3 31 0;
#X connect 66 4 71 0;
#X connect 67 0 65 4;
#X connect 69 0 70 0;
#X connect 72 0 73 0;
#X connect 74 0 77 0;
#X connect 75 0 76 0;
#X connect 78 0 79 0;
#X connect 80 0 14 4;
#X connect 81 0 14 3;
#X connect 82 0 14 2;
#X connect 83 0 14 1;
#X connect 84 0 85 0;
#X connect 86 0 84 5;
#X connect 87 0 84 4;
#X connect 88 0 84 3;
#X connect 89 0 84 2;
#X connect 90 0 84 1;
#X connect 91 0 92 0;
#X connect 93 0 91 5;
#X connect 94 0 91 4;
#X connect 95 0 91 3;
#X connect 96 0 91 2;
#X connect 97 0 91 1;
#X connect 98 0 99 0;
#X connect 100 0 98 5;
#X connect 101 0 98 4;
#X connect 102 0 98 3;
#X connect 103 0 98 2;
#X connect 104 0 98 1;
#X connect 105 0 91 0;
#X connect 106 0 84 0;
#X connect 107 0 98 0;
#X coords 0 -1 1 1 220 144 2 40 77;
