#N canvas 419 263 1314 743 12;
#X obj 122 169 sig~ 1;
#X obj 122 217 delread4~ \$0-kps-delay-line;
#X obj 122 427 outlet~;
#X obj 787 348 noise~;
#X obj 787 376 vcf~ 1;
#X obj 852 236 pack 0 50;
#X obj 852 260 line~;
#X obj 826 424 vcf~ 1;
#X obj 826 400 *~ 2;
#X obj 122 73 inlet excite;
#X obj 867 513 *~;
#X obj 993 382 pack f f;
#X obj 993 430 vline~;
#X obj 992 142 r \$0-excite-trigger;
#X obj 186 121 s \$0-excite-trigger;
#X obj 368 410 *~;
#X obj 425 261 pack 0 50;
#X obj 425 285 line~;
#X msg 993 406 1 \$1 \, 0 \$1 \$1;
#X text 416 29 Based on the karplus-strong implementation in the Automationism
library by Johan Eriksson;
#X obj 476 648 delwrite~ \$0-kps-delay-line 20;
#X obj 122 97 t f b;
#X obj 425 189 clip 0 1;
#X obj 1018 214 clip 1 500;
#X obj 425 213 * 0.1;
#X obj 122 145 /;
#X floatatom 60 176 5 0 0 0 - - -;
#X floatatom 51 132 5 0 0 0 - - -;
#X msg 122 121 1000 \$1;
#X obj 76 96 bng 15 250 50 0 empty empty empty 17 7 0 10 -262144 -1
-1;
#X obj 425 237 + 0.89999;
#X obj 599 270 clip 200 7000;
#X obj 852 212 clip 200 5000;
#X obj 368 482 *~ 0.9999;
#X floatatom 615 399 5 0 0 0 - - -;
#X floatatom 347 279 5 0 0 0 - - -;
#X obj 1113 6 inlet;
#X obj 1113 30 dispatch \$0 resonance;
#X obj 1113 54 dispatch \$0 damping;
#X obj 1113 78 dispatch \$0 colour;
#X obj 1113 102 dispatch \$0 contour;
#X obj 1018 190 r \$0-contour;
#X obj 852 164 r \$0-colour;
#X obj 599 246 r \$0-damping;
#X obj 433 141 r \$0-resonance;
#X obj 368 434 lop~ \$2;
#X obj 368 458 lop~ \$2;
#X obj 993 238 f \$4;
#X obj 852 188 f \$3;
#X obj 787 164 loadbang;
#X obj 425 165 f \$1;
#X obj 425 117 loadbang;
#X obj 360 71 inlet~;
#X obj 360 119 *~ 0.1;
#X obj 407 309 +~;
#X obj 407 333 clip~ 0.8999 0.9999;
#X obj 599 174 inlet~;
#X obj 591 198 snapshot~;
#X obj 591 150 r \$0-excite-trigger;
#X obj 360 95 +~ 1;
#X obj 591 222 + 1;
#X obj 591 318 *;
#X obj 599 294 t b f;
#X obj 834 116 inlet~;
#X obj 834 140 +~ 1;
#X obj 834 284 *~;
#X obj 1011 262 inlet~;
#X obj 1011 286 snapshot~;
#X obj 1011 310 + 1;
#X obj 1011 334 clip 0.1 10;
#X obj 992 166 t b b;
#X obj 993 358 *;
#X connect 0 0 1 0;
#X connect 1 0 2 0;
#X connect 1 0 15 0;
#X connect 3 0 4 0;
#X connect 4 1 8 0;
#X connect 5 0 6 0;
#X connect 6 0 65 1;
#X connect 7 1 10 0;
#X connect 8 0 7 0;
#X connect 9 0 21 0;
#X connect 10 0 20 0;
#X connect 11 0 18 0;
#X connect 12 0 10 1;
#X connect 13 0 70 0;
#X connect 15 0 45 0;
#X connect 16 0 17 0;
#X connect 17 0 54 1;
#X connect 18 0 12 0;
#X connect 21 0 28 0;
#X connect 21 0 27 0;
#X connect 21 1 14 0;
#X connect 21 1 29 0;
#X connect 22 0 24 0;
#X connect 23 0 47 1;
#X connect 24 0 30 0;
#X connect 25 0 0 0;
#X connect 25 0 26 0;
#X connect 28 0 25 0;
#X connect 30 0 16 0;
#X connect 30 0 35 0;
#X connect 31 0 62 0;
#X connect 32 0 5 0;
#X connect 33 0 20 0;
#X connect 36 0 37 0;
#X connect 37 0 38 0;
#X connect 38 0 39 0;
#X connect 39 0 40 0;
#X connect 41 0 23 0;
#X connect 42 0 48 0;
#X connect 43 0 31 0;
#X connect 44 0 50 0;
#X connect 45 0 46 0;
#X connect 46 0 33 0;
#X connect 47 0 71 0;
#X connect 48 0 32 0;
#X connect 49 0 48 0;
#X connect 50 0 22 0;
#X connect 51 0 50 0;
#X connect 52 0 59 0;
#X connect 53 0 54 0;
#X connect 54 0 55 0;
#X connect 55 0 15 1;
#X connect 56 0 57 0;
#X connect 57 0 60 0;
#X connect 58 0 57 0;
#X connect 59 0 53 0;
#X connect 60 0 61 0;
#X connect 61 0 34 0;
#X connect 61 0 45 1;
#X connect 61 0 46 1;
#X connect 62 0 61 0;
#X connect 62 1 61 1;
#X connect 63 0 64 0;
#X connect 64 0 65 0;
#X connect 65 0 4 1;
#X connect 65 0 7 1;
#X connect 66 0 67 0;
#X connect 67 0 68 0;
#X connect 68 0 69 0;
#X connect 69 0 71 1;
#X connect 70 0 47 0;
#X connect 70 1 67 0;
#X connect 71 0 11 0;
