#N canvas 823 413 1044 743 12;
#X obj 122 169 sig~ 1;
#X obj 122 217 delread4~ \$0-kps-delay-line;
#X obj 122 427 outlet~;
#X obj 595 221 noise~;
#X obj 595 249 vcf~ 1;
#X obj 653 197 pack 0 50;
#X obj 653 221 line~;
#X obj 634 297 vcf~ 1;
#X obj 634 273 *~ 2;
#X obj 122 73 inlet excite;
#X obj 653 101 inlet colour;
#X obj 673 468 *~;
#X obj 774 316 pack f f;
#X obj 774 364 vline~;
#X obj 774 292 f;
#X obj 774 172 r \$0-excite-trigger;
#X obj 186 121 s \$0-excite-trigger;
#X obj 340 278 *~;
#X obj 358 230 pack 0 50;
#X obj 358 254 line~;
#X obj 340 302 lop~;
#X obj 340 326 lop~;
#X obj 358 86 inlet resonance;
#X msg 774 340 1 \$1 \, 0 \$1 \$1;
#X obj 792 196 inlet contour;
#X text 416 29 Based on the karplus-strong implementation in the Automationism
library by Johan Eriksson;
#X obj 450 182 inlet damping;
#X obj 425 567 delwrite~ \$0-kps-delay-line 20;
#X obj 122 97 t f b;
#X obj 383 110 loadbang;
#X obj 475 206 loadbang;
#X obj 358 158 clip 0 1;
#X obj 358 134 f \$1;
#X obj 450 230 f \$2;
#X obj 653 149 f \$3;
#X obj 678 125 loadbang;
#X obj 792 244 f \$4;
#X obj 817 220 loadbang;
#X obj 792 268 clip 1 500;
#X obj 358 182 * 0.1;
#X obj 122 145 /;
#X floatatom 60 176 5 0 0 0 - - -;
#X floatatom 51 132 5 0 0 0 - - -;
#X msg 122 121 1000 \$1;
#X obj 76 96 bng 15 250 50 0 empty empty empty 17 7 0 10 -262144 -1
-1;
#X obj 358 206 + 0.89999;
#X obj 450 254 clip 200 7000;
#X obj 653 173 clip 200 5000;
#X obj 340 350 *~ 0.9999;
#X connect 0 0 1 0;
#X connect 1 0 2 0;
#X connect 1 0 17 0;
#X connect 3 0 4 0;
#X connect 4 1 8 0;
#X connect 5 0 6 0;
#X connect 6 0 4 1;
#X connect 6 0 7 1;
#X connect 7 1 11 0;
#X connect 8 0 7 0;
#X connect 9 0 28 0;
#X connect 10 0 34 0;
#X connect 11 0 27 0;
#X connect 12 0 23 0;
#X connect 13 0 11 1;
#X connect 14 0 12 0;
#X connect 15 0 14 0;
#X connect 17 0 20 0;
#X connect 18 0 19 0;
#X connect 19 0 17 1;
#X connect 20 0 21 0;
#X connect 21 0 48 0;
#X connect 22 0 32 0;
#X connect 23 0 13 0;
#X connect 24 0 36 0;
#X connect 26 0 33 0;
#X connect 28 0 43 0;
#X connect 28 0 42 0;
#X connect 28 1 16 0;
#X connect 28 1 44 0;
#X connect 29 0 32 0;
#X connect 30 0 33 0;
#X connect 31 0 39 0;
#X connect 32 0 31 0;
#X connect 33 0 46 0;
#X connect 34 0 47 0;
#X connect 35 0 34 0;
#X connect 36 0 38 0;
#X connect 37 0 36 0;
#X connect 38 0 14 1;
#X connect 39 0 45 0;
#X connect 40 0 0 0;
#X connect 40 0 41 0;
#X connect 43 0 40 0;
#X connect 45 0 18 0;
#X connect 46 0 20 1;
#X connect 46 0 21 1;
#X connect 47 0 5 0;
#X connect 48 0 27 0;
