#N canvas 1055 291 450 300 12;
#X obj 95 76 inlet;
#X obj 90 216 outlet;
#X obj 172 78 inlet;
#X obj 166 212 outlet;
#X obj 173 105 tgl 15 0 empty empty empty 17 7 0 10 -262144 -1 -1 1
1;
#X obj 105 134 list prepend;
#X obj 111 171 route 1;
#X connect 0 0 5 0;
#X connect 2 0 4 0;
#X connect 4 0 5 1;
#X connect 5 0 6 0;
#X connect 6 0 1 0;
#X connect 6 1 3 0;
