#N canvas 654 467 902 478 12;
#X obj 383 132 inlet~;
#X obj 266 146 inlet~;
#X msg 477 177 \$1 100;
#X obj 477 201 line~;
#X obj 266 185 *~;
#X floatatom 139 102 5 0 0 0 db #0-db-volume-r #0-db-volume-s;
#X obj 485 129 t b f;
#X obj 477 153 *;
#X obj 631 200 dbtorms;
#X obj 477 33 r \$0-volume;
#X obj 631 224 s \$0-volume;
#X obj 631 152 r \$0-db-volume-s;
#X obj 383 177 *~;
#X obj 139 123 tgl 15 0 \$0-mute-s empty empty 17 7 0 10 -262144 -1
-1 0 1;
#X text 105 121 mute;
#X msg 485 81 1 \$1;
#X obj 485 105 -;
#X obj 485 57 r \$0-mute-s;
#X obj 314 289 dac~;
#X obj 631 176 + 100;
#X obj 536 210 print;
#X connect 0 0 12 0;
#X connect 1 0 4 0;
#X connect 2 0 3 0;
#X connect 3 0 4 1;
#X connect 3 0 12 1;
#X connect 4 0 18 0;
#X connect 6 0 7 0;
#X connect 6 1 7 1;
#X connect 7 0 2 0;
#X connect 8 0 10 0;
#X connect 9 0 7 0;
#X connect 11 0 19 0;
#X connect 12 0 18 1;
#X connect 15 0 16 0;
#X connect 16 0 6 0;
#X connect 17 0 15 0;
#X connect 17 0 20 0;
#X connect 19 0 8 0;
#X coords 0 -1 1 1 80 40 2 100 100;
