#N canvas 339 377 653 456 12;
#X obj 221 34 inlet;
#X obj 95 180 outlet;
#X obj 221 63 t a a b b b b b;
#X obj 178 156 list;
#X obj 178 204 outlet;
#X obj 261 180 list;
#X obj 261 228 outlet;
#X obj 344 204 list;
#X obj 344 252 outlet;
#X obj 427 228 list;
#X obj 427 276 outlet;
#X obj 510 252 list;
#X obj 510 300 outlet;
#X obj 178 180 route bang;
#X obj 95 156 route bang;
#X obj 261 204 route bang;
#X obj 344 228 route bang;
#X obj 427 252 route bang;
#X obj 510 276 route bang;
#X connect 0 0 2 0;
#X connect 2 0 14 0;
#X connect 2 1 3 1;
#X connect 2 2 3 0;
#X connect 2 3 5 0;
#X connect 2 4 7 0;
#X connect 2 5 9 0;
#X connect 2 6 11 0;
#X connect 3 0 5 1;
#X connect 3 0 13 0;
#X connect 5 0 7 1;
#X connect 5 0 15 0;
#X connect 7 0 9 1;
#X connect 7 0 16 0;
#X connect 9 0 11 1;
#X connect 9 0 17 0;
#X connect 11 0 18 0;
#X connect 13 1 4 0;
#X connect 14 1 1 0;
#X connect 15 1 6 0;
#X connect 16 1 8 0;
#X connect 17 1 10 0;
#X connect 18 1 12 0;
