#N canvas 955 393 873 575 12;
#X floatatom 253 119 5 1 20 0 device - -;
#X floatatom 253 141 5 1 16 0 channel - -;
#X obj 159 232 * 16;
#X obj 271 264 inlet;
#X obj 378 262 inlet;
#X obj 271 433 noteout;
#X obj 198 313 +;
#X obj 209 264 t b f;
#X obj 396 431 ctlout;
#X obj 276 350 unpack f f;
#X obj 84 129 savestate;
#X obj 84 71 f;
#X obj 383 348 unpack f f;
#X obj 297 120 bng 15 250 50 0 empty empty note 17 7 0 10 -262144 -1
-1;
#X obj 297 142 bng 15 250 50 0 empty empty cc 17 7 0 10 -262144 -1
-1;
#X obj 194 192 - 1;
#X floatatom 185 364 5 0 0 0 - - -;
#X obj 301 223 > 0;
#X obj 290 192 sel 1;
#X obj 347 120 tgl 15 0 empty empty empty 17 7 0 10 -262144 -1 -1 1
1;
#X obj 347 142 tgl 15 0 empty empty empty 17 7 0 10 -262144 -1 -1 1
1;
#X obj 270 303 spigot;
#X obj 84 100 pack f f f f;
#X obj 84 159 unpack f f f f;
#X obj 378 286 spigot;
#X connect 0 0 11 1;
#X connect 0 0 15 0;
#X connect 1 0 7 0;
#X connect 1 0 22 1;
#X connect 2 0 6 0;
#X connect 3 0 21 0;
#X connect 4 0 24 0;
#X connect 6 0 5 2;
#X connect 6 0 8 2;
#X connect 6 0 16 0;
#X connect 7 0 6 0;
#X connect 7 1 6 1;
#X connect 9 0 5 0;
#X connect 9 1 17 0;
#X connect 9 1 5 1;
#X connect 10 0 23 0;
#X connect 10 1 11 0;
#X connect 11 0 22 0;
#X connect 12 0 8 0;
#X connect 12 0 14 0;
#X connect 12 1 8 1;
#X connect 15 0 2 0;
#X connect 17 0 18 0;
#X connect 18 0 13 0;
#X connect 19 0 22 2;
#X connect 19 0 21 1;
#X connect 20 0 22 3;
#X connect 20 0 24 1;
#X connect 21 0 9 0;
#X connect 22 0 10 0;
#X connect 23 0 0 0;
#X connect 23 1 1 0;
#X connect 23 2 19 0;
#X connect 23 3 20 0;
#X connect 24 0 12 0;
#X coords 0 -1 1 1 170 60 1 200 100;
