#N canvas 1188 455 685 471 12;
#X obj 187 47 inlet;
#X obj 487 93 inlet;
#X obj 99 304 outlet;
#X obj 153 172 t a b b;
#X msg 234 108 0;
#X msg 213 261 1;
#X obj 153 148 spigot 1;
#X obj 225 172 r \$0-delay;
#X obj 187 71 t a a;
#X obj 207 316 outlet;
#X obj 487 117 dispatch \$0 delay \$1;
#X obj 176 222 delay 1000;
#X connect 0 0 8 0;
#X connect 1 0 10 0;
#X connect 3 0 2 0;
#X connect 3 1 11 0;
#X connect 3 2 4 0;
#X connect 4 0 6 1;
#X connect 5 0 6 1;
#X connect 6 0 3 0;
#X connect 7 0 11 1;
#X connect 8 0 6 0;
#X connect 11 0 5 0;
#X connect 11 0 9 0;
