#N canvas 1206 325 845 548 12;
#X obj 107 104 hsl 190 25 0.01 150 1 0 \$0-freq-slider-s \$0-freq-slider-r
freq 4 12 0 10 -262144 -1 -1 7200 1;
#X obj 107 131 hsl 190 25 0 5 0 0 \$0-noise-s \$0-noise-r noise 4 12
0 10 -262144 -1 -1 13400 1;
#X obj 292 196 r \$0-noise-s;
#X obj 82 452 outlet~;
#X obj 176 452 outlet~;
#X obj 270 452 outlet~;
#X obj 549 262 f;
#X obj 549 286 pack f f;
#X obj 549 310 savestate;
#X obj 549 334 unpack f f;
#X obj 602 262 r \$0-noise-s;
#X obj 616 358 s \$0-noise-r;
#X obj 130 322 shnoise;
#X floatatom 329 107 5 0.01 150 0 - #0-freq-num-r #0-freq-num-s;
#X msg 428 60 set \$1;
#X msg 571 60 set \$1;
#X obj 428 36 r \$0-freq-slider-s;
#X obj 428 84 s \$0-freq-num-r;
#X obj 428 116 r \$0-freq-slider-s;
#X obj 571 116 r \$0-freq-num-s;
#X obj 523 158 s \$0-freq-val;
#X obj 571 36 r \$0-freq-num-s;
#X obj 571 84 s \$0-freq-slider-r;
#X obj 549 382 s \$0-freq-num-r;
#X obj 567 238 r \$0-freq-val;
#X text 302 107 <->;
#X obj 81 260 r \$0-freq-val;
#X connect 2 0 12 1;
#X connect 6 0 7 0;
#X connect 7 0 8 0;
#X connect 8 0 9 0;
#X connect 8 1 6 0;
#X connect 9 0 23 0;
#X connect 9 1 11 0;
#X connect 10 0 7 1;
#X connect 12 0 3 0;
#X connect 12 1 4 0;
#X connect 12 2 5 0;
#X connect 14 0 17 0;
#X connect 15 0 22 0;
#X connect 16 0 14 0;
#X connect 18 0 20 0;
#X connect 19 0 20 0;
#X connect 21 0 15 0;
#X connect 24 0 6 1;
#X connect 26 0 12 0;
#X coords 0 -1 1 1 270 60 2 100 100;
