#N canvas 564 225 1139 654 12;
#X obj 215 264 inlet;
#X obj 215 384 *;
#X obj 215 408 +;
#X obj 215 432 outlet;
#X text 548 547 simplifies scaling and offsetting incoming signals
to suitable note ranges;
#X obj 235 102 hsl 110 25 0.01 100 1 0 \$0-mult-slider-s \$0-mult-slider-r
mult -30 12 0 10 -262144 -1 -1 7900 1;
#X obj 232 146 hradio 15 1 0 12 \$0-note-s \$0-note-r note -29 8 0
10 -262144 -1 -1 0;
#X obj 232 129 hradio 15 1 0 8 \$0-octave-s \$0-octave-r oct -23 8
0 10 -262144 -1 -1 4;
#X obj 397 129 tgl 15 0 \$0-invert-s \$0-invert-r inv -22 8 0 10 -262144
-1 -1 0 -2;
#X obj 482 259 f;
#X obj 482 345 pack f f f f;
#X obj 482 369 savestate;
#X obj 482 393 unpack f f f f;
#X obj 563 321 r \$0-invert-s;
#X obj 536 297 r \$0-note-s;
#X obj 545 441 s \$0-note-r;
#X obj 577 417 s \$0-invert-r;
#X obj 513 465 s \$0-octave-r;
#X floatatom 375 105 5 0.01 100 0 - #0-mult-num-r #0-mult-num-s;
#X obj 333 288 * 12;
#X obj 333 360 +;
#X obj 351 312 r \$0-note-s;
#X obj 509 273 r \$0-octave-s;
#X obj 333 264 r \$0-octave-s;
#X obj 351 336 t b f;
#X obj 233 288 r \$0-invert-s;
#X obj 233 312 + 1;
#X floatatom 150 270 5 0 0 0 - - -;
#X floatatom 152 444 5 0 0 0 - - -;
#X text 349 105 <->;
#X msg 483 96 set \$1;
#X obj 483 72 r \$0-mult-slider-s;
#X msg 626 96 set \$1;
#X obj 626 120 s \$0-mult-slider-r;
#X obj 483 120 s \$0-mult-num-r;
#X obj 626 72 r \$0-mult-num-s;
#X obj 483 152 r \$0-mult-slider-s;
#X obj 626 152 r \$0-mult-num-s;
#X obj 482 489 s \$0-mult-num-r;
#X obj 233 360 r \$0-mult-val;
#X obj 578 194 s \$0-mult-val;
#X obj 500 235 r \$0-mult-val;
#X obj 959 147 inlet;
#X obj 959 171 dispatch \$0 mult;
#X obj 959 195 dispatch \$0 octave;
#X obj 959 219 dispatch \$0 note;
#X obj 733 304 r \$0-mult;
#X obj 733 328 s \$0-mult-slider-r;
#X obj 733 352 r \$0-octave;
#X obj 733 376 s \$0-octave-r;
#X obj 733 400 r \$0-note;
#X obj 733 424 s \$0-note-s;
#X obj 733 472 s \$0-invert-r;
#X obj 959 243 dispatch \$0 invert;
#X obj 733 448 r \$0-invert;
#X obj 215 336 * 1;
#X connect 0 0 55 0;
#X connect 1 0 2 0;
#X connect 2 0 3 0;
#X connect 2 0 28 0;
#X connect 9 0 10 0;
#X connect 10 0 11 0;
#X connect 11 0 12 0;
#X connect 11 1 9 0;
#X connect 12 0 38 0;
#X connect 12 1 17 0;
#X connect 12 2 15 0;
#X connect 12 3 16 0;
#X connect 13 0 10 3;
#X connect 14 0 10 2;
#X connect 19 0 20 0;
#X connect 20 0 2 1;
#X connect 21 0 24 0;
#X connect 22 0 10 1;
#X connect 23 0 19 0;
#X connect 24 0 20 0;
#X connect 24 1 20 1;
#X connect 25 0 26 0;
#X connect 26 0 55 1;
#X connect 27 0 55 0;
#X connect 30 0 34 0;
#X connect 31 0 30 0;
#X connect 32 0 33 0;
#X connect 35 0 32 0;
#X connect 36 0 40 0;
#X connect 37 0 40 0;
#X connect 39 0 1 1;
#X connect 41 0 9 1;
#X connect 42 0 43 0;
#X connect 43 0 44 0;
#X connect 44 0 45 0;
#X connect 45 0 53 0;
#X connect 46 0 47 0;
#X connect 48 0 49 0;
#X connect 50 0 51 0;
#X connect 54 0 52 0;
#X connect 55 0 1 0;
#X coords 0 -1 1 1 214 63 2 200 100;
