#N canvas 781 103 965 654 12;
#X obj 302 114 vsl 25 128 0.01 100 1 1 empty empty mult 0 -9 0 10 -262144
-1 -1 12700 1;
#X obj 331 112 vradio 15 1 1 8 empty empty oct 0 -7 0 10 -262144 -1
-1 2;
#X obj 353 112 vradio 15 1 1 12 empty empty root 0 -7 0 10 -262144
-1 -1 11;
#N canvas 1169 219 867 597 offset-maths 0;
#X obj 149 51 inlet;
#X obj 275 77 inlet;
#X obj 163 131 t b f;
#X obj 160 189 -;
#X msg 156 162 7;
#X obj 260 126 t b f;
#X obj 257 184 -;
#X msg 253 157 12;
#X obj 162 218 * 12;
#X obj 182 268 +;
#X obj 215 219 t b f;
#X floatatom 153 300 5 0 0 0 - - -;
#X obj 213 313 outlet;
#X connect 0 0 2 0;
#X connect 1 0 5 0;
#X connect 2 0 4 0;
#X connect 2 1 3 1;
#X connect 3 0 8 0;
#X connect 4 0 3 0;
#X connect 5 0 7 0;
#X connect 5 1 6 1;
#X connect 6 0 10 0;
#X connect 7 0 6 0;
#X connect 8 0 9 0;
#X connect 9 0 11 0;
#X connect 9 0 12 0;
#X connect 10 0 9 0;
#X connect 10 1 9 1;
#X restore 260 331 pd offset-maths;
#X obj 164 208 inlet;
#X obj 164 262 *;
#X obj 164 286 +;
#X obj 164 310 outlet;
#X obj 323 25 loadbang;
#X text 486 155 simplifies scaling and offsetting incoming signals
to suitable note ranges;
#X floatatom 302 247 5 0 0 0 - - -;
#X connect 0 0 5 1;
#X connect 0 0 10 0;
#X connect 1 0 3 0;
#X connect 2 0 3 1;
#X connect 3 0 6 1;
#X connect 4 0 5 0;
#X connect 5 0 6 0;
#X connect 6 0 7 0;
#X connect 8 0 0 0;
#X connect 8 0 1 0;
#X connect 8 0 2 0;
#X coords 0 -1 1 1 80 194 2 300 100;
