#N canvas 1419 576 907 642 12;
#X obj 186 389 inlet~;
#X obj 242 427 *~;
#X obj 403 116 vsl 25 101 0.1 10 1 0 empty empty scale 0 -9 0 10 -262144
-1 -1 5500 1;
#X floatatom 403 224 5 0 0 0 - - -;
#X obj 445 113 vradio 15 1 0 8 empty empty octave 0 -7 0 10 -262144
-1 -1 2;
#X obj 485 113 vradio 15 1 0 12 empty empty root 0 -7 0 10 -262144
-1 -1 11;
#N canvas 1169 219 867 597 offset-maths 0;
#X obj 149 51 inlet;
#X obj 275 77 inlet;
#X obj 163 131 t b f;
#X obj 160 189 -;
#X msg 156 162 7;
#X obj 260 126 t b f;
#X obj 257 184 -;
#X msg 253 157 12;
#X obj 162 218 * 12;
#X obj 182 268 +;
#X obj 215 219 t b f;
#X floatatom 153 300 5 0 0 0 - - -;
#X obj 213 313 outlet;
#X connect 0 0 2 0;
#X connect 1 0 5 0;
#X connect 2 0 4 0;
#X connect 2 1 3 1;
#X connect 3 0 8 0;
#X connect 4 0 3 0;
#X connect 5 0 7 0;
#X connect 5 1 6 1;
#X connect 6 0 10 0;
#X connect 7 0 6 0;
#X connect 8 0 9 0;
#X connect 9 0 11 0;
#X connect 9 0 12 0;
#X connect 10 0 9 0;
#X connect 10 1 9 1;
#X restore 348 400 pd offset-maths;
#X obj 242 461 +~;
#X obj 242 491 outlet~;
#X obj 278 380 * 1;
#X obj 403 252 tgl 15 0 empty empty invert 17 7 0 10 -262144 -1 -1
0 1;
#X obj 311 280 * -2;
#X obj 311 304 + 1;
#X obj 297 335 t b f;
#X obj 432 351 pack f f f f;
#X obj 432 322 f;
#X obj 506 395 savestate;
#X obj 506 424 s \$0-load-state;
#X obj 404 23 r \$0-load-state;
#X obj 404 51 unpack f f f f;
#X connect 0 0 1 0;
#X connect 1 0 7 0;
#X connect 2 0 3 0;
#X connect 3 0 9 0;
#X connect 3 0 15 1;
#X connect 4 0 6 0;
#X connect 4 0 14 2;
#X connect 5 0 6 1;
#X connect 5 0 14 3;
#X connect 6 0 7 1;
#X connect 7 0 8 0;
#X connect 9 0 1 1;
#X connect 10 0 11 0;
#X connect 10 0 14 1;
#X connect 11 0 12 0;
#X connect 12 0 13 0;
#X connect 13 0 9 0;
#X connect 13 1 9 1;
#X connect 14 0 16 0;
#X connect 15 0 14 0;
#X connect 16 0 17 0;
#X connect 16 1 15 0;
#X connect 18 0 19 0;
#X connect 19 0 2 0;
#X connect 19 1 10 0;
#X connect 19 2 4 0;
#X connect 19 3 5 0;
#X coords 0 -1 1 1 110 200 2 400 100;
