#N canvas 785 23 1731 1337 12;
#X floatatom 153 598 7 0 0 1 ms #0-location-ms -;
#X floatatom 284 506 5 0 0 1 size #0-window-size -;
#X obj 1542 281 unpack s f;
#X obj 1542 391 soundfiler;
#X obj 1542 307 t s b;
#X obj 1595 310 symbol \$0-sample;
#X obj 1542 342 pack s s;
#X msg 1542 367 read -resize \$1 \$2;
#X obj 1542 254 t a b;
#X obj 1552 420 s \$0-samplength;
#X obj 1639 281 s \$0-insamprate;
#X obj 1542 454 /;
#X obj 1542 478 * 1000;
#X obj 1542 501 s \$0-samp-msec;
#X obj 1580 454 r \$0-insamprate;
#X obj 1542 173 openpanel;
#X obj 1639 255 f 44100;
#X obj 1224 65 inlet;
#X obj 1224 89 dispatch \$0 load-sample;
#X obj 1542 125 r \$0-choose-sample;
#X obj 1542 198 s \$0-load-sample;
#X obj 1542 230 r \$0-load-sample;
#X obj 1224 161 dispatch \$0 transpose 0;
#X obj 1224 185 dispatch \$0 lock 0;
#X obj 1224 137 dispatch \$0 window-size 2048;
#X floatatom 153 529 7 0 0 1 length_ms #0-window-msec -;
#X obj 1224 233 dispatch \$0 speed 0;
#X obj 1224 257 dispatch \$0 location 0;
#X obj 1542 149 t b;
#X obj 1224 113 dispatch-bang \$0 choose-sample;
#X msg 1222 991 set \$1;
#X obj 1208 683 t b f;
#X obj 1222 800 f;
#X obj 1150 714 int;
#X obj 1150 746 sel 0;
#X msg 1209 717 1;
#X msg 1209 740 0;
#X obj 1150 771 del 300;
#X obj 1224 281 dispatch \$0 loop 0;
#X obj 1222 919 pack f f;
#X obj 1222 967 /;
#X obj 942 710 spigot;
#X obj 981 690 tgl 15 0 empty empty empty 17 7 0 10 -262144 -1 -1 1
1;
#X obj 1224 209 dispatch \$0 reset;
#X obj 1224 305 dispatch \$0 loop-start 0;
#X obj 942 829 >;
#X obj 942 853 sel 1;
#X obj 942 949 i;
#X obj 960 805 *;
#X obj 960 925 *;
#X msg 1222 943 \$1 \$2;
#X obj 1275 895 r \$0-samp-msec;
#X obj 688 419 r \$0-loop;
#X obj 688 467 r \$0-loop-start;
#X obj 688 491 s \$0-loop-start-set;
#X obj 688 443 s \$0-loop-set;
#X obj 688 515 r \$0-loop-end;
#X obj 688 539 s \$0-loop-end-set;
#X obj 978 781 r \$0-samp-msec;
#X obj 978 901 r \$0-samp-msec;
#X floatatom 972 950 10 0 0 0 - - -;
#X floatatom 972 830 10 0 0 0 - - -;
#X floatatom 960 734 10 0 0 0 - - -;
#X obj 153 506 hradio 18 1 0 7 \$0-window-mult-s \$0-window-mult-r
empty 0 -8 0 10 -262144 -1 -1 5;
#X floatatom 152 460 10 0 0 1 ms #0-samp-msec -;
#N canvas 0 22 450 278 (subpatch) 0;
#X array \$0-sample 90501 float 2;
#X coords 0 1 90501 -1 306 140 1 0 0;
#X restore 152 317 graph;
#X obj 1542 551 r \$0-window-mult-s;
#X obj 1542 671 s \$0-window-size;
#X obj 1542 599 t b f;
#X obj 1542 623 i 2;
#X obj 1542 647 pow;
#X obj 1542 575 + 8;
#X text 154 485 windowing;
#X obj 410 461 bng 15 250 50 0 \$0-choose-sample empty load 17 7 0
10 -262144 -1 -1;
#X obj 155 574 hsl 301 20 0 1 0 0 \$0-location-scrub-s \$0-location-scrub-r
empty -2 -8 0 10 -262144 -1 -1 13972 1;
#X obj 1222 1137 *;
#X obj 1222 1089 r \$0-location;
#X obj 1222 1161 s \$0-playhead-pos;
#X obj 1222 1041 r \$0-location-scrub-s;
#X obj 1222 1065 s \$0-location;
#X text 152 555 location scrub;
#X obj 1240 1113 r \$0-samp-msec;
#X obj 1224 329 dispatch \$0 loop-end 1;
#X obj 155 655 hsl 301 20 0 1 0 0 \$0-loop-start-scrub-s \$0-loop-start-scrub-r
start -2 -8 0 10 -262144 -1 -1 5100 1;
#X obj 155 691 hsl 301 20 0 1 0 0 \$0-loop-end-scrub-s \$0-loop-end-scrub-r
end -2 -8 0 10 -262144 -1 -1 9000 1;
#X text 150 623 looping;
#X obj 405 636 tgl 15 0 \$0-loop-ctrl-s \$0-loop-ctrl-r enable 17 7
0 10 -262144 -1 -1 1 1;
#X obj 942 642 r \$0-see-ph-pos;
#X obj 1574 757 r \$0-loop;
#X obj 1574 829 s \$0-loop-enable;
#X obj 981 666 r \$0-loop-enable;
#X obj 1574 853 r \$0-loop-start;
#X obj 1574 877 s \$0-loop-start-scrub-r;
#X obj 1574 901 r \$0-loop-start-scrub-s;
#X obj 1574 925 s \$0-loop-start-pos;
#X obj 960 877 r \$0-loop-start-pos;
#X obj 1574 949 r \$0-loop-end;
#X obj 1574 973 s \$0-loop-end-scrub-r;
#X obj 1574 997 r \$0-loop-end-scrub-s;
#X obj 1574 1021 s \$0-loop-end-pos;
#X obj 960 757 r \$0-loop-end-pos;
#X obj 1208 659 r \$0-see-ph-pos;
#X obj 1230 872 s \$0-location-ms;
#X obj 1222 1017 s \$0-location-scrub-r;
#X floatatom 155 740 5 0 0 1 transpose_cents #0-transpose-ctrl-r #0-transpose-ctrl-s
;
#X obj 438 878 r \$0-transpose;
#X obj 1574 781 s \$0-loop-ctrl-r;
#X obj 1574 805 r \$0-loop-ctrl-s;
#X obj 438 902 s \$0-transpose-ctrl-r;
#X obj 438 926 r \$0-transpose-ctrl-s;
#X obj 399 743 tgl 15 0 \$0-lock-ctrl-s \$0-lock-ctrl-r lock 17 7 0
10 -262144 -1 -1 0 1;
#X obj 839 1124 r \$0-lock;
#X obj 839 1148 s \$0-lock-ctrl-r;
#X obj 839 1172 r \$0-lock-ctrl-s;
#X obj 410 556 bng 15 250 50 0 \$0-reset-ctrl-s \$0-reset-ctrl-r reset
17 7 0 10 -262144 -1 -1;
#X obj 649 1135 * -0.5;
#X obj 649 1081 /;
#X obj 649 1109 * 1000;
#X obj 649 1057 t f b;
#X obj 681 1081 samplerate~;
#X obj 649 1034 f;
#X text 678 1006 "reset" control takes us to a location depending on
stretched window size., f 25;
#X obj 649 1159 s \$0-playhead-pos;
#X obj 649 933 r \$0-reset;
#X obj 649 957 s \$0-reset-ctrl-r;
#X obj 649 981 r \$0-reset-ctrl-s;
#X floatatom 310 742 5 0 0 1 speed #0-speed-ctrl-r #0-speed-ctrl-s
;
#X obj 624 789 r \$0-speed;
#X text 745 56 params: location: 0-1 set playhead location in sample
loop: 0/1 does playback restart automatically loop-start: 0-1 the point
playback restarts from loop-end: 0-1 the point at which playback will
restart transpose: transpose up or down (cents) speed: playback speed
1 is normal 0 is freeze negative is reverse;
#X obj 82 1129 phase-vocoder;
#X obj 82 1153 outlet~;
#X obj 80 997 r \$0-playhead-pos;
#X msg 80 1021 playhead-pos \$1;
#X obj 278 1020 symbol \$0-sample;
#X obj 278 972 r \$0-insamprate;
#X obj 278 996 t b f, f 19;
#X obj 278 1044 pack s f, f 19;
#X msg 278 1068 sample-array \$1 \$2;
#X obj 80 1045 s \$0-to-pv;
#X obj 82 1105 r \$0-to-pv;
#X obj 278 1092 s \$0-to-pv;
#X obj 438 974 s \$0-to-pv;
#X msg 438 950 transpose \$1;
#X msg 839 1196 lock \$1;
#X obj 839 1220 s \$0-to-pv;
#X msg 624 861 speed \$1;
#X obj 624 885 s \$0-to-pv;
#X obj 170 1153 route playhead-pos;
#X obj 170 1177 s \$0-see-ph-pos;
#X obj 389 1147 r \$0-window-size;
#X obj 389 1195 s \$0-to-pv;
#X msg 389 1171 window-size \$1;
#X obj 624 813 s \$0-speed-ctrl-r;
#X obj 624 837 r \$0-speed-ctrl-s;
#X floatatom 888 907 5 0 0 0 - - -;
#X floatatom 880 973 5 0 0 0 - - -;
#X obj 942 973 s \$0-playhead-pos;
#X obj 1399 608 /;
#X obj 1431 584 samplerate~;
#X obj 1399 632 * 1000;
#X obj 1399 536 r \$0-window-size;
#X obj 1399 656 s \$0-window-msec;
#X obj 1399 560 t f b;
#X obj 1240 824 r \$0-samp-msec;
#X obj 1222 848 min;
#X text 153 718 spectral manipulation;
#X text 102 44 reworked version of the example phase vocoder;
#X connect 2 0 4 0;
#X connect 2 1 10 0;
#X connect 3 0 9 0;
#X connect 3 0 11 0;
#X connect 4 0 6 0;
#X connect 4 1 5 0;
#X connect 5 0 6 1;
#X connect 6 0 7 0;
#X connect 7 0 3 0;
#X connect 8 0 2 0;
#X connect 8 1 16 0;
#X connect 11 0 12 0;
#X connect 12 0 13 0;
#X connect 14 0 11 1;
#X connect 15 0 20 0;
#X connect 16 0 10 0;
#X connect 17 0 18 0;
#X connect 18 0 29 0;
#X connect 19 0 28 0;
#X connect 21 0 8 0;
#X connect 22 0 23 0;
#X connect 23 0 43 0;
#X connect 24 0 22 0;
#X connect 26 0 27 0;
#X connect 27 0 38 0;
#X connect 28 0 15 0;
#X connect 29 0 24 0;
#X connect 30 0 103 0;
#X connect 31 0 33 0;
#X connect 31 1 32 1;
#X connect 32 0 164 0;
#X connect 33 0 34 0;
#X connect 34 0 35 0;
#X connect 34 0 37 0;
#X connect 35 0 33 1;
#X connect 36 0 33 1;
#X connect 37 0 36 0;
#X connect 37 0 32 0;
#X connect 38 0 44 0;
#X connect 39 0 50 0;
#X connect 40 0 30 0;
#X connect 41 0 45 0;
#X connect 41 0 62 0;
#X connect 42 0 41 1;
#X connect 43 0 26 0;
#X connect 44 0 82 0;
#X connect 45 0 46 0;
#X connect 46 0 47 0;
#X connect 47 0 155 0;
#X connect 47 0 156 0;
#X connect 48 0 45 1;
#X connect 48 0 61 0;
#X connect 49 0 47 1;
#X connect 49 0 60 0;
#X connect 50 0 40 0;
#X connect 51 0 39 1;
#X connect 52 0 55 0;
#X connect 53 0 54 0;
#X connect 56 0 57 0;
#X connect 58 0 48 1;
#X connect 59 0 49 1;
#X connect 66 0 71 0;
#X connect 68 0 69 0;
#X connect 68 1 70 1;
#X connect 69 0 70 0;
#X connect 70 0 67 0;
#X connect 71 0 68 0;
#X connect 75 0 77 0;
#X connect 76 0 75 0;
#X connect 78 0 79 0;
#X connect 81 0 75 1;
#X connect 87 0 41 0;
#X connect 88 0 106 0;
#X connect 90 0 42 0;
#X connect 91 0 92 0;
#X connect 93 0 94 0;
#X connect 95 0 49 0;
#X connect 95 0 154 0;
#X connect 96 0 97 0;
#X connect 98 0 99 0;
#X connect 100 0 48 0;
#X connect 101 0 31 0;
#X connect 105 0 108 0;
#X connect 107 0 89 0;
#X connect 109 0 142 0;
#X connect 111 0 112 0;
#X connect 113 0 143 0;
#X connect 115 0 122 0;
#X connect 116 0 117 0;
#X connect 117 0 115 0;
#X connect 118 0 116 0;
#X connect 118 1 119 0;
#X connect 119 0 116 1;
#X connect 120 0 118 0;
#X connect 123 0 124 0;
#X connect 125 0 120 0;
#X connect 127 0 152 0;
#X connect 129 0 130 0;
#X connect 129 1 147 0;
#X connect 131 0 132 0;
#X connect 132 0 138 0;
#X connect 133 0 136 0;
#X connect 134 0 135 0;
#X connect 135 0 133 0;
#X connect 135 1 136 1;
#X connect 136 0 137 0;
#X connect 137 0 140 0;
#X connect 139 0 129 0;
#X connect 142 0 141 0;
#X connect 143 0 144 0;
#X connect 145 0 146 0;
#X connect 147 0 148 0;
#X connect 149 0 151 0;
#X connect 151 0 150 0;
#X connect 153 0 145 0;
#X connect 157 0 159 0;
#X connect 158 0 157 1;
#X connect 159 0 161 0;
#X connect 160 0 162 0;
#X connect 162 0 157 0;
#X connect 162 1 158 0;
#X connect 163 0 164 1;
#X connect 164 0 102 0;
#X connect 164 0 39 0;
#X coords 0 -1 1 1 310 460 2 150 300;
