#N canvas 758 99 1634 1131 12;
#X obj 101 221 inlet;
#X obj 590 575 text define \$0-preset-data;
#X obj 81 487 route -1;
#X obj 81 513 t b;
#X msg 81 537 1e+15;
#X obj 100 581 t b f;
#X obj 270 600 list store;
#X obj 81 381 unpack s;
#X obj 101 331 t a a;
#X obj 81 463 text search \$0-preset-data;
#X obj 84 678 text set \$0-preset-data;
#X obj 880 704 makefilename %s/%%d.txt;
#X symbolatom 880 728 80 0 0 0 - - -;
#X msg 223 304 set \$1;
#X obj 223 328 makefilename presets/%d.txt;
#X obj 223 352 list prepend write -c;
#X obj 223 376 list trim;
#X obj 880 680 symbol;
#X obj 880 751 s \$0-path;
#X obj 223 280 r \$0-path;
#X msg 491 376 set \$1;
#X obj 491 400 makefilename presets/%d.txt;
#X obj 491 448 list trim;
#X obj 491 352 r \$0-path;
#X obj 491 424 list prepend read -c;
#X obj 437 290 t b f;
#X obj 432 680 text sequence \$0-preset-data;
#X msg 464 656 line 0;
#X obj 432 632 t b b;
#X obj 432 728 outlet;
#X msg 597 300 clear;
#X msg 727 300 click;
#X obj 432 704 list trim;
#X obj 101 245 route write save load clear open folder init, f 158
;
#X obj 1036 288 route save load;
#X msg 1038 364 set \$1;
#X obj 995 424 makefilename presets/%d.txt;
#X obj 1038 340 r \$0-path;
#X msg 974 343 0;
#X msg 995 448 write \$1;
#X msg 1143 345 0;
#X obj 1237 411 makefilename presets/%d.txt;
#X msg 1237 435 read \$1;
#X obj 1237 459 t b a;
#X obj 766 799 print presetpath;
#X connect 0 0 33 0;
#X connect 2 0 3 0;
#X connect 2 1 5 0;
#X connect 3 0 4 0;
#X connect 4 0 5 0;
#X connect 5 0 6 0;
#X connect 5 1 10 1;
#X connect 6 0 10 0;
#X connect 7 0 9 0;
#X connect 8 0 7 0;
#X connect 8 1 6 1;
#X connect 9 0 2 0;
#X connect 11 0 12 0;
#X connect 12 0 18 0;
#X connect 12 0 44 0;
#X connect 13 0 14 0;
#X connect 14 0 15 0;
#X connect 15 0 16 0;
#X connect 16 0 1 0;
#X connect 17 0 11 0;
#X connect 19 0 13 0;
#X connect 20 0 21 0;
#X connect 21 0 24 0;
#X connect 22 0 1 0;
#X connect 23 0 20 0;
#X connect 24 0 22 0;
#X connect 25 0 28 0;
#X connect 25 1 21 0;
#X connect 26 0 32 0;
#X connect 27 0 26 0;
#X connect 28 0 26 0;
#X connect 28 1 27 0;
#X connect 30 0 1 0;
#X connect 31 0 1 0;
#X connect 32 0 29 0;
#X connect 33 0 8 0;
#X connect 33 1 14 0;
#X connect 33 2 25 0;
#X connect 33 3 30 0;
#X connect 33 4 31 0;
#X connect 33 5 17 0;
#X connect 33 6 34 0;
#X connect 34 0 38 0;
#X connect 34 1 40 0;
#X connect 35 0 36 0;
#X connect 35 0 41 0;
#X connect 36 0 39 0;
#X connect 37 0 35 0;
#X connect 38 0 36 0;
#X connect 39 0 1 0;
#X connect 40 0 41 0;
#X connect 41 0 42 0;
#X connect 42 0 43 0;
#X connect 43 0 28 0;
#X connect 43 1 1 0;
