#N canvas 616 167 1255 908 12;
#X obj 120 163 inlet;
#X obj 501 261 tgl 18 0 empty empty empty 17 7 0 10 -262144 -1 -1 1
1;
#X obj 514 240 tgl 18 0 empty empty empty 17 7 0 10 -262144 -1 -1 0
1;
#X obj 528 261 tgl 18 0 empty empty empty 17 7 0 10 -262144 -1 -1 1
1;
#X obj 541 240 tgl 18 0 empty empty empty 17 7 0 10 -262144 -1 -1 0
1;
#X obj 555 261 tgl 18 0 empty empty empty 17 7 0 10 -262144 -1 -1 1
1;
#X obj 582 261 tgl 18 0 empty empty empty 17 7 0 10 -262144 -1 -1 1
1;
#X obj 609 261 tgl 18 0 empty empty empty 17 7 0 10 -262144 -1 -1 1
1;
#X obj 623 240 tgl 18 0 empty empty empty 17 7 0 10 -262144 -1 -1 0
1;
#X obj 636 261 tgl 18 0 empty empty empty 17 7 0 10 -262144 -1 -1 1
1;
#X obj 650 240 tgl 18 0 empty empty empty 17 7 0 10 -262144 -1 -1 0
1;
#X obj 663 261 tgl 18 0 empty empty empty 17 7 0 10 -262144 -1 -1 1
1;
#X obj 596 240 tgl 18 0 empty empty empty 17 7 0 10 -262144 -1 -1 0
1;
#X obj 557 629 array set scale-\$0;
#X obj 575 569 list split 1;
#X msg 436 479 \$1 0;
#X msg 450 456 \$1 1;
#X msg 479 479 \$1 2;
#X msg 494 456 \$1 3;
#X msg 525 480 \$1 4;
#X msg 569 480 \$1 5;
#X msg 583 457 \$1 6;
#X msg 614 481 \$1 7;
#X msg 628 459 \$1 8;
#X msg 658 482 \$1 9;
#X msg 672 459 \$1 10;
#X msg 702 483 \$1 11;
#X obj 110 455 array get scale-\$0 0 1;
#X obj 111 494 sel 1 0;
#X obj 194 603 outlet;
#X obj 266 543 i;
#X obj 194 577 +;
#X obj 67 244 until;
#X msg 70 215 12;
#X obj 103 281 i 0;
#X obj 110 190 t b b f f;
#X msg 128 229 0;
#X obj 146 281 + 1;
#X obj 108 393 +;
#X obj 98 318 array get offsets-\$0 0 1;
#X obj 109 421 mod 12;
#X obj 145 352 t f f;
#X obj 102 538 t b b;
#X msg 105 676 0 0 1 -1 2 -2 3 -3 4 -4 5 -5 6 -6;
#X obj 105 700 array define -k offsets-\$0;
#A 0 0 1 -1 2 -2 3 -3 4 -4 5 -5 6 -6 0 0 0 0 0 0 0 0 0 0 0 0 0 0 0
0 0 0 0 0 0 0 0 0 0 0 0 0 0 0 0 0 0 0 0 0 0 0 0 0 0 0 0 0 0 0 0 0 0
0 0 0 0 0 0 0 0 0 0 0 0 0 0 0 0 0 0 0 0 0 0 0 0 0 0 0 0 0 0 0 0 0 0
0 0 0 0;
#X obj 384 368 unpack f f f f f f f f f f f f;
#X obj 391 326 r \$0-scale-load;
#X obj 1008 432 s \$0-scale-load;
#X msg 989 134 1 0 1 0 1 1 0 1 0 1 0 1;
#X msg 988 179 1 0 1 1 0 1 0 1 1 0 1 0;
#X text 988 113 major;
#X text 986 162 minor;
#X obj 1008 377 list split;
#X obj 501 221 hradio 15 1 0 12 \$0-set-root empty root_note 0 -8 0
10 -262144 -1 -1 0;
#X obj 1008 404 list prepend;
#X obj 1063 352 t b f;
#X obj 1008 303 list store;
#X obj 1111 237 r \$0-set-root;
#X obj 1004 248 t b l;
#X symbolatom 609 201 10 0 0 0 - #0-root-note -;
#X obj 105 766 r \$0-set-root;
#X obj 1111 262 t b f;
#X msg 1111 286 12;
#X obj 1111 310 -;
#X obj 105 814 s \$0-root-note;
#X obj 501 182 hradio 15 1 0 2 \$0-set-scale empty scale 0 -8 0 10
-262144 -1 -1 0;
#X obj 328 742 text define -k \$0-scale-names;
#A set major \; minor \;;
#X obj 105 790 text get \$0-root-names;
#X obj 105 742 text define -k \$0-root-names;
#A set c \; c# \; d \; d# \; e \; f \; f# \; g \; g# \; a \; a# \;
b \;;
#X obj 328 766 r \$0-set-scale;
#X obj 328 790 text get \$0-scale-names;
#X obj 328 814 s \$0-scale-name;
#X symbolatom 609 178 10 0 0 0 - #0-scale-name -;
#X obj 934 46 r \$0-set-scale;
#X obj 932 81 sel 0 1;
#X obj 972 647 array get scale-\$0;
#X obj 917 609 savestate;
#X obj 531 666 array define scale-\$0 12;
#X obj 920 685 s \$0-scale-load;
#X obj 833 529 r \$0-set-scale;
#X obj 860 564 r \$0-set-root;
#X connect 0 0 35 0;
#X connect 1 0 15 0;
#X connect 2 0 16 0;
#X connect 3 0 17 0;
#X connect 4 0 18 0;
#X connect 5 0 19 0;
#X connect 6 0 20 0;
#X connect 7 0 22 0;
#X connect 8 0 23 0;
#X connect 9 0 24 0;
#X connect 10 0 25 0;
#X connect 11 0 26 0;
#X connect 12 0 21 0;
#X connect 14 0 13 0;
#X connect 14 1 13 1;
#X connect 15 0 14 0;
#X connect 16 0 14 0;
#X connect 17 0 14 0;
#X connect 18 0 14 0;
#X connect 19 0 14 0;
#X connect 20 0 14 0;
#X connect 21 0 14 0;
#X connect 22 0 14 0;
#X connect 23 0 14 0;
#X connect 24 0 14 0;
#X connect 25 0 14 0;
#X connect 26 0 14 0;
#X connect 27 0 28 0;
#X connect 28 0 42 0;
#X connect 30 0 31 0;
#X connect 31 0 29 0;
#X connect 32 0 34 0;
#X connect 33 0 32 0;
#X connect 34 0 37 0;
#X connect 34 0 39 0;
#X connect 35 0 33 0;
#X connect 35 1 36 0;
#X connect 35 2 38 1;
#X connect 35 3 30 1;
#X connect 36 0 34 1;
#X connect 37 0 34 1;
#X connect 38 0 40 0;
#X connect 39 0 41 0;
#X connect 40 0 27 0;
#X connect 41 0 38 0;
#X connect 41 1 31 1;
#X connect 42 0 30 0;
#X connect 42 1 32 1;
#X connect 43 0 44 0;
#X connect 45 0 1 0;
#X connect 45 1 2 0;
#X connect 45 2 3 0;
#X connect 45 3 4 0;
#X connect 45 4 5 0;
#X connect 45 5 6 0;
#X connect 45 6 12 0;
#X connect 45 7 7 0;
#X connect 45 8 8 0;
#X connect 45 9 9 0;
#X connect 45 10 10 0;
#X connect 45 11 11 0;
#X connect 46 0 45 0;
#X connect 48 0 58 0;
#X connect 49 0 58 0;
#X connect 52 0 54 0;
#X connect 52 1 54 1;
#X connect 54 0 47 0;
#X connect 55 0 56 0;
#X connect 55 1 52 1;
#X connect 56 0 52 0;
#X connect 57 0 61 0;
#X connect 58 0 56 0;
#X connect 58 1 56 1;
#X connect 60 0 67 0;
#X connect 61 0 62 0;
#X connect 61 1 63 1;
#X connect 62 0 63 0;
#X connect 63 0 55 0;
#X connect 67 0 64 0;
#X connect 69 0 70 0;
#X connect 70 0 71 0;
#X connect 73 0 74 0;
#X connect 74 0 48 0;
#X connect 74 1 49 0;
#X connect 75 0 76 0;
#X connect 76 0 78 0;
#X connect 76 1 75 0;
#X coords 0 -1 1 1 182 112 2 500 168;
