#N canvas 468 189 1255 908 12;
#X obj 98 44 inlet;
#X obj 507 163 tgl 18 0 \$0-note1-s \$0-note1-r empty 17 7 0 10 -262144
-1 -1 1 1;
#X obj 520 142 tgl 18 0 \$0-note2-s \$0-note2-r empty 17 7 0 10 -262144
-1 -1 0 1;
#X obj 533 163 tgl 18 0 \$0-note3-s \$0-note3-r empty 17 7 0 10 -262144
-1 -1 1 1;
#X obj 546 142 tgl 18 0 \$0-note4-s \$0-note4-r empty 17 7 0 10 -262144
-1 -1 1 1;
#X obj 559 163 tgl 18 0 \$0-note5-s \$0-note5-r empty 17 7 0 10 -262144
-1 -1 0 1;
#X obj 585 163 tgl 18 0 \$0-note6-s \$0-note6-r empty 17 7 0 10 -262144
-1 -1 1 1;
#X obj 611 163 tgl 18 0 \$0-note8-s \$0-note8-r empty 17 7 0 10 -262144
-1 -1 1 1;
#X obj 624 142 tgl 18 0 \$0-note9-s \$0-note9-r empty 17 7 0 10 -262144
-1 -1 1 1;
#X obj 637 163 tgl 18 0 \$0-note10-s \$0-note10-r empty 17 7 0 10 -262144
-1 -1 0 1;
#X obj 650 142 tgl 18 0 \$0-note11-s \$0-note11-r empty 17 7 0 10 -262144
-1 -1 1 1;
#X obj 663 163 tgl 18 0 \$0-note12-s \$0-note12-r empty 17 7 0 10 -262144
-1 -1 0 1;
#X obj 598 142 tgl 18 0 \$0-note7-s \$0-note7-r empty 17 7 0 10 -262144
-1 -1 0 1;
#X obj 549 573 array set scale-\$0;
#X obj 549 549 list split 1;
#X msg 410 459 \$1 0;
#X msg 424 436 \$1 1;
#X msg 453 459 \$1 2;
#X msg 468 436 \$1 3;
#X msg 499 460 \$1 4;
#X msg 543 460 \$1 5;
#X msg 557 437 \$1 6;
#X msg 588 461 \$1 7;
#X msg 602 439 \$1 8;
#X msg 632 462 \$1 9;
#X msg 646 439 \$1 10;
#X msg 676 463 \$1 11;
#X obj 88 336 array get scale-\$0 0 1;
#X obj 89 375 sel 1 0;
#X obj 156 500 outlet;
#X obj 229 418 i;
#X obj 156 446 +;
#X obj 45 125 until;
#X msg 48 96 12;
#X obj 81 162 i 0;
#X obj 88 71 t b b f f;
#X msg 106 110 0;
#X obj 124 162 + 1;
#X obj 86 274 +;
#X obj 76 199 array get offsets-\$0 0 1;
#X obj 87 302 mod 12;
#X obj 123 233 t f f;
#X obj 80 419 t b b;
#X msg 26 535 0 0 1 -1 2 -2 3 -3 4 -4 5 -5 6 -6;
#X obj 26 559 array define -k offsets-\$0;
#A 0 0 1 -1 2 -2 3 -3 4 -4 5 -5 6 -6 0 0 0 0 0 0 0 0 0 0 0 0 0 0 0
0 0 0 0 0 0 0 0 0 0 0 0 0 0 0 0 0 0 0 0 0 0 0 0 0 0 0 0 0 0 0 0 0 0
0 0 0 0 0 0 0 0 0 0 0 0 0 0 0 0 0 0 0 0 0 0 0 0 0 0 0 0 0 0 0 0 0 0
0 0 0 0;
#X obj 973 465 s \$0-scale-load;
#X msg 954 167 1 0 1 0 1 1 0 1 0 1 0 1;
#X msg 953 212 1 0 1 1 0 1 0 1 1 0 1 0;
#X text 953 146 major;
#X text 951 195 minor;
#X obj 973 410 list split;
#X obj 504 124 hradio 15 1 0 12 \$0-set-root-s \$0-set-root-r root_note
0 -8 0 10 -262144 -1 -1 0;
#X obj 973 437 list prepend;
#X obj 1028 385 t b f;
#X obj 973 336 list store;
#X obj 969 281 t b l;
#X symbolatom 612 102 10 0 0 0 - #0-root-note-r #0-root-note-s;
#X obj 1076 343 -;
#X obj 579 84 hradio 15 1 0 2 \$0-set-scale-s \$0-set-scale-r scale
0 -8 0 10 -262144 -1 -1 1;
#X obj 26 683 text define -k \$0-scale-names;
#A set major \; minor \;;
#X obj 26 635 text get \$0-root-names;
#X obj 26 587 text define -k \$0-root-names;
#A set c \; c# \; d \; d# \; e \; f \; f# \; g \; g# \; a \; a# \;
b \;;
#X obj 26 731 text get \$0-scale-names;
#X symbolatom 612 82 10 0 0 0 - #0-scale-name-r #0-scale-name-s;
#X obj 897 114 sel 0 1;
#X obj 954 554 array get scale-\$0;
#X obj 954 674 savestate;
#X obj 751 203 array define scale-\$0 12;
#X obj 819 760 s \$0-note11-r;
#X obj 845 736 s \$0-note12-r;
#X obj 795 784 s \$0-note10-r;
#X obj 769 808 s \$0-note9-r;
#X obj 744 736 s \$0-note8-r;
#X obj 719 761 s \$0-note7-r;
#X obj 693 785 s \$0-note6-r;
#X obj 668 809 s \$0-note5-r;
#X obj 643 737 s \$0-note4-r;
#X obj 618 761 s \$0-note3-r;
#X obj 593 785 s \$0-note2-r;
#X obj 568 809 s \$0-note1-r;
#X obj 954 650 list append;
#X obj 505 73 bng 20 250 50 0 \$0-load-s \$0-load-r load 22 7 0 10
-262144 -1 -1;
#X obj 1028 626 pack f f;
#X obj 1081 602 r \$0-set-root-s;
#X obj 367 272 r \$0-note1-s;
#X obj 381 296 r \$0-note2-s;
#X obj 414 321 r \$0-note3-s;
#X obj 436 347 r \$0-note4-s;
#X obj 483 371 r \$0-note5-s;
#X obj 545 275 r \$0-note6-s;
#X obj 565 301 r \$0-note7-s;
#X obj 580 328 r \$0-note8-s;
#X obj 611 360 r \$0-note9-s;
#X obj 636 386 r \$0-note10-s;
#X obj 649 411 r \$0-note11-s;
#X obj 704 436 r \$0-note12-s;
#X obj 897 86 f;
#X obj 1060 87 f;
#X obj 26 707 r \$0-set-scale-s;
#X obj 26 611 r \$0-set-root-s;
#X obj 991 17 r \$0-load-s;
#X obj 26 659 s \$0-root-note-r;
#X obj 26 755 s \$0-scale-name-r;
#X obj 1078 63 r \$0-set-root-s;
#X msg 1076 319 12 \$1;
#X obj 954 698 list split 12;
#X obj 954 794 s \$0-scale-load;
#X obj 568 688 r \$0-scale-load;
#X obj 568 712 unpack f f f f f f f f f f f f, f 40;
#X floatatom 964 95 5 0 0 0 - - -;
#X obj 915 62 r \$0-set-scale-s;
#X obj 1028 578 r \$0-set-scale-s;
#X obj 998 722 unpack f f;
#X obj 998 770 s \$0-set-scale-r;
#X obj 1065 746 s \$0-set-root-r;
#X obj 349 540 % 12;
#X obj 298 540 div 12;
#X obj 298 612 makefilename;
#X msg 349 588 set \$1%d;
#X obj 298 516 i;
#X obj 349 564 text get \$0-root-names;
#X obj 220 471 t f f;
#X symbolatom 612 185 10 0 0 0 out #0-out-note-r #0-out-note-s;
#X obj 298 636 s \$0-out-note-r;
#X connect 0 0 35 0;
#X connect 14 0 13 0;
#X connect 14 1 13 1;
#X connect 15 0 14 0;
#X connect 16 0 14 0;
#X connect 17 0 14 0;
#X connect 18 0 14 0;
#X connect 19 0 14 0;
#X connect 20 0 14 0;
#X connect 21 0 14 0;
#X connect 22 0 14 0;
#X connect 23 0 14 0;
#X connect 24 0 14 0;
#X connect 25 0 14 0;
#X connect 26 0 14 0;
#X connect 27 0 28 0;
#X connect 28 0 42 0;
#X connect 30 0 31 0;
#X connect 31 0 121 0;
#X connect 32 0 34 0;
#X connect 33 0 32 0;
#X connect 34 0 37 0;
#X connect 34 0 39 0;
#X connect 35 0 33 0;
#X connect 35 1 36 0;
#X connect 35 2 38 1;
#X connect 35 3 30 1;
#X connect 36 0 34 1;
#X connect 37 0 34 1;
#X connect 38 0 40 0;
#X connect 39 0 41 0;
#X connect 40 0 27 0;
#X connect 41 0 38 0;
#X connect 41 1 31 1;
#X connect 42 0 30 0;
#X connect 42 1 32 1;
#X connect 43 0 44 0;
#X connect 46 0 55 0;
#X connect 47 0 55 0;
#X connect 50 0 52 0;
#X connect 50 1 52 1;
#X connect 52 0 45 0;
#X connect 53 0 54 0;
#X connect 53 1 50 1;
#X connect 54 0 50 0;
#X connect 55 0 54 0;
#X connect 55 1 54 1;
#X connect 57 0 53 0;
#X connect 60 0 101 0;
#X connect 62 0 102 0;
#X connect 64 0 46 0;
#X connect 64 1 47 0;
#X connect 65 0 80 0;
#X connect 66 0 105 0;
#X connect 66 1 65 0;
#X connect 80 0 66 0;
#X connect 82 0 80 1;
#X connect 83 0 82 1;
#X connect 84 0 15 0;
#X connect 85 0 16 0;
#X connect 86 0 17 0;
#X connect 87 0 18 0;
#X connect 88 0 19 0;
#X connect 89 0 20 0;
#X connect 90 0 21 0;
#X connect 91 0 22 0;
#X connect 92 0 23 0;
#X connect 93 0 24 0;
#X connect 94 0 25 0;
#X connect 95 0 26 0;
#X connect 96 0 64 0;
#X connect 97 0 104 0;
#X connect 98 0 62 0;
#X connect 99 0 60 0;
#X connect 100 0 96 0;
#X connect 100 0 97 0;
#X connect 103 0 97 1;
#X connect 104 0 57 0;
#X connect 105 0 106 0;
#X connect 105 1 112 0;
#X connect 107 0 108 0;
#X connect 108 0 79 0;
#X connect 108 1 78 0;
#X connect 108 2 77 0;
#X connect 108 3 76 0;
#X connect 108 4 75 0;
#X connect 108 5 74 0;
#X connect 108 6 73 0;
#X connect 108 7 72 0;
#X connect 108 8 71 0;
#X connect 108 9 70 0;
#X connect 108 10 68 0;
#X connect 108 11 69 0;
#X connect 110 0 96 1;
#X connect 110 0 109 0;
#X connect 111 0 82 0;
#X connect 112 0 113 0;
#X connect 112 1 114 0;
#X connect 115 0 120 0;
#X connect 116 0 117 0;
#X connect 117 0 123 0;
#X connect 118 0 117 0;
#X connect 119 0 116 0;
#X connect 119 0 115 0;
#X connect 120 0 118 0;
#X connect 121 0 29 0;
#X connect 121 1 119 0;
#X coords 0 -1 1 1 188 140 2 500 68;
