#N canvas 838 144 953 686 12;
#X obj 112 33 inlet;
#X obj 403 123 tgl 15 0 empty empty empty 17 7 0 10 -262144 -1 -1 1
1;
#X obj 413 103 tgl 15 0 empty empty empty 17 7 0 10 -262144 -1 -1 0
1;
#X obj 425 123 tgl 15 0 empty empty empty 17 7 0 10 -262144 -1 -1 1
1;
#X obj 435 103 tgl 15 0 empty empty empty 17 7 0 10 -262144 -1 -1 1
1;
#X obj 445 123 tgl 15 0 empty empty empty 17 7 0 10 -262144 -1 -1 0
1;
#X obj 467 123 tgl 15 0 empty empty empty 17 7 0 10 -262144 -1 -1 1
1;
#X obj 489 123 tgl 15 0 empty empty empty 17 7 0 10 -262144 -1 -1 1
1;
#X obj 499 103 tgl 15 0 empty empty empty 17 7 0 10 -262144 -1 -1 1
1;
#X obj 511 123 tgl 15 0 empty empty empty 17 7 0 10 -262144 -1 -1 0
1;
#X obj 521 103 tgl 15 0 empty empty empty 17 7 0 10 -262144 -1 -1 1
1;
#X obj 532 123 tgl 15 0 empty empty empty 17 7 0 10 -262144 -1 -1 0
1;
#X obj 478 103 tgl 15 0 empty empty empty 17 7 0 10 -262144 -1 -1 0
1;
#X obj 425 406 array define scale-\$0;
#X obj 451 369 array set scale-\$0;
#X obj 469 309 list split 1;
#X msg 327 184 \$1 0;
#X msg 341 161 \$1 1;
#X msg 370 184 \$1 2;
#X msg 385 161 \$1 3;
#X msg 416 185 \$1 4;
#X msg 460 185 \$1 5;
#X msg 474 162 \$1 6;
#X msg 505 186 \$1 7;
#X msg 519 164 \$1 8;
#X msg 549 187 \$1 9;
#X msg 563 164 \$1 10;
#X msg 593 188 \$1 11;
#X obj 102 325 array get scale-\$0 0 1;
#X obj 103 364 sel 1 0;
#X obj 103 562 outlet;
#X obj 258 413 i;
#X obj 179 486 +;
#X obj 59 114 until;
#X msg 62 85 12;
#X obj 95 151 i 0;
#X obj 102 60 t b b f f;
#X msg 120 99 0;
#X obj 138 151 + 1;
#X obj 100 263 +;
#X obj 90 188 array get offsets-\$0 0 1;
#X obj 101 291 mod 12;
#X obj 137 222 t f f;
#X obj 94 408 t b b;
#X msg 412 455 0 0 1 -1 2 -2 3 -3 4 -4 5 -5 6 -6;
#X obj 385 497 array define -k offsets-\$0;
#A 0 0 1 -1 2 -2 3 -3 4 -4 5 -5 6 -6 0 0 0 0 0 0 0 0 0 0 0 0 0 0 0
0 0 0 0 0 0 0 0 0 0 0 0 0 0 0 0 0 0 0 0 0 0 0 0 0 0 0 0 0 0 0 0 0 0
0 0 0 0 0 0 0 0 0 0 0 0 0 0 0 0 0 0 0 0 0 0 0 0 0 0 0 0 0 0 0 0 0 0
0 0 0 0;
#X obj 371 63 unpack f f f f f f f f f f f f;
#X obj 378 21 r \$0-scale-load;
#X obj 673 302 s \$0-scale-load;
#X msg 710 190 1 0 1 0 1 1 0 1 0 1 0 1;
#X msg 709 235 1 0 1 1 0 1 0 1 1 0 1 0;
#X text 709 169 major;
#X text 707 218 minor;
#X obj 678 130 loadbang;
#X connect 0 0 36 0;
#X connect 1 0 16 0;
#X connect 2 0 17 0;
#X connect 3 0 18 0;
#X connect 4 0 19 0;
#X connect 5 0 20 0;
#X connect 6 0 21 0;
#X connect 7 0 23 0;
#X connect 8 0 24 0;
#X connect 9 0 25 0;
#X connect 10 0 26 0;
#X connect 11 0 27 0;
#X connect 12 0 22 0;
#X connect 15 0 14 0;
#X connect 15 1 14 1;
#X connect 16 0 15 0;
#X connect 17 0 15 0;
#X connect 18 0 15 0;
#X connect 19 0 15 0;
#X connect 20 0 15 0;
#X connect 21 0 15 0;
#X connect 22 0 15 0;
#X connect 23 0 15 0;
#X connect 24 0 15 0;
#X connect 25 0 15 0;
#X connect 26 0 15 0;
#X connect 27 0 15 0;
#X connect 28 0 29 0;
#X connect 29 0 43 0;
#X connect 31 0 32 0;
#X connect 32 0 30 0;
#X connect 33 0 35 0;
#X connect 34 0 33 0;
#X connect 35 0 38 0;
#X connect 35 0 40 0;
#X connect 36 0 34 0;
#X connect 36 1 37 0;
#X connect 36 2 39 1;
#X connect 36 3 31 1;
#X connect 37 0 35 1;
#X connect 38 0 35 1;
#X connect 39 0 41 0;
#X connect 40 0 42 0;
#X connect 41 0 28 0;
#X connect 42 0 39 0;
#X connect 42 1 32 1;
#X connect 43 0 31 0;
#X connect 43 1 33 1;
#X connect 44 0 45 0;
#X connect 46 0 1 0;
#X connect 46 1 2 0;
#X connect 46 2 3 0;
#X connect 46 3 4 0;
#X connect 46 4 5 0;
#X connect 46 5 6 0;
#X connect 46 6 12 0;
#X connect 46 7 7 0;
#X connect 46 8 8 0;
#X connect 46 9 9 0;
#X connect 46 10 10 0;
#X connect 46 11 11 0;
#X connect 47 0 46 0;
#X connect 49 0 48 0;
#X connect 50 0 48 0;
#X connect 53 0 50 0;
#X coords 0 -1 1 1 150 40 2 400 100;
