#N canvas 1297 355 783 635 12;
#X text 125 60 Randish Source;
#X text 127 101 Combines a pair of phasors with linked frequency and
low pass filtered noise and llows equal power cross fading between
the two. The idea being to have some sort of cycling signal from the
phasors but allow introduction of varying levels of randomness. Inlets
are primary phasor frequency \, secondary phasor frequency multiplier
\, and cross fade position.;
#X obj 284 317 randish-source;
#A saved 1 -1.2 0.257143;
#N canvas 0 22 450 278 (subpatch) 0;
#X array \$0-signal-array 1000 float 2;
#X coords 0 1 1000 -1 200 140 1;
#X restore 516 382 graph;
#X obj 263 441 tabwrite~ \$0-signal-array;
#X obj 335 398 metro 50;
#X obj 392 355 tgl 15 0 empty empty empty 17 7 0 10 -262144 -1 -1 1
1;
#X connect 2 0 4 0;
#X connect 5 0 4 0;
#X connect 6 0 5 0;
