#N canvas 911 333 777 622 12;
#X obj 157 299 phasor~;
#X obj 234 292 phasor~;
#X floatatom 102 102 5 0 0 0 - - -;
#X floatatom 141 102 5 0 0 0 - - -;
#X obj 195 227 * 0;
#X obj 325 282 noise~;
#X obj 187 347 +~;
#X obj 224 424 c_cpfade;
#X obj 105 121 hsl 71 25 0 1 0 0 empty empty empty -2 -8 0 10 -262144
-1 -1 0 1;
#X obj 224 461 outlet~;
#X obj 54 35 inlet;
#X obj 158 43 inlet;
#X obj 232 53 inlet;
#X obj 189 379 *~ 0.5;
#X floatatom 62 214 5 0 0 0 - - -;
#X obj 291 379 lop~ 100;
#X obj 409 216 savestate;
#X obj 410 168 pack f f f;
#X obj 343 131 f;
#X obj 409 245 s \$0-load-state;
#X obj 299 29 r \$0-load-state;
#X obj 298 65 unpack f f f;
#X obj 187 178 t b f;
#X connect 0 0 6 0;
#X connect 1 0 6 1;
#X connect 2 0 0 0;
#X connect 2 0 4 0;
#X connect 2 0 18 1;
#X connect 3 0 17 1;
#X connect 3 0 22 0;
#X connect 4 0 1 0;
#X connect 5 0 15 0;
#X connect 6 0 13 0;
#X connect 7 0 9 0;
#X connect 8 0 7 2;
#X connect 8 0 14 0;
#X connect 8 0 17 2;
#X connect 10 0 2 0;
#X connect 11 0 3 0;
#X connect 12 0 8 0;
#X connect 13 0 7 0;
#X connect 15 0 7 1;
#X connect 16 0 19 0;
#X connect 16 1 18 0;
#X connect 17 0 16 0;
#X connect 18 0 17 0;
#X connect 20 0 21 0;
#X connect 21 0 2 0;
#X connect 21 1 3 0;
#X connect 21 2 8 0;
#X connect 22 0 4 0;
#X connect 22 1 4 1;
#X coords 0 -1 1 1 80 48 2 100 100;
