#N canvas 1025 559 450 300 12;
#X obj 87 71 inlet;
#X obj 87 95 t f f f;
#X obj 108 132 > \$1;
#X obj 135 178 &&;
#X obj 107 225 spigot;
#X obj 107 249 outlet;
#X obj 153 133 < \$2;
#X connect 0 0 1 0;
#X connect 1 0 4 0;
#X connect 1 1 2 0;
#X connect 1 2 6 0;
#X connect 2 0 3 0;
#X connect 3 0 4 1;
#X connect 4 0 5 0;
#X connect 6 0 3 1;
