#N canvas 497 331 822 922 12;
#X obj 43 513 inlet;
#X obj 43 561 outlet;
#X floatatom 256 204 5 1 20 0 repeats #0-repeats-r #0-repeats-s;
#X obj 304 204 bng 20 250 50 0 \$0-output-trig-s \$0-output-trig-r
empty 17 7 0 10 -262144 -1 -1;
#X obj 43 537 ratchet, f 21;
#X obj 618 64 inlet;
#X obj 618 88 dispatch \$0 chance;
#X obj 618 112 dispatch \$0 repeats;
#X obj 618 136 dispatch \$0 interval;
#X obj 207 238 hsl 115 25 0 1 0 0 \$0-chance-s \$0-chance-r chance
-2 -8 0 12 -262144 -1 -1 3500 1;
#X obj 207 288 hsl 115 25 1 3000 1 0 \$0-interval-slider-s \$0-interval-slider-r
interval -2 -8 0 12 -262144 -1 -1 7862 1;
#X floatatom 287 268 5 0 0 0 - #0-interval-num-r #0-interval-num-s
;
#X msg 260 64 set \$1;
#X msg 423 64 set \$1;
#X obj 260 40 r \$0-interval-slider-s;
#X obj 260 88 s \$0-interval-num-r;
#X obj 423 40 r \$0-interval-num-s;
#X obj 423 88 s \$0-interval-slider-r;
#X obj 268 144 r \$0-interval-slider-s;
#X obj 431 144 r \$0-interval-num-s;
#X obj 373 183 s \$0-interval-val;
#X obj 620 254 r \$0-chance;
#X obj 620 278 s \$0-chance-r;
#X obj 620 302 r \$0-repeats;
#X obj 620 326 s \$0-repeats-r;
#X obj 620 350 r \$0-interval;
#X obj 620 374 s \$0-interval-slider-r;
#X obj 368 400 f;
#X obj 386 376 r \$0-chance-s;
#X obj 368 448 pack f f f;
#X obj 401 400 r \$0-repeats-s;
#X obj 368 472 savestate;
#X obj 368 496 unpack f f f;
#X obj 408 544 s \$0-repeats-r;
#X obj 368 568 s \$0-chance-r;
#X obj 102 562 s \$0-output-trig-r;
#X obj 91 465 r \$0-chance-s;
#X obj 435 424 r \$0-interval-val;
#X obj 449 520 s \$0-interval-slider-r;
#X obj 139 489 r \$0-interval-val;
#X obj 187 513 r \$0-repeats-s;
#X connect 0 0 4 0;
#X connect 4 0 1 0;
#X connect 4 0 35 0;
#X connect 5 0 6 0;
#X connect 6 0 7 0;
#X connect 7 0 8 0;
#X connect 12 0 15 0;
#X connect 13 0 17 0;
#X connect 14 0 12 0;
#X connect 16 0 13 0;
#X connect 18 0 20 0;
#X connect 19 0 20 0;
#X connect 21 0 22 0;
#X connect 23 0 24 0;
#X connect 25 0 26 0;
#X connect 27 0 29 0;
#X connect 28 0 27 1;
#X connect 29 0 31 0;
#X connect 30 0 29 1;
#X connect 31 0 32 0;
#X connect 31 1 27 0;
#X connect 32 0 34 0;
#X connect 32 1 33 0;
#X connect 32 2 38 0;
#X connect 36 0 4 1;
#X connect 37 0 29 2;
#X connect 39 0 4 2;
#X connect 40 0 4 3;
#X coords 0 -1 1 1 128 117 2 200 200;
