#N canvas 898 433 706 503 12;
#X obj 86 43 inlet;
#X obj 86 67 random 100;
#X obj 139 283 + 1;
#X obj 109 283 i;
#X obj 109 307 t f f;
#X msg 285 231 0;
#X obj 109 211 t b b;
#X obj 134 331 r \$0-repeats;
#X msg 109 235 1;
#X obj 162 235 r \$0-interval;
#X obj 109 403 sel 1 0;
#X obj 86 451 outlet;
#X obj 86 91 / 100;
#X obj 86 187 sel 0 1;
#X obj 86 163 < \$1;
#X obj 109 259 metro \$2;
#X obj 134 355 max 1;
#X obj 111 139 clip 0 1;
#X obj 111 115 r \$0-chance;
#X obj 315 36 inlet;
#X obj 315 60 s \$0-chance;
#X obj 439 36 inlet;
#X obj 439 60 s \$0-interval;
#X obj 580 35 inlet;
#X obj 580 59 s \$0-repeats;
#X obj 109 379 < \$3;
#X obj 109 427 outlet;
#X connect 0 0 1 0;
#X connect 1 0 12 0;
#X connect 2 0 3 1;
#X connect 3 0 2 0;
#X connect 3 0 4 0;
#X connect 4 0 25 0;
#X connect 5 0 3 1;
#X connect 5 0 15 0;
#X connect 6 0 8 0;
#X connect 6 1 5 0;
#X connect 7 0 16 0;
#X connect 8 0 15 0;
#X connect 9 0 15 1;
#X connect 10 0 26 0;
#X connect 10 1 5 0;
#X connect 12 0 14 0;
#X connect 13 0 11 0;
#X connect 13 1 6 0;
#X connect 14 0 13 0;
#X connect 15 0 3 0;
#X connect 16 0 25 1;
#X connect 17 0 14 1;
#X connect 18 0 17 0;
#X connect 19 0 20 0;
#X connect 21 0 22 0;
#X connect 23 0 24 0;
#X connect 25 0 10 0;
