#N canvas 1151 293 1038 747 12;
#X obj 124 65 inlet~;
#X obj 176 186 tabwrite~ \$0-buffer;
#X obj 440 52 inlet;
#X obj 220 44 r \$0-record;
#X obj 440 76 dispatch-bang \$0 record;
#X obj 440 100 dispatch-bang \$0 stop;
#X obj 333 68 r \$0-stop;
#X msg 333 92 stop;
#X obj 617 265 r \$0-record;
#X obj 661 482 delay;
#X obj 773 392 r \$0-stop;
#X obj 773 416 t b b;
#X msg 805 440 stop;
#X obj 615 600 outlet;
#X obj 617 433 i;
#X obj 615 567 symbol \$0-buffer;
#X obj 95 386 r \$0-size;
#X obj 104 410 r pd-dsp-started;
#X obj 104 434 samplerate~;
#X obj 104 458 t b f;
#X floatatom 185 534 15 0 0 0 - - -;
#X obj 119 616 array size \$0-buffer;
#X obj 72 279 array define \$0-buffer 100;
#X obj 185 557 print rbsize;
#X obj 95 482 * 44100;
#X obj 644 315 r \$0-size;
#X obj 475 200 loadbang;
#X obj 475 224 \$1;
#X obj 475 248 s \$0-size;
#X obj 644 339 * 1000;
#X connect 0 0 1 0;
#X connect 2 0 4 0;
#X connect 3 0 1 0;
#X connect 4 0 5 0;
#X connect 6 0 7 0;
#X connect 7 0 1 0;
#X connect 8 0 14 0;
#X connect 9 0 15 0;
#X connect 10 0 11 0;
#X connect 11 1 12 0;
#X connect 12 0 9 0;
#X connect 14 0 9 0;
#X connect 15 0 13 0;
#X connect 16 0 24 0;
#X connect 17 0 18 0;
#X connect 18 0 19 0;
#X connect 19 0 24 0;
#X connect 19 1 24 1;
#X connect 20 0 23 0;
#X connect 24 0 21 0;
#X connect 24 0 20 0;
#X connect 25 0 29 0;
#X connect 26 0 27 0;
#X connect 27 0 28 0;
#X connect 29 0 14 1;
