#N canvas 212 190 1192 997 12;
#X obj 97 591 resonator-bank, f 45;
#X obj 304 117 vsl 15 128 0 2 0 1 \$0-vol1-s \$0-vol1-r 1 4 -9 0 10
-262144 -1 -1 6350 1;
#X obj 322 117 vsl 15 128 0 2 0 1 \$0-vol2-s \$0-vol2-r 2 4 -9 0 10
-262144 -1 -1 6350 1;
#X obj 340 117 vsl 15 128 0 2 0 1 \$0-vol3-s \$0-vol3-r 3 4 -9 0 10
-262144 -1 -1 6350 1;
#X obj 358 117 vsl 15 128 0 2 0 1 \$0-vol4-s \$0-vol4-r 4 4 -9 0 10
-262144 -1 -1 6350 1;
#X obj 376 117 vsl 15 128 0 2 0 1 \$0-vol5-s \$0-vol5-r 5 4 -9 0 10
-262144 -1 -1 6350 1;
#X obj 394 117 vsl 15 128 0 2 0 1 \$0-vol6-s \$0-vol6-r 6 4 -9 0 10
-262144 -1 -1 6350 1;
#X obj 412 117 vsl 15 128 0 2 0 1 \$0-vol7-s \$0-vol7-r 7 4 -9 0 10
-262144 -1 -1 6350 1;
#X obj 430 117 vsl 15 128 0 2 0 1 \$0-vol8-s \$0-vol8-r 8 4 -9 0 10
-262144 -1 -1 6350 1;
#X obj 448 117 vsl 15 128 0 2 0 1 \$0-vol9-s \$0-vol9-r 9 4 -9 0 10
-262144 -1 -1 6350 1;
#X obj 466 117 vsl 15 128 0 2 0 1 \$0-vol10-s \$0-vol10-r 10 1 -9 0
10 -262144 -1 -1 6350 1;
#X obj 721 80 r \$0-vol1-s;
#X obj 721 118 f;
#X obj 757 107 r \$0-vol2-s;
#X obj 778 133 r \$0-vol3-s;
#X obj 800 157 r \$0-vol4-s;
#X obj 820 182 r \$0-vol5-s;
#X obj 838 77 r \$0-vol1-s;
#X obj 874 104 r \$0-vol2-s;
#X obj 895 130 r \$0-vol3-s;
#X obj 917 154 r \$0-vol4-s;
#X obj 937 179 r \$0-vol5-s;
#X obj 307 255 hsl 172 15 -1.5 1.5 0 1 \$0-spread-s \$0-spread-r spread
10 8 0 10 -262144 -1 -1 8550 1;
#X obj 975 72 r \$0-spread-s;
#X obj 307 273 hsl 172 15 -10 10 0 1 \$0-base-s \$0-base-r base 10
8 0 10 -262144 -1 -1 8550 1;
#X obj 1002 106 r \$0-base-s;
#X obj 721 259 savestate;
#X obj 721 419 s \$0-vol1-r;
#X obj 748 393 s \$0-vol2-r;
#X obj 775 369 s \$0-vol3-r;
#X obj 802 344 s \$0-vol4-r;
#X obj 829 315 s \$0-vol5-r;
#X obj 856 417 s \$0-vol6-r;
#X obj 883 387 s \$0-vol7-r;
#X obj 910 358 s \$0-vol8-r;
#X obj 937 328 s \$0-vol9-r;
#X obj 964 429 s \$0-vol10-r;
#X obj 991 391 s \$0-spread-r;
#X obj 1019 355 s \$0-base-r;
#X obj 317 425 inlet~;
#X obj 81 655 outlet~;
#X obj 238 661 outlet~;
#X obj 432 646 outlet~;
#X obj 821 509 r \$0-vol1-s;
#X obj 923 510 r \$0-vol2-s;
#X obj 821 592 r \$0-vol3-s;
#X obj 923 593 r \$0-vol4-s;
#X obj 822 675 r \$0-vol5-s;
#X obj 924 676 r \$0-vol6-s;
#X obj 822 758 r \$0-vol7-s;
#X obj 924 759 r \$0-vol8-s;
#X obj 822 836 r \$0-vol9-s;
#X obj 924 837 r \$0-vol10-s;
#X obj 205 451 r \$0-base-s;
#X msg 205 475 \$1 10;
#X obj 205 499 line~;
#X msg 347 497 \$1 10;
#X obj 347 521 line~;
#X obj 347 473 r \$0-spread-s;
#X obj 423 560 r \$0-controls;
#X obj 821 557 s \$0-controls;
#X obj 923 558 s \$0-controls;
#X obj 923 641 s \$0-controls;
#X obj 821 640 s \$0-controls;
#X obj 822 723 s \$0-controls;
#X obj 924 724 s \$0-controls;
#X obj 924 807 s \$0-controls;
#X obj 822 806 s \$0-controls;
#X obj 822 884 s \$0-controls;
#X obj 924 885 s \$0-controls;
#X obj 721 235 pack f f f f f f f f f f f f f, f 46;
#X obj 721 283 unpack f f f f f f f f f f f f f, f 48;
#X obj 1041 154 r \$0-resonance-s;
#X obj 1054 322 s \$0-resonance-r;
#X obj 307 292 hsl 172 15 1 70 0 1 \$0-resonance-s \$0-resonance-r
resonance 10 8 0 10 -262144 -1 -1 2230 1;
#X obj 675 888 s \$0-controls;
#X obj 675 840 r \$0-resonance-s;
#X msg 675 864 resonance \$1;
#X msg 821 533 vol-1 \$1;
#X msg 923 534 vol-2 \$1;
#X msg 923 617 vol-4 \$1;
#X msg 821 616 vol-3 \$1;
#X msg 822 699 vol-5 \$1;
#X msg 924 700 vol-6 \$1;
#X msg 924 783 vol-8 \$1;
#X msg 822 782 vol-7 \$1;
#X msg 822 860 vol-9 \$1;
#X msg 924 861 vol-10 \$1;
#X obj 44 444 inlet~ audio;
#X obj 155 401 inlet~ base;
#X text 301 62 audio;
#X text 372 62 base;
#X text 432 62 spread;
#X text 302 314 all;
#X text 375 317 odd;
#X text 448 315 even;
#X text 338 81 Resonator Bank;
#X msg 515 204 1 1 1 1 1 1 1 1 1 1 0 0 10;
#X connect 0 0 40 0;
#X connect 0 1 41 0;
#X connect 0 2 42 0;
#X connect 11 0 12 1;
#X connect 12 0 70 0;
#X connect 13 0 70 1;
#X connect 14 0 70 2;
#X connect 15 0 70 3;
#X connect 16 0 70 4;
#X connect 17 0 70 5;
#X connect 18 0 70 6;
#X connect 19 0 70 7;
#X connect 20 0 70 8;
#X connect 21 0 70 9;
#X connect 23 0 70 10;
#X connect 25 0 70 11;
#X connect 26 0 71 0;
#X connect 26 1 12 0;
#X connect 39 0 0 2;
#X connect 43 0 78 0;
#X connect 44 0 79 0;
#X connect 45 0 81 0;
#X connect 46 0 80 0;
#X connect 47 0 82 0;
#X connect 48 0 83 0;
#X connect 49 0 85 0;
#X connect 50 0 84 0;
#X connect 51 0 86 0;
#X connect 52 0 87 0;
#X connect 53 0 54 0;
#X connect 54 0 55 0;
#X connect 55 0 0 1;
#X connect 56 0 57 0;
#X connect 57 0 0 2;
#X connect 58 0 56 0;
#X connect 59 0 0 3;
#X connect 70 0 26 0;
#X connect 71 0 27 0;
#X connect 71 1 28 0;
#X connect 71 2 29 0;
#X connect 71 3 30 0;
#X connect 71 4 31 0;
#X connect 71 5 32 0;
#X connect 71 6 33 0;
#X connect 71 7 34 0;
#X connect 71 8 35 0;
#X connect 71 9 36 0;
#X connect 71 10 37 0;
#X connect 71 11 38 0;
#X connect 71 12 73 0;
#X connect 72 0 70 12;
#X connect 76 0 77 0;
#X connect 77 0 75 0;
#X connect 78 0 60 0;
#X connect 79 0 61 0;
#X connect 80 0 62 0;
#X connect 81 0 63 0;
#X connect 82 0 64 0;
#X connect 83 0 65 0;
#X connect 84 0 66 0;
#X connect 85 0 67 0;
#X connect 86 0 68 0;
#X connect 87 0 69 0;
#X connect 88 0 0 0;
#X connect 89 0 0 1;
#X connect 97 0 71 0;
#X coords 0 -1 1 1 185 274 2 300 60;
