#N canvas 293 56 1461 1292 12;
#X obj 479 90 +~;
#X obj 39 369 *~;
#X obj 57 297 r \$0-vol-1;
#X msg 57 321 \$1 10;
#X obj 57 345 line~;
#X obj 65 225 r~ \$0-freq-1;
#X obj 412 142 s~ \$0-freq-1;
#X obj 488 183 s~ \$0-freq-2;
#X obj 552 223 s~ \$0-freq-3;
#X obj 620 270 s~ \$0-freq-4;
#X obj 684 310 s~ \$0-freq-5;
#X obj 746 354 s~ \$0-freq-6;
#X obj 810 394 s~ \$0-freq-7;
#X obj 878 441 s~ \$0-freq-8;
#X obj 942 481 s~ \$0-freq-9;
#X obj 1001 522 s~ \$0-freq-10;
#X obj 530 40 sig~ 20;
#X obj 1060 76 dispatch \$0 vol-1;
#X obj 1060 100 dispatch \$0 vol-2;
#X obj 1060 172 dispatch \$0 vol-5;
#X obj 1060 124 dispatch \$0 vol-3;
#X obj 1060 148 dispatch \$0 vol-4;
#X obj 1060 196 dispatch \$0 vol-6;
#X obj 1060 220 dispatch \$0 vol-7;
#X obj 1060 244 dispatch \$0 vol-8;
#X obj 1060 268 dispatch \$0 vol-9;
#X obj 1060 292 dispatch \$0 vol-10;
#X obj 782 816 outlet~;
#X obj 879 816 outlet~;
#X obj 1025 813 outlet~;
#X obj 843 62 sig~ 1.8956;
#X obj 727 100 +~;
#X obj 533 141 *~;
#X obj 597 181 *~;
#X obj 665 228 *~;
#X obj 729 268 *~;
#X obj 791 312 *~;
#X obj 855 352 *~;
#X obj 923 399 *~;
#X obj 987 439 *~;
#X obj 1046 480 *~;
#X obj 48 90 s~ \$0-audio;
#X obj 39 201 r~ \$0-audio;
#X obj 39 393 throw~ \$0-odd-out;
#X obj 892 725 catch~ \$0-odd-out;
#X obj 1024 726 catch~ \$0-even-out;
#X obj 1060 316 dispatch \$0 resonance;
#X obj 92 249 r \$0-resonance;
#X obj 214 370 *~;
#X msg 232 322 \$1 10;
#X obj 232 346 line~;
#X obj 214 202 r~ \$0-audio;
#X obj 267 250 r \$0-resonance;
#X obj 240 226 r~ \$0-freq-2;
#X obj 232 298 r \$0-vol-2;
#X obj 214 394 throw~ \$0-even-out;
#X obj 41 606 *~;
#X msg 59 558 \$1 10;
#X obj 59 582 line~;
#X obj 41 438 r~ \$0-audio;
#X obj 41 630 throw~ \$0-odd-out;
#X obj 94 486 r \$0-resonance;
#X obj 216 607 *~;
#X msg 234 559 \$1 10;
#X obj 234 583 line~;
#X obj 216 439 r~ \$0-audio;
#X obj 269 487 r \$0-resonance;
#X obj 216 631 throw~ \$0-even-out;
#X obj 67 462 r~ \$0-freq-3;
#X obj 59 534 r \$0-vol-3;
#X obj 242 463 r~ \$0-freq-4;
#X obj 234 535 r \$0-vol-4;
#X obj 38 844 *~;
#X msg 56 796 \$1 10;
#X obj 56 820 line~;
#X obj 38 676 r~ \$0-audio;
#X obj 38 868 throw~ \$0-odd-out;
#X obj 91 724 r \$0-resonance;
#X obj 213 845 *~;
#X msg 231 797 \$1 10;
#X obj 231 821 line~;
#X obj 213 677 r~ \$0-audio;
#X obj 266 725 r \$0-resonance;
#X obj 213 869 throw~ \$0-even-out;
#X obj 64 700 r~ \$0-freq-5;
#X obj 56 772 r \$0-vol-5;
#X obj 239 701 r~ \$0-freq-6;
#X obj 231 773 r \$0-vol-6;
#X obj 40 1087 *~;
#X msg 58 1039 \$1 10;
#X obj 58 1063 line~;
#X obj 40 919 r~ \$0-audio;
#X obj 40 1111 throw~ \$0-odd-out;
#X obj 93 967 r \$0-resonance;
#X obj 215 1088 *~;
#X msg 233 1040 \$1 10;
#X obj 233 1064 line~;
#X obj 215 920 r~ \$0-audio;
#X obj 268 968 r \$0-resonance;
#X obj 215 1112 throw~ \$0-even-out;
#X obj 66 943 r~ \$0-freq-7;
#X obj 58 1015 r \$0-vol-7;
#X obj 241 944 r~ \$0-freq-8;
#X obj 233 1016 r \$0-vol-8;
#X obj 464 1093 *~;
#X msg 482 1045 \$1 10;
#X obj 482 1069 line~;
#X obj 464 925 r~ \$0-audio;
#X obj 464 1117 throw~ \$0-odd-out;
#X obj 517 973 r \$0-resonance;
#X obj 639 1094 *~;
#X msg 657 1046 \$1 10;
#X obj 657 1070 line~;
#X obj 639 926 r~ \$0-audio;
#X obj 692 974 r \$0-resonance;
#X obj 639 1118 throw~ \$0-even-out;
#X obj 490 949 r~ \$0-freq-9;
#X obj 482 1021 r \$0-vol-9;
#X obj 665 950 r~ \$0-freq-10;
#X obj 657 1022 r \$0-vol-10;
#X obj 39 273 vcf~ 10;
#X obj 214 274 vcf~ 10;
#X obj 41 510 vcf~ 10;
#X obj 216 511 vcf~ 10;
#X obj 38 748 vcf~ 10;
#X obj 213 749 vcf~ 10;
#X obj 40 991 vcf~ 10;
#X obj 215 992 vcf~ 10;
#X obj 464 997 vcf~ 10;
#X obj 639 998 vcf~ 10;
#X obj 48 66 inlet~ audio;
#X obj 440 36 inlet~ base;
#X obj 719 49 inlet~ spread;
#X obj 1060 52 inlet controls;
#X connect 0 0 6 0;
#X connect 0 0 32 0;
#X connect 1 0 43 0;
#X connect 2 0 3 0;
#X connect 3 0 4 0;
#X connect 4 0 1 1;
#X connect 5 0 120 1;
#X connect 16 0 0 1;
#X connect 17 0 18 0;
#X connect 18 0 20 0;
#X connect 19 0 22 0;
#X connect 20 0 21 0;
#X connect 21 0 19 0;
#X connect 22 0 23 0;
#X connect 23 0 24 0;
#X connect 24 0 25 0;
#X connect 25 0 26 0;
#X connect 26 0 46 0;
#X connect 30 0 31 1;
#X connect 31 0 32 1;
#X connect 31 0 33 1;
#X connect 31 0 34 1;
#X connect 31 0 35 1;
#X connect 31 0 36 1;
#X connect 31 0 37 1;
#X connect 31 0 38 1;
#X connect 31 0 39 1;
#X connect 31 0 40 1;
#X connect 32 0 7 0;
#X connect 32 0 33 0;
#X connect 33 0 8 0;
#X connect 33 0 34 0;
#X connect 34 0 9 0;
#X connect 34 0 35 0;
#X connect 35 0 10 0;
#X connect 35 0 36 0;
#X connect 36 0 11 0;
#X connect 36 0 37 0;
#X connect 37 0 12 0;
#X connect 37 0 38 0;
#X connect 38 0 13 0;
#X connect 38 0 39 0;
#X connect 39 0 14 0;
#X connect 39 0 40 0;
#X connect 40 0 15 0;
#X connect 42 0 120 0;
#X connect 44 0 27 0;
#X connect 44 0 28 0;
#X connect 45 0 27 0;
#X connect 45 0 29 0;
#X connect 47 0 120 2;
#X connect 48 0 55 0;
#X connect 49 0 50 0;
#X connect 50 0 48 1;
#X connect 51 0 121 0;
#X connect 52 0 121 2;
#X connect 53 0 121 1;
#X connect 54 0 49 0;
#X connect 56 0 60 0;
#X connect 57 0 58 0;
#X connect 58 0 56 1;
#X connect 59 0 122 0;
#X connect 61 0 122 2;
#X connect 62 0 67 0;
#X connect 63 0 64 0;
#X connect 64 0 62 1;
#X connect 65 0 123 0;
#X connect 66 0 123 2;
#X connect 68 0 122 1;
#X connect 69 0 57 0;
#X connect 70 0 123 1;
#X connect 71 0 63 0;
#X connect 72 0 76 0;
#X connect 73 0 74 0;
#X connect 74 0 72 1;
#X connect 75 0 124 0;
#X connect 77 0 124 2;
#X connect 78 0 83 0;
#X connect 79 0 80 0;
#X connect 80 0 78 1;
#X connect 81 0 125 0;
#X connect 82 0 125 2;
#X connect 84 0 124 1;
#X connect 85 0 73 0;
#X connect 86 0 125 1;
#X connect 87 0 79 0;
#X connect 88 0 92 0;
#X connect 89 0 90 0;
#X connect 90 0 88 1;
#X connect 91 0 126 0;
#X connect 93 0 126 2;
#X connect 94 0 99 0;
#X connect 95 0 96 0;
#X connect 96 0 94 1;
#X connect 97 0 127 0;
#X connect 98 0 127 2;
#X connect 100 0 126 1;
#X connect 101 0 89 0;
#X connect 102 0 127 1;
#X connect 103 0 95 0;
#X connect 104 0 108 0;
#X connect 105 0 106 0;
#X connect 106 0 104 1;
#X connect 107 0 128 0;
#X connect 109 0 128 2;
#X connect 110 0 115 0;
#X connect 111 0 112 0;
#X connect 112 0 110 1;
#X connect 113 0 129 0;
#X connect 114 0 129 2;
#X connect 116 0 128 1;
#X connect 117 0 105 0;
#X connect 118 0 129 1;
#X connect 119 0 111 0;
#X connect 120 0 1 0;
#X connect 121 0 48 0;
#X connect 122 0 56 0;
#X connect 123 0 62 0;
#X connect 124 0 72 0;
#X connect 125 0 78 0;
#X connect 126 0 88 0;
#X connect 127 0 94 0;
#X connect 128 0 104 0;
#X connect 129 0 110 0;
#X connect 130 0 41 0;
#X connect 131 0 0 0;
#X connect 132 0 31 0;
#X connect 133 0 17 0;
