#N canvas 1014 267 870 756 12;
#X obj 86 363 inlet~;
#X obj 166 359 inlet~;
#X obj 78 618 c_cpfade;
#X obj 506 113 inlet;
#X obj 506 137 dispatch \$0 mix;
#X obj 506 161 dispatch \$0 liveness;
#X obj 506 209 dispatch \$0 damping;
#X text 303 28 A UI for the rev3~ abstraction;
#X obj 161 122 hsl 128 20 0 1 0 0 \$0-mix-s \$0-mix-r mix -55 10 0
10 -262144 -1 -1 9400 1;
#X obj 161 147 hsl 128 20 0 100 0 0 \$0-liveness-s \$0-liveness-r liveness
-55 10 0 10 -262144 -1 -1 10700 1;
#X obj 161 172 hsl 128 20 50 5000 0 0 \$0-xover-s \$0-xover-r x-over
-55 10 0 10 -262144 -1 -1 12000 1;
#X obj 161 197 hsl 128 20 0 100 0 0 \$0-damping-s \$0-damping-r damping
-55 10 0 10 -262144 -1 -1 7100 1;
#X obj 220 616 c_cpfade;
#X obj 111 497 r \$0-mix-s;
#X obj 284 343 r \$0-liveness-s;
#X obj 362 391 r \$0-damping-s;
#X obj 246 319 r \$0-level-s;
#X obj 587 360 f;
#X obj 668 432 r \$0-damping-s;
#X obj 614 384 r \$0-liveness-s;
#X text 162 123 dry;
#X text 266 123 wet;
#X obj 587 480 savestate;
#X obj 682 528 s \$0-damping-r;
#X obj 618 576 s \$0-liveness-r;
#X obj 587 600 s \$0-mix-r;
#X obj 605 336 r \$0-mix-s;
#X text 156 102 Reverb;
#X obj 78 642 outlet~;
#X obj 220 640 outlet~;
#X obj 169 415 rev3~ 100, f 28;
#X obj 587 456 pack f f f f;
#X obj 587 504 unpack f f f f;
#X obj 506 185 dispatch \$0 xover;
#X obj 641 408 r \$0-xover-s;
#X obj 323 367 r \$0-xover-s;
#X obj 650 552 s \$0-xover-r;
#X obj 143 561 f;
#X obj 161 527 loadbang;
#X connect 0 0 2 0;
#X connect 0 0 30 0;
#X connect 1 0 12 0;
#X connect 1 0 30 1;
#X connect 2 0 28 0;
#X connect 3 0 4 0;
#X connect 4 0 5 0;
#X connect 5 0 33 0;
#X connect 12 0 29 0;
#X connect 13 0 37 0;
#X connect 14 0 30 3;
#X connect 15 0 30 5;
#X connect 16 0 30 2;
#X connect 17 0 31 0;
#X connect 18 0 31 3;
#X connect 19 0 31 1;
#X connect 22 0 32 0;
#X connect 22 1 17 0;
#X connect 26 0 17 1;
#X connect 30 0 2 1;
#X connect 30 1 12 1;
#X connect 31 0 22 0;
#X connect 32 0 25 0;
#X connect 32 1 24 0;
#X connect 32 2 36 0;
#X connect 32 3 23 0;
#X connect 33 0 6 0;
#X connect 34 0 31 2;
#X connect 35 0 30 4;
#X connect 37 0 2 2;
#X connect 37 0 12 2;
#X connect 38 0 37 0;
#X coords 0 -1 1 1 195 121 2 100 100;
