#N canvas 1081 255 1231 834 12;
#X obj 939 128 inlet;
#X obj 939 152 dispatch \$0 load;
#X obj 939 200 dispatch \$0 stop;
#X obj 899 380 r \$0-load;
#X obj 911 48 array define \$0-audio 1.323e+07;
#X text 1002 72 5 minutes of audio;
#X obj 899 404 symbol;
#X obj 899 476 soundfiler, f 22;
#X obj 987 524 s \$0-samples;
#X obj 899 500 t f f, f 13;
#X obj 264 342 r \$0-samples;
#X obj 246 390 tabread4~ \$0-audio;
#X obj 246 414 outlet~;
#X obj 973 404 symbol \$0-audio;
#X msg 899 452 read -resize \$1 \$2;
#X obj 973 380 loadbang;
#X obj 899 428 list append;
#X obj 939 248 dispatch \$0 speed 1;
#X obj 939 224 dispatch \$0 position 0;
#X obj 246 366 *~;
#X obj 1050 500 list split 1;
#X obj 899 524 /;
#X obj 939 176 dispatch \$0 start;
#X obj 246 318 vline~;
#X obj 246 90 r \$0-start;
#X obj 246 114 t b b;
#X msg 299 152 0;
#X obj 899 572 s \$0-length;
#X obj 264 178 r \$0-length;
#X obj 246 202 i;
#X msg 246 281 1 \$1;
#X obj 329 88 r \$0-stop;
#X obj 329 112 t b;
#X obj 899 548 * 1000;
#X obj 264 226 r \$0-speed;
#X floatatom 307 284 10 0 0 0 - - -;
#X obj 246 250 /;
#X floatatom 399 251 5 0 0 0 - - -;
#X connect 0 0 1 0;
#X connect 1 0 22 0;
#X connect 2 0 18 0;
#X connect 3 0 6 0;
#X connect 6 0 16 0;
#X connect 7 0 9 0;
#X connect 7 1 20 0;
#X connect 9 0 21 0;
#X connect 9 1 8 0;
#X connect 10 0 19 1;
#X connect 11 0 12 0;
#X connect 13 0 16 1;
#X connect 14 0 7 0;
#X connect 15 0 13 0;
#X connect 16 0 14 0;
#X connect 18 0 17 0;
#X connect 19 0 11 0;
#X connect 20 0 21 1;
#X connect 21 0 33 0;
#X connect 22 0 2 0;
#X connect 23 0 19 0;
#X connect 24 0 25 0;
#X connect 25 0 29 0;
#X connect 25 1 26 0;
#X connect 26 0 23 0;
#X connect 28 0 29 1;
#X connect 29 0 36 0;
#X connect 30 0 23 0;
#X connect 31 0 32 0;
#X connect 32 0 26 0;
#X connect 33 0 27 0;
#X connect 34 0 36 1;
#X connect 34 0 37 0;
#X connect 36 0 30 0;
#X connect 36 0 35 0;
