#N canvas 345 467 744 570 12;
#X obj 184 368 phasor~;
#N canvas 605 302 786 436 noise-source 0;
#X obj 123 135 rpole~ 0.995728;
#X obj 125 189 rpole~ 0.947906;
#X obj 123 242 rpole~ 0.535675;
#X obj 140 106 rzero~ 0.984436;
#X obj 140 164 rzero~ 0.833923;
#X obj 139 214 rzero~ 0.0756836;
#X obj 123 320 outlet~;
#X obj 57 79 noise~;
#X text 195 296 normalization factor was found empirically;
#X obj 123 294 *~ 0.17;
#N canvas 172 83 586 377 LICENSE-GPL 0;
#X text 57 88 This program is free software: you can redistribute it
and/or modify it under the terms of the GNU General Public License
as published by the Free Software Foundation \, either version 3 of
the License \, or (at your option) any later version.;
#X text 58 168 This program is distributed in the hope that it will
be useful \, but WITHOUT ANY WARRANTY \; without even the implied warranty
of MERCHANTABILITY or FITNESS FOR A PARTICULAR PURPOSE. See the GNU
General Public License for more details.;
#X text 57 261 You should have received a copy of the GNU General Public
License along with this program. If not \, see <http://www.gnu.org/licenses/>.
;
#X text 61 54 Copyright (C) 2009 \, Reality Jockey Ltd.;
#X text 60 325 See the file LICENSE.txt for the full license text.
;
#X restore 493 24 pd LICENSE-GPL;
#X text 307 120 pulled from the s_pinknoise abstraction in the rjlib
;
#X obj 57 320 outlet~;
#X connect 0 0 4 0;
#X connect 1 0 5 0;
#X connect 2 0 9 0;
#X connect 3 0 0 0;
#X connect 4 0 1 0;
#X connect 5 0 2 0;
#X connect 7 0 3 0;
#X connect 7 0 12 0;
#X connect 9 0 6 0;
#X restore 240 178 pd noise-source;
#X obj 342 277 *~;
#X msg 184 285 \$1 10;
#X obj 184 309 line~;
#X msg 395 221 \$1 10;
#X obj 395 245 line~;
#X obj 184 392 outlet~;
#X obj 278 392 outlet~;
#X obj 372 392 outlet~;
#X obj 154 79 inlet;
#X obj 493 74 inlet;
#X obj 342 301 +~ 1;
#X obj 184 341 *~;
#X obj 524 157 print;
#X connect 0 0 7 0;
#X connect 1 0 8 0;
#X connect 1 1 2 0;
#X connect 1 1 9 0;
#X connect 2 0 12 0;
#X connect 3 0 4 0;
#X connect 4 0 13 0;
#X connect 5 0 6 0;
#X connect 6 0 2 1;
#X connect 10 0 3 0;
#X connect 11 0 5 0;
#X connect 11 0 14 0;
#X connect 12 0 13 1;
#X connect 13 0 0 0;
