#N canvas 585 367 995 628 12;
#N canvas 424 366 478 366 pmosc 0;
#X obj 119 199 cos~;
#X obj 119 167 +~;
#X obj 120 273 outlet~;
#X obj 119 115 phasor~;
#X obj 119 86 inlet~;
#X obj 136 146 inlet~;
#X obj 160 199 inlet~;
#X obj 120 236 *~;
#X text 38 21 phase-modulation oscillator;
#X text 38 57 signal inlets: 1: freq \, 2: phase \, 3: amp;
#X connect 0 0 7 0;
#X connect 1 0 0 0;
#X connect 3 0 1 0;
#X connect 4 0 3 0;
#X connect 5 0 1 1;
#X connect 6 0 7 1;
#X connect 7 0 2 0;
#X restore 85 517 pd pmosc;
#N canvas 424 366 478 366 pmosc 0;
#X obj 119 199 cos~;
#X obj 119 167 +~;
#X obj 120 273 outlet~;
#X obj 119 115 phasor~;
#X obj 119 86 inlet~;
#X obj 136 146 inlet~;
#X obj 160 199 inlet~;
#X obj 120 236 *~;
#X text 38 21 phase-modulation oscillator;
#X text 38 57 signal inlets: 1: freq \, 2: phase \, 3: amp;
#X connect 0 0 7 0;
#X connect 1 0 0 0;
#X connect 3 0 1 0;
#X connect 4 0 3 0;
#X connect 5 0 1 1;
#X connect 6 0 7 1;
#X connect 7 0 2 0;
#X restore 132 455 pd pmosc;
#X obj 432 162 c_adsr 1 100 700 70 800;
#X obj 432 90 r \$0-vel;
#X obj 432 114 / 127;
#X obj 432 138 t a a;
#X obj 85 41 inlet;
#X obj 85 64 unpack 0 0;
#X obj 85 108 mtof;
#X obj 154 95 s \$0-vel;
#X obj 698 71 inlet;
#X obj 432 328 c_adsr 1 100 700 70 800;
#X obj 432 256 r \$0-vel;
#X obj 432 280 / 127;
#X obj 432 304 t a a;
#X obj 132 228 * 0;
#X obj 85 554 outlet~;
#X obj 698 117 u_dispatch \$0 attack;
#X obj 698 140 u_dispatch \$0 decay;
#X obj 698 255 u_dispatch \$0 op2-sustain;
#X obj 698 209 u_dispatch \$0 op2-attack;
#X obj 698 232 u_dispatch \$0 op2-decay;
#N canvas 29 43 450 300 vib 0;
#X obj 144 64 inlet~;
#X obj 145 210 outlet~;
#X obj 144 168 +~;
#X obj 200 95 osc~ 0;
#X obj 200 64 inlet;
#X obj 281 65 inlet;
#X obj 199 123 *~ 0;
#X connect 0 0 2 0;
#X connect 2 0 1 0;
#X connect 3 0 6 0;
#X connect 4 0 3 0;
#X connect 5 0 6 1;
#X connect 6 0 2 1;
#X restore 85 198 pd vib;
#X obj 698 301 u_dispatch \$0 vib-freq;
#X obj 698 324 u_dispatch \$0 vib-depth;
#X obj 498 211 r \$0-attack;
#X obj 523 241 r \$0-decay;
#X obj 540 268 r \$0-sustain;
#X obj 577 296 r \$0-release;
#X obj 121 139 r \$0-vib-freq;
#X obj 134 166 r \$0-vib-depth;
#X obj 498 55 r \$0-op2-attack;
#X obj 522 79 r \$0-op2-decay;
#X obj 540 103 r \$0-op2-sustain;
#X obj 573 126 r \$0-op2-release;
#X obj 698 163 u_dispatch \$0 sustain;
#X obj 698 186 u_dispatch \$0 release;
#X obj 698 278 u_dispatch \$0 op2-release;
#X obj 698 94 u_dispatch \$0 op2-freq;
#X obj 150 205 r \$0-op2-freq;
#X obj 182 256 s_pinknoise;
#X obj 170 284 snapshot~;
#X obj 212 324 r \$0-op2-spread;
#X obj 174 349 * 0;
#X obj 132 431 +;
#X obj 132 253 t f b;
#X obj 235 400 s_pinknoise;
#X obj 221 444 *~ 0;
#X obj 363 428 r \$0-noise-mod;
#X obj 132 482 +~;
#X obj 698 348 u_dispatch \$0 op2-spread;
#X obj 698 372 u_dispatch \$0 noise-mod;
#X obj 156 386 * 0;
#X connect 0 0 16 0;
#X connect 1 0 49 0;
#X connect 2 0 1 2;
#X connect 3 0 4 0;
#X connect 4 0 5 0;
#X connect 5 0 2 0;
#X connect 5 1 2 1;
#X connect 6 0 7 0;
#X connect 7 0 8 0;
#X connect 7 1 9 0;
#X connect 8 0 15 0;
#X connect 8 0 22 0;
#X connect 8 0 52 0;
#X connect 10 0 38 0;
#X connect 11 0 0 2;
#X connect 12 0 13 0;
#X connect 13 0 14 0;
#X connect 14 0 11 0;
#X connect 14 1 11 1;
#X connect 15 0 45 0;
#X connect 17 0 18 0;
#X connect 18 0 35 0;
#X connect 19 0 37 0;
#X connect 20 0 21 0;
#X connect 21 0 19 0;
#X connect 22 0 0 0;
#X connect 23 0 24 0;
#X connect 24 0 50 0;
#X connect 25 0 11 2;
#X connect 26 0 11 3;
#X connect 27 0 11 4;
#X connect 28 0 11 5;
#X connect 29 0 22 1;
#X connect 30 0 22 2;
#X connect 31 0 2 2;
#X connect 32 0 2 3;
#X connect 33 0 2 4;
#X connect 34 0 2 5;
#X connect 35 0 36 0;
#X connect 36 0 20 0;
#X connect 37 0 23 0;
#X connect 38 0 17 0;
#X connect 39 0 15 1;
#X connect 40 0 41 0;
#X connect 41 0 43 0;
#X connect 42 0 43 1;
#X connect 43 0 52 1;
#X connect 44 0 1 0;
#X connect 45 0 44 0;
#X connect 45 1 41 0;
#X connect 46 0 47 0;
#X connect 47 0 49 1;
#X connect 48 0 47 1;
#X connect 49 0 0 1;
#X connect 50 0 51 0;
#X connect 52 0 44 1;
