#N canvas 860 304 1144 665 12;
#X floatatom 563 162 5 0 0 0 freq - -;
#X obj 396 461 savestate;
#X obj 202 197 vsl 25 128 1 3000 1 0 empty empty attack 0 -9 0 10 -262144
-1 -1 2600 1;
#X floatatom 202 331 5 0 0 0 - - -;
#X obj 246 197 vsl 25 128 1 3000 1 0 empty empty decay 0 -9 0 10 -262144
-1 -1 4100 1;
#X floatatom 246 331 5 0 0 0 - - -;
#X obj 290 197 vsl 25 128 1 100 0 0 empty empty sustain 0 -9 0 10 -262144
-1 -1 12300 1;
#X floatatom 290 331 5 0 0 0 - - -;
#X obj 335 197 vsl 25 128 1 3000 1 0 empty empty release 0 -9 0 10
-262144 -1 -1 7600 1;
#X floatatom 335 331 5 0 0 0 - - -;
#X obj 474 197 vsl 25 128 1 3000 1 0 empty empty attack 0 -9 0 10 -262144
-1 -1 3900 1;
#X floatatom 474 331 5 0 0 0 - - -;
#X obj 518 197 vsl 25 128 1 3000 1 0 empty empty decay 0 -9 0 10 -262144
-1 -1 3700 1;
#X floatatom 518 331 5 0 0 0 - - -;
#X obj 562 197 vsl 25 128 1 100 0 0 empty empty sustain 0 -9 0 10 -262144
-1 -1 0 1;
#X floatatom 562 331 5 0 0 0 - - -;
#X obj 607 197 vsl 25 128 1 3000 1 0 empty empty release 0 -9 0 10
-262144 -1 -1 5700 1;
#X floatatom 607 331 5 0 0 0 - - -;
#X text 200 160 op1;
#X text 471 160 op2;
#X obj 381 242 vsl 25 50 0.2 20 1 0 empty empty freq 0 -9 0 10 -262144
-1 -1 0 1;
#X floatatom 381 305 5 0 0 0 - - -;
#X obj 425 241 vsl 25 50 0.03 3 1 0 empty empty amount 0 -9 0 10 -262144
-1 -1 0 1;
#X floatatom 425 305 5 0 0 0 - - -;
#X text 379 205 vibrato;
#X obj 396 483 s \$0-load-state;
#X obj 363 406 f;
#X obj 29 349 makenote 80 1000;
#X obj 30 286 inlet;
#X obj 90 289 inlet;
#X obj 144 294 inlet;
#X obj 43 391 pack 0 0;
#X obj 49 532 outlet~;
#X obj 270 28 r \$0-load-state;
#X obj 68 477 *~ 0.2;
#X msg 202 365 attack \$1;
#X msg 246 386 decay \$1;
#X msg 290 359 sustain \$1;
#X msg 355 381 release \$1;
#X msg 381 355 vib-freq \$1;
#X msg 434 382 vib-depth \$1;
#X msg 484 356 op2-attack \$1;
#X msg 547 383 op2-decay \$1;
#X msg 599 355 op2-sustain \$1;
#X msg 645 381 op2-release \$1;
#X obj 45 430 u_makepolymono 8 1 simple-fm-voice \$1;
#X msg 609 421 op2-freq \$1;
#X obj 647 234 vsl 25 50 0 0.3 0 0 empty empty mod 0 -9 0 10 -262144
-1 -1 100 1;
#X floatatom 647 297 5 0 0 0 - - -;
#X obj 691 233 vsl 25 50 0 0.5 0 0 empty empty op2_spread 0 -9 0 10
-262144 -1 -1 100 1;
#X floatatom 691 297 5 0 0 0 - - -;
#X text 645 197 noise;
#X obj 363 432 pack f f f f f f f f f f f f f;
#X obj 267 70 unpack f f f f f f f f f f f f f;
#X msg 721 356 noise-mod \$1;
#X msg 765 381 op2-spread \$1;
#X connect 0 0 46 0;
#X connect 0 0 52 10;
#X connect 1 0 25 0;
#X connect 1 1 26 0;
#X connect 2 0 3 0;
#X connect 3 0 26 1;
#X connect 3 0 35 0;
#X connect 4 0 5 0;
#X connect 5 0 36 0;
#X connect 5 0 52 1;
#X connect 6 0 7 0;
#X connect 7 0 37 0;
#X connect 7 0 52 2;
#X connect 8 0 9 0;
#X connect 9 0 38 0;
#X connect 9 0 52 3;
#X connect 10 0 11 0;
#X connect 11 0 41 0;
#X connect 11 0 52 6;
#X connect 12 0 13 0;
#X connect 13 0 42 0;
#X connect 13 0 52 7;
#X connect 14 0 15 0;
#X connect 15 0 43 0;
#X connect 15 0 52 8;
#X connect 16 0 17 0;
#X connect 17 0 44 0;
#X connect 17 0 52 9;
#X connect 20 0 21 0;
#X connect 21 0 39 0;
#X connect 21 0 52 4;
#X connect 22 0 23 0;
#X connect 23 0 40 0;
#X connect 23 0 52 5;
#X connect 26 0 52 0;
#X connect 27 0 31 0;
#X connect 27 1 31 1;
#X connect 28 0 27 0;
#X connect 29 0 27 1;
#X connect 30 0 27 2;
#X connect 31 0 45 0;
#X connect 33 0 53 0;
#X connect 34 0 32 0;
#X connect 35 0 45 1;
#X connect 36 0 45 1;
#X connect 37 0 45 1;
#X connect 38 0 45 1;
#X connect 39 0 45 1;
#X connect 40 0 45 1;
#X connect 41 0 45 1;
#X connect 42 0 45 1;
#X connect 43 0 45 1;
#X connect 44 0 45 1;
#X connect 45 0 34 0;
#X connect 46 0 45 1;
#X connect 47 0 48 0;
#X connect 48 0 52 11;
#X connect 48 0 54 0;
#X connect 49 0 50 0;
#X connect 50 0 52 12;
#X connect 50 0 55 0;
#X connect 52 0 1 0;
#X connect 53 0 2 0;
#X connect 53 1 4 0;
#X connect 53 2 6 0;
#X connect 53 3 8 0;
#X connect 53 4 20 0;
#X connect 53 5 22 0;
#X connect 53 6 10 0;
#X connect 53 7 12 0;
#X connect 53 8 14 0;
#X connect 53 9 16 0;
#X connect 53 10 0 0;
#X connect 53 11 47 0;
#X connect 53 12 49 0;
#X connect 54 0 45 1;
#X connect 55 0 45 1;
#X coords 0 -1 1 1 540 210 1 200 140;
