#N canvas 784 489 636 448 12;
#X obj 51 53 vsl 25 100 1 100 1 1 \$0-volume-s \$0-volume-r empty 0
-9 0 10 -262144 -1 -1 0 1;
#X obj 159 93 - 1;
#X obj 124 233 inlet~;
#X obj 124 305 outlet~;
#X obj 124 281 *~;
#X obj 51 158 tgl 25 1 \$0-mute-s \$0-mute-r empty 17 7 0 10 -262144
-1 -1 1 1;
#X obj 159 165 *;
#X obj 167 141 t b f;
#X obj 232 237 inlet~;
#X obj 232 309 outlet~;
#X obj 232 285 *~;
#X obj 363 115 f;
#X obj 363 139 pack f f;
#X obj 363 163 savestate;
#X obj 363 187 unpack f f;
#X obj 167 117 r \$0-mute-s;
#X obj 159 69 r \$0-volume-s;
#X obj 381 91 r \$0-volume-s;
#X obj 416 115 r \$0-mute-s;
#X obj 430 211 s \$0-mute-r;
#X obj 363 235 s \$0-volume-r;
#X obj 142 257 line~;
#X msg 159 189 \$1 10;
#X obj 250 261 line~;
#X connect 1 0 6 0;
#X connect 2 0 4 0;
#X connect 4 0 3 0;
#X connect 6 0 22 0;
#X connect 7 0 6 0;
#X connect 7 1 6 1;
#X connect 8 0 10 0;
#X connect 10 0 9 0;
#X connect 11 0 12 0;
#X connect 12 0 13 0;
#X connect 13 0 14 0;
#X connect 13 1 11 0;
#X connect 14 0 20 0;
#X connect 14 1 19 0;
#X connect 15 0 7 0;
#X connect 16 0 1 0;
#X connect 17 0 11 1;
#X connect 18 0 12 1;
#X connect 21 0 4 1;
#X connect 22 0 21 0;
#X connect 22 0 23 0;
#X connect 23 0 10 1;
#X coords 0 -1 1 1 27 134 2 50 50;
