#N canvas 812 248 841 448 12;
#X obj 51 55 vsl 30 100 0.01 1 1 1 \$0-volume-s \$0-volume-r empty
0 -9 0 10 -262144 -1 -1 9420 1;
#X obj 171 89 inlet~;
#X obj 171 257 *~;
#X obj 51 160 tgl 30 1 \$0-mute-s \$0-mute-r empty 17 7 0 10 -262144
-1 -1 0 1;
#X obj 189 185 *;
#X obj 197 161 t b f;
#X obj 368 118 f;
#X obj 368 190 savestate;
#X obj 197 137 r \$0-mute-s;
#X obj 189 113 r \$0-volume-s;
#X obj 386 94 r \$0-volume-s;
#X obj 401 118 r \$0-mute-s;
#X obj 408 262 s \$0-mute-r;
#X obj 368 286 s \$0-volume-r;
#X obj 189 233 line~;
#X msg 189 209 \$1 10;
#X obj 368 166 pack f f f;
#X obj 368 214 unpack f f f;
#X floatatom 51 191 4 0 1 0 - #0-pan-r #0-pan-s;
#X obj 171 281 e_pan;
#X obj 203 257 r \$0-pan-s;
#X obj 203 305 outlet~;
#X obj 171 329 outlet~;
#X obj 435 142 r \$0-pan-s;
#X obj 449 238 s \$0-pan-r;
#X obj 591 48 inlet;
#X obj 591 72 dispatch \$0 volume 0.8;
#X obj 591 96 dispatch \$0 pan 0.5;
#X obj 591 120 dispatch \$0 mute;
#X obj 591 144 r \$0-volume;
#X obj 591 168 s \$0-volume-r;
#X obj 591 192 r \$0-pan;
#X obj 591 216 s \$0-pan-r;
#X obj 591 240 r \$0-mute;
#X obj 591 264 r \$0-mute-r;
#X connect 1 0 2 0;
#X connect 2 0 19 0;
#X connect 4 0 15 0;
#X connect 5 0 4 0;
#X connect 5 1 4 1;
#X connect 6 0 16 0;
#X connect 7 0 17 0;
#X connect 7 1 6 0;
#X connect 8 0 5 0;
#X connect 9 0 4 0;
#X connect 10 0 6 1;
#X connect 11 0 16 1;
#X connect 14 0 2 1;
#X connect 15 0 14 0;
#X connect 16 0 7 0;
#X connect 17 0 13 0;
#X connect 17 1 12 0;
#X connect 17 2 24 0;
#X connect 19 0 22 0;
#X connect 19 1 21 0;
#X connect 20 0 19 1;
#X connect 23 0 16 2;
#X connect 25 0 26 0;
#X connect 26 0 27 0;
#X connect 27 0 28 0;
#X connect 29 0 30 0;
#X connect 31 0 32 0;
#X coords 0 -1 1 1 32 162 2 50 50;
