#N canvas 493 487 995 628 12;
#N canvas 424 366 478 366 pmosc 0;
#X obj 119 199 cos~;
#X obj 119 167 +~;
#X obj 120 273 outlet~;
#X obj 119 115 phasor~;
#X obj 119 86 inlet~;
#X obj 136 146 inlet~;
#X obj 160 199 inlet~;
#X obj 120 236 *~;
#X text 38 21 phase-modulation oscillator;
#X text 38 57 signal inlets: 1: freq \, 2: phase \, 3: amp;
#X connect 0 0 7 0;
#X connect 1 0 0 0;
#X connect 3 0 1 0;
#X connect 4 0 3 0;
#X connect 5 0 1 1;
#X connect 6 0 7 1;
#X connect 7 0 2 0;
#X restore 156 408 pd pmosc;
#N canvas 424 366 478 366 pmosc 0;
#X obj 119 199 cos~;
#X obj 119 167 +~;
#X obj 120 273 outlet~;
#X obj 119 115 phasor~;
#X obj 119 86 inlet~;
#X obj 136 146 inlet~;
#X obj 160 199 inlet~;
#X obj 120 236 *~;
#X text 38 21 phase-modulation oscillator;
#X text 38 57 signal inlets: 1: freq \, 2: phase \, 3: amp;
#X connect 0 0 7 0;
#X connect 1 0 0 0;
#X connect 3 0 1 0;
#X connect 4 0 3 0;
#X connect 5 0 1 1;
#X connect 6 0 7 1;
#X connect 7 0 2 0;
#X restore 182 364 pd pmosc;
#X obj 360 166 c_adsr 1 100 700 70 800;
#X obj 360 94 r \$0-vel;
#X obj 360 118 / 127;
#X obj 360 142 t a a;
#X obj 156 125 inlet;
#X obj 156 148 unpack 0 0;
#X obj 156 172 mtof;
#X obj 223 179 s \$0-vel;
#X obj 698 71 inlet;
#X obj 360 332 c_adsr 1 100 700 70 800;
#X obj 360 260 r \$0-vel;
#X obj 360 284 / 127;
#X obj 360 308 t a a;
#X obj 156 432 outlet~;
#N canvas 29 43 450 300 vib 0;
#X obj 144 64 inlet~;
#X obj 145 210 outlet~;
#X obj 144 168 +~;
#X obj 200 95 osc~ 0;
#X obj 200 64 inlet;
#X obj 281 65 inlet;
#X obj 199 123 *~ 0;
#X connect 0 0 2 0;
#X connect 2 0 1 0;
#X connect 3 0 6 0;
#X connect 4 0 3 0;
#X connect 5 0 6 1;
#X connect 6 0 2 1;
#X restore 156 292 pd vib;
#X obj 426 59 r \$0-op2-attack;
#X obj 450 83 r \$0-op2-decay;
#X obj 468 107 r \$0-op2-sustain;
#X obj 501 130 r \$0-op2-release;
#X obj 200 316 r \$0-op2-freq;
#X obj 156 220 sig~;
#X obj 182 340 *~;
#X obj 156 196 t f b;
#X obj 426 215 r \$0-op1-attack;
#X obj 451 245 r \$0-op1-decay;
#X obj 468 272 r \$0-op1-sustain;
#X obj 505 300 r \$0-op1-release;
#X obj 175 244 r \$0-vibrato-freq;
#X obj 195 268 r \$0-vibrato-depth;
#X obj 698 94 dispatch \$0 op2-freq 1;
#X obj 698 324 dispatch \$0 vibrato-depth 0;
#X obj 698 117 dispatch \$0 op1-attack 0.1;
#X obj 698 140 dispatch \$0 op1-decay 0.1;
#X obj 698 186 dispatch \$0 op1-release 0.5;
#X obj 698 209 dispatch \$0 op2-attack 0.1;
#X obj 698 232 dispatch \$0 op2-decay 0.1;
#X obj 698 278 dispatch \$0 op2-release 0.5;
#X obj 698 301 dispatch \$0 vibrato-freq 0.01;
#X obj 698 163 dispatch \$0 op1-sustain 100;
#X obj 698 255 dispatch \$0 op2-sustain 100;
#X connect 0 0 15 0;
#X connect 1 0 0 1;
#X connect 2 0 1 2;
#X connect 3 0 4 0;
#X connect 4 0 5 0;
#X connect 5 0 2 0;
#X connect 5 1 2 1;
#X connect 6 0 7 0;
#X connect 7 0 8 0;
#X connect 7 1 9 0;
#X connect 8 0 24 0;
#X connect 10 0 31 0;
#X connect 11 0 0 2;
#X connect 12 0 13 0;
#X connect 13 0 14 0;
#X connect 14 0 11 0;
#X connect 14 1 11 1;
#X connect 16 0 0 0;
#X connect 17 0 2 2;
#X connect 18 0 2 3;
#X connect 19 0 2 4;
#X connect 20 0 2 5;
#X connect 21 0 23 1;
#X connect 22 0 16 0;
#X connect 22 0 23 0;
#X connect 23 0 1 0;
#X connect 24 0 22 0;
#X connect 25 0 11 2;
#X connect 26 0 11 3;
#X connect 27 0 11 4;
#X connect 28 0 11 5;
#X connect 29 0 16 1;
#X connect 30 0 16 2;
#X connect 31 0 33 0;
#X connect 33 0 34 0;
#X connect 34 0 40 0;
#X connect 35 0 36 0;
#X connect 36 0 37 0;
#X connect 37 0 41 0;
#X connect 38 0 39 0;
#X connect 39 0 32 0;
#X connect 40 0 35 0;
#X connect 41 0 38 0;
