#N canvas 120 53 1593 1011 12;
#X obj 53 733 outlet~;
#X obj 53 709 *~ 0.2;
#X obj 53 685 u_makepolymono 8 1 simple-fm-voice \$1;
#X floatatom 748 157 5 0 0 0 freq #0-op2-freq-mod-r #0-op2-freq-mod-s
;
#X obj 504 191 vsl 25 128 1 3000 1 0 \$0-op1-attack-s \$0-op1-attack-r
atk 0 -9 0 10 -262144 -1 -1 4900 1;
#X obj 532 191 vsl 25 128 1 3000 1 0 \$0-op1-decay-s \$0-op1-decay-r
dcy 0 -9 0 10 -262144 -1 -1 7100 1;
#X obj 560 191 vsl 25 128 1 100 0 0 \$0-op1-sustain-s \$0-op1-sustain-r
sus 0 -9 0 10 -262144 -1 -1 9900 1;
#X obj 588 191 vsl 25 128 1 3000 1 0 \$0-op1-release-s \$0-op1-release-r
rel 0 -9 0 10 -262144 -1 -1 10500 1;
#X obj 676 191 vsl 25 128 1 3000 1 0 \$0-op2-attack-s \$0-op2-attack-r
atk 0 -9 0 10 -262144 -1 -1 3300 1;
#X obj 704 191 vsl 25 128 1 3000 1 0 \$0-op2-decay-s \$0-op2-decay-r
dcy 0 -9 0 10 -262144 -1 -1 4900 1;
#X obj 732 191 vsl 25 128 1 100 0 0 \$0-op2-sustain-s \$0-op2-sustain-r
sus 0 -9 0 10 -262144 -1 -1 8200 1;
#X obj 760 191 vsl 25 128 1 3000 1 0 \$0-op2-release-s \$0-op2-release-r
rel 0 -9 0 10 -262144 -1 -1 10600 1;
#X text 502 155 op1;
#X text 673 155 op2;
#X obj 618 269 vsl 25 50 0.2 20 1 0 \$0-vibrato-freq-s \$0-vibrato-freq-r
freq 0 -9 0 10 -262144 -1 -1 1700 1;
#X obj 646 269 vsl 25 50 0.03 3 1 0 \$0-vibrato-depth-s \$0-vibrato-depth-r
dpth 0 -9 0 10 -262144 -1 -1 1900 1;
#X text 617 232 vibrato;
#X obj 1002 639 unpack f f f f f f f f f f f, f 54;
#X obj 1003 735 s \$0-op1-attack-r;
#X obj 1077 687 s \$0-op1-sustain-r;
#X obj 1114 663 s \$0-op1-release-r;
#X obj 1039 711 s \$0-op1-decay-r;
#X obj 1152 735 s \$0-op2-attack-r;
#X obj 1189 711 s \$0-op2-decay-r;
#X obj 1227 687 s \$0-op2-sustain-r;
#X obj 1264 663 s \$0-op2-release-r;
#X obj 1302 735 s \$0-vibrato-freq-r;
#X obj 1377 687 s \$0-op2-freq-mod-r;
#X obj 1020 519 r \$0-op1-attack-s;
#X obj 1042 495 r \$0-op1-decay-s;
#X obj 1082 471 r \$0-op1-sustain-s;
#X obj 1122 447 r \$0-op1-release-s;
#X obj 1284 447 r \$0-op2-release-s;
#X obj 1243 471 r \$0-op2-sustain-s;
#X obj 1203 495 r \$0-op2-decay-s;
#X obj 1163 519 r \$0-op2-attack-s;
#X obj 1405 471 r \$0-op2-freq-mod-s;
#X obj 1324 519 r \$0-vibrato-freq-s;
#X obj 1002 543 f;
#X obj 1002 567 pack f f f f f f f f f f f, f 58;
#X obj 165 119 r \$0-op1-attack-s;
#X obj 195 169 r \$0-op1-decay-s;
#X obj 230 220 r \$0-op1-sustain-s;
#X obj 257 274 r \$0-op1-release-s;
#X obj 340 477 r \$0-op2-release-s;
#X obj 318 420 r \$0-op2-sustain-s;
#X obj 300 373 r \$0-op2-decay-s;
#X obj 284 326 r \$0-op2-attack-s;
#X obj 363 527 r \$0-op2-freq-mod-s;
#X obj 397 622 r \$0-vibrato-freq-s;
#X msg 165 143 op1-attack \$1;
#X msg 195 193 op1-decay \$1;
#X msg 230 244 op1-sustain \$1;
#X msg 257 298 op1-release \$1;
#X msg 284 350 op2-attack \$1;
#X msg 300 397 op2-decay \$1;
#X msg 318 444 op2-sustain \$1;
#X msg 397 646 vibrato-freq \$1;
#X obj 383 575 r \$0-vibrato-depth-s;
#X obj 1364 495 r \$0-vibrato-depth-s;
#X obj 1339 711 s \$0-vibrato-depth-r;
#X msg 383 599 vibrato-depth \$1;
#X msg 363 551 op2-freq \$1;
#X msg 340 501 op2-release \$1;
#X obj 53 661 inlet;
#X obj 589 158 bng 15 250 50 0 \$0-env-match-s \$0-env-match-r env_->
17 7 0 10 -262144 -1 -1;
#X obj 733 512 r \$0-op1-attack-s;
#X obj 742 536 r \$0-op1-decay-s;
#X obj 769 560 r \$0-op1-sustain-s;
#X obj 796 584 r \$0-op1-release-s;
#X obj 715 584 f;
#X obj 715 608 pack f f f f;
#X obj 715 632 unpack f f f f;
#X obj 810 656 s \$0-op2-release-r;
#X obj 778 680 s \$0-op2-sustain-r;
#X obj 746 704 s \$0-op2-decay-r;
#X obj 715 728 s \$0-op2-attack-r;
#X obj 715 488 r \$0-env-match-s;
#X obj 501 809 simple-fm-voice;
#X obj 916 407 loadbang;
#X obj 952 446 pipe 10;
#X obj 1002 591 savestate;
#X obj 1002 615 list prepend;
#X connect 1 0 0 0;
#X connect 2 0 1 0;
#X connect 17 0 18 0;
#X connect 17 1 21 0;
#X connect 17 2 19 0;
#X connect 17 3 20 0;
#X connect 17 4 22 0;
#X connect 17 5 23 0;
#X connect 17 6 24 0;
#X connect 17 7 25 0;
#X connect 17 8 26 0;
#X connect 17 9 60 0;
#X connect 17 10 27 0;
#X connect 28 0 38 1;
#X connect 29 0 39 1;
#X connect 30 0 39 2;
#X connect 31 0 39 3;
#X connect 32 0 39 7;
#X connect 33 0 39 6;
#X connect 34 0 39 5;
#X connect 35 0 39 4;
#X connect 36 0 39 10;
#X connect 37 0 39 8;
#X connect 38 0 39 0;
#X connect 39 0 81 0;
#X connect 40 0 50 0;
#X connect 41 0 51 0;
#X connect 42 0 52 0;
#X connect 43 0 53 0;
#X connect 44 0 63 0;
#X connect 45 0 56 0;
#X connect 46 0 55 0;
#X connect 47 0 54 0;
#X connect 48 0 62 0;
#X connect 49 0 57 0;
#X connect 50 0 2 1;
#X connect 51 0 2 1;
#X connect 52 0 2 1;
#X connect 53 0 2 1;
#X connect 54 0 2 1;
#X connect 55 0 2 1;
#X connect 56 0 2 1;
#X connect 57 0 2 1;
#X connect 58 0 61 0;
#X connect 59 0 39 9;
#X connect 61 0 2 1;
#X connect 62 0 2 1;
#X connect 63 0 2 1;
#X connect 64 0 2 0;
#X connect 66 0 70 1;
#X connect 67 0 71 1;
#X connect 68 0 71 2;
#X connect 69 0 71 3;
#X connect 70 0 71 0;
#X connect 71 0 72 0;
#X connect 72 0 76 0;
#X connect 72 1 75 0;
#X connect 72 2 74 0;
#X connect 72 3 73 0;
#X connect 77 0 70 0;
#X connect 79 0 80 0;
#X connect 80 0 82 0;
#X connect 81 0 82 1;
#X connect 81 1 38 0;
#X connect 82 0 17 0;
#X coords 0 -1 1 1 289 187 1 500 140;
