#N canvas 910 227 655 667 12;
#X obj 83 82 list fromsymbol;
#X obj 83 106 t l l;
#X obj 115 130 list length;
#X obj 115 154 array size \$0-filepath;
#X obj 83 178 array set \$0-filepath;
#X obj 273 70 array define -yrange 0 128 \$0-filepath;
#X obj 88 250 until;
#X obj 88 226 array size \$0-filepath;
#X obj 88 298 array get \$0-filepath 0 1;
#X obj 88 274 counter;
#X obj 88 322 route 47;
#X obj 88 370 list store;
#X obj 88 346 t b b;
#X obj 88 394 list tosymbol;
#X msg 141 346 append \$1;
#X obj 51 34 inlet;
#X obj 51 58 t b s;
#X obj 51 202 t b b b b b;
#X obj 88 442 list store;
#X msg 88 418 append \$1;
#X obj 88 466 outlet;
#X connect 0 0 1 0;
#X connect 1 0 4 0;
#X connect 1 1 2 0;
#X connect 2 0 3 0;
#X connect 6 0 9 0;
#X connect 7 0 6 0;
#X connect 8 0 10 0;
#X connect 9 0 8 0;
#X connect 10 0 12 0;
#X connect 10 1 14 0;
#X connect 11 0 13 0;
#X connect 12 0 11 1;
#X connect 12 1 11 0;
#X connect 13 0 19 0;
#X connect 14 0 11 0;
#X connect 15 0 16 0;
#X connect 16 0 17 0;
#X connect 16 1 0 0;
#X connect 17 0 18 0;
#X connect 17 1 12 0;
#X connect 17 2 7 0;
#X connect 17 3 9 2;
#X connect 17 4 18 1;
#X connect 18 0 20 0;
#X connect 19 0 18 0;
