#N canvas 733 37 1349 942 12;
#X floatatom 104 136 5 0 0 2 freq #0-sin1-freq-r #0-sin1-freq-s;
#X floatatom 146 136 5 0 0 2 amp #0-sin1-amp-r #0-sin1-amp-s;
#X text 102 104 sin1;
#X floatatom 297 136 5 0 0 2 freq #0-sin2-freq-r #0-sin2-freq-s;
#X floatatom 339 136 5 0 0 2 amp #0-sin2-amp-r #0-sin2-amp-s;
#X text 295 104 sin2;
#X obj 373 484 osc~;
#X obj 883 98 f;
#X obj 901 74 r \$0-sin1-freq-s;
#X obj 916 98 r \$0-sin1-amp-s;
#X obj 950 122 r \$0-sin2-freq-s;
#X obj 983 146 r \$0-sin2-amp-s;
#X obj 373 364 r \$0-sin1-freq-s;
#X obj 373 436 pack 0 10;
#X obj 373 460 line~;
#X obj 445 460 pack 0 10;
#X obj 445 484 line~;
#X obj 373 508 *~;
#X obj 445 388 r \$0-sin1-amp-s;
#X obj 574 484 osc~;
#X obj 574 364 r \$0-sin1-freq-s;
#X obj 574 436 pack 0 10;
#X obj 574 460 line~;
#X obj 646 460 pack 0 10;
#X obj 646 484 line~;
#X obj 574 508 *~;
#X obj 646 388 r \$0-sin1-amp-s;
#X obj 373 412 f \$1;
#X obj 445 436 f \$2;
#X obj 574 412 f \$3;
#X obj 646 436 f \$4;
#X obj 381 388 loadbang;
#X obj 453 412 loadbang;
#X obj 582 388 loadbang;
#X obj 654 412 loadbang;
#X obj 373 565 +~;
#X text 199 104 modulator;
#X floatatom 201 136 5 0 0 2 freq #0-mod-freq-r #0-mod-freq-s;
#X floatatom 243 136 5 0 0 2 amp #0-mod-amp-r #0-mod-amp-s;
#X obj 1017 170 r \$0-mod-freq-s;
#X obj 1050 194 r \$0-mod-amp-s;
#X obj 428 294 osc~;
#X obj 428 246 pack 0 10;
#X obj 428 270 line~;
#X obj 500 270 pack 0 10;
#X obj 500 294 line~;
#X obj 428 318 *~;
#X obj 436 198 loadbang;
#X obj 508 222 loadbang;
#X obj 428 174 r \$0-mod-freq-s;
#X obj 500 198 r \$0-mod-amp-s;
#X obj 428 222 f \$5;
#X obj 500 246 f \$6;
#X obj 249 606 *~;
#X obj 232 451 pack 0 50;
#X obj 232 475 line~;
#X obj 249 630 cos~;
#X obj 249 798 outlet~;
#X obj 107 155 hsl 267 20 0 1 0 0 \$0-fold-s \$0-fold-r folding 2 11
0 10 -262144 -1 -1 1700 1;
#X obj 1084 218 r \$0-fold-s;
#X obj 232 379 f \$7;
#X obj 240 355 loadbang;
#X obj 232 331 r \$0-fold-s;
#X obj 232 403 * 16;
#X obj 232 427 + 0.5;
#X obj 125 178 hsl 230 20 -1 1 0 0 \$0-level-s \$0-level-r level 100
11 0 10 -262144 -1 -1 13900 1;
#X text 362 180 1;
#X text 102 179 -1;
#X obj 883 290 savestate;
#X obj 1018 362 s \$0-fold-r;
#X obj 995 386 s \$0-mod-amp-r;
#X obj 973 410 s \$0-mod-freq-r;
#X obj 950 434 s \$0-sin2-amp-r;
#X obj 928 458 s \$0-sin2-freq-r;
#X obj 883 506 s \$0-sin1-freq-r;
#X obj 905 482 s \$0-sin1-amp-r;
#X obj 883 266 pack f f f f f f f f, f 34;
#X obj 883 314 unpack f f f f f f f f, f 23;
#X obj 1118 242 r \$0-level-s;
#X obj 1041 338 s \$0-level-r;
#X obj 267 726 pack 0 10;
#X obj 267 750 line~;
#X obj 275 678 loadbang;
#X obj 267 702 f \$8;
#X obj 267 654 r \$0-level-s;
#X obj 249 774 *~;
#X obj 378 798 outlet~;
#X obj 483 793 outlet~;
#X obj 572 793 outlet~;
#X connect 6 0 17 0;
#X connect 7 0 76 0;
#X connect 8 0 7 1;
#X connect 9 0 76 1;
#X connect 10 0 76 2;
#X connect 11 0 76 3;
#X connect 12 0 27 0;
#X connect 13 0 14 0;
#X connect 14 0 6 0;
#X connect 15 0 16 0;
#X connect 16 0 17 1;
#X connect 17 0 35 0;
#X connect 17 0 87 0;
#X connect 18 0 28 0;
#X connect 19 0 25 0;
#X connect 20 0 29 0;
#X connect 21 0 22 0;
#X connect 22 0 19 0;
#X connect 23 0 24 0;
#X connect 24 0 25 1;
#X connect 25 0 35 1;
#X connect 25 0 88 0;
#X connect 26 0 30 0;
#X connect 27 0 13 0;
#X connect 28 0 15 0;
#X connect 29 0 21 0;
#X connect 30 0 23 0;
#X connect 31 0 27 0;
#X connect 32 0 28 0;
#X connect 33 0 29 0;
#X connect 34 0 30 0;
#X connect 35 0 53 1;
#X connect 35 0 86 0;
#X connect 39 0 76 4;
#X connect 40 0 76 5;
#X connect 41 0 46 0;
#X connect 42 0 43 0;
#X connect 43 0 41 0;
#X connect 44 0 45 0;
#X connect 45 0 46 1;
#X connect 46 0 6 0;
#X connect 46 0 19 0;
#X connect 47 0 51 0;
#X connect 48 0 52 0;
#X connect 49 0 51 0;
#X connect 50 0 52 0;
#X connect 51 0 42 0;
#X connect 52 0 44 0;
#X connect 53 0 56 0;
#X connect 54 0 55 0;
#X connect 55 0 53 0;
#X connect 56 0 85 0;
#X connect 59 0 76 6;
#X connect 60 0 63 0;
#X connect 61 0 60 0;
#X connect 62 0 60 0;
#X connect 63 0 64 0;
#X connect 64 0 54 0;
#X connect 68 0 77 0;
#X connect 68 1 7 0;
#X connect 76 0 68 0;
#X connect 77 0 74 0;
#X connect 77 1 75 0;
#X connect 77 2 73 0;
#X connect 77 3 72 0;
#X connect 77 4 71 0;
#X connect 77 5 70 0;
#X connect 77 6 69 0;
#X connect 77 7 79 0;
#X connect 78 0 76 7;
#X connect 80 0 81 0;
#X connect 81 0 85 1;
#X connect 82 0 83 0;
#X connect 83 0 80 0;
#X connect 84 0 83 0;
#X connect 85 0 57 0;
#X coords 0 -1 1 1 280 102 2 100 100;
