#N canvas 1109 595 666 565 12;
#X obj 187 47 inlet;
#X obj 487 93 inlet;
#X obj 487 117 dispatch \$0 delay;
#X obj 176 196 delay \$1;
#X obj 111 268 outlet;
#X obj 153 172 t a b b;
#X msg 234 108 0;
#X msg 213 235 1;
#X obj 153 148 spigot 1;
#X obj 297 145 spigot 0;
#X msg 285 107 1;
#X msg 281 213 0;
#X obj 361 245 outlet;
#X obj 225 172 r \$0-delay;
#X obj 187 71 t a a;
#X connect 0 0 14 0;
#X connect 1 0 2 0;
#X connect 3 0 7 0;
#X connect 3 0 11 0;
#X connect 5 0 4 0;
#X connect 5 1 3 0;
#X connect 5 2 6 0;
#X connect 5 2 10 0;
#X connect 6 0 8 1;
#X connect 7 0 8 1;
#X connect 8 0 5 0;
#X connect 9 0 12 0;
#X connect 10 0 9 1;
#X connect 11 0 9 1;
#X connect 13 0 3 1;
#X connect 14 0 8 0;
#X connect 14 1 9 0;
