#N canvas 881 202 907 796 12;
#X obj 145 77 bng 15 250 50 0 empty empty empty 17 7 0 10 -262144 -1
-1;
#X obj 267 214 bit-register;
#X obj 267 235 bit-register;
#X obj 267 255 bit-register;
#X obj 267 276 bit-register;
#X obj 364 497 i;
#X floatatom 407 624 5 0 0 0 - - -;
#X obj 252 152 bernoulli-gate;
#X obj 267 297 bit-register;
#X obj 267 318 bit-register;
#X obj 267 338 bit-register;
#X obj 267 359 bit-register;
#X msg 320 214 0 \$1;
#X msg 320 235 1 \$1;
#X msg 320 256 2 \$1;
#X msg 320 277 3 \$1;
#X msg 320 298 4 \$1;
#X msg 320 319 5 \$1;
#X msg 320 340 6 \$1;
#X msg 320 361 7 \$1;
#X obj 145 49 inlet;
#X obj 447 479 random 100;
#X obj 447 506 > 50;
#X obj 451 569 i;
#X obj 145 102 t b b b;
#X obj 220 606 outlet;
#X obj 332 582 outlet;
#X obj 319 69 inlet;
#X obj 175 632 s \$0-output-signal;
#N canvas 1091 251 685 522 binary-summing 0;
#X obj 378 170 array define values-\$0;
#X obj 229 307 array set values-\$0;
#X obj 229 167 list split 1;
#X obj 229 250 pow;
#X obj 229 275 *;
#X obj 185 104 inlet;
#X obj 70 438 outlet;
#X obj 74 267 inlet;
#X obj 74 328 t b;
#X obj 84 376 array sum values-\$0;
#X msg 229 225 2;
#X obj 229 201 t b f f;
#X connect 2 0 11 0;
#X connect 2 1 4 1;
#X connect 3 0 4 0;
#X connect 4 0 1 0;
#X connect 5 0 2 0;
#X connect 7 0 8 0;
#X connect 8 0 9 0;
#X connect 9 0 6 0;
#X connect 10 0 3 0;
#X connect 11 0 10 0;
#X connect 11 1 3 1;
#X connect 11 2 1 1;
#X restore 190 495 pd binary-summing;
#X obj 252 216 vsl 13 159 0 256 0 0 empty \$0-output-signal empty 0
-9 0 10 -262144 -1 -1 10245 1;
#X obj 305 450 route;
#X floatatom 89 555 5 0 0 0 - - -;
#X connect 0 0 24 0;
#X connect 1 0 2 0;
#X connect 1 1 2 1;
#X connect 1 1 12 0;
#X connect 2 0 3 0;
#X connect 2 1 3 1;
#X connect 2 1 13 0;
#X connect 3 0 4 0;
#X connect 3 1 4 1;
#X connect 3 1 14 0;
#X connect 4 0 8 0;
#X connect 4 1 8 1;
#X connect 4 1 15 0;
#X connect 5 0 23 0;
#X connect 7 0 5 0;
#X connect 7 1 21 0;
#X connect 8 0 9 0;
#X connect 8 1 9 1;
#X connect 8 1 16 0;
#X connect 9 0 10 0;
#X connect 9 1 10 1;
#X connect 9 1 17 0;
#X connect 10 0 11 0;
#X connect 10 1 11 1;
#X connect 10 1 18 0;
#X connect 11 1 5 1;
#X connect 11 1 19 0;
#X connect 12 0 31 0;
#X connect 13 0 31 0;
#X connect 14 0 31 0;
#X connect 15 0 31 0;
#X connect 16 0 31 0;
#X connect 17 0 31 0;
#X connect 18 0 31 0;
#X connect 19 0 31 0;
#X connect 20 0 0 0;
#X connect 21 0 22 0;
#X connect 22 0 23 0;
#X connect 23 0 1 1;
#X connect 23 0 6 0;
#X connect 24 0 29 0;
#X connect 24 1 7 0;
#X connect 24 2 1 0;
#X connect 27 0 7 1;
#X connect 29 0 25 0;
#X connect 29 0 28 0;
#X connect 29 0 32 0;
#X connect 31 1 26 0;
#X connect 31 1 29 1;
#X coords 0 -1 1 1 64 230 2 250 150;
