#N canvas 434 211 1225 1063 12;
#X obj 195 80 bng 15 250 50 0 empty empty empty 17 7 0 10 -262144 -1
-1;
#X obj 250 196 bit-register;
#X obj 250 216 bit-register;
#X obj 250 236 bit-register;
#X obj 250 256 bit-register;
#X obj 645 452 i;
#X obj 250 276 bit-register;
#X obj 250 296 bit-register;
#X obj 250 316 bit-register;
#X obj 250 336 bit-register;
#X msg 354 238 0 \$1;
#X msg 354 259 1 \$1;
#X msg 354 280 2 \$1;
#X msg 354 301 3 \$1;
#X msg 354 322 4 \$1;
#X msg 354 343 5 \$1;
#X msg 354 364 6 \$1;
#X msg 354 385 7 \$1;
#X obj 145 49 inlet;
#X obj 531 411 random 100;
#X obj 531 435 > 50;
#X obj 597 576 i;
#X obj 156 105 t b b b;
#X obj 220 606 outlet;
#X obj 332 582 outlet;
#X obj 734 46 inlet;
#X obj 175 632 s \$0-output-signal;
#N canvas 1091 251 685 522 binary-summing 0;
#X obj 378 170 array define values-\$0;
#X obj 229 307 array set values-\$0;
#X obj 229 167 list split 1;
#X obj 229 250 pow;
#X obj 229 275 *;
#X obj 185 104 inlet;
#X obj 70 438 outlet;
#X obj 74 267 inlet;
#X obj 74 328 t b;
#X obj 84 376 array sum values-\$0;
#X msg 229 225 2;
#X obj 229 201 t b f f;
#X connect 2 0 11 0;
#X connect 2 1 4 1;
#X connect 3 0 4 0;
#X connect 4 0 1 0;
#X connect 5 0 2 0;
#X connect 7 0 8 0;
#X connect 8 0 9 0;
#X connect 9 0 6 0;
#X connect 10 0 3 0;
#X connect 11 0 10 0;
#X connect 11 1 3 1;
#X connect 11 2 1 1;
#X restore 190 495 pd binary-summing;
#X obj 292 197 vsl 21 155 0 256 0 0 \$0-output-signal-s \$0-output-signal
empty 0 -9 0 10 -262144 -1 -1 0 1;
#X obj 526 215 >;
#X obj 227 178 bng 15 250 50 0 \$0-trig-same-s \$0-trig-same empty
17 7 0 10 -262144 -1 -1;
#X obj 298 178 bng 15 250 50 0 \$0-trig-diff-s \$0-trig-diff empty
17 7 0 10 -262144 -1 -1;
#X obj 230 152 hsl 81 24 0 1000 0 0 \$0-slip-chance-s \$0-slip-chance-r
empty -2 -8 0 10 -262144 -1 -1 0 1;
#X obj 526 167 random 999;
#X obj 850 438 * 1000;
#X obj 851 196 f;
#X obj 227 195 vradio 20 1 0 8 \$0-length-s \$0-length-r empty 0 -8
0 10 -262144 -1 -1 7;
#X obj 604 274 s \$0-trig-same;
#X obj 415 306 s \$0-trig-diff;
#X obj 869 172 r \$0-slip-chance-s;
#X obj 851 364 s \$0-slip-chance-r;
#X obj 850 462 s \$0-slip-chance-r;
#X obj 663 428 route;
#X obj 329 453 r \$0-bit-values;
#X obj 337 419 s \$0-bit-values;
#X obj 695 404 r \$0-length-s;
#X obj 663 380 r \$0-bit-values;
#X obj 282 82 r \$0-input-value;
#X obj 597 600 s \$0-input-value;
#X obj 544 191 r \$0-slip-chance-s;
#X obj 526 239 sel 0 1;
#X obj 734 70 dispatch \$0 chance;
#X obj 734 94 dispatch \$0 randomise;
#X obj 850 414 r \$0-chance;
#X obj 362 133 r \$0-randomise;
#X msg 362 157 randomise;
#X obj 851 268 savestate;
#X obj 884 196 r \$0-length-s;
#X obj 891 340 s \$0-length-r;
#X text 436 730 An 8 bit analog shift register \, based on the Music
Thing Modular Turing Machine.;
#X obj 262 178 tgl 15 0 \$0-rand-start-s \$0-rand-start-r empty 17
7 0 10 -262144 -1 -1 0 1;
#X obj 890 530 r \$0-rand-start-s;
#X obj 851 506 loadbang;
#X obj 851 244 pack f f f;
#X obj 851 292 unpack f f f;
#X obj 918 220 r \$0-rand-start-s;
#X obj 932 316 s \$0-rand-start-r;
#X obj 851 554 spigot;
#X obj 851 578 s \$0-randomise;
#X connect 0 0 22 0;
#X connect 1 0 2 0;
#X connect 1 1 2 1;
#X connect 1 1 10 0;
#X connect 2 0 3 0;
#X connect 2 1 3 1;
#X connect 2 1 11 0;
#X connect 3 0 4 0;
#X connect 3 1 4 1;
#X connect 3 1 12 0;
#X connect 4 0 6 0;
#X connect 4 1 6 1;
#X connect 4 1 13 0;
#X connect 5 0 21 0;
#X connect 6 0 7 0;
#X connect 6 1 7 1;
#X connect 6 1 14 0;
#X connect 7 0 8 0;
#X connect 7 1 8 1;
#X connect 7 1 15 0;
#X connect 8 0 9 0;
#X connect 8 1 9 1;
#X connect 8 1 16 0;
#X connect 9 1 17 0;
#X connect 10 0 44 0;
#X connect 11 0 44 0;
#X connect 12 0 44 0;
#X connect 13 0 44 0;
#X connect 14 0 44 0;
#X connect 15 0 44 0;
#X connect 16 0 44 0;
#X connect 17 0 44 0;
#X connect 18 0 22 0;
#X connect 19 0 20 0;
#X connect 20 0 21 0;
#X connect 21 0 48 0;
#X connect 22 0 27 0;
#X connect 22 1 33 0;
#X connect 22 2 1 0;
#X connect 25 0 51 0;
#X connect 27 0 23 0;
#X connect 27 0 26 0;
#X connect 29 0 50 0;
#X connect 33 0 29 0;
#X connect 34 0 41 0;
#X connect 35 0 63 0;
#X connect 39 0 35 1;
#X connect 42 0 5 1;
#X connect 43 0 27 1;
#X connect 43 0 24 0;
#X connect 45 0 42 1;
#X connect 46 0 42 0;
#X connect 47 0 1 1;
#X connect 49 0 29 1;
#X connect 50 0 19 0;
#X connect 50 0 38 0;
#X connect 50 1 5 0;
#X connect 50 1 37 0;
#X connect 51 0 52 0;
#X connect 53 0 34 0;
#X connect 54 0 55 0;
#X connect 55 0 9 2;
#X connect 55 0 1 2;
#X connect 55 0 2 2;
#X connect 55 0 3 2;
#X connect 55 0 4 2;
#X connect 55 0 6 2;
#X connect 55 0 7 2;
#X connect 55 0 8 2;
#X connect 56 0 64 0;
#X connect 56 1 35 0;
#X connect 57 0 63 1;
#X connect 61 0 67 1;
#X connect 62 0 67 0;
#X connect 63 0 56 0;
#X connect 64 0 40 0;
#X connect 64 1 58 0;
#X connect 64 2 66 0;
#X connect 65 0 63 2;
#X connect 67 0 68 0;
#X coords 0 -1 1 1 90 207 2 225 150;
