#N canvas 816 336 962 606 12;
#X obj 138 303 inlet~;
#X obj 161 345 vcf~ \$2;
#X obj 105 400 outlet~;
#X obj 371 424 outlet~;
#X floatatom 139 118 5 1 20000 0 freq #0-freq-r #0-freq-s;
#X floatatom 139 141 5 0 50 0 Q #0-q-r #0-q-s;
#X obj 770 277 r \$0-freq-s;
#X obj 752 301 f;
#X obj 752 325 pack f f;
#X obj 805 301 r \$0-q-s;
#X obj 752 349 savestate;
#X obj 752 373 unpack f f;
#X obj 752 421 s \$0-freq-r;
#X obj 819 397 s \$0-q-r;
#X obj 756 59 inlet;
#X obj 756 83 dispatch \$0 freq;
#X obj 756 107 dispatch \$0 q;
#X obj 755 165 r \$0-freq;
#X obj 755 189 s \$0-freq-r;
#X obj 755 213 r \$0-q;
#X obj 755 237 s \$0-q-r;
#X obj 309 165 r \$0-freq-s;
#X obj 309 237 pack 0 10;
#X obj 309 261 line~;
#X obj 309 213 f \$1;
#X obj 317 189 loadbang;
#X obj 471 246 pack 0 10;
#X obj 479 198 loadbang;
#X obj 471 270 line;
#X obj 471 222 f \$2;
#X obj 471 174 r \$0-q-s;
#X obj 277 100 inlet~ freq;
#X obj 266 287 *~;
#X obj 277 124 +~ 1;
#X connect 0 0 1 0;
#X connect 1 0 3 0;
#X connect 1 1 2 0;
#X connect 6 0 7 1;
#X connect 7 0 8 0;
#X connect 8 0 10 0;
#X connect 9 0 8 1;
#X connect 10 0 11 0;
#X connect 10 1 7 0;
#X connect 11 0 12 0;
#X connect 11 1 13 0;
#X connect 14 0 15 0;
#X connect 15 0 16 0;
#X connect 17 0 18 0;
#X connect 19 0 20 0;
#X connect 21 0 24 0;
#X connect 22 0 23 0;
#X connect 23 0 32 1;
#X connect 24 0 22 0;
#X connect 25 0 24 0;
#X connect 26 0 28 0;
#X connect 27 0 29 0;
#X connect 28 0 1 2;
#X connect 29 0 26 0;
#X connect 30 0 29 0;
#X connect 31 0 33 0;
#X connect 32 0 1 1;
#X connect 33 0 32 0;
#X coords 0 -1 1 1 85 60 1 100 100;
