#N canvas 520 430 793 558 12;
#X floatatom 211 291 4 0 0 0 - - -;
#X obj 331 193 loadbang;
#X obj 92 155 inlet~;
#X obj 87 365 outlet~;
#X obj 331 221 float \$0;
#X obj 425 193 table \$0-table;
#X obj 88 322 tabosc4~ \$0-table, f 18;
#X msg 331 249 \; \$1-table sinesum 512 0.5 0.5 0.5 0.5 \;;
#X connect 0 0 6 1;
#X connect 1 0 4 0;
#X connect 2 0 6 0;
#X connect 4 0 7 0;
#X connect 6 0 3 0;
