#N canvas 663 291 1401 1063 12;
#X obj 170 216 inlet~;
#X obj 696 85 inlet;
#X obj 633 219 list append \$0-waveform1;
#X obj 633 243 list prepend read;
#X obj 633 291 soundfiler;
#X obj 663 315 s \$0-length;
#X obj 170 251 phasor~;
#X obj 217 316 *~;
#X obj 251 274 r \$0-length;
#X obj 217 340 tabread4~ \$0-waveform1;
#X obj 1077 353 array define \$0-waveform1 1024;
#X obj 217 364 outlet~;
#X obj 633 267 list trim;
#X obj 696 109 dispatch \$0 load;
#X obj 601 171 r \$0-load;
#X symbolatom 125 104 30 0 0 0 - #0-fp-display-r #0-fp-display-s;
#X obj 601 195 t s s;
#X obj 633 315 > 0;
#X obj 601 339 spigot;
#X obj 601 363 s \$0-filepath;
#X obj 654 562 r \$0-filepath;
#X obj 636 586 symbol;
#X obj 846 321 openpanel;
#X obj 846 345 s \$0-load;
#X obj 104 104 bng 18 250 50 0 \$0-file-selector-s \$0-file-selector-r
empty 17 7 0 10 -262144 -1 -1;
#X obj 636 634 savestate;
#X obj 636 610 pack s;
#X obj 636 658 unpack s;
#X obj 636 682 s \$0-load;
#X obj 847 371 r \$0-filepath;
#X obj 880 563 s \$0-fp-display-r;
#X obj 846 297 r \$0-file-selector-s;
#X obj 847 395 split-filepath;
#X obj 847 419 t l l;
#X obj 879 443 list length;
#X obj 847 491 list split;
#X obj 879 467 - 2;
#X obj 880 515 pack s s;
#X msg 880 539 symbol \$1/\$2;
#X connect 0 0 6 0;
#X connect 1 0 13 0;
#X connect 2 0 3 0;
#X connect 3 0 12 0;
#X connect 4 0 5 0;
#X connect 4 0 17 0;
#X connect 6 0 7 0;
#X connect 7 0 9 0;
#X connect 8 0 7 1;
#X connect 9 0 11 0;
#X connect 12 0 4 0;
#X connect 14 0 16 0;
#X connect 16 0 18 0;
#X connect 16 1 2 0;
#X connect 17 0 18 1;
#X connect 18 0 19 0;
#X connect 20 0 21 1;
#X connect 21 0 26 0;
#X connect 22 0 23 0;
#X connect 25 0 27 0;
#X connect 25 1 21 0;
#X connect 26 0 25 0;
#X connect 27 0 28 0;
#X connect 29 0 32 0;
#X connect 31 0 22 0;
#X connect 32 0 33 0;
#X connect 33 0 35 0;
#X connect 33 1 34 0;
#X connect 34 0 36 0;
#X connect 35 1 37 0;
#X connect 36 0 35 1;
#X connect 37 0 38 0;
#X connect 38 0 30 0;
#X coords 0 -1 1 1 241 26 2 100 100;
