#N canvas 1046 234 990 799 12;
#X obj 696 85 inlet;
#X obj 601 219 list prepend read;
#X obj 601 267 soundfiler;
#X obj 601 291 s \$0-length;
#X obj 601 243 list trim;
#X obj 696 109 dispatch \$0 load;
#X obj 601 171 r \$0-load;
#X obj 488 174 openpanel;
#X obj 459 243 print;
#X obj 483 135 bng 15 250 50 0 empty empty empty 17 7 0 10 -262144
-1 -1;
#X floatatom 553 301 5 0 0 0 - - -;
#X obj 186 108 r \$0-length;
#X obj 186 132 range-gate 128 257;
#X obj 186 180 fft-block-analysis \$0-waveform 256;
#X obj 44 36 array define \$0-waveform 1024;
#X obj 601 195 list append \$0-waveform;
#X obj 186 204 r \$0-length;
#X obj 186 228 range-gate 256 513;
#X obj 186 276 fft-block-analysis \$0-waveform 512;
#X obj 186 300 r \$0-length;
#X obj 186 324 range-gate 512 1025;
#X obj 186 372 fft-block-analysis \$0-waveform 1024;
#X msg 186 156 process \$1;
#X msg 186 252 process \$1;
#X msg 186 348 process \$1;
#X obj 61 114 r \$0-env-gen;
#X obj 741 428 bng 15 250 50 0 empty empty empty 17 7 0 10 -262144
-1 -1;
#X obj 741 448 s \$0-env-gen;
#X msg 61 138 env-gen;
#X connect 0 0 5 0;
#X connect 1 0 4 0;
#X connect 2 0 3 0;
#X connect 2 0 10 0;
#X connect 4 0 2 0;
#X connect 6 0 15 0;
#X connect 7 0 15 0;
#X connect 9 0 7 0;
#X connect 11 0 12 0;
#X connect 12 0 22 0;
#X connect 15 0 1 0;
#X connect 16 0 17 0;
#X connect 17 0 23 0;
#X connect 19 0 20 0;
#X connect 20 0 24 0;
#X connect 22 0 13 0;
#X connect 23 0 18 0;
#X connect 24 0 21 0;
#X connect 25 0 28 0;
#X connect 26 0 27 0;
#X connect 28 0 13 0;
#X connect 28 0 21 0;
#X connect 28 0 18 0;
