#N canvas 994 197 1079 773 12;
#X obj 332 98 inlet~;
#X obj 332 403 *~;
#X obj 332 425 cos~;
#X obj 332 471 outlet~;
#X obj 107 146 hsl 128 15 0 127 0 1 \$0-wavefold-cv-att-s \$0-wavefold-cv-att-r
CV 133 7 0 10 -158136 -262144 -1 0 1;
#X obj 103 122 cnv 5 5 5 empty empty WAVEFOLD 0 0 0 12 -262144 -66577
0;
#X obj 251 110 cnv 5 5 5 empty empty FOLD 0 0 0 8 -262144 -120682 0
;
#X obj 103 111 cnv 5 5 5 empty empty IN 0 0 0 8 -262144 -66577 0;
#X obj 127 351 line~;
#X obj 127 305 + 0.5;
#X obj 127 329 pack 0 50;
#X obj 461 73 inlet~;
#X text 457 52 FOLD CV IN;
#X obj 461 174 *~;
#X obj 347 369 +~;
#X obj 107 131 hsl 128 15 0 127 0 1 \$0-wavefold-fold-s \$0-wavefold-fold-r
FOLD 133 7 0 10 -262144 -1 -1 0 1;
#X obj 512 103 / 127;
#X obj 512 125 pack 0 50;
#X obj 512 147 line~;
#X obj 127 278 / 127;
#X obj 104 166 hradio 15 1 1 3 \$0-wavefold-stages-s \$0-wavefold-stages-r
STAGES 50 8 0 10 -262144 -1 -1 0;
#X obj 214 211 sel 0 1 2;
#X floatatom 88 371 5 0 0 0 - - -;
#X obj 214 304 t b f f;
#X obj 462 259 *~ 127;
#X obj 165 122 cnv 5 5 5 empty \$0-instance-num 0 0 0 0 12 -262144
-66577 0;
#X obj 462 351 /~ 127;
#X msg 214 235 127;
#X msg 231 257 64;
#X msg 248 280 8;
#X connect 0 0 1 0;
#X connect 1 0 2 0;
#X connect 2 0 3 0;
#X connect 4 0 16 0;
#X connect 8 0 14 0;
#X connect 9 0 10 0;
#X connect 9 0 22 0;
#X connect 10 0 8 0;
#X connect 11 0 13 0;
#X connect 13 0 24 0;
#X connect 14 0 1 1;
#X connect 15 0 19 0;
#X connect 16 0 17 0;
#X connect 17 0 18 0;
#X connect 18 0 13 1;
#X connect 19 0 9 0;
#X connect 20 0 21 0;
#X connect 21 0 27 0;
#X connect 21 1 28 0;
#X connect 21 2 29 0;
#X connect 23 0 19 0;
#X connect 23 1 19 1;
#X connect 23 2 26 1;
#X connect 24 0 26 0;
#X connect 26 0 14 1;
#X connect 27 0 23 0;
#X connect 28 0 23 0;
#X connect 29 0 23 0;
#X coords 0 -1 1 1 175 90 1 100 100;
