#N canvas 389 474 983 670 12;
#X obj 792 118 dispatch \$0 run;
#X obj 792 142 dispatch \$0 bpm;
#X obj 792 94 inlet;
#X obj 217 49 tgl 15 0 \$0-run-s \$0-run-r empty 17 7 0 10 -262144
-1 -1 0 1;
#X obj 182 156 metro 1 120 permin;
#X floatatom 358 49 5 1 128 0 mult #0-mult-r #0-mult-s;
#X obj 792 190 dispatch \$0 mult;
#X obj 435 344 random 4;
#X obj 435 392 route 0 1 2 3;
#X obj 422 428 bng 15 250 50 0 empty empty empty 17 7 0 10 -262144
-1 -1;
#X obj 458 429 bng 15 250 50 0 empty empty empty 17 7 0 10 -262144
-1 -1;
#X obj 493 430 bng 15 250 50 0 empty empty empty 17 7 0 10 -262144
-1 -1;
#X obj 517 434 bng 15 250 50 0 empty empty empty 17 7 0 10 -262144
-1 -1;
#X obj 811 329 r \$0-bpm;
#X floatatom 278 45 5 1 960 0 BPM #0-bpm-r #0-bpm-s;
#X obj 811 353 s \$0-bpm-r;
#X obj 811 425 r \$0-mult;
#X obj 811 449 s \$0-mult-r;
#X floatatom 488 50 5 1 128 0 loop_length #0-loop-length-r #0-loop-length-s
;
#X obj 811 377 r \$0-loop-length;
#X obj 792 166 dispatch \$0 loop-length;
#X obj 811 401 s \$0-loop-length-r;
#X obj 811 281 r \$0-run;
#X obj 811 305 s \$0-run-r;
#X obj 182 108 r \$0-bpm-s;
#X msg 182 132 tempo \$1 permin;
#X obj 305 132 r \$0-mult-s;
#X obj 435 368 pack f f;
#X obj 435 320 t b f;
#X obj 206 207 + 1;
#X obj 176 207 i;
#X obj 220 231 r \$0-loop-length-r;
#X obj 792 214 dispatch \$0 skip;
#X obj 811 473 r \$0-skip;
#X obj 811 497 s \$0-skip-r;
#X obj 176 255 == 1;
#X obj 176 231 t f f;
#X obj 120 191 sel 1;
#X msg 120 215 0;
#X obj 176 279 pack f f;
#X obj 206 351 random 100;
#X obj 176 303 route 1 0;
#X obj 206 399 > 50;
#X obj 206 327 t f f;
#X obj 206 423 pack f f;
#X obj 206 447 route 1;
#X floatatom 578 46 5 0 0 0 skip #0-skip-r #0-skip-s;
#X obj 231 375 r \$0-skip-s;
#X connect 0 0 1 0;
#X connect 1 0 20 0;
#X connect 2 0 0 0;
#X connect 6 0 32 0;
#X connect 7 0 27 0;
#X connect 8 0 9 0;
#X connect 8 1 10 0;
#X connect 8 2 11 0;
#X connect 8 3 12 0;
#X connect 13 0 15 0;
#X connect 16 0 17 0;
#X connect 19 0 21 0;
#X connect 20 0 6 0;
#X connect 22 0 23 0;
#X connect 24 0 25 0;
#X connect 25 0 4 0;
#X connect 26 0 4 1;
#X connect 27 0 8 0;
#X connect 28 0 7 0;
#X connect 28 1 27 1;
#X connect 29 0 30 1;
#X connect 30 0 29 0;
#X connect 30 0 36 0;
#X connect 31 0 35 1;
#X connect 33 0 34 0;
#X connect 35 0 37 0;
#X connect 35 0 39 0;
#X connect 36 0 35 0;
#X connect 36 1 39 1;
#X connect 37 0 38 0;
#X connect 38 0 30 1;
#X connect 39 0 41 0;
#X connect 40 0 42 0;
#X connect 41 1 43 0;
#X connect 42 0 44 0;
#X connect 43 0 40 0;
#X connect 43 1 44 1;
#X connect 44 0 45 0;
#X connect 47 0 42 1;
