#N canvas 650 166 1449 898 12;
#X obj 439 141 randish-source;
#A saved 0 0 0;
#X obj 439 243 snapshot~;
#X obj 439 275 quantiser;
#X obj 439 219 +~;
#X obj 439 196 *~;
#X obj 529 74 vsl 25 128 0 60 0 1 empty empty rand 0 -9 0 10 -262144
-1 -1 6000 1;
#X obj 470 832 dac~;
#X obj 489 788 rev3~ 100 90 3000 20;
#X floatatom 524 218 5 0 0 0 - - -;
#X obj 567 66 vradio 15 1 0 8 empty empty octave 0 -7 0 10 -262144
-1 -1 2;
#X obj 613 41 vradio 15 1 0 12 empty empty root 0 -7 0 10 -262144 -1
-1 11;
#N canvas 1169 219 867 597 offset-maths 0;
#X obj 149 51 inlet;
#X obj 275 77 inlet;
#X obj 163 131 t b f;
#X obj 160 189 -;
#X msg 156 162 7;
#X obj 260 126 t b f;
#X obj 257 184 -;
#X msg 253 157 12;
#X obj 162 218 * 12;
#X obj 182 268 +;
#X obj 215 219 t b f;
#X floatatom 153 300 5 0 0 0 - - -;
#X obj 213 313 outlet;
#X connect 0 0 2 0;
#X connect 1 0 5 0;
#X connect 2 0 4 0;
#X connect 2 1 3 1;
#X connect 3 0 8 0;
#X connect 4 0 3 0;
#X connect 5 0 7 0;
#X connect 5 1 6 1;
#X connect 6 0 10 0;
#X connect 7 0 6 0;
#X connect 8 0 9 0;
#X connect 9 0 11 0;
#X connect 9 0 12 0;
#X connect 10 0 9 0;
#X connect 10 1 9 1;
#X restore 570 237 pd offset-maths;
#X floatatom 574 193 5 0 0 0 - - -;
#N canvas 0 23 555 422 key 0;
#X obj 149 51 inlet;
#X obj 275 77 inlet;
#X obj 260 126 t b f;
#X obj 257 184 -;
#X msg 253 157 12;
#X obj 182 268 +;
#X obj 215 219 t b f;
#X floatatom 153 300 5 0 0 0 - - -;
#X obj 213 313 outlet;
#X connect 0 0 5 0;
#X connect 1 0 2 0;
#X connect 2 0 4 0;
#X connect 2 1 3 1;
#X connect 3 0 6 0;
#X connect 4 0 3 0;
#X connect 5 0 7 0;
#X connect 5 0 8 0;
#X connect 6 0 5 0;
#X connect 6 1 5 1;
#X restore 519 360 pd key;
#X obj 709 134 vradio 15 1 0 12 empty empty key 0 -7 0 10 -262144 -1
-1 11;
#X obj 169 186 rhythm-gen;
#A saved 1 0 0.3 1.1 0 0 0 0 0 0 0;
#X obj 188 346 bng 15 250 50 0 empty empty empty 17 7 0 10 -262144
-1 -1;
#X obj 1028 194 randish-source;
#A saved 0.4 0.7 0.2;
#X obj 1028 296 snapshot~;
#X obj 1028 328 quantiser;
#X obj 1028 272 +~;
#X obj 1028 249 *~;
#X obj 1118 127 vsl 25 128 0 60 0 1 empty empty rand 0 -9 0 10 -262144
-1 -1 7000 1;
#X floatatom 1113 271 5 0 0 0 - - -;
#X obj 1156 119 vradio 15 1 0 8 empty empty octave 0 -7 0 10 -262144
-1 -1 4;
#X obj 1202 94 vradio 15 1 0 12 empty empty root 0 -7 0 10 -262144
-1 -1 11;
#N canvas 1169 219 867 597 offset-maths 0;
#X obj 149 51 inlet;
#X obj 275 77 inlet;
#X obj 163 131 t b f;
#X obj 160 189 -;
#X msg 156 162 7;
#X obj 260 126 t b f;
#X obj 257 184 -;
#X msg 253 157 12;
#X obj 162 218 * 12;
#X obj 182 268 +;
#X obj 215 219 t b f;
#X floatatom 153 300 5 0 0 0 - - -;
#X obj 213 313 outlet;
#X connect 0 0 2 0;
#X connect 1 0 5 0;
#X connect 2 0 4 0;
#X connect 2 1 3 1;
#X connect 3 0 8 0;
#X connect 4 0 3 0;
#X connect 5 0 7 0;
#X connect 5 1 6 1;
#X connect 6 0 10 0;
#X connect 7 0 6 0;
#X connect 8 0 9 0;
#X connect 9 0 11 0;
#X connect 9 0 12 0;
#X connect 10 0 9 0;
#X connect 10 1 9 1;
#X restore 1159 290 pd offset-maths;
#X floatatom 1163 246 5 0 0 0 - - -;
#N canvas 0 23 555 422 key 0;
#X obj 149 51 inlet;
#X obj 275 77 inlet;
#X obj 260 126 t b f;
#X obj 257 184 -;
#X msg 253 157 12;
#X obj 182 268 +;
#X obj 215 219 t b f;
#X floatatom 153 300 5 0 0 0 - - -;
#X obj 213 313 outlet;
#X connect 0 0 5 0;
#X connect 1 0 2 0;
#X connect 2 0 4 0;
#X connect 2 1 3 1;
#X connect 3 0 6 0;
#X connect 4 0 3 0;
#X connect 5 0 7 0;
#X connect 5 0 8 0;
#X connect 6 0 5 0;
#X connect 6 1 5 1;
#X restore 1108 413 pd key;
#X obj 1298 187 vradio 15 1 0 12 empty empty key 0 -7 0 10 -262144
-1 -1 11;
#X obj 764 152 rhythm-gen;
#A saved 2 1.2 0.1 0.3 0.5 0.47 0.5 0 0.5 0 0;
#X obj 783 312 bng 15 250 50 0 empty empty empty 17 7 0 10 -262144
-1 -1;
#X obj 172 24 loadbang;
#X msg 164 61 \; pd dsp 1 \;;
#X obj 378 400 simple-fm-synth lead;
#A saved 71.8425 260.756 23.6063 260.756 0.265142 0.148251 496.898
921.953 95.3228 1583.15 4.001 0 0;
#X obj 384 667 simple-volume;
#X obj 926 452 simple-fm-synth lead;
#A saved 1653.99 1630.38 58.685 2126.28 0.241359 0.111828 284.37 1606.76
46.9921 1299.78 1 0 0;
#X obj 932 719 simple-volume;
#X connect 0 0 4 0;
#X connect 1 0 2 0;
#X connect 2 0 13 0;
#X connect 3 0 1 0;
#X connect 4 0 3 0;
#X connect 5 0 4 1;
#X connect 5 0 8 0;
#X connect 7 0 6 0;
#X connect 7 1 6 1;
#X connect 9 0 11 0;
#X connect 10 0 11 1;
#X connect 11 0 12 0;
#X connect 11 0 3 1;
#X connect 13 0 34 0;
#X connect 14 0 13 1;
#X connect 15 1 1 0;
#X connect 15 1 16 0;
#X connect 17 0 21 0;
#X connect 18 0 19 0;
#X connect 19 0 28 0;
#X connect 20 0 18 0;
#X connect 21 0 20 0;
#X connect 22 0 21 1;
#X connect 22 0 23 0;
#X connect 24 0 26 0;
#X connect 25 0 26 1;
#X connect 26 0 27 0;
#X connect 26 0 20 1;
#X connect 28 0 36 0;
#X connect 29 0 28 1;
#X connect 30 1 18 0;
#X connect 30 1 31 0;
#X connect 32 0 33 0;
#X connect 34 0 35 0;
#X connect 35 0 7 0;
#X connect 35 1 7 1;
#X connect 36 0 37 0;
#X connect 37 0 7 0;
#X connect 37 1 7 1;
