#N canvas 312 273 1449 898 12;
#X obj 528 287 randish-source;
#A saved 0.3 0.7 0.128571;
#X obj 528 389 snapshot~;
#X obj 528 421 quantiser;
#X obj 528 365 +~;
#X obj 528 342 *~;
#X obj 618 220 vsl 25 128 0 60 0 1 empty empty rand 0 -9 0 10 -262144
-1 -1 6400 1;
#X floatatom 613 364 5 0 0 0 - - -;
#X obj 656 212 vradio 15 1 1 8 empty empty octave 0 -7 0 10 -262144
-1 -1 3;
#X obj 702 187 vradio 15 1 1 12 empty empty root 0 -7 0 10 -262144
-1 -1 11;
#N canvas 1169 219 867 597 offset-maths 0;
#X obj 149 51 inlet;
#X obj 275 77 inlet;
#X obj 163 131 t b f;
#X obj 160 189 -;
#X msg 156 162 7;
#X obj 260 126 t b f;
#X obj 257 184 -;
#X msg 253 157 12;
#X obj 162 218 * 12;
#X obj 182 268 +;
#X obj 215 219 t b f;
#X floatatom 153 300 5 0 0 0 - - -;
#X obj 213 313 outlet;
#X connect 0 0 2 0;
#X connect 1 0 5 0;
#X connect 2 0 4 0;
#X connect 2 1 3 1;
#X connect 3 0 8 0;
#X connect 4 0 3 0;
#X connect 5 0 7 0;
#X connect 5 1 6 1;
#X connect 6 0 10 0;
#X connect 7 0 6 0;
#X connect 8 0 9 0;
#X connect 9 0 11 0;
#X connect 9 0 12 0;
#X connect 10 0 9 0;
#X connect 10 1 9 1;
#X restore 659 383 pd offset-maths;
#X floatatom 663 339 5 0 0 0 - - -;
#N canvas 0 23 555 422 key 0;
#X obj 149 51 inlet;
#X obj 275 77 inlet;
#X obj 260 126 t b f;
#X obj 257 184 -;
#X msg 253 157 12;
#X obj 182 268 +;
#X floatatom 153 300 5 0 0 0 - - -;
#X obj 213 313 outlet;
#X connect 0 0 5 0;
#X connect 1 0 2 0;
#X connect 2 0 4 0;
#X connect 2 1 3 1;
#X connect 3 0 5 1;
#X connect 4 0 3 0;
#X connect 5 0 6 0;
#X connect 5 0 7 0;
#X restore 608 506 pd key;
#X obj 798 280 vradio 15 1 1 12 empty empty key 0 -7 0 10 -262144 -1
-1 10;
#X obj 210 286 rhythm-gen;
#A saved 2 3 0.2 0.37 0.5 0.3 0.5 1 0.5 131 0;
#X obj 975 214 loadbang;
#X msg 967 251 \; pd dsp 1 \;;
#X obj 309 49 global-transport;
#A saved 131;
#X obj 324 15 loadbang;
#X obj 211 186 s control;
#X msg 336 111 bpm \$1;
#X obj 210 260 r control;
#X obj 223 111 sel 0;
#X obj 182 86 t f f;
#X msg 228 136 reset;
#X msg 160 113 run \$1;
#X obj 424 126 midiout;
#X obj 608 590 makenote 100 3000;
#X obj 608 647 midi-synth monomachine;
#A saved 1 5;
#X obj 608 613 pack f f;
#X connect 0 0 4 0;
#X connect 1 0 2 0;
#X connect 2 0 11 0;
#X connect 3 0 1 0;
#X connect 4 0 3 0;
#X connect 5 0 4 1;
#X connect 5 0 6 0;
#X connect 7 0 9 0;
#X connect 8 0 9 1;
#X connect 9 0 10 0;
#X connect 9 0 3 1;
#X connect 11 0 26 0;
#X connect 12 0 11 1;
#X connect 13 1 1 0;
#X connect 14 0 15 0;
#X connect 16 0 22 0;
#X connect 16 1 19 0;
#X connect 16 3 25 0;
#X connect 17 0 16 1;
#X connect 19 0 18 0;
#X connect 20 0 13 0;
#X connect 21 1 23 0;
#X connect 22 0 24 0;
#X connect 22 1 21 0;
#X connect 23 0 18 0;
#X connect 24 0 18 0;
#X connect 26 0 28 0;
#X connect 26 1 28 1;
#X connect 28 0 27 0;
