#N canvas 648 138 1758 1189 12;
#X obj 94 453 randish-source;
#A saved -0.35 0.7 0.285714;
#X obj 94 508 snapshot~;
#X obj 86 628 quantiser;
#A saved 0 0 0 0 0 0 0 0 0 0 0 0;
#N canvas 163 241 555 422 key 1;
#X obj 149 51 inlet;
#X obj 275 77 inlet;
#X obj 260 126 t b f;
#X obj 257 184 -;
#X msg 253 157 12;
#X obj 182 268 +;
#X floatatom 153 300 5 0 0 0 - - -;
#X obj 213 313 outlet;
#X connect 0 0 5 0;
#X connect 1 0 2 0;
#X connect 2 0 4 0;
#X connect 2 1 3 1;
#X connect 3 0 5 1;
#X connect 4 0 3 0;
#X connect 5 0 6 0;
#X connect 5 0 7 0;
#X restore 94 800 pd key;
#X obj 289 619 vradio 15 1 1 12 empty empty key 0 -7 0 10 -262144 -1
-1 11;
#X obj 94 360 rhythm-gen;
#A saved 2 4 0.2 0.37 0.5 7 0.9 1 0.5 131 0;
#X obj 529 39 loadbang;
#X msg 521 76 \; pd dsp 1 \;;
#X obj 309 49 global-transport;
#A saved 131 1;
#X obj 324 15 loadbang;
#X obj 211 186 s control;
#X obj 94 334 r control;
#X obj 424 126 midiout;
#X obj 94 827 makenote 100 3000;
#X obj 94 850 pack f f;
#X obj 94 884 midi-synth monomachine voice1;
#A saved 1 1 1 1;
#X obj 399 338 16step-chance-seq;
#A saved 15 100 0 0 60.6061 0 44.4444 77.7778 21.2121 25.2525 100 35.3535
29.2929 57.5758 19.1919 35.3535 49.4949;
#X obj 400 261 r control;
#X obj 400 289 clock;
#A saved 131 2;
#X obj 410 499 randish-source;
#A saved 0.2 0.7 0.2;
#X obj 410 560 snapshot~;
#X obj 354 679 quantiser;
#A saved 1 1 0 1 0 1 1 0 1 0 1 0 0 0;
#N canvas 0 23 555 422 key 0;
#X obj 149 51 inlet;
#X obj 275 77 inlet;
#X obj 260 126 t b f;
#X obj 257 184 -;
#X msg 253 157 12;
#X obj 182 268 +;
#X floatatom 153 300 5 0 0 0 - - -;
#X obj 213 313 outlet;
#X connect 0 0 5 0;
#X connect 1 0 2 0;
#X connect 2 0 4 0;
#X connect 2 1 3 1;
#X connect 3 0 5 1;
#X connect 4 0 3 0;
#X connect 5 0 6 0;
#X connect 5 0 7 0;
#X restore 412 856 pd key;
#X obj 582 681 vradio 15 1 1 12 empty empty key 0 -7 0 10 -262144 -1
-1 11;
#X obj 412 940 makenote 100 3000;
#X obj 412 963 pack f f;
#X obj 412 997 midi-synth monomachine voice2;
#A saved 1 2 1 0;
#X obj 1258 185 rhythm-gen;
#A saved 2 2 0.2 0.37 0.5 0.3 0.5 1 0.5 131 0;
#X obj 1258 159 r control;
#X obj 1258 339 pack f f;
#X obj 1258 373 midi-synth monomachine glitchverb;
#A saved 1 5 1 1;
#X msg 1258 288 64;
#X obj 1258 316 makenote 100 300;
#X obj 1003 328 turing-machine;
#A saved 0 0 0;
#X obj 411 587 note-scaler;
#A saved 0 0 0 0;
#X obj 94 534 note-scaler;
#A saved 0 0 0 0;
#X obj 957 693 quantiser;
#A saved 0 0 0 0 0 0 0 0 0 0 0 0;
#N canvas 0 23 555 422 key 0;
#X obj 149 51 inlet;
#X obj 275 77 inlet;
#X obj 260 126 t b f;
#X obj 257 184 -;
#X msg 253 157 12;
#X obj 182 268 +;
#X floatatom 153 300 5 0 0 0 - - -;
#X obj 213 313 outlet;
#X connect 0 0 5 0;
#X connect 1 0 2 0;
#X connect 2 0 4 0;
#X connect 2 1 3 1;
#X connect 3 0 5 1;
#X connect 4 0 3 0;
#X connect 5 0 6 0;
#X connect 5 0 7 0;
#X restore 997 865 pd key;
#X obj 1167 690 vradio 15 1 1 12 empty empty key 0 -7 0 10 -262144
-1 -1 11;
#X obj 997 894 makenote 100 3000;
#X obj 997 917 pack f f;
#X obj 1003 568 note-scaler;
#A saved 0 0 0 0;
#X obj 997 951 midi-synth monomachine voice3;
#A saved 1 3 1 0;
#X obj 887 209 rhythm-gen;
#A saved 1 5 0.25 0.3 0.7 6 0.2 5.1 0.21 131 0;
#X obj 887 183 r control;
#X obj 1371 772 makenote 100 3000;
#X obj 1371 795 pack f f;
#X obj 1371 829 midi-synth machinedrum;
#A saved 2 10 1 1;
#X floatatom 1365 701 5 0 0 0 - - -;
#X connect 0 0 1 0;
#X connect 1 0 35 0;
#X connect 2 0 3 0;
#X connect 3 0 13 0;
#X connect 4 0 3 1;
#X connect 5 1 1 0;
#X connect 6 0 7 0;
#X connect 8 0 10 0;
#X connect 8 2 12 0;
#X connect 11 0 5 0;
#X connect 13 0 14 0;
#X connect 13 1 14 1;
#X connect 14 0 15 0;
#X connect 16 0 20 0;
#X connect 17 0 18 0;
#X connect 18 1 16 0;
#X connect 19 0 20 0;
#X connect 20 0 34 0;
#X connect 21 0 22 0;
#X connect 22 0 24 0;
#X connect 23 0 22 1;
#X connect 24 0 25 0;
#X connect 24 1 25 1;
#X connect 25 0 26 0;
#X connect 27 1 31 0;
#X connect 28 0 27 0;
#X connect 29 0 30 0;
#X connect 31 0 32 0;
#X connect 32 0 29 0;
#X connect 32 1 29 1;
#X connect 33 0 41 0;
#X connect 34 0 21 0;
#X connect 35 0 2 0;
#X connect 36 0 37 0;
#X connect 37 0 39 0;
#X connect 38 0 37 1;
#X connect 39 0 40 0;
#X connect 39 1 40 1;
#X connect 40 0 42 0;
#X connect 41 0 36 0;
#X connect 43 1 33 0;
#X connect 44 0 43 0;
#X connect 45 0 46 0;
#X connect 45 1 46 1;
#X connect 46 0 47 0;
#X connect 48 0 45 0;
