#N canvas 883 377 1237 973 12;
#X obj 616 371 resonator-bank-ui;
#A saved 1.27559 1.66929 1.46457 1.6378 1.40157 1.27559 1.66929 1.46457
1.6378 1.40157 0.00877193 -3.33333 48.2105;
#X obj 627 171 karplus-strong-synth;
#A saved 3 0.805369 6224.16 3538.8 31.7475 0.536913;
#X msg 605 42 220;
#X obj 682 668 simple-volume;
#A saved 2.65609 1;
#X obj 660 839 dac~;
#X obj 673 68 metro 250;
#X obj 674 33 tgl 15 0 empty empty empty 17 7 0 10 -262144 -1 -1 1
1;
#X obj 336 188 noise~;
#X obj 389 266 *~;
#X obj 431 196 vline~;
#X msg 431 127 1 \$1 \, 0 \$1 \$1;
#X floatatom 426 66 5 0 0 0 - - -;
#X obj 922 287 osc~ 0.35;
#X obj 951 334 osc~ 0.15;
#X obj 951 358 *~ 0.23;
#X connect 0 1 3 0;
#X connect 0 2 3 1;
#X connect 1 0 0 0;
#X connect 2 0 1 0;
#X connect 3 0 4 0;
#X connect 3 1 4 1;
#X connect 5 0 2 0;
#X connect 6 0 5 0;
#X connect 7 0 8 0;
#X connect 9 0 8 1;
#X connect 10 0 9 0;
#X connect 11 0 10 0;
#X connect 12 0 0 1;
#X connect 13 0 14 0;
#X connect 14 0 0 2;
