#N canvas 1009 260 1034 983 12;
#X obj 57 126 bng 15 250 50 0 empty empty empty 17 7 0 10 -262144 -1
-1;
#X obj 210 244 bit-register;
#X obj 210 272 bit-register;
#X obj 210 301 bit-register;
#X obj 210 329 bit-register;
#X obj 57 37 clock;
#X obj 134 235 noise~;
#X obj 110 274 snapshot~;
#X obj 57 277 i;
#X obj 110 298 > 0;
#X floatatom 110 333 5 0 0 0 - - -;
#X obj 57 207 bernoulli-gate;
#X obj 57 152 t b b;
#X obj 210 354 bit-register;
#X obj 210 382 bit-register;
#X obj 210 411 bit-register;
#X obj 210 439 bit-register;
#X msg 265 244 0 \$1;
#X obj 161 508 binary-summing;
#X floatatom 173 627 5 0 0 0 - - -;
#X msg 265 272 1 \$1;
#X msg 265 302 2 \$1;
#X msg 265 330 3 \$1;
#X msg 265 355 4 \$1;
#X msg 265 383 5 \$1;
#X msg 265 413 6 \$1;
#X msg 265 441 7 \$1;
#X obj 303 567 quantiser;
#X floatatom 266 668 5 0 0 0 - - -;
#X obj 180 560 /;
#X floatatom 303 502 5 0 0 0 - - -;
#X obj 325 703 osc~;
#X obj 347 768 dac~;
#X obj 439 721 *~;
#X obj 501 503 vsl 15 128 0.01 1 1 0 empty empty empty 0 -9 0 10 -262144
-1 -1 9300 1;
#X obj 363 657 +;
#X floatatom 388 623 5 0 0 0 - - -;
#X obj 320 675 mtof;
#X connect 0 0 12 0;
#X connect 1 0 2 0;
#X connect 1 1 2 1;
#X connect 1 1 17 0;
#X connect 2 0 3 0;
#X connect 2 1 3 1;
#X connect 2 1 20 0;
#X connect 3 0 4 0;
#X connect 3 1 4 1;
#X connect 3 1 21 0;
#X connect 4 0 13 0;
#X connect 4 1 13 1;
#X connect 4 1 22 0;
#X connect 5 0 0 0;
#X connect 6 0 7 0;
#X connect 7 0 9 0;
#X connect 8 0 10 0;
#X connect 9 0 10 0;
#X connect 10 0 1 1;
#X connect 11 0 8 0;
#X connect 11 1 7 0;
#X connect 12 0 11 0;
#X connect 12 0 18 0;
#X connect 12 1 1 0;
#X connect 13 0 14 0;
#X connect 13 1 14 1;
#X connect 13 1 23 0;
#X connect 14 0 15 0;
#X connect 14 1 15 1;
#X connect 14 1 24 0;
#X connect 15 0 16 0;
#X connect 15 1 16 1;
#X connect 15 1 25 0;
#X connect 16 1 8 1;
#X connect 16 1 26 0;
#X connect 17 0 18 1;
#X connect 18 0 29 0;
#X connect 20 0 18 1;
#X connect 21 0 18 1;
#X connect 22 0 18 1;
#X connect 23 0 18 1;
#X connect 24 0 18 1;
#X connect 25 0 18 1;
#X connect 26 0 18 1;
#X connect 27 0 35 0;
#X connect 29 0 27 0;
#X connect 29 0 19 0;
#X connect 30 0 29 1;
#X connect 31 0 33 0;
#X connect 33 0 32 0;
#X connect 33 0 32 1;
#X connect 34 0 33 1;
#X connect 35 0 37 0;
#X connect 35 0 28 0;
#X connect 36 0 35 1;
#X connect 37 0 31 0;
