#N canvas 191 58 1990 1314 12;
#X obj 345 91 turing-machine;
#A saved 0 7 1;
#X obj 258 351 route 0 1 2 3 4 5 6 7;
#X obj 154 408 sel 1;
#X obj 154 432 bng 15 250 50 0 empty empty empty 17 7 0 10 -262144
-1 -1;
#X obj 198 408 sel 1;
#X obj 198 432 bng 15 250 50 0 empty empty empty 17 7 0 10 -262144
-1 -1;
#X obj 242 408 sel 1;
#X obj 242 432 bng 15 250 50 0 empty empty empty 17 7 0 10 -262144
-1 -1;
#X obj 286 408 sel 1;
#X obj 286 432 bng 15 250 50 0 empty empty empty 17 7 0 10 -262144
-1 -1;
#X obj 330 408 sel 1;
#X obj 330 432 bng 15 250 50 0 empty empty empty 17 7 0 10 -262144
-1 -1;
#X obj 374 408 sel 1;
#X obj 374 432 bng 15 250 50 0 empty empty empty 17 7 0 10 -262144
-1 -1;
#X obj 418 408 sel 1;
#X obj 418 432 bng 15 250 50 0 empty empty empty 17 7 0 10 -262144
-1 -1;
#X obj 462 408 sel 1;
#X obj 462 432 bng 15 250 50 0 empty empty empty 17 7 0 10 -262144
-1 -1;
#X obj 24 40 dsp-control;
#A saved 1;
#X obj 95 41 global-transport;
#A saved 120 0;
#X obj 282 774 adr-env-ui;
#A saved 2.27368 2.09217 2.79937;
#X obj 88 774 harmonic-oscillator;
#A saved 1 0.117681 0.236449 0.162975 0.657933 0.432876 0.312572 0.187382
;
#X obj 1164 912 simple-fm-synth;
#A saved 16.0203 6.22284 78.9528 2.41716 5.48568 3.31283 54.7874 3.5284
0.351502 0.0527253 2;
#X msg 88 586 25;
#X obj 88 726 makenote 1 150;
#X obj 88 750 mtof;
#X obj 264 916 *~;
#X obj 811 187 turing-machine;
#A saved 0 7 1;
#X obj 1164 534 f;
#X obj 1164 626 quantiser;
#A saved 1 0 1 1 0 1 0 0 1 0 1 0 1 0;
#X obj 1164 558 note-scaler;
#A saved 0 0 0 0;
#X obj 1164 795 bernoulli-gate-ui;
#A saved 0.14;
#X obj 1217 840 + 12;
#X obj 1164 771 timed-gate 1000;
#X obj 1600 85 simple-volume;
#A saved 0.8 0 0.5;
#X obj 1624 434 rev3-ui;
#A saved 0.811024 85.0394 50 0;
#X obj 264 940 s~ \$0-channel1;
#X obj 1600 61 r~ \$0-channel2;
#X obj 1625 252 throw~ \$0-r-out;
#X obj 1600 276 throw~ \$0-l-out;
#X obj 1624 386 catch~ \$0-l-out;
#X obj 1718 410 catch~ \$0-r-out;
#X obj 1164 1104 s~ \$0-channel2;
#X obj 1164 888 pack f f;
#X obj 1164 864 makenote 100 150;
#X obj 1624 568 dac~;
#X obj 88 535 &&;
#X obj 88 559 sel 1;
#X obj 88 610 timed-gate 1000;
#X obj 190 634 timed-gate 600;
#X obj 136 661 pipe 300;
#X obj 220 681 bng 15 250 50 0 empty empty empty 17 7 0 10 -262144
-1 -1;
#X obj 52 652 bng 15 250 50 0 empty empty empty 17 7 0 10 -262144 -1
-1;
#X obj 281 682 bng 15 250 50 0 empty empty empty 17 7 0 10 -262144
-1 -1;
#X msg 259 583 100;
#X obj 259 515 &&;
#X obj 259 539 sel 1;
#X obj 303 515 &&;
#X obj 303 539 sel 1;
#X obj 259 563 bng 15 250 50 0 empty empty empty 17 7 0 10 -262144
-1 -1;
#X obj 303 563 bng 15 250 50 0 empty empty empty 17 7 0 10 -262144
-1 -1;
#X msg 303 583 300;
#X obj 768 667 adr-env-ui;
#A saved 1.27 1.27 295.441;
#X obj 574 667 harmonic-oscillator;
#A saved 0.155568 0.0932603 0.162975 0.359381 0.117681 0.0319927 0.01
0.01;
#X obj 574 619 makenote 1 150;
#X obj 574 643 mtof;
#X obj 642 814 *~;
#X obj 650 1124 s~ \$0-channel3;
#X obj 668 1084 basic-distortion;
#X obj 671 1018 *~;
#X floatatom 739 945 5 0 0 0 - - -;
#X obj 739 968 pack 0 50;
#X obj 739 992 line~;
#X obj 704 796 s_pinknoise;
#X obj 657 885 *~;
#X obj 614 934 +~;
#X obj 664 925 +~;
#X floatatom 773 838 5 0 0 0 - - -;
#X obj 773 861 pack 0 50;
#X obj 773 885 line~;
#X obj 574 595 timed-gate 1000;
#X floatatom 715 566 5 0 0 0 - - -;
#X obj 1745 85 simple-volume;
#A saved 0.8 0 0.5;
#X obj 1770 252 throw~ \$0-r-out;
#X obj 1745 276 throw~ \$0-l-out;
#X obj 1745 61 r~ \$0-channel3;
#X obj 811 399 s \$0-tm2-v;
#X obj 1182 510 r \$0-tm2-v;
#X obj 1164 486 r \$0-fm-trig;
#X obj 894 399 s \$0-tm2-bits;
#X obj 811 143 clock;
#A saved 120 1 0.5;
#X obj 95 85 s \$0-control;
#X obj 811 119 r \$0-control;
#X obj 345 47 clock;
#A saved 120 1 0.5;
#X obj 345 303 s \$0-tm1-v;
#X obj 428 303 s \$0-tm1-bits;
#X msg 577 516 25;
#X obj 1454 90 simple-volume;
#A saved 0.8 0 0.5;
#X obj 1479 257 throw~ \$0-r-out;
#X obj 1454 281 throw~ \$0-l-out;
#X obj 1454 66 r~ \$0-channel1;
#X connect 0 0 94 0;
#X connect 0 1 95 0;
#X connect 1 0 2 0;
#X connect 1 0 46 0;
#X connect 1 1 4 0;
#X connect 1 1 46 1;
#X connect 1 2 6 0;
#X connect 1 2 57 1;
#X connect 1 3 8 0;
#X connect 1 3 55 0;
#X connect 1 4 10 0;
#X connect 1 5 12 0;
#X connect 1 5 55 1;
#X connect 1 6 14 0;
#X connect 1 6 57 0;
#X connect 1 7 16 0;
#X connect 2 0 3 0;
#X connect 4 0 5 0;
#X connect 6 0 7 0;
#X connect 8 0 9 0;
#X connect 9 0 80 0;
#X connect 9 0 96 0;
#X connect 10 0 11 0;
#X connect 12 0 13 0;
#X connect 13 0 80 0;
#X connect 13 0 96 0;
#X connect 14 0 15 0;
#X connect 15 0 80 0;
#X connect 15 0 96 0;
#X connect 16 0 17 0;
#X connect 19 0 91 0;
#X connect 20 0 26 1;
#X connect 21 0 26 0;
#X connect 22 0 42 0;
#X connect 23 0 48 0;
#X connect 24 0 25 0;
#X connect 24 1 20 0;
#X connect 25 0 21 0;
#X connect 26 0 36 0;
#X connect 27 0 86 0;
#X connect 27 1 89 0;
#X connect 28 0 30 0;
#X connect 29 0 33 0;
#X connect 30 0 29 0;
#X connect 31 0 44 0;
#X connect 31 1 32 0;
#X connect 32 0 44 0;
#X connect 33 0 31 0;
#X connect 34 0 39 0;
#X connect 34 1 38 0;
#X connect 35 0 45 0;
#X connect 35 1 45 1;
#X connect 37 0 34 0;
#X connect 40 0 35 0;
#X connect 41 0 35 1;
#X connect 43 0 22 0;
#X connect 44 0 43 0;
#X connect 44 1 43 1;
#X connect 46 0 47 0;
#X connect 47 0 23 0;
#X connect 48 0 52 0;
#X connect 48 0 24 0;
#X connect 48 1 49 0;
#X connect 49 0 50 0;
#X connect 49 0 51 0;
#X connect 49 1 53 0;
#X connect 50 0 24 0;
#X connect 54 0 50 1;
#X connect 55 0 56 0;
#X connect 56 0 54 0;
#X connect 56 0 59 0;
#X connect 57 0 58 0;
#X connect 58 0 61 0;
#X connect 58 0 60 0;
#X connect 61 0 50 1;
#X connect 62 0 66 1;
#X connect 63 0 66 0;
#X connect 64 0 65 0;
#X connect 64 1 62 0;
#X connect 65 0 63 0;
#X connect 66 0 74 0;
#X connect 66 0 75 0;
#X connect 68 0 67 0;
#X connect 69 0 68 0;
#X connect 70 0 71 0;
#X connect 71 0 72 0;
#X connect 72 0 69 1;
#X connect 73 0 74 1;
#X connect 74 0 75 1;
#X connect 74 0 76 0;
#X connect 75 0 69 0;
#X connect 76 0 69 0;
#X connect 77 0 78 0;
#X connect 78 0 79 0;
#X connect 79 0 76 1;
#X connect 80 0 64 0;
#X connect 81 0 80 1;
#X connect 81 0 64 2;
#X connect 82 0 84 0;
#X connect 82 1 83 0;
#X connect 85 0 82 0;
#X connect 87 0 28 1;
#X connect 88 0 28 0;
#X connect 90 1 27 0;
#X connect 92 0 90 0;
#X connect 93 1 0 0;
#X connect 97 0 99 0;
#X connect 97 1 98 0;
#X connect 100 0 97 0;
