#N canvas 371 42 1775 1293 12;
#X obj 96 764 wavetable-osc;
#A saved /Users/guy/src/pd-patches/wavetables/MG14.wav;
#X obj 1495 338 dac~;
#X obj 896 85 simple-volume;
#A saved 79.798 1;
#X obj 20 21 global-transport;
#A saved 95 0;
#X obj 191 842 adr-env-ui;
#A saved 348.928 33.9649 1496.41;
#X obj 96 278 8step-chance-seq;
#A saved 8 100 59.596 30.303 88.8889 28.2828 64.6465 29.2929 76.7677
;
#X obj 96 571 quantiser;
#A saved 1 0 1 1 0 1 0 1 1 0 0 0 1 0;
#X obj 96 503 note-scaler;
#A saved 0.0899764 3 0 0;
#X obj 96 479 f;
#X obj 410 101 turing-machine;
#A saved 125 7 1;
#X obj 410 57 clock;
#A saved 95 1.5 0.1;
#X obj 96 941 *~;
#X obj 96 740 mtof;
#X obj 579 893 karplus-strong-synth;
#A saved 0.711409 5265.77 887.97 17.3561 0.892617;
#X obj 635 265 f;
#X obj 579 652 quantiser;
#A saved 1 0 0 1 0 0 0 1 1 0 1 0 1 0;
#X obj 579 584 note-scaler;
#A saved 0.0698291 4 3 0;
#X obj 549 197 clock;
#A saved 95 2 0.1;
#X obj 635 334 bernoulli-gate-ui;
#A saved 0.38;
#X obj 620 497 bernoulli-gate-ui;
#A saved 0.3;
#X obj 1247 937 wavetable-osc;
#A saved /Users/guy/src/pd-patches/wavetables/MG43.wav;
#X obj 1342 1015 adr-env-ui;
#A saved 1626.24 33.9649 1496.41;
#X obj 1247 1136 *~;
#X obj 1247 913 mtof;
#X obj 579 869 mtof;
#X obj 1032 87 simple-volume;
#A saved 82.8283 1;
#X obj 1165 93 simple-volume;
#A saved 87.8788 1;
#X obj 1301 95 simple-volume;
#A saved 87.8788 1;
#X obj 817 652 quantiser;
#A saved 1 0 0 1 0 1 0 1 0 0 1 0 1 0;
#X obj 817 584 note-scaler;
#A saved 0.115936 3 5 0;
#X obj 1247 629 quantiser;
#A saved 1 0 1 1 0 1 0 0 1 0 1 0 1 0;
#X obj 1247 561 note-scaler;
#A saved 0.106543 3 4 0;
#X obj 635 289 bernoulli-gate-ui;
#A saved 0;
#X obj 100 222 clock;
#A saved 95 0.75 0.1;
#X obj 817 900 karplus-strong-synth;
#A saved 0.838926 5493.96 947.425 20.8578 0.852349;
#X obj 817 876 mtof;
#X obj 1037 366 tidal-lfo;
#A saved 0.001 0.7 0.003 0.02 0.01 0.2 0.018797 0.248908;
#X obj 859 876 *~ 0.1;
#X obj 621 869 *~ 0.1;
#X obj 944 876 *~ 0.3;
#X obj 749 869 *~ 0.7;
#X obj 664 821 *~ 0.05;
#X obj 902 821 *~ 0.05;
#X obj 1247 889 makenote 1 400;
#X obj 96 716 makenote 1 400;
#X obj 1247 1015 vcf-ui;
#A saved 500 5;
#X obj 1286 992 *~ -0.5;
#X obj 1247 798 bernoulli-gate-ui;
#A saved 0.14;
#X obj 1300 852 + 12;
#X obj 96 842 vcf-ui;
#A saved 4000 2;
#X obj 135 819 *~ 0.6;
#X obj 144 21 dsp-control;
#A saved 1;
#X obj 1247 774 timed-gate 1000;
#X obj 579 797 change;
#X obj 1495 212 rev3-ui;
#A saved 0.700787 80.315 1959.84 11.0236;
#X obj 96 965 s~ \$0-channel1;
#X obj 114 455 r \$0-tm-seq;
#X obj 410 313 s \$0-tm-seq;
#X obj 549 173 r \$0-control;
#X obj 76 65 s \$0-clock;
#X obj 20 89 s \$0-control;
#X obj 410 33 r \$0-control;
#X obj 100 198 r \$0-control;
#X obj 135 795 r~ \$0-mod2;
#X obj 653 241 r \$0-tm-seq;
#X obj 688 379 s \$0-lead-seq;
#X obj 635 403 s \$0-pluck-seq;
#X obj 620 473 r \$0-pluck-seq;
#X obj 621 845 r~ \$0-mod1;
#X obj 664 797 r~ \$0-mod2;
#X obj 749 845 r~ \$0-mod2;
#X obj 579 1042 s~ \$0-channel2;
#X obj 859 852 r~ \$0-mod1;
#X obj 902 797 r~ \$0-mod2;
#X obj 944 852 r~ \$0-mod3;
#X obj 817 1049 s~ \$0-channel3;
#X obj 896 61 r~ \$0-channel1;
#X obj 1032 63 r~ \$0-channel2;
#X obj 1165 69 r~ \$0-channel3;
#X obj 1301 71 r~ \$0-channel4;
#X obj 896 248 throw~ \$0-l-out;
#X obj 916 224 throw~ \$0-r-out;
#X obj 1052 226 throw~ \$0-r-out;
#X obj 1032 250 throw~ \$0-l-out;
#X obj 1185 232 throw~ \$0-r-out;
#X obj 1165 256 throw~ \$0-l-out;
#X obj 1321 234 throw~ \$0-r-out;
#X obj 1301 258 throw~ \$0-l-out;
#X obj 1495 164 catch~ \$0-l-out;
#X obj 1589 188 catch~ \$0-r-out;
#X obj 1037 473 s~ \$0-mod1;
#X obj 1128 473 s~ \$0-mod2;
#X obj 1219 473 s~ \$0-mod3;
#X obj 1247 537 r \$0-lead-seq;
#X obj 1286 968 r~ \$0-mod2;
#X obj 1247 1160 s~ \$0-channel4;
#X connect 0 0 49 0;
#X connect 2 0 80 0;
#X connect 2 1 81 0;
#X connect 3 0 60 0;
#X connect 3 1 59 0;
#X connect 4 0 11 1;
#X connect 5 0 8 0;
#X connect 6 0 44 0;
#X connect 7 0 6 0;
#X connect 8 0 7 0;
#X connect 9 0 57 0;
#X connect 10 1 9 0;
#X connect 11 0 55 0;
#X connect 12 0 0 0;
#X connect 13 0 71 0;
#X connect 14 0 32 0;
#X connect 15 0 53 0;
#X connect 16 0 15 0;
#X connect 17 1 14 0;
#X connect 18 0 66 0;
#X connect 18 1 65 0;
#X connect 19 0 16 0;
#X connect 19 1 29 0;
#X connect 20 0 45 0;
#X connect 21 0 22 1;
#X connect 22 0 95 0;
#X connect 23 0 20 0;
#X connect 24 0 13 0;
#X connect 25 0 83 0;
#X connect 25 1 82 0;
#X connect 26 0 85 0;
#X connect 26 1 84 0;
#X connect 27 0 87 0;
#X connect 27 1 86 0;
#X connect 28 0 35 0;
#X connect 29 0 28 0;
#X connect 30 0 52 0;
#X connect 31 0 30 0;
#X connect 32 0 18 0;
#X connect 33 1 5 0;
#X connect 34 0 75 0;
#X connect 35 0 34 0;
#X connect 36 0 90 0;
#X connect 36 1 91 0;
#X connect 36 2 92 0;
#X connect 37 0 34 1;
#X connect 38 0 13 1;
#X connect 39 0 34 3;
#X connect 40 0 13 4;
#X connect 41 0 13 2;
#X connect 42 0 34 2;
#X connect 43 0 23 0;
#X connect 43 1 21 0;
#X connect 44 0 12 0;
#X connect 44 1 4 0;
#X connect 45 0 22 0;
#X connect 46 0 45 1;
#X connect 47 0 43 0;
#X connect 47 1 48 0;
#X connect 48 0 43 0;
#X connect 49 0 11 0;
#X connect 50 0 49 1;
#X connect 52 0 47 0;
#X connect 53 0 24 0;
#X connect 54 0 1 0;
#X connect 54 1 1 1;
#X connect 56 0 8 1;
#X connect 58 0 17 0;
#X connect 61 0 10 0;
#X connect 62 0 33 0;
#X connect 63 0 50 0;
#X connect 64 0 14 1;
#X connect 67 0 19 0;
#X connect 68 0 38 0;
#X connect 69 0 41 0;
#X connect 70 0 40 0;
#X connect 72 0 37 0;
#X connect 73 0 42 0;
#X connect 74 0 39 0;
#X connect 76 0 2 0;
#X connect 76 0 2 1;
#X connect 77 0 25 0;
#X connect 77 0 25 1;
#X connect 78 0 26 0;
#X connect 78 0 26 1;
#X connect 79 0 27 0;
#X connect 79 0 27 1;
#X connect 88 0 54 0;
#X connect 89 0 54 1;
#X connect 93 0 31 0;
#X connect 94 0 46 0;
