#N canvas 1249 57 1475 1320 12;
#X obj 302 262 chaos-loops;
#X obj 202 336 print chaos;
#X msg 333 205 start;
#X msg 403 206 stop;
#X msg 299 146 loop \$1;
#X obj 296 108 tgl 15 0 empty empty empty 17 7 0 10 -262144 -1 -1 0
1;
#X msg 472 144 trigger;
#X msg 481 235 length \$1;
#X floatatom 570 211 5 0 0 0 - - -;
#X msg 483 196 clock \$1;
#X floatatom 523 173 5 0 0 0 - - -;
#X msg 436 81 mult 2;
#X msg 211 144 init;
#X obj 330 446 quantiser;
#A saved 1 0 1 0 1 1 0 1 0 1 0 1 0 2;
#X obj 330 378 note-scaler;
#A saved 16.9573 4 0 0;
#X floatatom 278 463 5 0 0 0 - - -;
#X obj 296 673 karplus-strong-synth;
#A saved 0.100671 3394.63 814.46 10.8195 1;
#X obj 344 1054 dac~;
#X obj 344 878 simple-volume;
#A saved 1 1 0.5;
#X floatatom 230 623 5 0 0 0 - - -;
#X obj 337 315 + 3;
#X msg 512 98 divide 2;
#X connect 0 0 1 0;
#X connect 0 0 20 0;
#X connect 2 0 0 0;
#X connect 3 0 0 0;
#X connect 4 0 0 0;
#X connect 5 0 4 0;
#X connect 6 0 0 0;
#X connect 7 0 0 0;
#X connect 8 0 7 0;
#X connect 9 0 0 0;
#X connect 10 0 9 0;
#X connect 11 0 0 0;
#X connect 12 0 0 0;
#X connect 13 0 16 0;
#X connect 13 0 19 0;
#X connect 14 0 13 0;
#X connect 14 0 15 0;
#X connect 16 0 18 0;
#X connect 18 0 17 0;
#X connect 18 1 17 1;
#X connect 20 0 14 0;
#X connect 21 0 0 0;
