#N canvas 403 189 1445 1068 12;
#X obj 292 405 phase-vocoder-ui;
#X obj 1291 77 dac~;
#X obj 707 132 simple-volume;
#A saved 0.657933 1 0.5;
#X obj 292 870 s~ \$0-channel1;
#X obj 707 108 r~ \$0-channel1;
#X obj 803 574 throw~ \$0-outl;
#X obj 828 550 throw~ \$0-outr;
#X obj 1316 53 catch~ \$0-outr;
#X obj 1291 29 catch~ \$0-outl;
#X obj 145 134 chaos-loops;
#X msg 160 87 start;
#X msg 225 88 stop;
#X obj 144 197 bernoulli-gate-ui;
#A saved 0.4;
#X msg 280 345 location \$1;
#X obj 311 33 tgl 15 0 empty empty empty 17 7 0 10 -262144 -1 -1 0
1;
#X msg 311 53 loop \$1;
#X msg 410 65 length 4;
#X obj 238 297 line;
#X msg 229 262 \$1 4000;
#X msg 512 47 clock 6000;
#X obj 682 374 rev3-ui;
#A saved 0.354331 44.8819 1920.87 29.9213;
#X connect 0 0 3 0;
#X connect 2 0 20 0;
#X connect 2 1 20 1;
#X connect 4 0 2 0;
#X connect 7 0 1 1;
#X connect 8 0 1 0;
#X connect 9 0 12 0;
#X connect 10 0 9 0;
#X connect 11 0 9 0;
#X connect 12 0 18 0;
#X connect 13 0 0 0;
#X connect 14 0 15 0;
#X connect 15 0 9 0;
#X connect 16 0 9 0;
#X connect 17 0 13 0;
#X connect 18 0 17 0;
#X connect 19 0 9 0;
#X connect 20 0 5 0;
#X connect 20 1 6 0;
