#N canvas 625 173 1348 1071 12;
#X obj 728 236 chaos-loops;
#X msg 730 157 start;
#X msg 803 154 mult 2;
#X obj 902 122 tgl 15 0 empty empty empty 17 7 0 10 -262144 -1 -1 1
1;
#X msg 902 142 loop \$1;
#X obj 723 694 simple-fm-synth;
#A saved 6.22284 749.524 64.9213 546.878 660.735 53.0727 16.5906 546.878
7.11296 0.607077 3.01;
#X obj 728 260 note-scaler;
#A saved 30.6365 4 0 0;
#X obj 725 461 quantiser;
#A saved 1 0 1 1 0 1 0 1 1 0 1 0 1 0;
#X obj 723 886 s~ mixer1;
#X obj 1467 949 pack f f;
#X obj 1467 925 makenote 80 250;
#X obj 723 646 makenote 80 250;
#X obj 723 670 pack f f;
#X obj 203 288 r~ mixer1;
#X obj 203 312 simple-volume;
#A saved 0.8 1 0.5;
#X obj 203 504 rev3-ui;
#A saved 0.80315 82.6772 1063.39 57.4803;
#X obj 203 630 dac~;
#X msg 981 149 clock 240;
#X obj 627 261 print cl;
#X msg 642 146 stop;
#X floatatom 872 615 5 0 0 0 - - -;
#X obj 726 379 bernoulli-gate-ui;
#A saved 0.16;
#X msg 775 91 divide 2;
#X connect 0 0 6 0;
#X connect 1 0 0 0;
#X connect 2 0 0 0;
#X connect 3 0 4 0;
#X connect 4 0 0 0;
#X connect 5 0 8 0;
#X connect 6 0 21 0;
#X connect 7 0 11 0;
#X connect 10 0 9 0;
#X connect 10 1 9 1;
#X connect 11 0 12 0;
#X connect 11 1 12 1;
#X connect 12 0 5 0;
#X connect 13 0 14 0;
#X connect 14 0 15 0;
#X connect 14 1 15 1;
#X connect 15 0 16 0;
#X connect 15 1 16 1;
#X connect 17 0 0 0;
#X connect 19 0 0 0;
#X connect 20 0 11 2;
#X connect 21 0 7 0;
#X connect 22 0 0 0;
