#N canvas 995 51 1224 1175 12;
#X obj 121 895 live-grains;
#X obj 129 940 simple-volume;
#A saved 0.8 0 0.5;
#X obj 129 1107 dac~;
#X floatatom 571 718 5 0 0 0 - - -;
#X msg 571 741 offset \$1;
#X floatatom 684 713 5 0 0 0 - - -;
#X msg 684 736 error \$1;
#X obj 141 191 phase-vocoder-ui;
#X obj 703 454 chaos-loops;
#X msg 698 362 start;
#X obj 546 487 chaos-loops;
#X msg 541 395 start;
#X obj 546 511 * 10;
#X msg 613 292 mult 2;
#X msg 770 382 mult 0.5;
#X obj 703 478 * 0.2;
#X obj 703 502 + 0.95;
#X obj 533 582 bernoulli-gate-ui;
#A saved 0.42;
#X obj 737 596 bernoulli-gate-ui;
#A saved 0.58;
#X obj 711 682 line;
#X msg 712 653 \$1 500;
#X obj 724 153 chaos-loops;
#X msg 719 61 start;
#X msg 778 76 mult 2;
#X obj 724 224 bernoulli-gate-ui;
#A saved 0.9;
#X msg 724 269 location \$1;
#X obj 862 61 tgl 15 0 empty empty empty 17 7 0 10 -262144 -1 -1 1
1;
#X msg 862 81 loop \$1;
#X connect 0 0 1 0;
#X connect 1 0 2 0;
#X connect 1 1 2 1;
#X connect 3 0 4 0;
#X connect 4 0 0 1;
#X connect 5 0 6 0;
#X connect 6 0 0 1;
#X connect 7 0 0 0;
#X connect 8 0 15 0;
#X connect 9 0 8 0;
#X connect 10 0 12 0;
#X connect 11 0 10 0;
#X connect 12 0 17 0;
#X connect 13 0 10 0;
#X connect 14 0 8 0;
#X connect 15 0 16 0;
#X connect 16 0 18 0;
#X connect 17 0 3 0;
#X connect 18 0 20 0;
#X connect 19 0 5 0;
#X connect 20 0 19 0;
#X connect 21 0 24 0;
#X connect 22 0 21 0;
#X connect 23 0 21 0;
#X connect 24 0 25 0;
#X connect 25 0 7 0;
#X connect 26 0 27 0;
#X connect 27 0 21 0;
