#N canvas 178 25 1478 1313 12;
#X obj 209 376 *~;
#X obj 320 815 osc~;
#X obj 289 862 *~;
#X obj 351 989 hip~;
#N canvas 605 302 786 436 white-pink-noise 0;
#X obj 123 135 rpole~ 0.995728;
#X obj 125 189 rpole~ 0.947906;
#X obj 123 242 rpole~ 0.535675;
#X obj 140 106 rzero~ 0.984436;
#X obj 140 164 rzero~ 0.833923;
#X obj 139 214 rzero~ 0.0756836;
#X obj 123 320 outlet~;
#X obj 57 79 noise~;
#X text 195 296 normalization factor was found empirically;
#X obj 123 294 *~ 0.17;
#N canvas 172 83 586 377 LICENSE-GPL 0;
#X text 57 88 This program is free software: you can redistribute it
and/or modify it under the terms of the GNU General Public License
as published by the Free Software Foundation \, either version 3 of
the License \, or (at your option) any later version.;
#X text 58 168 This program is distributed in the hope that it will
be useful \, but WITHOUT ANY WARRANTY \; without even the implied warranty
of MERCHANTABILITY or FITNESS FOR A PARTICULAR PURPOSE. See the GNU
General Public License for more details.;
#X text 57 261 You should have received a copy of the GNU General Public
License along with this program. If not \, see <http://www.gnu.org/licenses/>.
;
#X text 61 54 Copyright (C) 2009 \, Reality Jockey Ltd.;
#X text 60 325 See the file LICENSE.txt for the full license text.
;
#X restore 493 24 pd LICENSE-GPL;
#X text 307 120 pulled from the s_pinknoise abstraction in the rjlib
;
#X obj 57 320 outlet~;
#X connect 0 0 4 0;
#X connect 1 0 5 0;
#X connect 2 0 9 0;
#X connect 3 0 0 0;
#X connect 4 0 1 0;
#X connect 5 0 2 0;
#X connect 7 0 3 0;
#X connect 7 0 12 0;
#X connect 9 0 6 0;
#X restore 41 284 pd white-pink-noise;
#X obj 491 1180 outlet~;
#X obj 273 922 *~;
#X obj 288 954 *~;
#X obj 230 291 r \$0-noisemod;
#X msg 230 315 \$1 10;
#X obj 230 339 line;
#X obj 209 400 +~ 1;
#X obj 219 436 *~;
#X msg 349 374 \$1 10;
#X obj 349 398 line;
#X msg 403 905 \$1 10;
#X obj 403 929 line;
#X obj 403 881 r \$0-hipass;
#X msg 372 617 \$1 10;
#X obj 372 641 line;
#X obj 342 705 +~;
#X obj 219 460 osc~;
#X obj 349 350 r \$0-modfreq;
#X obj 281 589 *~;
#X msg 290 527 \$1 10;
#X obj 290 551 line;
#X obj 290 503 r \$0-moddepth;
#X obj 373 593 r \$0-freq;
#X obj 216 749 *~;
#X obj 200 809 *~;
#X obj 482 1095 *~;
#X obj 513 1031 ad-env 10 500 2500;
#X floatatom 123 340 5 0 0 0 - - -;
#X floatatom 411 381 5 0 0 0 - - -;
#X floatatom 353 535 5 0 0 0 - - -;
#X floatatom 429 626 5 0 0 0 - - -;
#X floatatom 458 912 5 0 0 0 - - -;
#X msg 570 886 attack \$1;
#X obj 570 861 r \$0-vol-env-attack;
#X obj 614 912 r \$0-vol-env-time;
#X msg 614 936 time \$1;
#X obj 641 961 r \$0-vol-env-decay;
#X msg 641 985 decay \$1;
#X obj 512 550 ad-env 10 500 2500;
#X msg 569 405 attack \$1;
#X msg 613 455 time \$1;
#X msg 640 504 decay \$1;
#X obj 505 628 *~;
#X obj 505 652 +~ 1;
#X obj 342 729 *~;
#X obj 497 502 r \$0-trig;
#X obj 506 960 r \$0-trig;
#X floatatom 492 429 5 0 0 0 - - -;
#X floatatom 542 462 5 0 0 0 - - -;
#X floatatom 661 548 5 0 0 0 - - -;
#X floatatom 564 627 5 0 0 0 - - -;
#X floatatom 531 918 5 0 0 0 - - -;
#X floatatom 563 995 5 0 0 0 - - -;
#X floatatom 718 988 5 0 0 0 - - -;
#X obj 367 204 ad-env 10 500 2500;
#X msg 424 59 attack \$1;
#X msg 468 109 time \$1;
#X msg 495 158 decay \$1;
#X obj 360 282 *~;
#X obj 352 156 r \$0-trig;
#X floatatom 347 83 5 0 0 0 - - -;
#X floatatom 397 116 5 0 0 0 - - -;
#X floatatom 516 202 5 0 0 0 - - -;
#X floatatom 419 281 5 0 0 0 - - -;
#X obj 424 34 r \$0-mod-freq-env-attack;
#X obj 468 85 r \$0-mod-freq-env-time;
#X obj 495 134 r \$0-mod-freq-env-decay;
#X obj 397 241 r \$0-mod-freq-env-depth;
#X obj 569 380 r \$0-freq-env-attack;
#X obj 613 431 r \$0-freq-env-time;
#X obj 640 480 r \$0-freq-env-decay;
#X obj 542 587 r \$0-freq-env-depth;
#X obj 61 40 inlet;
#X obj 61 64 t b;
#X obj 61 88 s \$0-trig;
#X obj 1187 35 inlet;
#X obj 1187 179 dispatch \$0 mod-freq-env-attack;
#X obj 1187 203 dispatch \$0 mod-freq-env-time;
#X obj 1187 227 dispatch \$0 mod-freq-env-decay;
#X obj 1187 251 dispatch \$0 mod-freq-env-depth;
#X obj 1187 275 dispatch \$0 freq-env-attack;
#X obj 1187 299 dispatch \$0 freq-env-time;
#X obj 1187 323 dispatch \$0 freq-env-decay;
#X obj 1187 347 dispatch \$0 freq-env-depth;
#X obj 1187 371 dispatch \$0 vol-env-attack;
#X obj 1187 395 dispatch \$0 vol-env-time;
#X obj 1187 419 dispatch \$0 vol-env-decay;
#X obj 1187 131 dispatch \$0 freq 200;
#X obj 1187 59 dispatch \$0 noisemod 0.5;
#X obj 1187 83 dispatch \$0 modfreq 200;
#X obj 1187 107 dispatch \$0 moddepth 0.1;
#X obj 1187 155 dispatch \$0 hipass 750;
#X connect 0 0 11 0;
#X connect 1 0 2 0;
#X connect 1 0 2 1;
#X connect 1 0 7 1;
#X connect 1 0 28 1;
#X connect 2 0 6 0;
#X connect 2 0 6 1;
#X connect 3 0 30 0;
#X connect 4 1 0 0;
#X connect 6 0 7 0;
#X connect 7 0 3 0;
#X connect 8 0 9 0;
#X connect 8 0 32 0;
#X connect 9 0 10 0;
#X connect 10 0 0 1;
#X connect 11 0 12 0;
#X connect 12 0 21 0;
#X connect 13 0 14 0;
#X connect 14 0 12 1;
#X connect 15 0 16 0;
#X connect 16 0 3 1;
#X connect 17 0 15 0;
#X connect 17 0 36 0;
#X connect 18 0 19 0;
#X connect 19 0 20 1;
#X connect 20 0 49 0;
#X connect 21 0 23 0;
#X connect 21 0 28 0;
#X connect 22 0 13 0;
#X connect 22 0 33 0;
#X connect 23 0 20 0;
#X connect 24 0 25 0;
#X connect 25 0 23 1;
#X connect 26 0 24 0;
#X connect 26 0 34 0;
#X connect 27 0 18 0;
#X connect 27 0 35 0;
#X connect 28 0 29 0;
#X connect 28 0 29 1;
#X connect 29 0 3 0;
#X connect 30 0 5 0;
#X connect 31 0 30 1;
#X connect 37 0 31 1;
#X connect 38 0 37 0;
#X connect 38 0 56 0;
#X connect 39 0 40 0;
#X connect 39 0 57 0;
#X connect 40 0 31 1;
#X connect 41 0 42 0;
#X connect 41 0 58 0;
#X connect 42 0 31 1;
#X connect 43 0 47 0;
#X connect 44 0 43 1;
#X connect 45 0 43 1;
#X connect 46 0 43 1;
#X connect 47 0 48 0;
#X connect 48 0 49 1;
#X connect 49 0 1 0;
#X connect 50 0 43 0;
#X connect 51 0 31 0;
#X connect 59 0 63 0;
#X connect 60 0 59 1;
#X connect 61 0 59 1;
#X connect 62 0 59 1;
#X connect 63 0 12 0;
#X connect 64 0 59 0;
#X connect 69 0 60 0;
#X connect 69 0 65 0;
#X connect 70 0 61 0;
#X connect 70 0 66 0;
#X connect 71 0 62 0;
#X connect 71 0 67 0;
#X connect 72 0 63 1;
#X connect 72 0 68 0;
#X connect 73 0 44 0;
#X connect 73 0 52 0;
#X connect 74 0 45 0;
#X connect 74 0 53 0;
#X connect 75 0 46 0;
#X connect 75 0 54 0;
#X connect 76 0 47 1;
#X connect 76 0 55 0;
#X connect 77 0 78 0;
#X connect 78 0 79 0;
#X connect 80 0 93 0;
#X connect 81 0 82 0;
#X connect 82 0 83 0;
#X connect 83 0 84 0;
#X connect 84 0 85 0;
#X connect 85 0 86 0;
#X connect 86 0 87 0;
#X connect 87 0 88 0;
#X connect 88 0 89 0;
#X connect 89 0 90 0;
#X connect 90 0 91 0;
#X connect 92 0 96 0;
#X connect 93 0 94 0;
#X connect 94 0 95 0;
#X connect 95 0 92 0;
#X connect 96 0 81 0;
