#N canvas 803 156 1757 937 12;
#X obj 944 82 inlet;
#X obj 134 678 hi-tone;
#X obj 197 678 lo-tone;
#X obj 245 788 outlet~;
#X obj 944 154 dispatch \$0 sequence;
#X obj 944 178 dispatch \$0 tones;
#X obj 944 202 dispatch \$0 activity;
#X obj 75 65 t l l;
#X obj 107 89 mod-seq;
#X obj 107 137 list trim;
#X obj 245 764 *~;
#X obj 282 656 r \$0-volume;
#X msg 282 680 \$1 10;
#X obj 282 704 line;
#X obj 75 209 list trim;
#X obj 107 161 s \$0-lo;
#X obj 75 233 s \$0-hi;
#X obj 75 41 r \$0-sequence;
#X obj 107 113 list prepend sequence;
#X obj 75 185 list prepend sequence;
#X obj 134 654 r \$0-hi;
#X obj 197 654 r \$0-lo;
#X obj 381 44 r \$0-tones;
#X obj 435 191 until;
#X obj 447 266 list store;
#X msg 435 239 get \$1 1;
#X obj 435 215 counter;
#X obj 381 358 list store, f 36;
#X obj 381 153 t b b b l b, f 31;
#X msg 447 327 append \$1;
#X obj 396 75 list prepend tones;
#X obj 396 99 list trim;
#X obj 396 123 s \$0-hi;
#X obj 381 382 list prepend tones;
#X obj 381 406 list trim;
#X obj 381 430 s \$0-lo;
#X obj 944 226 dispatch \$0 duration;
#X obj 944 250 dispatch \$0 volume 0.2;
#X obj 731 79 r \$0-activity;
#X obj 731 103 t b f;
#X obj 763 127 * 9;
#X obj 731 151 random;
#X obj 731 175 + 4;
#X obj 739 199 * 250;
#X msg 739 223 pause \$1;
#X obj 739 247 s \$0-hi;
#X obj 731 271 + 2;
#X obj 731 295 * 250;
#X msg 731 319 pause \$1;
#X obj 731 343 s \$0-lo;
#X obj 869 590 t b f;
#X obj 869 638 random;
#X obj 877 686 s \$0-hi;
#X obj 869 710 s \$0-lo;
#X obj 1227 587 t b f;
#X obj 1227 635 random;
#X obj 1199 744 s \$0-lo;
#X obj 1259 611 * 8;
#X obj 1199 672 + 2;
#X obj 1328 682 + 1;
#X obj 944 106 route coms;
#X obj 944 274 dispatch \$0 start;
#X obj 955 378 r \$0-start;
#X msg 955 402 start;
#X obj 955 426 s \$0-hi;
#X obj 1046 379 r \$0-start;
#X msg 1046 403 start;
#X obj 1046 427 s \$0-lo;
#X obj 447 297 - 24;
#X msg 885 393 stop;
#X obj 1328 754 s \$0-hi;
#X obj 1227 563 r \$0-activity;
#X obj 869 566 r \$0-duration;
#X obj 992 592 t b f;
#X obj 992 640 random;
#X obj 1000 736 s \$0-hi;
#X obj 992 760 s \$0-lo;
#X obj 992 568 r \$0-duration;
#X obj 1024 616 * 10;
#X msg 992 712 pause \$1;
#X obj 1199 696 * 20;
#X obj 1328 706 * 20;
#X obj 269 601 morse-code;
#X obj 992 688 * 25;
#X msg 1199 720 time \$1;
#X msg 1328 730 time \$1;
#X msg 869 662 repeats \$1;
#X obj 901 614 * 5;
#X obj 992 664 + 2;
#X obj 948 305 route morse;
#X obj 948 329 s \$0-to-morse;
#X obj 269 577 r \$0-to-morse;
#X connect 0 0 60 0;
#X connect 1 0 10 0;
#X connect 2 0 10 0;
#X connect 4 0 5 0;
#X connect 5 0 6 0;
#X connect 6 0 36 0;
#X connect 7 0 19 0;
#X connect 7 1 8 0;
#X connect 8 0 18 0;
#X connect 9 0 15 0;
#X connect 10 0 3 0;
#X connect 11 0 12 0;
#X connect 12 0 13 0;
#X connect 13 0 10 1;
#X connect 14 0 16 0;
#X connect 17 0 7 0;
#X connect 18 0 9 0;
#X connect 19 0 14 0;
#X connect 20 0 1 0;
#X connect 21 0 2 0;
#X connect 22 0 28 0;
#X connect 22 0 30 0;
#X connect 23 0 26 0;
#X connect 24 0 68 0;
#X connect 24 1 23 1;
#X connect 25 0 24 0;
#X connect 26 0 25 0;
#X connect 27 0 33 0;
#X connect 28 0 27 0;
#X connect 28 1 23 0;
#X connect 28 2 26 2;
#X connect 28 3 24 1;
#X connect 28 4 27 1;
#X connect 29 0 27 0;
#X connect 30 0 31 0;
#X connect 31 0 32 0;
#X connect 33 0 34 0;
#X connect 34 0 35 0;
#X connect 36 0 37 0;
#X connect 37 0 61 0;
#X connect 38 0 39 0;
#X connect 39 0 41 0;
#X connect 39 1 40 0;
#X connect 40 0 41 1;
#X connect 41 0 42 0;
#X connect 42 0 43 0;
#X connect 42 0 46 0;
#X connect 43 0 44 0;
#X connect 44 0 45 0;
#X connect 46 0 47 0;
#X connect 47 0 48 0;
#X connect 48 0 49 0;
#X connect 50 0 51 0;
#X connect 50 1 87 0;
#X connect 51 0 86 0;
#X connect 54 0 55 0;
#X connect 54 1 57 0;
#X connect 55 0 58 0;
#X connect 55 0 59 0;
#X connect 57 0 55 1;
#X connect 58 0 80 0;
#X connect 59 0 81 0;
#X connect 60 0 4 0;
#X connect 61 0 89 0;
#X connect 62 0 63 0;
#X connect 63 0 64 0;
#X connect 65 0 66 0;
#X connect 66 0 67 0;
#X connect 68 0 29 0;
#X connect 69 0 64 0;
#X connect 69 0 67 0;
#X connect 71 0 54 0;
#X connect 72 0 50 0;
#X connect 73 0 74 0;
#X connect 73 1 78 0;
#X connect 74 0 88 0;
#X connect 77 0 73 0;
#X connect 78 0 74 1;
#X connect 79 0 75 0;
#X connect 79 0 76 0;
#X connect 80 0 84 0;
#X connect 81 0 85 0;
#X connect 82 0 10 0;
#X connect 83 0 79 0;
#X connect 84 0 56 0;
#X connect 85 0 70 0;
#X connect 86 0 52 0;
#X connect 86 0 53 0;
#X connect 87 0 51 1;
#X connect 88 0 83 0;
#X connect 89 0 90 0;
#X connect 91 0 82 0;
