#N canvas 983 485 1033 691 12;
#X obj 218 154 random 10;
#X obj 218 178 + 5;
#X obj 137 81 inlet;
#X obj 218 202 until;
#X obj 242 367 list store;
#X msg 233 297 append \$1;
#X obj 137 105 t b b b, f 37;
#X obj 98 53 bng 15 250 50 0 empty empty empty 17 7 0 10 -262144 -1
-1;
#X obj 233 249 random 15;
#X obj 233 273 + 1;
#X obj 242 391 outlet;
#X obj 493 60 inlet;
#X obj 493 84 dispatch \$0 length 10;
#X obj 298 131 r \$0-length;
#X connect 0 0 1 0;
#X connect 1 0 3 0;
#X connect 2 0 6 0;
#X connect 3 0 8 0;
#X connect 4 0 10 0;
#X connect 5 0 4 0;
#X connect 6 0 4 0;
#X connect 6 1 0 0;
#X connect 6 2 4 1;
#X connect 7 0 6 0;
#X connect 8 0 9 0;
#X connect 9 0 5 0;
#X connect 11 0 12 0;
#X connect 13 0 0 1;
