#N canvas 474 238 1109 1001 12;
#X obj 407 746 simple-fm-voice;
#X obj 812 229 dispatch \$0 pause;
#X obj 461 269 rhythm-player;
#X obj 442 149 r \$0-stop;
#X msg 442 173 stop;
#X obj 812 277 dispatch \$0 start;
#X obj 812 301 dispatch \$0 stop;
#X obj 345 150 r \$0-start;
#X msg 345 174 start;
#X obj 417 572 loadbang;
#X msg 443 622 op1-decay 0;
#X obj 432 323 t b;
#X obj 407 774 outlet~;
#X obj 390 539 pack f f;
#X obj 390 515 makenote 100 500;
#X msg 562 619 op2-decay 0;
#X msg 560 666 op2-sustain 20;
#X obj 525 222 list trim;
#X obj 715 533 r \$0-start;
#X obj 715 557 t b;
#X obj 715 581 random 30;
#X obj 715 605 + 10;
#X msg 715 629 op2-sustain \$1;
#X obj 829 621 r \$0-start;
#X obj 829 645 t b;
#X obj 829 669 random 100;
#X obj 829 693 - 50;
#X obj 829 717 / 200;
#X obj 829 741 + 1;
#X msg 829 765 op2-freq \$1;
#X obj 255 158 r \$0-pause;
#X msg 255 182 pause \$1;
#X obj 812 157 inlet;
#X obj 812 325 dispatch \$0 tones 65;
#X obj 498 352 r \$0-tones;
#X obj 461 404 f;
#X obj 498 376 list split 1;
#X floatatom 703 181 5 0 0 0 - - -;
#X obj 812 181 dispatch \$0 sequence;
#X obj 525 174 r \$0-sequence;
#X obj 525 198 list prepend sequence;
#X obj 496 469 * 3;
#X msg 562 595 op2-attack 0.1;
#X msg 443 598 op1-attack 0.1;
#X msg 443 645 op1-release 0.1;
#X msg 562 642 op2-release 0.1;
#X obj 812 205 dispatch \$0 time;
#X msg 687 218 time \$1;
#X obj 812 253 dispatch \$0 repeats;
#X obj 496 445 r \$0-time;
#X obj 160 155 r \$0-repeats;
#X msg 160 179 repeats \$1;
#X obj 687 149 r \$0-time;
#X connect 0 0 12 0;
#X connect 1 0 48 0;
#X connect 2 0 11 0;
#X connect 3 0 4 0;
#X connect 4 0 2 0;
#X connect 5 0 6 0;
#X connect 6 0 33 0;
#X connect 7 0 8 0;
#X connect 8 0 2 0;
#X connect 9 0 43 0;
#X connect 9 0 10 0;
#X connect 9 0 44 0;
#X connect 9 0 42 0;
#X connect 9 0 15 0;
#X connect 9 0 45 0;
#X connect 9 0 16 0;
#X connect 10 0 0 1;
#X connect 11 0 35 0;
#X connect 13 0 0 0;
#X connect 14 0 13 0;
#X connect 14 1 13 1;
#X connect 15 0 0 1;
#X connect 16 0 0 1;
#X connect 17 0 2 0;
#X connect 18 0 19 0;
#X connect 19 0 20 0;
#X connect 20 0 21 0;
#X connect 21 0 22 0;
#X connect 22 0 0 1;
#X connect 23 0 24 0;
#X connect 24 0 25 0;
#X connect 25 0 26 0;
#X connect 26 0 27 0;
#X connect 27 0 28 0;
#X connect 28 0 29 0;
#X connect 29 0 0 1;
#X connect 30 0 31 0;
#X connect 31 0 2 0;
#X connect 32 0 38 0;
#X connect 34 0 36 0;
#X connect 35 0 14 0;
#X connect 36 0 35 1;
#X connect 38 0 46 0;
#X connect 39 0 40 0;
#X connect 40 0 17 0;
#X connect 41 0 14 2;
#X connect 42 0 0 1;
#X connect 43 0 0 1;
#X connect 44 0 0 1;
#X connect 45 0 0 1;
#X connect 46 0 1 0;
#X connect 47 0 2 0;
#X connect 48 0 5 0;
#X connect 49 0 41 0;
#X connect 50 0 51 0;
#X connect 51 0 2 0;
#X connect 52 0 47 0;
#X connect 52 0 37 0;
