#N canvas 1226 281 1018 716 12;
#X obj 110 269 osc~ 0.1;
#X obj 475 241 inlet;
#X obj 110 407 *~;
#X obj 128 302 r \$0-moddepth;
#X msg 128 326 \$1 100;
#X obj 128 350 line~;
#X obj 110 488 *~;
#X msg 154 419 \$1 100;
#X obj 154 443 line~;
#X obj 110 521 +~;
#X obj 110 545 osc~;
#X obj 154 395 r \$0-basefreq;
#X obj 110 569 outlet~;
#X obj 210 129 r \$0-basefreq;
#X obj 110 129 r \$0-modratio;
#X obj 110 197 *;
#X obj 210 153 t b f;
#X msg 110 221 \$1 100;
#X obj 110 245 line~;
#X obj 475 265 dispatch \$0 basefreq \$1;
#X obj 475 289 dispatch \$0 modratio \$2;
#X obj 475 313 dispatch \$0 moddepth \$3;
#X connect 0 0 2 0;
#X connect 1 0 19 0;
#X connect 2 0 6 0;
#X connect 3 0 4 0;
#X connect 4 0 5 0;
#X connect 5 0 2 1;
#X connect 6 0 9 0;
#X connect 7 0 8 0;
#X connect 8 0 6 1;
#X connect 8 0 9 1;
#X connect 9 0 10 0;
#X connect 10 0 12 0;
#X connect 11 0 7 0;
#X connect 13 0 16 0;
#X connect 14 0 15 0;
#X connect 15 0 17 0;
#X connect 16 0 15 0;
#X connect 16 1 15 1;
#X connect 17 0 18 0;
#X connect 18 0 0 0;
#X connect 19 0 20 0;
#X connect 20 0 21 0;
