#N canvas 1303 163 1230 1224 12;
#X obj 348 642 simple-fm-voice;
#X obj 697 91 inlet;
#X obj 697 163 dispatch \$0 pause;
#X obj 697 187 dispatch \$0 count;
#X obj 346 203 rhythm-player;
#X obj 327 83 r \$0-stop;
#X msg 327 107 stop;
#X obj 697 211 dispatch \$0 start;
#X obj 697 235 dispatch \$0 stop;
#X obj 249 84 r \$0-start;
#X msg 249 108 start;
#X obj 426 409 loadbang;
#X msg 452 459 op1-decay 0;
#X obj 266 245 t b;
#X obj 389 1015 outlet~;
#X msg 582 459 op2-decay 0;
#X msg 590 506 op2-freq 0.5;
#X obj 325 561 pack f f;
#X obj 325 537 makenote 100 500;
#X msg 588 531 op2-sustain 20;
#X obj 410 156 list trim;
#X obj 746 413 r \$0-start;
#X obj 746 437 t b;
#X obj 746 461 random 30;
#X obj 746 485 + 10;
#X msg 746 509 op2-sustain \$1;
#X obj 882 359 r \$0-start;
#X obj 882 383 t b;
#X obj 882 407 random 100;
#X obj 882 431 - 50;
#X msg 882 503 op2-freq \$1;
#X obj 882 455 / 400;
#X obj 882 479 + 0.5;
#X obj 167 82 r \$0-pause;
#X msg 167 106 pause \$1;
#X obj 697 139 dispatch \$0 scale;
#X obj 697 259 dispatch \$0 tones 41;
#X obj 329 332 r \$0-tones;
#X obj 292 384 f;
#X obj 329 356 list split 1;
#X obj 697 115 dispatch \$0 sequence;
#X obj 410 108 r \$0-sequence;
#X obj 363 496 * 3;
#X obj 410 132 list prepend sequence;
#X msg 452 435 op1-attack 0.1;
#X msg 452 482 op1-release 0.1;
#X msg 582 435 op2-attack 0.1;
#X msg 582 482 op2-release 0.1;
#X obj 74 82 r \$0-repeats;
#X msg 74 106 repeats \$1;
#X obj 572 87 r \$0-time;
#X msg 572 156 time \$1;
#X obj 363 472 r \$0-time;
#X connect 0 0 14 0;
#X connect 1 0 40 0;
#X connect 2 0 3 0;
#X connect 3 0 7 0;
#X connect 4 0 13 0;
#X connect 5 0 6 0;
#X connect 6 0 4 0;
#X connect 7 0 8 0;
#X connect 8 0 36 0;
#X connect 9 0 10 0;
#X connect 10 0 4 0;
#X connect 11 0 44 0;
#X connect 11 0 12 0;
#X connect 11 0 45 0;
#X connect 11 0 19 0;
#X connect 11 0 46 0;
#X connect 11 0 15 0;
#X connect 11 0 47 0;
#X connect 11 0 16 0;
#X connect 12 0 0 1;
#X connect 13 0 38 0;
#X connect 15 0 0 1;
#X connect 16 0 0 1;
#X connect 17 0 0 0;
#X connect 18 0 17 0;
#X connect 18 1 17 1;
#X connect 19 0 0 1;
#X connect 20 0 4 0;
#X connect 21 0 22 0;
#X connect 22 0 23 0;
#X connect 23 0 24 0;
#X connect 24 0 25 0;
#X connect 25 0 0 1;
#X connect 26 0 27 0;
#X connect 27 0 28 0;
#X connect 28 0 29 0;
#X connect 29 0 31 0;
#X connect 30 0 0 1;
#X connect 31 0 32 0;
#X connect 32 0 30 0;
#X connect 33 0 34 0;
#X connect 34 0 4 0;
#X connect 35 0 2 0;
#X connect 37 0 39 0;
#X connect 38 0 18 0;
#X connect 39 0 38 1;
#X connect 40 0 35 0;
#X connect 41 0 43 0;
#X connect 42 0 18 2;
#X connect 43 0 20 0;
#X connect 44 0 0 1;
#X connect 45 0 0 1;
#X connect 46 0 0 1;
#X connect 47 0 0 1;
#X connect 48 0 49 0;
#X connect 49 0 4 0;
#X connect 50 0 51 0;
#X connect 51 0 4 0;
#X connect 52 0 42 0;
