#N canvas 726 80 1792 1010 12;
#X obj 554 864 dac~;
#X obj 552 795 noise;
#X obj 402 453 muzac;
#X obj 588 437 vox;
#X obj 243 175 s \$0-from-conductor;
#X obj 94 418 r \$0-from-conductor;
#X obj 764 766 r \$0-from-conductor;
#X obj 390 384 r \$0-from-conductor;
#X obj 560 380 r \$0-from-conductor;
#X obj 118 477 coms;
#X obj 605 598 *~;
#X obj 623 578 tgl 15 0 empty empty empty 17 7 0 10 -262144 -1 -1 1
1;
#X obj 623 530 loadbang;
#X msg 623 554 1;
#X obj 236 587 *~;
#X obj 254 567 tgl 15 0 empty empty empty 17 7 0 10 -262144 -1 -1 1
1;
#X obj 254 519 loadbang;
#X msg 254 543 1;
#X obj 432 584 *~;
#X obj 450 564 tgl 15 0 empty empty empty 17 7 0 10 -262144 -1 -1 1
1;
#X obj 450 516 loadbang;
#X msg 450 540 1;
#X obj 761 661 tgl 15 0 empty empty empty 17 7 0 10 -262144 -1 -1 0
1;
#X obj 761 681 * 0.1;
#X msg 761 709 noise volume \$1;
#X obj 705 530 atmospherics;
#X obj 710 635 *~;
#X obj 728 615 tgl 15 0 empty empty empty 17 7 0 10 -262144 -1 -1 1
1;
#X obj 728 567 loadbang;
#X msg 728 591 1;
#X obj 736 397 r \$0-from-conductor;
#X obj 243 151 conductor;
#X connect 1 0 0 0;
#X connect 1 0 0 1;
#X connect 2 0 18 0;
#X connect 3 0 10 0;
#X connect 5 0 9 0;
#X connect 6 0 1 1;
#X connect 7 0 2 0;
#X connect 8 0 3 0;
#X connect 9 0 14 0;
#X connect 10 0 1 0;
#X connect 11 0 10 1;
#X connect 12 0 13 0;
#X connect 13 0 11 0;
#X connect 14 0 1 0;
#X connect 15 0 14 1;
#X connect 16 0 17 0;
#X connect 17 0 15 0;
#X connect 18 0 1 0;
#X connect 19 0 18 1;
#X connect 20 0 21 0;
#X connect 21 0 19 0;
#X connect 22 0 23 0;
#X connect 23 0 24 0;
#X connect 24 0 1 1;
#X connect 25 0 26 0;
#X connect 26 0 1 0;
#X connect 27 0 26 1;
#X connect 28 0 29 0;
#X connect 29 0 27 0;
#X connect 30 0 25 0;
#X connect 31 0 4 0;
