#N canvas 704 222 1856 1190 12;
#X obj 1023 595 r \$0-delay;
#X msg 1023 619 \$1 100;
#X obj 1023 643 line~;
#X obj 816 842 *~;
#X msg 1136 617 \$1 100;
#X obj 1136 641 line~;
#X obj 1136 593 r \$0-delay-feedback;
#X obj 614 884 *~ 0.5;
#X obj 525 917 +~;
#X obj 422 142 inlet~;
#X obj 1194 95 inlet;
#X obj 1194 119 route effects;
#X obj 818 660 delread4~ \$0-main-delay;
#X obj 525 941 outlet~;
#X obj 477 872 *~ 0.75;
#X obj 556 581 delwrite~ \$0-main-delay 500;
#X msg 841 731 \$1 100;
#X obj 422 238 *~;
#X msg 440 190 \$1 100;
#X obj 440 214 line~;
#X obj 422 262 expr~ tanh($v1);
#X obj 440 166 r \$0-gain;
#X obj 841 707 r \$0-feedback-lopass;
#X obj 841 755 line;
#X obj 823 779 lop~;
#X obj 1194 191 dispatch \$0 feedback-lopass 1500;
#X obj 422 291 *~ 1.2;
#X obj 1194 215 dispatch \$0 gain 1.7;
#X obj 602 490 delay-allpass 89;
#X obj 602 453 delay-allpass 13;
#X obj 583 405 delay-allpass 61;
#X obj 1194 143 dispatch \$0 delay 25;
#X obj 1194 167 dispatch \$0 delay-feedback 0.1;
#X connect 0 0 1 0;
#X connect 1 0 2 0;
#X connect 2 0 12 0;
#X connect 3 0 30 0;
#X connect 4 0 5 0;
#X connect 5 0 3 1;
#X connect 6 0 4 0;
#X connect 7 0 8 1;
#X connect 8 0 13 0;
#X connect 9 0 17 0;
#X connect 10 0 11 0;
#X connect 11 0 31 0;
#X connect 12 0 24 0;
#X connect 12 0 7 0;
#X connect 14 0 8 0;
#X connect 16 0 23 0;
#X connect 17 0 20 0;
#X connect 18 0 19 0;
#X connect 19 0 17 1;
#X connect 20 0 26 0;
#X connect 21 0 18 0;
#X connect 22 0 16 0;
#X connect 23 0 24 1;
#X connect 24 0 3 0;
#X connect 25 0 27 0;
#X connect 26 0 14 0;
#X connect 26 0 30 0;
#X connect 28 0 15 0;
#X connect 29 0 28 0;
#X connect 30 0 29 0;
#X connect 31 0 32 0;
#X connect 32 0 25 0;
