#N canvas 874 357 789 682 12;
#X obj 115 84 inlet;
#X obj 175 177 until;
#X text 438 171 First store list \, then start the loop;
#X text 433 221 "until" bangs its output until told to stop by a "bang"
to its right inlet., f 38;
#X text 443 277 Store the remaining list.;
#X obj 188 252 list store;
#X msg 175 225 get \$1 1;
#X obj 175 201 counter;
#X obj 188 300 random 100;
#X obj 604 59 inlet;
#X obj 213 324 r \$0-chance;
#X obj 188 276 t b f;
#X obj 222 439 f;
#X obj 114 531 list store, f 36;
#X obj 139 448 random 20;
#X obj 139 472 + 1;
#X obj 121 139 t b b b l b, f 31;
#X obj 188 396 sel 0 1;
#X msg 187 497 append \$1;
#X obj 213 348 * 100;
#X obj 188 372 >;
#X obj 604 83 dispatch \$0 chance 0.2;
#X obj 114 555 outlet;
#X connect 0 0 16 0;
#X connect 1 0 7 0;
#X connect 5 0 11 0;
#X connect 5 1 1 1;
#X connect 6 0 5 0;
#X connect 7 0 6 0;
#X connect 8 0 20 0;
#X connect 9 0 21 0;
#X connect 10 0 19 0;
#X connect 11 0 8 0;
#X connect 11 1 12 1;
#X connect 12 0 18 0;
#X connect 13 0 22 0;
#X connect 14 0 15 0;
#X connect 15 0 18 0;
#X connect 16 0 13 0;
#X connect 16 1 1 0;
#X connect 16 2 7 2;
#X connect 16 3 5 1;
#X connect 16 4 13 1;
#X connect 17 0 14 0;
#X connect 17 1 12 0;
#X connect 18 0 13 0;
#X connect 19 0 20 1;
#X connect 20 0 17 0;
