#N canvas 1275 74 1042 702 12;
#X obj 462 161 inlet;
#X obj 315 252 sampleplayer;
#X obj 312 220 r \$0-to-sampler;
#X obj 462 185 route muzac;
#X obj 610 395 s \$0-to-sampler;
#X obj 480 275 route lfo;
#X obj 480 299 s \$0-vollfo;
#X obj 462 233 dispatch \$0 vollfodepth 0.05;
#X obj 462 209 dispatch \$0 volume 0.7;
#X obj 270 591 outlet~;
#X obj 311 398 lfo;
#X obj 490 398 r \$0-volume;
#X msg 490 422 \$1 100;
#X obj 311 374 r \$0-vollfo;
#X obj 311 477 *~;
#X msg 348 426 \$1 100;
#X obj 348 402 r \$0-vollfodepth;
#X obj 311 501 +~;
#X obj 348 450 line~;
#X obj 490 446 line~;
#X obj 270 567 *~;
#X connect 0 0 3 0;
#X connect 1 0 20 0;
#X connect 2 0 1 0;
#X connect 3 0 8 0;
#X connect 5 0 6 0;
#X connect 7 0 5 0;
#X connect 7 0 4 0;
#X connect 8 0 7 0;
#X connect 10 0 14 0;
#X connect 11 0 12 0;
#X connect 12 0 19 0;
#X connect 13 0 10 0;
#X connect 14 0 17 0;
#X connect 15 0 18 0;
#X connect 16 0 15 0;
#X connect 17 0 20 1;
#X connect 18 0 14 1;
#X connect 19 0 17 1;
#X connect 20 0 9 0;
