#N canvas 286 316 1855 807 12;
#X obj 1178 133 inlet;
#X obj 1178 157 route noise;
#X obj 1178 205 dispatch \$0 density 0.3;
#N canvas 605 302 786 436 white-pink-noise 0;
#X obj 123 135 rpole~ 0.995728;
#X obj 125 189 rpole~ 0.947906;
#X obj 123 242 rpole~ 0.535675;
#X obj 140 106 rzero~ 0.984436;
#X obj 140 164 rzero~ 0.833923;
#X obj 139 214 rzero~ 0.0756836;
#X obj 123 320 outlet~;
#X obj 57 79 noise~;
#X text 195 296 normalization factor was found empirically;
#X obj 123 294 *~ 0.17;
#N canvas 172 83 586 377 LICENSE-GPL 0;
#X text 57 88 This program is free software: you can redistribute it
and/or modify it under the terms of the GNU General Public License
as published by the Free Software Foundation \, either version 3 of
the License \, or (at your option) any later version.;
#X text 58 168 This program is distributed in the hope that it will
be useful \, but WITHOUT ANY WARRANTY \; without even the implied warranty
of MERCHANTABILITY or FITNESS FOR A PARTICULAR PURPOSE. See the GNU
General Public License for more details.;
#X text 57 261 You should have received a copy of the GNU General Public
License along with this program. If not \, see <http://www.gnu.org/licenses/>.
;
#X text 61 54 Copyright (C) 2009 \, Reality Jockey Ltd.;
#X text 60 325 See the file LICENSE.txt for the full license text.
;
#X restore 493 24 pd LICENSE-GPL;
#X text 307 120 pulled from the s_pinknoise abstraction in the rjlib
;
#X obj 57 320 outlet~;
#X connect 0 0 4 0;
#X connect 1 0 5 0;
#X connect 2 0 9 0;
#X connect 3 0 0 0;
#X connect 4 0 1 0;
#X connect 5 0 2 0;
#X connect 7 0 3 0;
#X connect 7 0 12 0;
#X connect 9 0 6 0;
#X restore 122 74 pd white-pink-noise;
#X obj 39 340 hip~ 50;
#X floatatom 1104 321 5 0 0 0 - - -;
#X obj 1104 344 s \$0-genmod;
#X floatatom 1197 318 5 0 0 0 - - -;
#X obj 1197 341 s \$0-genoffset;
#X floatatom 1315 315 5 0 0 0 - - -;
#X obj 1315 338 s \$0-gengain;
#X floatatom 1418 310 5 0 0 0 - - -;
#X obj 383 123 r \$0-genmod;
#X obj 344 166 *~;
#X obj 348 219 +~;
#X obj 374 183 r \$0-genoffset;
#X obj 348 243 osc~;
#X obj 353 296 *~;
#X obj 398 260 r \$0-gengain;
#X obj 353 344 *~;
#X obj 353 320 clip~ -1 1;
#X obj 349 415 hip~;
#X obj 382 370 r \$0-genhipass;
#X obj 1417 333 s \$0-genhipass;
#X obj 210 663 *~;
#X obj 98 475 +~ 1;
#X obj 230 562 r \$0-volume;
#X msg 230 586 \$1 10;
#X obj 230 610 line~;
#X obj 420 424 lfo 0.0037 1.177 3.25;
#X obj 420 474 +~ 1;
#X obj 420 450 *~ 0.5;
#X obj 52 532 *~;
#X obj 373 536 *~;
#X obj 270 755 outlet~;
#X obj 1178 181 dispatch \$0 volume 0.1;
#X obj 1103 486 loadbang;
#X obj 1103 534 s \$0-genmod;
#X obj 98 425 lfo 0.0027 1.137 2.25;
#X obj 1202 484 loadbang;
#X msg 1202 508 0.1;
#X obj 1312 483 loadbang;
#X obj 1202 532 s \$0-genoffset;
#X obj 1312 531 s \$0-gengain;
#X obj 1423 478 loadbang;
#X obj 1423 526 s \$0-hipass;
#X msg 1423 502 2500;
#X msg 1312 507 750;
#X msg 1103 510 50;
#X obj 707 347 inlet~;
#X obj 420 498 *~ 1;
#X obj 98 451 *~ 0.5;
#X obj 98 499 *~ 0.5;
#X floatatom 979 311 5 0 0 0 - - -;
#X obj 979 334 s \$0-volume;
#X obj 667 563 main-effects;
#X obj 400 685 *~;
#X obj 360 599 *~;
#X obj 360 623 +~ 1;
#X obj 429 537 r \$0-noisemod;
#X msg 429 561 \$1 10;
#X obj 429 585 line;
#X floatatom 581 540 5 0 0 0 - - -;
#X obj 39 364 lop~ 250;
#X obj 1178 229 dispatch \$0 noisemod 0.05;
#X connect 0 0 1 0;
#X connect 1 0 35 0;
#X connect 2 0 64 0;
#X connect 3 0 57 0;
#X connect 3 0 4 0;
#X connect 3 1 13 0;
#X connect 3 1 4 0;
#X connect 4 0 63 0;
#X connect 5 0 6 0;
#X connect 7 0 8 0;
#X connect 9 0 10 0;
#X connect 11 0 23 0;
#X connect 12 0 13 1;
#X connect 13 0 14 0;
#X connect 14 0 16 0;
#X connect 15 0 14 1;
#X connect 16 0 17 0;
#X connect 17 0 20 0;
#X connect 18 0 17 1;
#X connect 19 0 21 0;
#X connect 20 0 19 0;
#X connect 20 0 19 1;
#X connect 21 0 33 0;
#X connect 22 0 21 1;
#X connect 24 0 34 0;
#X connect 25 0 52 0;
#X connect 26 0 27 0;
#X connect 27 0 28 0;
#X connect 28 0 24 1;
#X connect 29 0 31 0;
#X connect 30 0 50 0;
#X connect 31 0 30 0;
#X connect 32 0 24 0;
#X connect 33 0 24 0;
#X connect 33 0 57 0;
#X connect 35 0 2 0;
#X connect 36 0 48 0;
#X connect 38 0 51 0;
#X connect 39 0 40 0;
#X connect 40 0 42 0;
#X connect 41 0 47 0;
#X connect 44 0 46 0;
#X connect 46 0 45 0;
#X connect 47 0 43 0;
#X connect 48 0 37 0;
#X connect 49 0 55 0;
#X connect 50 0 33 1;
#X connect 51 0 25 0;
#X connect 52 0 32 1;
#X connect 53 0 54 0;
#X connect 55 0 56 1;
#X connect 56 0 34 0;
#X connect 57 0 58 0;
#X connect 58 0 56 0;
#X connect 59 0 60 0;
#X connect 60 0 61 0;
#X connect 61 0 57 1;
#X connect 62 0 60 0;
#X connect 63 0 32 0;
