#N canvas 759 310 1969 870 12;
#X obj 968 141 inlet;
#X obj 790 375 list length;
#X obj 1015 538 array size \$0-data;
#X obj 767 423 array set \$0-data;
#X obj 1014 567 array define \$0-data;
#X obj 348 227 counter;
#X obj 790 399 s \$0-seq-length;
#X obj 1015 514 r \$0-seq-length;
#X obj 374 109 r \$0-seq-length;
#X obj 192 669 outlet;
#X obj 348 549 array get \$0-data 0 1;
#X obj 767 327 t l l b;
#X obj 968 165 dispatch \$0 sequence;
#X obj 767 303 r \$0-sequence;
#X obj 968 309 dispatch \$0 reset;
#X obj 813 351 s \$0-reset;
#X obj 560 209 delay;
#X obj 968 213 dispatch \$0 repeats 0;
#X obj 968 189 dispatch \$0 time 50;
#X obj 968 237 dispatch \$0 pause 0;
#X obj 968 261 dispatch \$0 start;
#X obj 968 285 dispatch \$0 stop;
#X obj 414 260 bng 15 250 50 0 empty empty empty 17 7 0 10 -262144
-1 -1;
#X obj 561 136 *;
#X obj 579 88 r \$0-time;
#X obj 579 112 max 1;
#X obj 348 573 t f b;
#X obj 450 330 counter;
#X obj 405 155 r \$0-reset;
#X obj 513 357 r \$0-repeats;
#X obj 455 419 sel 1;
#X obj 452 459 bng 15 250 50 0 empty empty empty 17 7 0 10 -262144
-1 -1;
#X floatatom 408 363 5 0 0 0 - - -;
#X obj 516 421 tgl 15 0 empty empty empty 17 7 0 10 -262144 -1 -1 1
1;
#X obj 455 395 >;
#X floatatom 282 325 5 0 0 0 - - -;
#X obj 364 620 +;
#X msg 403 588 0;
#X obj 483 462 bng 15 250 50 0 empty empty empty 17 7 0 10 -262144
-1 -1;
#X obj 513 483 r \$0-pause;
#X obj 495 507 f;
#X floatatom 379 739 5 0 0 0 - - -;
#X obj 412 638 t b;
#X msg 538 561 1;
#X obj 441 690 spigot;
#X msg 485 599 0;
#X obj 405 179 t b b b b;
#X obj 560 233 t b;
#X obj 561 64 r \$0-retrig;
#X obj 441 714 s \$0-retrig;
#X obj 800 577 r \$0-start;
#X obj 800 601 t b b;
#X obj 832 625 s \$0-reset;
#X obj 800 649 s \$0-retrig;
#X msg 800 625 0;
#X connect 0 0 12 0;
#X connect 1 0 6 0;
#X connect 5 0 10 0;
#X connect 5 0 35 0;
#X connect 5 1 22 0;
#X connect 7 0 2 0;
#X connect 8 0 5 1;
#X connect 10 0 26 0;
#X connect 11 0 3 0;
#X connect 11 1 1 0;
#X connect 11 2 15 0;
#X connect 12 0 18 0;
#X connect 13 0 11 0;
#X connect 16 0 47 0;
#X connect 17 0 19 0;
#X connect 18 0 17 0;
#X connect 19 0 20 0;
#X connect 20 0 21 0;
#X connect 21 0 14 0;
#X connect 22 0 27 0;
#X connect 23 0 16 0;
#X connect 24 0 25 0;
#X connect 25 0 23 1;
#X connect 26 0 36 0;
#X connect 26 0 9 0;
#X connect 27 0 32 0;
#X connect 27 0 34 0;
#X connect 28 0 46 0;
#X connect 29 0 34 1;
#X connect 30 0 31 0;
#X connect 30 1 38 0;
#X connect 31 0 45 0;
#X connect 34 0 30 0;
#X connect 34 0 33 0;
#X connect 36 0 42 0;
#X connect 36 0 44 0;
#X connect 37 0 36 1;
#X connect 38 0 40 0;
#X connect 39 0 40 1;
#X connect 40 0 36 1;
#X connect 42 0 37 0;
#X connect 43 0 44 1;
#X connect 44 0 41 0;
#X connect 44 0 49 0;
#X connect 45 0 44 1;
#X connect 46 0 37 0;
#X connect 46 1 5 2;
#X connect 46 2 27 2;
#X connect 46 3 43 0;
#X connect 47 0 5 0;
#X connect 48 0 23 0;
#X connect 50 0 51 0;
#X connect 51 0 54 0;
#X connect 51 1 52 0;
#X connect 54 0 53 0;
