#N canvas 1496 277 940 647 12;
#X obj 268 201 rhythm-player;
#X obj 471 79 loadbang;
#X msg 113 104 start;
#X msg 169 46 stop;
#X msg 471 103 time 100;
#X obj 268 225 print value;
#X msg 237 101 sequence 5 7 2;
#X msg 575 98 repeats 2;
#X msg 657 99 pause 0;
#X connect 0 0 5 0;
#X connect 1 0 4 0;
#X connect 2 0 0 0;
#X connect 3 0 0 0;
#X connect 4 0 0 0;
#X connect 6 0 0 0;
#X connect 7 0 0 0;
#X connect 8 0 0 0;
#X coords 0 647 1 646 85 60 0;
