#N canvas 529 296 1303 858 12;
#X obj 339 49 inlet;
#X obj 428 394 sampleplayer;
#X obj 339 204 s \$0-to-sampler;
#X obj 393 324 r \$0-to-sampler;
#X obj 428 418 outlet~;
#X obj 339 97 dispatch \$0 start;
#X obj 631 249 r \$0-start;
#X msg 592 320 start;
#X obj 772 360 delay 1000;
#X msg 767 424 stop;
#X floatatom 865 361 5 0 0 0 - - -;
#X obj 868 232 * 1000;
#X obj 339 73 route vox;
#X obj 339 121 dispatch \$0 duration;
#X obj 868 160 r \$0-duration;
#X obj 868 184 * 5;
#X obj 868 208 + 0.3;
#X connect 0 0 12 0;
#X connect 1 0 4 0;
#X connect 3 0 1 0;
#X connect 5 0 13 0;
#X connect 6 0 7 0;
#X connect 6 0 8 0;
#X connect 7 0 1 0;
#X connect 8 0 9 0;
#X connect 9 0 1 0;
#X connect 11 0 8 1;
#X connect 11 0 10 0;
#X connect 12 0 5 0;
#X connect 13 0 2 0;
#X connect 14 0 15 0;
#X connect 15 0 16 0;
#X connect 16 0 11 0;
