#N canvas 547 37 1361 1306 12;
#X obj 208 124 8step-chance-seq;
#A saved 8 100 59.596 40.404 88.8889 42.4242 75.7576 42.4242 76.7677
;
#X obj 1055 223 randish-source;
#A saved 3.7 -0.7 0.228571;
#X obj 68 708 quantiser;
#A saved 1 1 0 1 0 1 1 0 1 0 1 0;
#X obj 70 469 note-scaler;
#X obj 1224 248 ratchet;
#A saved 4 73.2283 109.489;
#X obj 699 47 global-transport;
#A saved 80 1;
#X obj 68 139 turing-machine;
#X obj 35 67 clock;
#A saved 80 3;
#X obj 35 39 r control;
#X obj 714 99 s control;
#X obj 209 58 clock;
#A saved 80 2;
#X obj 209 30 r control;
#X obj 1106 542 quantiser;
#A saved 1 0 0 1 0 1 1 0 0 0 1 0;
#X obj 1060 303 snapshot~;
#X obj 1060 329 note-scaler;
#X obj 967 104 rhythm-gen;
#A saved 1 0.5 0.2 0.7 0.5 0 0 0 0 80 1;
#X obj 966 61 r control;
#X obj 1039 942 simple-volume;
#X obj 1056 1195 dac~;
#X obj 68 864 karplus-strong-synth;
#A saved 3 26.1745 4116.52 425.996 16.4682 0.100671;
#X obj 68 834 mtof;
#X obj 68 1020 s~ mixer1;
#X obj 1039 912 r~ mixer1;
#X obj 160 372 f;
#X obj 1121 941 simple-volume;
#X obj 1121 911 r~ mixer2;
#X obj 1107 699 karplus-strong-synth;
#A saved 3 142.953 4392.15 1175.89 10 0.0738255;
#X obj 1107 669 mtof;
#X obj 1107 855 s~ mixer2;
#X obj 1011 1061 millerverb;
#X obj 488 250 8step-chance-seq;
#A saved 8 25.2525 0 89.899 0 44.4444 0 77.7778 0;
#X obj 561 768 quantiser;
#A saved 1 0 0 1 0 1 1 0 0 0 1 0;
#X obj 563 529 note-scaler;
#X obj 737 260 turing-machine;
#X obj 704 188 clock;
#A saved 80 3;
#X obj 704 160 r control;
#X obj 489 184 clock;
#A saved 80 2;
#X obj 489 156 r control;
#X obj 561 924 karplus-strong-synth;
#A saved 3 106.711 4788.57 1338.63 15.6258 0.100671;
#X obj 561 894 mtof;
#X obj 574 488 f;
#X obj 1204 943 simple-volume;
#X obj 1204 913 r~ mixer3;
#X obj 561 1073 s~ mixer3;
#X text 651 61 GO! ->;
#X connect 0 0 23 0;
#X connect 1 0 13 0;
#X connect 2 0 20 0;
#X connect 3 0 2 0;
#X connect 4 0 13 0;
#X connect 5 0 9 0;
#X connect 6 0 23 1;
#X connect 7 1 6 0;
#X connect 8 0 7 0;
#X connect 10 1 0 0;
#X connect 11 0 10 0;
#X connect 12 0 27 0;
#X connect 13 0 14 0;
#X connect 14 0 12 0;
#X connect 15 1 4 0;
#X connect 16 0 15 0;
#X connect 17 0 29 0;
#X connect 17 1 29 1;
#X connect 19 0 21 0;
#X connect 20 0 19 0;
#X connect 22 0 17 0;
#X connect 23 0 3 0;
#X connect 24 0 29 0;
#X connect 24 1 29 1;
#X connect 25 0 24 0;
#X connect 26 0 28 0;
#X connect 27 0 26 0;
#X connect 29 0 18 0;
#X connect 29 1 18 1;
#X connect 30 0 40 0;
#X connect 31 0 39 0;
#X connect 32 0 31 0;
#X connect 33 0 40 1;
#X connect 34 1 33 0;
#X connect 35 0 34 0;
#X connect 36 1 30 0;
#X connect 37 0 36 0;
#X connect 38 0 43 0;
#X connect 39 0 38 0;
#X connect 40 0 32 0;
#X connect 41 0 29 0;
#X connect 41 1 29 1;
#X connect 42 0 41 0;
