#N canvas 329 41 2067 1364 12;
#X obj 54 208 8step-chance-seq;
#A saved 8 100 59.596 40.404 88.8889 42.4242 75.7576 42.4242 76.7677
;
#X obj 54 490 quantiser;
#A saved 1 0 1 1 0 1 0 1 1 0 1 0 1 0;
#X obj 54 422 note-scaler;
#A saved 0.0641711 4 0 0;
#X obj 462 32 global-transport;
#A saved 120 0;
#X obj 462 100 s control;
#X obj 987 473 quantiser;
#A saved 1 0 1 1 0 1 0 1 1 0 1 0 1 0;
#X obj 987 381 snapshot~;
#X obj 987 405 note-scaler;
#A saved 11.114 4 0 0;
#X obj 887 120 rhythm-gen;
#A saved 1 0.5 0.2 0.7 0.5 0 0 0 0 120 0;
#X obj 887 96 r control;
#X obj 1077 1348 dac~;
#X obj 54 721 karplus-strong-synth;
#A saved 0.00515767 4535.57 715.446 15.2209 1;
#X obj 54 635 mtof;
#X obj 54 398 f;
#X obj 1074 993 simple-volume;
#A saved 0.8 1 0.5;
#X obj 1074 963 r~ mixer2;
#X obj 987 642 karplus-strong-synth;
#A saved 0.0402685 6087.25 601.893 266.263 0.308725;
#X obj 987 618 mtof;
#X obj 576 607 8step-chance-seq;
#A saved 7 25.2525 0 89.899 0 44.4444 0 77.7778 0;
#X obj 576 891 quantiser;
#A saved 1 0 0 1 0 1 0 0 1 0 1 0 1 0;
#X obj 576 823 note-scaler;
#A saved 0.106543 2 2 0;
#X obj 300 190 turing-machine;
#A saved 787.5 7 1;
#X obj 576 1060 karplus-strong-synth;
#A saved 0.95302 5128.86 270.633 13.0024 1;
#X obj 576 1036 mtof;
#X obj 576 799 f;
#X obj 1157 995 simple-volume;
#A saved 0.8 1 0.5;
#X obj 1162 949 r~ mixer3;
#X text 414 46 GO! ->;
#X obj 987 885 s~ mixer3;
#X obj 576 1209 s~ mixer2;
#X obj 1366 233 rhythm-gen;
#A saved 2 0.5 0.2 0.7 0.5 1 0.333 0 0 120 0;
#X obj 1366 209 r control;
#X obj 1650 183 turing-machine;
#A saved 200 7 1;
#X obj 1611 110 clock;
#A saved 120 1 0.5;
#X obj 1611 82 r control;
#X obj 1453 456 f;
#X obj 1453 480 note-scaler;
#A saved 0.0541932 3 0 0;
#X obj 1453 548 quantiser;
#A saved 1 0 0 1 0 1 0 0 1 0 0 0 1 0;
#X obj 1467 973 simple-fm-synth;
#A saved 4.00254 482.095 96.1024 1597.1 1.65589 3.11043 51.6693 1597.1
0.988343 0.178909 1.5;
#X obj 1250 995 simple-volume;
#A saved 0.8 1 0.5;
#X obj 1250 965 r~ mixer4;
#X obj 1467 1165 s~ mixer4;
#X obj 583 32 dsp-control;
#A saved 1;
#X obj 1126 211 ratchet-ui;
#A saved 0.666667 4 125;
#X obj 1247 67 r control;
#X obj 1247 91 route bpm;
#X msg 1247 139 60000 \$1;
#X obj 1247 163 /;
#X msg 1247 187 interval \$1;
#X obj 1247 115 * 4;
#X obj 1033 1208 rev3-ui;
#A saved 0.370079 84.252 4727.17 55.9055;
#X obj 518 76 s clock;
#X obj 54 184 r clock;
#X obj 576 549 clock;
#A saved 120 1 0.5;
#X obj 576 525 r control;
#X obj 300 146 clock;
#A saved 120 1 0.5;
#X obj 300 122 r control;
#X obj 1467 949 pack f f;
#X obj 1467 925 makenote 80 250;
#X obj 840 247 noise-source;
#A saved 0.682252 3.54497;
#X obj 1478 756 ==;
#X obj 1455 713 t f f f;
#X obj 1478 826 f;
#X obj 1478 780 sel 0 1;
#X obj 1518 852 + 12;
#X obj 1518 826 f;
#X obj 1526 889 bng 15 250 50 0 empty empty empty 17 7 0 10 -262144
-1 -1;
#X obj 788 582 turing-machine;
#A saved 700 7 1;
#X obj 788 538 clock;
#A saved 120 1 0.5;
#X obj 788 514 r control;
#X obj 54 659 bernoulli-gate-ui;
#A saved 0.56;
#X obj 136 944 s~ mixer1-r;
#X obj 222 944 s~ mixer1-l;
#X obj 283 721 karplus-strong-synth;
#A saved 0.00515767 4946.31 495.542 17.8178 1;
#X obj 879 960 r~ mixer1-r;
#X obj 949 983 r~ mixer1-l;
#X obj 54 870 e_pan 0.25;
#X obj 283 870 e_pan 0.75;
#X obj 311 636 snapshot~;
#X obj 290 496 noise-source;
#A saved 0.172727 3.12169;
#X msg 311 684 damping \$1;
#X obj 331 588 clock;
#A saved 120 1 0.5;
#X obj 331 564 r control;
#X obj 311 660 * 0.01;
#X floatatom 413 667 5 0 0 0 - - -;
#X obj 995 1029 stereo-volume;
#A saved 0.8 1;
#X floatatom 1647 424 5 0 0 0 - - -;
#X floatatom 1394 560 5 0 0 0 - - -;
#X floatatom 2 507 5 0 0 0 - - -;
#X obj 1005 794 noise-source;
#A saved 0.529013 3.75661;
#X obj 987 860 *~;
#X connect 0 0 13 0;
#X connect 1 0 12 0;
#X connect 2 0 1 0;
#X connect 2 0 88 0;
#X connect 3 0 4 0;
#X connect 3 1 51 0;
#X connect 5 0 17 0;
#X connect 6 0 7 0;
#X connect 7 0 5 0;
#X connect 8 1 43 0;
#X connect 9 0 8 0;
#X connect 11 0 76 0;
#X connect 12 0 70 0;
#X connect 13 0 2 0;
#X connect 14 0 50 0;
#X connect 14 1 50 1;
#X connect 15 0 14 0;
#X connect 16 0 90 0;
#X connect 17 0 16 0;
#X connect 18 0 24 0;
#X connect 19 0 23 0;
#X connect 20 0 19 0;
#X connect 21 0 13 1;
#X connect 22 0 29 0;
#X connect 23 0 22 0;
#X connect 24 0 20 0;
#X connect 25 0 50 0;
#X connect 25 1 50 1;
#X connect 26 0 25 0;
#X connect 30 1 35 0;
#X connect 31 0 30 0;
#X connect 32 0 35 1;
#X connect 32 0 86 0;
#X connect 33 1 32 0;
#X connect 34 0 33 0;
#X connect 35 0 36 0;
#X connect 36 0 37 0;
#X connect 36 0 87 0;
#X connect 37 0 61 0;
#X connect 38 0 41 0;
#X connect 39 0 50 0;
#X connect 39 1 50 1;
#X connect 40 0 39 0;
#X connect 43 0 6 0;
#X connect 43 1 6 0;
#X connect 44 0 45 0;
#X connect 45 0 49 0;
#X connect 46 0 47 0;
#X connect 47 0 48 0;
#X connect 48 0 43 1;
#X connect 49 0 46 0;
#X connect 50 0 10 0;
#X connect 50 1 10 1;
#X connect 52 0 0 0;
#X connect 53 1 18 0;
#X connect 54 0 53 0;
#X connect 55 1 21 0;
#X connect 56 0 55 0;
#X connect 57 0 38 0;
#X connect 58 0 57 0;
#X connect 58 1 57 1;
#X connect 59 0 6 0;
#X connect 60 0 63 0;
#X connect 61 0 60 1;
#X connect 61 1 60 0;
#X connect 61 2 62 1;
#X connect 61 2 65 1;
#X connect 62 0 58 0;
#X connect 63 0 62 0;
#X connect 63 1 65 0;
#X connect 64 0 58 0;
#X connect 64 0 66 0;
#X connect 65 0 64 0;
#X connect 67 0 24 1;
#X connect 68 1 67 0;
#X connect 69 0 68 0;
#X connect 70 0 11 0;
#X connect 70 1 73 0;
#X connect 73 0 77 0;
#X connect 74 0 85 0;
#X connect 75 0 85 1;
#X connect 76 0 71 0;
#X connect 76 1 72 0;
#X connect 77 0 71 0;
#X connect 77 1 72 0;
#X connect 78 0 83 0;
#X connect 79 0 78 0;
#X connect 80 0 11 5;
#X connect 80 0 73 5;
#X connect 81 1 78 0;
#X connect 82 0 81 0;
#X connect 83 0 80 0;
#X connect 83 0 84 0;
#X connect 85 0 50 0;
#X connect 85 1 50 1;
#X connect 89 0 90 1;
#X connect 90 0 28 0;
