#N canvas 280 271 1257 752 10;
#X obj 366 24 inlet~;
#N canvas 170 51 450 300 reverberator-1 0;
#X obj 134 108 inlet~;
#X obj 204 109 inlet~;
#X obj 134 153 +~;
#X obj 189 152 -~;
#X obj 134 204 outlet~;
#X obj 186 223 outlet~;
#X obj 189 174 delwrite~ \$0-echo1 5.43216;
#X obj 186 201 delread~ \$0-echo1 5.43216;
#X connect 0 0 2 0;
#X connect 0 0 3 0;
#X connect 1 0 3 1;
#X connect 1 0 2 1;
#X connect 2 0 4 0;
#X connect 3 0 6 0;
#X connect 7 0 5 0;
#X restore 366 57 pd reverberator-1;
#N canvas 0 22 450 300 reverberator-2 0;
#X obj 134 108 inlet~;
#X obj 204 109 inlet~;
#X obj 134 153 +~;
#X obj 189 152 -~;
#X obj 134 204 outlet~;
#X obj 186 223 outlet~;
#X obj 186 201 delread~ \$0-echo2 8.45346;
#X obj 189 174 delwrite~ \$0-echo2 8.45346;
#X connect 0 0 2 0;
#X connect 0 0 3 0;
#X connect 1 0 3 1;
#X connect 1 0 2 1;
#X connect 2 0 4 0;
#X connect 3 0 7 0;
#X connect 6 0 5 0;
#X restore 366 93 pd reverberator-2;
#N canvas 0 22 450 300 reverberator-3 0;
#X obj 134 108 inlet~;
#X obj 204 109 inlet~;
#X obj 134 153 +~;
#X obj 189 152 -~;
#X obj 134 204 outlet~;
#X obj 186 223 outlet~;
#X obj 186 201 delread~ \$0-echo3 13.4367;
#X obj 189 174 delwrite~ \$0-echo3 13.4367;
#X connect 0 0 2 0;
#X connect 0 0 3 0;
#X connect 1 0 3 1;
#X connect 1 0 2 1;
#X connect 2 0 4 0;
#X connect 3 0 7 0;
#X connect 6 0 5 0;
#X restore 366 124 pd reverberator-3;
#N canvas 0 22 450 300 reverberator-4 0;
#X obj 134 108 inlet~;
#X obj 204 109 inlet~;
#X obj 134 153 +~;
#X obj 189 152 -~;
#X obj 134 204 outlet~;
#X obj 186 223 outlet~;
#X obj 189 174 delwrite~ \$0-echo4 21.5463;
#X obj 186 200 delread~ \$0-echo4 21.5463;
#X connect 0 0 2 0;
#X connect 0 0 3 0;
#X connect 1 0 3 1;
#X connect 1 0 2 1;
#X connect 2 0 4 0;
#X connect 3 0 6 0;
#X connect 7 0 5 0;
#X restore 366 156 pd reverberator-4;
#N canvas 0 22 450 300 reverberator-5 0;
#X obj 134 108 inlet~;
#X obj 204 109 inlet~;
#X obj 134 153 +~;
#X obj 189 152 -~;
#X obj 134 204 outlet~;
#X obj 186 223 outlet~;
#X obj 189 174 delwrite~ \$0-echo5 34.3876;
#X obj 186 201 delread~ \$0-echo5 34.3876;
#X connect 0 0 2 0;
#X connect 0 0 3 0;
#X connect 1 0 3 1;
#X connect 1 0 2 1;
#X connect 2 0 4 0;
#X connect 3 0 6 0;
#X connect 7 0 5 0;
#X restore 366 185 pd reverberator-5;
#N canvas 0 22 450 300 reverberator-6 0;
#X obj 134 108 inlet~;
#X obj 204 109 inlet~;
#X obj 134 153 +~;
#X obj 189 152 -~;
#X obj 134 204 outlet~;
#X obj 186 223 outlet~;
#X obj 189 174 delwrite~ \$0-echo6 55.5437;
#X obj 186 200 delread~ \$0-echo6 55.5437;
#X connect 0 0 2 0;
#X connect 0 0 3 0;
#X connect 1 0 3 1;
#X connect 1 0 2 1;
#X connect 2 0 4 0;
#X connect 3 0 6 0;
#X connect 7 0 5 0;
#X restore 366 217 pd reverberator-6;
#X obj 366 340 +~;
#X obj 465 340 +~;
#X obj 366 421 +~;
#X obj 410 421 -~;
#X obj 465 421 +~;
#X obj 482 459 -~;
#X obj 366 459 +~;
#X obj 410 459 +~;
#X obj 497 421 -~;
#X obj 450 459 -~;
#X obj 410 507 *~;
#X obj 366 507 *~;
#X obj 482 507 *~;
#X obj 450 507 *~;
#X obj 106 131 hsl 128 15 0 127 0 1 \$0-millerverb-reverb-s \$0-millerverb-reverb-r
REVERB 133 7 0 10 -262144 -1 -1 12700 1;
#X obj 366 645 delwrite~ \$0-loop1 60;
#X obj 410 622 delwrite~ \$0-loop2 71.9345;
#X obj 492 147 delread~ \$0-loop1 60;
#X obj 499 179 delread~ \$0-loop2 71.9345;
#X obj 450 595 delwrite~ \$0-loop3 86.754;
#X obj 482 565 delwrite~ \$0-loop4 95.945;
#X obj 553 294 delread~ \$0-loop3 86.754;
#X obj 516 261 delread~ \$0-loop4 95.945;
#X obj 586 353 / 127;
#X obj 222 404 lop~;
#X obj 222 434 lop~;
#X obj 289 404 lop~;
#X obj 289 434 lop~;
#X obj 106 147 hsl 128 15 0 127 0 1 \$0-millerverb-lowpass-s \$0-millerverb-lowpass-r
LOWPASS 133 7 0 10 -262144 -1 -1 12700 1;
#X obj 132 203 / 127;
#X obj 132 247 * 4950;
#X obj 132 269 + 50;
#X obj 132 291 pack 0 50;
#X obj 132 313 line;
#X obj 132 335 t f f f f;
#X obj 222 357 *~ 0.033;
#X obj 289 357 *~ 0.033;
#X obj 106 124 cnv 5 5 5 empty empty MILLERVERB 0 0 0 12 -262144 -66577
0;
#X obj 259 207 cnv 5 5 5 empty empty RIGHT 0 0 0 8 -262144 -66577 0
;
#X obj 257 111 cnv 5 5 5 empty empty LPASS 0 0 0 8 -262144 -66577 0
;
#X obj 104 206 cnv 5 5 5 empty empty LEFT 0 0 0 8 -262144 -66577 0
;
#X obj 106 161 hsl 128 15 0 127 0 1 \$0-millerverb-drywet-s \$0-millerverb-drywet-r
DRY/WET 133 7 0 10 -262144 -1 -1 9700 1;
#X obj 171 495 *~;
#X text 135 495 DRY;
#X obj 4 309 / 127;
#X msg 4 262 127 \$1;
#X obj 4 284 -;
#X obj 4 334 pack 0 50;
#X obj 4 356 line~;
#X obj 65 296 / 127;
#X obj 65 320 pack 0 50;
#X obj 65 342 line~;
#X obj 222 473 *~;
#X obj 289 472 *~;
#X obj 4 221 t f f;
#X obj 656 380 inlet~;
#X obj 656 402 *~ 0.452;
#X obj 586 402 pack 0 50;
#X obj 586 424 line~;
#X obj 586 446 +~;
#X text 654 361 REVERB CV IN;
#X obj 809 153 inlet~;
#X obj 132 225 +;
#X obj 809 184 snapshot~;
#X obj 809 208 t b f;
#X obj 857 153 bang~;
#X obj 586 490 max~ -0.452;
#X obj 103 111 cnv 5 5 5 empty empty IN 0 0 0 8 -262144 -66577 0;
#X obj 178 111 cnv 5 5 5 empty empty REVERB 0 0 0 8 -262144 -66577
0;
#X obj 222 610 *~ 0.5;
#X obj 288 635 *~;
#X obj 221 635 *~;
#X obj 288 675 clip~ -1 1;
#X obj 222 713 outlet~;
#X obj 288 713 outlet~;
#X obj 106 176 hsl 128 15 0 127 0 1 \$0-millerverb-gain-s \$0-millerverb-gain-r
GAIN 133 7 0 10 -262144 -1 -1 9700 1;
#X obj 21 515 r \$0-millerverb-gain-s;
#X obj 21 537 / 127;
#X obj 21 624 pack 0 50;
#X obj 21 646 line~;
#X obj 21 581 + 1;
#X obj 21 559 * 4;
#X obj 290 600 *~ 0.5;
#X obj 180 124 cnv 5 5 5 empty \$0-instance-num 0 0 0 0 12 -262144
-66577 0;
#X obj 221 662 clip~ -1 1;
#X obj 586 377 * 0.5;
#X obj 586 468 min~ 0.452;
#X obj 465 24 inlet~;
#X text 531 19 pulled from the Automationism library by Johan Eriksson
;
#X connect 0 0 1 0;
#X connect 0 0 49 0;
#X connect 1 0 2 0;
#X connect 1 1 2 1;
#X connect 2 0 3 0;
#X connect 2 1 3 1;
#X connect 3 0 4 0;
#X connect 3 1 4 1;
#X connect 4 0 5 0;
#X connect 4 1 5 1;
#X connect 5 0 6 0;
#X connect 5 1 6 1;
#X connect 6 0 7 0;
#X connect 6 1 8 0;
#X connect 7 0 9 0;
#X connect 7 0 10 0;
#X connect 7 0 42 0;
#X connect 8 0 9 1;
#X connect 8 0 10 1;
#X connect 8 0 43 0;
#X connect 9 0 13 0;
#X connect 9 0 16 0;
#X connect 10 0 14 0;
#X connect 10 0 12 0;
#X connect 11 0 13 1;
#X connect 11 0 16 1;
#X connect 12 0 19 0;
#X connect 13 0 18 0;
#X connect 14 0 17 0;
#X connect 15 0 12 1;
#X connect 15 0 14 1;
#X connect 16 0 20 0;
#X connect 17 0 23 0;
#X connect 18 0 22 0;
#X connect 19 0 27 0;
#X connect 20 0 26 0;
#X connect 21 0 30 0;
#X connect 24 0 7 1;
#X connect 25 0 8 1;
#X connect 28 0 11 0;
#X connect 28 0 15 0;
#X connect 29 0 11 1;
#X connect 29 0 15 1;
#X connect 30 0 92 0;
#X connect 31 0 32 0;
#X connect 32 0 59 0;
#X connect 33 0 34 0;
#X connect 34 0 60 0;
#X connect 35 0 36 0;
#X connect 36 0 69 0;
#X connect 37 0 38 0;
#X connect 38 0 39 0;
#X connect 39 0 40 0;
#X connect 40 0 41 0;
#X connect 41 0 31 1;
#X connect 41 1 32 1;
#X connect 41 2 33 1;
#X connect 41 3 34 1;
#X connect 42 0 31 0;
#X connect 43 0 33 0;
#X connect 48 0 61 0;
#X connect 49 0 76 0;
#X connect 49 0 89 0;
#X connect 51 0 54 0;
#X connect 52 0 53 0;
#X connect 53 0 51 0;
#X connect 54 0 55 0;
#X connect 55 0 49 1;
#X connect 56 0 57 0;
#X connect 57 0 58 0;
#X connect 58 0 59 1;
#X connect 58 0 60 1;
#X connect 59 0 76 0;
#X connect 60 0 89 0;
#X connect 61 0 52 0;
#X connect 61 1 56 0;
#X connect 62 0 63 0;
#X connect 63 0 66 1;
#X connect 64 0 65 0;
#X connect 65 0 66 0;
#X connect 66 0 93 0;
#X connect 68 0 70 0;
#X connect 69 0 37 0;
#X connect 70 0 71 0;
#X connect 71 0 69 0;
#X connect 71 1 69 1;
#X connect 72 0 70 0;
#X connect 73 0 19 1;
#X connect 73 0 20 1;
#X connect 73 0 17 1;
#X connect 73 0 18 1;
#X connect 76 0 78 0;
#X connect 77 0 79 0;
#X connect 78 0 91 0;
#X connect 79 0 81 0;
#X connect 83 0 84 0;
#X connect 84 0 88 0;
#X connect 85 0 86 0;
#X connect 86 0 78 1;
#X connect 86 0 77 1;
#X connect 87 0 85 0;
#X connect 88 0 87 0;
#X connect 89 0 77 0;
#X connect 91 0 80 0;
#X connect 92 0 64 0;
#X connect 93 0 73 0;
#X connect 94 0 1 1;
#X coords 0 -1 1 1 185 115 2 100 100;
