#N canvas 57 551 1225 768 12;
#X obj 32 14 notein;
#X obj 32 62 f;
#X obj 32 86 pack f f f;
#X obj 32 38 t b f;
#X obj 32 110 route 49 50 51 52 53;
#X obj 141 134 s kick;
#X obj 114 158 s bass;
#X obj 86 182 s click;
#X obj 59 206 s bleep;
#X obj 32 230 s pulse;
#X obj 285 63 r pulse;
#X obj 28 548 unpack s f;
#X obj 28 716 netsend -u -b;
#X msg 257 659 connect localhost 5510;
#X obj 28 596 f;
#X obj 28 572 t b s;
#X obj 28 644 oscformat;
#X obj 76 596 list prepend set vars;
#X obj 28 668 list prepend send;
#X obj 28 692 list trim;
#X obj 257 635 loadbang;
#X obj 28 524 r out;
#X obj 76 620 list trim;
#X obj 398 159 8seq;
#A saved 0 1 3 1 4 1 0 1 3 1 1 1 0 1 0 1;
#X obj 285 87 unpack f f;
#X obj 352 111 route 0;
#X obj 398 135 t b;
#X msg 352 211 add \$1;
#X obj 352 235 s out;
#X msg 352 135 0;
#X obj 353 334 r bleep;
#X obj 996 496 ctlin 84 50;
#X obj 996 520 print dly;
#X obj 353 358 unpack f f;
#X obj 420 382 route 0;
#X obj 466 406 t b;
#X msg 466 454 mloop 5;
#X msg 582 454 mloop 1;
#X obj 475 518 s out;
#X obj 466 430 bernoulli-gate 0.2;
#X obj 587 487 bng 15 250 50 0 empty empty empty 17 7 0 10 -262144
-1 -1;
#X obj 438 494 bng 15 250 50 0 empty empty empty 17 7 0 10 -262144
-1 -1;
#X obj 973 213 r kick;
#X obj 973 237 route 12 48 49;
#X msg 973 357 glitch 1;
#X msg 1040 357 glitch 0;
#X obj 973 410 s out;
#X obj 125 543 print out;
#X msg 973 285 1;
#X obj 973 261 t b;
#X obj 973 333 mkgate 500;
#X obj 973 309 bernoulli-gate 0.7;
#X obj 110 36 bng 15 250 50 0 empty empty empty 17 7 0 10 -262144 -1
-1;
#X connect 0 0 3 0;
#X connect 0 0 52 0;
#X connect 0 1 2 2;
#X connect 0 2 1 1;
#X connect 1 0 2 0;
#X connect 2 0 4 0;
#X connect 3 0 1 0;
#X connect 3 1 2 1;
#X connect 4 0 9 0;
#X connect 4 1 8 0;
#X connect 4 2 7 0;
#X connect 4 3 6 0;
#X connect 4 4 5 0;
#X connect 10 0 24 0;
#X connect 11 0 15 0;
#X connect 11 1 14 1;
#X connect 13 0 12 0;
#X connect 14 0 16 0;
#X connect 15 0 14 0;
#X connect 15 1 17 0;
#X connect 16 0 18 0;
#X connect 17 0 22 0;
#X connect 18 0 19 0;
#X connect 19 0 12 0;
#X connect 20 0 13 0;
#X connect 21 0 11 0;
#X connect 22 0 16 0;
#X connect 23 0 27 0;
#X connect 24 1 25 0;
#X connect 25 0 29 0;
#X connect 25 1 26 0;
#X connect 26 0 23 0;
#X connect 27 0 28 0;
#X connect 29 0 27 0;
#X connect 30 0 33 0;
#X connect 31 0 32 0;
#X connect 33 1 34 0;
#X connect 34 1 35 0;
#X connect 35 0 39 0;
#X connect 36 0 38 0;
#X connect 36 0 41 0;
#X connect 37 0 38 0;
#X connect 37 0 40 0;
#X connect 39 0 36 0;
#X connect 39 1 37 0;
#X connect 42 0 43 0;
#X connect 43 0 49 0;
#X connect 44 0 46 0;
#X connect 45 0 46 0;
#X connect 48 0 51 0;
#X connect 49 0 48 0;
#X connect 50 0 44 0;
#X connect 50 1 45 0;
#X connect 51 0 50 0;
