#N canvas 838 71 1138 911 12;
#X obj 311 172 sel 1 0;
#X msg 290 255 stop;
#X obj 384 258 timer;
#X obj 520 415 t b f f;
#X obj 608 518 * 44.1;
#X obj 520 528 phasor~;
#X obj 520 569 *~ 1;
#X msg 520 451 1000;
#X obj 520 486 /, f 2;
#X obj 486 313 sel 1 0;
#X obj 520 379 f;
#X msg 464 437 0;
#X obj 456 472 t f f;
#X text 331 132 start/stop recording;
#X text 494 279 start/stop playing;
#X obj 616 186 bng 15 250 50 0 empty empty empty 17 7 0 10 -262144
-1 -1;
#X msg 616 206 0;
#X text 639 181 reset to start;
#X obj 186 349 tabwrite~ bank-\$0;
#X obj 874 232 table bank-\$0 2.646e+06;
#X obj 520 642 tabread~ bank-\$0;
#X obj 141 238 inlet~;
#X obj 316 90 inlet;
#X obj 486 243 inlet;
#X obj 520 685 outlet~;
#X obj 619 82 inlet;
#X obj 618 129 route reset start length;
#X obj 655 427 +~ 0;
#X obj 678 262 min 0.999999;
#X floatatom 686 218 5 0 0 0 - - -;
#X obj 707 367 print;
#X obj 671 301 max 0;
#X connect 0 0 2 0;
#X connect 0 0 18 0;
#X connect 0 1 1 0;
#X connect 0 1 2 1;
#X connect 1 0 18 0;
#X connect 2 0 10 0;
#X connect 3 0 7 0;
#X connect 3 1 8 1;
#X connect 3 2 4 0;
#X connect 4 0 6 1;
#X connect 5 0 6 0;
#X connect 6 0 20 0;
#X connect 7 0 8 0;
#X connect 8 0 5 0;
#X connect 9 0 10 0;
#X connect 9 1 11 0;
#X connect 10 0 3 0;
#X connect 11 0 12 0;
#X connect 12 0 5 0;
#X connect 12 1 5 1;
#X connect 15 0 16 0;
#X connect 16 0 5 1;
#X connect 20 0 24 0;
#X connect 21 0 18 0;
#X connect 22 0 0 0;
#X connect 23 0 9 0;
#X connect 25 0 26 0;
#X connect 26 0 15 0;
#X connect 28 0 31 0;
#X connect 29 0 28 0;
#X connect 31 0 30 0;
